<svg xmlns="http://www.w3.org/2000/svg" xmlns:xlink="http://www.w3.org/1999/xlink" width="58" height="58" viewBox="0 0 58 58">
  <defs>
    <filter id="Ellipse_47" x="0" y="0" width="58" height="58" filterUnits="userSpaceOnUse">
      <feOffset dy="3" input="SourceAlpha"/>
      <feGaussianBlur stdDeviation="3" result="blur"/>
      <feFlood flood-opacity="0.161"/>
      <feComposite operator="in" in2="blur"/>
      <feComposite in="SourceGraphic"/>
    </filter>
  </defs>
  <g id="accompagnement_" data-name="accompagnement " transform="translate(14 10.621)">
    <g transform="matrix(1, 0, 0, 1, -14, -10.62)" filter="url(#Ellipse_47)">
      <circle id="Ellipse_47-2" data-name="Ellipse 47" cx="20" cy="20" r="20" transform="translate(9 6)" fill="#fff"/>
    </g>
    <path id="headphonesalt" d="M17.5,16.25H15.625A.634.634,0,0,1,15,15.625V9.375a.634.634,0,0,1,.625-.625h.625a6.328,6.328,0,0,0-1.611-4.571A6.126,6.126,0,0,0,10,2.5,6.132,6.132,0,0,0,5.361,4.179,6.326,6.326,0,0,0,3.75,8.75h.625A.634.634,0,0,1,5,9.375v6.25a.634.634,0,0,1-.625.625H3.75a2.5,2.5,0,0,0,2.5,2.5H7.5A1.233,1.233,0,0,1,8.75,17.5H10a1.209,1.209,0,0,1,.889.361,1.193,1.193,0,0,1,.361.879,1.233,1.233,0,0,1-.361.889A1.19,1.19,0,0,1,10,20H6.25a3.615,3.615,0,0,1-2.656-1.094A3.619,3.619,0,0,1,2.5,16.25,2.11,2.11,0,0,1,.732,15.156,4.66,4.66,0,0,1,0,12.5a5.031,5.031,0,0,1,.342-1.875A3.391,3.391,0,0,1,1.25,9.277V8.75a8.554,8.554,0,0,1,.693-3.4A8.594,8.594,0,0,1,6.6.693a8.676,8.676,0,0,1,6.8,0,8.816,8.816,0,0,1,2.793,1.865,8.756,8.756,0,0,1,1.865,2.793,8.583,8.583,0,0,1,.693,3.4v.527a3.391,3.391,0,0,1,.908,1.348A5.031,5.031,0,0,1,20,12.5a4.664,4.664,0,0,1-.732,2.656A2.111,2.111,0,0,1,17.5,16.25Z" transform="translate(5 5.379)" fill="#ffae00"/>
  </g>
</svg>
