<svg xmlns="http://www.w3.org/2000/svg" xmlns:xlink="http://www.w3.org/1999/xlink" width="88" height="88" viewBox="0 0 88 88">
  <defs>
    <filter id="Ellipse_51" x="0" y="0" width="88" height="88" filterUnits="userSpaceOnUse">
      <feOffset dy="3" input="SourceAlpha"/>
      <feGaussianBlur stdDeviation="3" result="blur"/>
      <feFlood flood-opacity="0.161"/>
      <feComposite operator="in" in2="blur"/>
      <feComposite in="SourceGraphic"/>
    </filter>
  </defs>
  <g id="cybersécurisé" transform="translate(-186 -1401)">
    <g transform="matrix(1, 0, 0, 1, 186, 1401)" filter="url(#Ellipse_51)">
      <circle id="Ellipse_51-2" data-name="Ellipse 51" cx="35" cy="35" r="35" transform="translate(9 6)" fill="#fff"/>
    </g>
    <g id="Groupe" transform="translate(215.923 1424.261)">
      <path id="Tracé_1256" data-name="Tracé 1256" d="M22.46,46.334l4.233,1.832,3.016-1.321A17.16,17.16,0,0,0,40,31.133l-.155-13.5L26.575,14.176l-13.5,3.608.155,14.524A15.291,15.291,0,0,0,22.46,46.334" transform="translate(-12.436 -13.485)" fill="#9fbecf"/>
      <path id="Tracé_1257" data-name="Tracé 1257" d="M60.4,82.082,64.046,83.7l2.6-1.166A15.175,15.175,0,0,0,75.51,68.656l-.133-11.927L63.952,53.806,52.316,56.865l.133,12.828A13.52,13.52,0,0,0,60.4,82.082" transform="translate(-49.768 -51.185)" fill="#0998ea"/>
      <path id="Tracé_1258" data-name="Tracé 1258" d="M63.952,53.806l.167.043V83.667l-.074.033L60.4,82.082a13.52,13.52,0,0,1-7.951-12.389l-.133-12.828Z" transform="translate(-49.768 -51.185)" fill="#38b5fd"/>
      <path id="Tracé_1259" data-name="Tracé 1259" d="M14.237,35.477a.107.107,0,0,1-.043-.009L9.8,33.568A15.964,15.964,0,0,1,.16,18.918L0,3.852a.107.107,0,0,1,.08-.1L14.087,0a.108.108,0,0,1,.055,0L27.912,3.587a.107.107,0,0,1,.08.1L28.153,17.7A17.914,17.914,0,0,1,17.409,34.1l-3.129,1.37a.108.108,0,0,1-.043.009M.216,3.933l.16,14.984A15.75,15.75,0,0,0,9.888,33.371l4.348,1.882L17.323,33.9A17.7,17.7,0,0,0,27.938,17.7l-.16-13.926L14.115.219Z" transform="translate(0 0)" fill="#0998ea"/>
      <path id="Tracé_1260" data-name="Tracé 1260" d="M169.175,281.035v4.8a6.158,6.158,0,0,0,12.316,0v-4.8Zm4.746,3.808a1.412,1.412,0,1,1,1.9,1.322v2.6h-.983v-2.6a1.411,1.411,0,0,1-.92-1.322" transform="translate(-160.934 -267.345)" fill="#fff"/>
      <path id="Tracé_1262" data-name="Tracé 1262" d="M191.963,145.547a.107.107,0,0,1-.107-.107,5.372,5.372,0,0,0-10.744,0,.107.107,0,1,1-.215,0,5.587,5.587,0,0,1,11.174,0,.107.107,0,0,1-.107.107" transform="translate(-172.085 -133.041)" fill="#f6f8f9"/>
    </g>
  </g>
</svg>
