<svg xmlns="http://www.w3.org/2000/svg" xmlns:xlink="http://www.w3.org/1999/xlink" width="88" height="88" viewBox="0 0 88 88">
  <defs>
    <filter id="Ellipse_47" x="0" y="0" width="88" height="88" filterUnits="userSpaceOnUse">
      <feOffset dy="3" input="SourceAlpha"/>
      <feGaussianBlur stdDeviation="3" result="blur"/>
      <feFlood flood-opacity="0.161"/>
      <feComposite operator="in" in2="blur"/>
      <feComposite in="SourceGraphic"/>
    </filter>
    <clipPath id="clip-path">
      <rect id="Rectangle" width="29.242" height="29.621" fill="none"/>
    </clipPath>
  </defs>
  <g id="Data-center" transform="translate(29 25.621)">
    <g transform="matrix(1, 0, 0, 1, -29, -25.62)" filter="url(#Ellipse_47)">
      <circle id="Ellipse_47-2" data-name="Ellipse 47" cx="35" cy="35" r="35" transform="translate(9 6)" fill="#fff"/>
    </g>
    <rect id="Rectangle-2" data-name="Rectangle" width="1.559" height="24.589" transform="translate(14.221 5.274)" fill="#546d7b"/>
    <rect id="Rectangle-3" data-name="Rectangle" width="30" height="1.558" transform="translate(0 28.305)" fill="#546d7b"/>
    <rect id="Rectangle-4" data-name="Rectangle" width="6.548" height="2.59" transform="translate(11.726 27.788)" fill="#9fbecf"/>
    <g id="Groupe" transform="translate(0.379 0.379)" clip-path="url(#clip-path)">
      <path id="Tracé_1089" data-name="Tracé 1089" d="M27.235,6.819H2.746A2.775,2.775,0,0,1,0,4.016V2.8A2.775,2.775,0,0,1,2.746,0H27.235a2.775,2.775,0,0,1,2.746,2.8V4.016a2.775,2.775,0,0,1-2.746,2.8" transform="translate(-0.369 -0.374)" fill="#38b5fd"/>
      <path id="Tracé_1090" data-name="Tracé 1090" d="M31.072,4.245V3.032a2.8,2.8,0,0,0-1.5-2.484L2.533,6.7a2.673,2.673,0,0,0,1.3.35H28.326a2.775,2.775,0,0,0,2.746-2.8" transform="translate(-1.46 -0.604)" fill="#0998ea"/>
      <path id="Tracé_1091" data-name="Tracé 1091" d="M6.878,4.726A1.549,1.549,0,1,1,5.329,3.145,1.566,1.566,0,0,1,6.878,4.726" transform="translate(-1.997 -1.691)" fill="#fff"/>
      <rect id="Rectangle-5" data-name="Rectangle" width="1.244" height="3.718" transform="translate(18.651 1.176)" fill="#546d7b"/>
      <rect id="Rectangle-6" data-name="Rectangle" width="1.244" height="3.718" transform="translate(22.075 1.176)" fill="#546d7b"/>
      <rect id="Rectangle-7" data-name="Rectangle" width="1.244" height="3.718" transform="translate(25.499 1.176)" fill="#546d7b"/>
      <path id="Tracé_1092" data-name="Tracé 1092" d="M27.235,21.282H2.746A2.775,2.775,0,0,1,0,18.479V17.266a2.775,2.775,0,0,1,2.746-2.8H27.235a2.775,2.775,0,0,1,2.746,2.8v1.213a2.775,2.775,0,0,1-2.746,2.8" transform="translate(-0.369 -6.43)" fill="#38b5fd"/>
      <path id="Tracé_1093" data-name="Tracé 1093" d="M31.072,18.709V17.5a2.8,2.8,0,0,0-1.5-2.484L2.533,21.162a2.673,2.673,0,0,0,1.3.35H28.326a2.775,2.775,0,0,0,2.746-2.8" transform="translate(-1.46 -6.66)" fill="#0998ea"/>
      <path id="Tracé_1094" data-name="Tracé 1094" d="M6.878,19.19a1.549,1.549,0,1,1-1.549-1.582A1.566,1.566,0,0,1,6.878,19.19" transform="translate(-1.997 -7.747)" fill="#fff"/>
      <rect id="Rectangle-8" data-name="Rectangle" width="1.244" height="3.718" transform="translate(18.651 9.583)" fill="#546d7b"/>
      <rect id="Rectangle-9" data-name="Rectangle" width="1.244" height="3.718" transform="translate(22.075 9.583)" fill="#546d7b"/>
      <rect id="Rectangle-10" data-name="Rectangle" width="1.244" height="3.718" transform="translate(25.499 9.583)" fill="#546d7b"/>
      <path id="Tracé_1095" data-name="Tracé 1095" d="M27.235,35.745H2.746A2.775,2.775,0,0,1,0,32.942V31.729a2.775,2.775,0,0,1,2.746-2.8H27.235a2.775,2.775,0,0,1,2.746,2.8v1.213a2.775,2.775,0,0,1-2.746,2.8" transform="translate(-0.369 -12.486)" fill="#38b5fd"/>
      <path id="Tracé_1096" data-name="Tracé 1096" d="M31.072,33.172V31.959a2.8,2.8,0,0,0-1.5-2.484L2.533,35.625a2.673,2.673,0,0,0,1.3.35H28.326a2.775,2.775,0,0,0,2.746-2.8" transform="translate(-1.46 -12.716)" fill="#0998ea"/>
      <path id="Tracé_1097" data-name="Tracé 1097" d="M6.878,33.653a1.549,1.549,0,1,1-1.549-1.581,1.566,1.566,0,0,1,1.549,1.581" transform="translate(-1.997 -13.803)" fill="#fff"/>
      <rect id="Rectangle-11" data-name="Rectangle" width="1.244" height="3.718" transform="translate(18.651 17.99)" fill="#546d7b"/>
      <rect id="Rectangle-12" data-name="Rectangle" width="1.244" height="3.718" transform="translate(22.075 17.99)" fill="#546d7b"/>
      <rect id="Rectangle-13" data-name="Rectangle" width="1.244" height="3.718" transform="translate(25.499 17.99)" fill="#546d7b"/>
    </g>
  </g>
</svg>
