<svg xmlns="http://www.w3.org/2000/svg" width="45" height="100" viewBox="0 0 45 100">
  <g id="femme-pouce" transform="translate(-70.754 -78.639)">
    <g id="femme" transform="translate(70.754 112.73)">
      <g id="bras_d" data-name="bras d" transform="translate(26.252 0.522)">
        <path id="Tracé" d="M289.748,337.012a1.013,1.013,0,0,1-.09-.089.391.391,0,0,1-.075-.469c.329-.469,1.087.4.966-.409-.033-.222-.915-1.28-.83-1.4a1.315,1.315,0,0,1,1.955-.252,3.016,3.016,0,0,1,.537,1.454c.126.748.138,1.515.293,2.257a.314.314,0,0,1,0,.206.351.351,0,0,1-.16.132c-.456.243-1.146.68-1.632.265a.53.53,0,0,1-.132-.226l-.267-.706a1.556,1.556,0,0,0-.269-.509A3.552,3.552,0,0,0,289.748,337.012Z" transform="translate(-285.276 -334.06)" fill="#3f8fb9"/>
        <path id="Tracé-2" data-name="Tracé" d="M268.209,366.5c-.1-.331-.221-.683-.329-1.086-.131-.486-1.267-5.912-1.276-5.91a14.634,14.634,0,0,1-2.9.548l.85,4.515c.495,2.628.192,4.785-2.132,6.254-.922.583-1.934,1-2.9,1.5a1.031,1.031,0,0,0-.41.315,1.116,1.116,0,0,0-.033.868,28.986,28.986,0,0,0,1.876,5.382,26.282,26.282,0,0,0,1.472,2.473c.1.163.226.347.41.34s.306-.213.385-.392l3.533-8.087C267.7,371.061,268.966,368.92,268.209,366.5Z" transform="translate(-259.008 -355.955)" fill="#3f8fb9"/>
      </g>
      <g id="bras_g" data-name="bras g" transform="translate(13.102)">
        <path id="Tracé-3" data-name="Tracé" d="M188.061,333.357a1.015,1.015,0,0,0,.1-.081.391.391,0,0,0,.114-.46c-.288-.5-1.117.312-.929-.488.051-.218,1.019-1.2.943-1.324a1.315,1.315,0,0,0-1.927-.414,3.018,3.018,0,0,0-.657,1.4c-.188.735-.264,1.5-.48,2.225a.314.314,0,0,0-.014.206.352.352,0,0,0,.149.145c.434.28,1.086.773,1.6.4a.529.529,0,0,0,.15-.214l.324-.681a1.559,1.559,0,0,1,.311-.485A3.584,3.584,0,0,1,188.061,333.357Z" transform="translate(-182.338 -330.315)" fill="#62a6c9"/>
        <path id="Tracé-4" data-name="Tracé" d="M165.079,361.352c.131-.321.277-.662.419-1.055.171-.473,1.757-5.785,1.766-5.782a14.628,14.628,0,0,0,2.843.789l-1.225,4.428c-.713,2.577-.591,4.752,1.6,6.411.87.658,1.844,1.154,2.765,1.735a1.03,1.03,0,0,1,.382.348,1.116,1.116,0,0,1-.039.868,28.983,28.983,0,0,1-2.32,5.206,26.294,26.294,0,0,1-1.674,2.342c-.109.154-.254.326-.437.3s-.288-.238-.35-.423l-2.844-8.354C165.209,365.941,164.122,363.7,165.079,361.352Z" transform="translate(-164.704 -351.14)" fill="#62a6c9"/>
      </g>
      <path id="Tracé-5" data-name="Tracé" d="M183.8,441.978a5.026,5.026,0,0,0-1.811.006,4.19,4.19,0,0,0-2.028,1.327,14.566,14.566,0,0,0-2.728,5.124,66.216,66.216,0,0,0-2.023,6.871,26.441,26.441,0,0,0-.864,8.766,1.15,1.15,0,0,0,.173.583,1.08,1.08,0,0,0,.615.334,15.8,15.8,0,0,0,2.833.4q5.378.425,10.764.736a1.006,1.006,0,0,0,.609-.093,1.041,1.041,0,0,0,.353-.75,43.239,43.239,0,0,0,.551-7.3c-.019-2-.177-4-.336-5.99q-.183-2.314-.367-4.628a8.609,8.609,0,0,0-.563-2.875C188.066,442.455,185.723,442.228,183.8,441.978Z" transform="translate(-159.821 -426.337)" fill="#62a6c9"/>
      <g id="bas" transform="translate(0 41.001)">
        <path id="Tracé-6" data-name="Tracé" d="M72.99,718.273a1.428,1.428,0,0,1-.715.794c-.354.106-.731-.086-1.081.125a.971.971,0,0,0-.329.386.739.739,0,0,0-.111.363.867.867,0,0,0,.311.537,3.745,3.745,0,0,0,.745.642,3.039,3.039,0,0,0,1.619.327c.47-.007.915.043,1.234-.393a1.829,1.829,0,0,0,.2-.438,4.565,4.565,0,0,1,.615-1.109l-2.323-1.592C73.109,718.021,73.054,718.145,72.99,718.273Z" transform="translate(-70.754 -704.866)" fill="#131313"/>
        <path id="Tracé-7" data-name="Tracé" d="M96.246,624.332l-5.07,6.171-4.462,7.609,1.984,1.126,5.63-6.407,3.921-3.6Z" transform="translate(-84.489 -624.332)" fill="#f4cda2"/>
      </g>
      <g id="bas-2" data-name="bas" transform="translate(19.341 4.51)">
        <g id="tete">
          <path id="Tracé-8" data-name="Tracé" d="M218.522,363.63a8.251,8.251,0,0,0-2.355-.806,6.627,6.627,0,0,0-2.1-.133,4.439,4.439,0,0,0-2.9,1.632,8.174,8.174,0,0,0-1.367,3.711,19.263,19.263,0,0,0-.345,2.949,7.926,7.926,0,0,0,.063,1.448c.069.417.314.506.688.7A14.458,14.458,0,0,0,216,374.443a4.107,4.107,0,0,0,1.939-.161c.706-.323,1.471-.542,2.2-.823a1.146,1.146,0,0,0,.428-.242,1.131,1.131,0,0,0,.236-.523,13.163,13.163,0,0,0,.507-4.441,6.006,6.006,0,0,0-1.85-3.976A5.156,5.156,0,0,0,218.522,363.63Z" transform="translate(-209.45 -362.655)" fill="#131313"/>
          <path id="Tracé-9" data-name="Tracé" d="M226.48,376.992a1.9,1.9,0,0,0,.107-.848c-.022-.376-.3-1.16-.759-.806a.317.317,0,0,0-.064.073c-.01-.055-.02-.11-.029-.167a9.226,9.226,0,0,0-.242-1.8,3.9,3.9,0,0,0-.662-1.048,2.7,2.7,0,0,0-.579-.583,3.792,3.792,0,0,0-3.069-.408,3.15,3.15,0,0,0-1.684,1.168c-.091.127-1.105,1.672-.766,1.746-.555-.123-.882.183-1.028.724a1.9,1.9,0,0,0-.067.853.747.747,0,0,0,.437.579,2.963,2.963,0,0,0-.121,1.435,2.9,2.9,0,0,0,1.364,2.035,2.037,2.037,0,0,1,.956,1,2.462,2.462,0,0,1,.1.74,1.134,1.134,0,0,0,.1.543,1.1,1.1,0,0,0,.842.411,1.28,1.28,0,0,0,1.123-.177c.247-.249.244-.647.393-.965.288-.613,1.128-.914,1.671-1.263a3.652,3.652,0,0,0,1.423-1.692,2.8,2.8,0,0,0,.2-1.128A.859.859,0,0,0,226.48,376.992Z" transform="translate(-216.476 -370.054)" fill="#f4cda2"/>
          <path id="Tracé-10" data-name="Tracé" d="M232.474,370.6a.186.186,0,0,0,.021.12c.049.068.154.041.231.009a8.441,8.441,0,0,1,4.252-.2c.391.049.849.145,1,.507l.377-1.392a.556.556,0,0,0,.008-.394.528.528,0,0,0-.209-.191,7.3,7.3,0,0,0-3.691-.985,2.044,2.044,0,0,0-1.757.637A4.043,4.043,0,0,0,232.474,370.6Z" transform="translate(-229.262 -367.313)" fill="#131313"/>
          <path id="Tracé-11" data-name="Tracé" d="M267.827,380.842q0,.176-.014.352a4.094,4.094,0,0,1-1.4,2.993c.154-.119.68.11.847.136a4.853,4.853,0,0,0,1.218.023.375.375,0,0,0,.194-.059.389.389,0,0,0,.113-.206,10.8,10.8,0,0,0,.612-3.021,10.535,10.535,0,0,0-.694-3.327,2.153,2.153,0,0,0-.626-1.1,2.025,2.025,0,0,0-1.252-.3c.221,0,.47.671.518.835a9.792,9.792,0,0,1,.2,1.079A14.034,14.034,0,0,1,267.827,380.842Z" transform="translate(-258.468 -374.425)" fill="#131313"/>
          <path id="Tracé-12" data-name="Tracé" d="M214.157,373.206q-.047.169-.086.341a4.093,4.093,0,0,0,.5,3.268c-.114-.158-.683-.087-.851-.11a4.854,4.854,0,0,1-1.174-.323.374.374,0,0,1-.17-.111.389.389,0,0,1-.05-.229,10.8,10.8,0,0,1,.268-3.071,10.533,10.533,0,0,1,1.607-2.994,2.151,2.151,0,0,1,.911-.876,2.024,2.024,0,0,1,1.286.064c-.211-.066-.641.511-.733.654a9.8,9.8,0,0,0-.5.978A14.015,14.015,0,0,0,214.157,373.206Z" transform="translate(-211.919 -368.133)" fill="#131313"/>
        </g>
        <path id="Tracé-13" data-name="Tracé" d="M219.473,776.63a1.427,1.427,0,0,0-.045,1.068c.178.323.582.45.684.846a.97.97,0,0,1-.035.506.739.739,0,0,1-.175.337.867.867,0,0,1-.6.166,3.749,3.749,0,0,1-.981-.063,3.039,3.039,0,0,1-1.385-.9c-.33-.334-.683-.609-.606-1.144a1.831,1.831,0,0,1,.161-.456,4.562,4.562,0,0,0,.337-1.222l2.773.49C219.564,776.366,219.517,776.494,219.473,776.63Z" transform="translate(-215.362 -718.158)" fill="#131313"/>
        <path id="Tracé-14" data-name="Tracé" d="M226.344,665.506l-.7,7.956-2.142,8.557-2.205-.585.466-8.516-.276-5.319Z" transform="translate(-219.645 -623.273)" fill="#f4cda2"/>
      </g>
      <path id="Tracé-15" data-name="Tracé" d="M93.06,479.026,97.9,466.194l6.617-6.242,1.118.406c.476-1.464,1.247-2.745,1.828-4.194a44.39,44.39,0,0,0,1.805-5.862.921.921,0,0,1,.236-.5.592.592,0,0,1,.425-.089l.138.008q.719-3.72,1.184-7.484c.052-.425-.162-.391.174-.669a5.6,5.6,0,0,1,1.16-.156l-.6,8.438q1.867.151,3.723.4l.962-8.513a5.593,5.593,0,0,1,1.112.364c.28.334.076.262.05.689q-.234,3.868-.2,7.747l.236.037c.167.025.572,4.542.637,4.993a21.822,21.822,0,0,0,.859,4.3,8.788,8.788,0,0,1,.174,2.623l1.443.015-2.864,14.408-4.435,10.446-3.553-.559-1-14.609-13.146,8.924Z" transform="translate(-89.949 -425.919)" fill="#101041"/>
    </g>
    <g id="pouce" transform="translate(76.566 78.639)">
      <path id="Tracé-16" data-name="Tracé" d="M162.724,106.141h.407a3.052,3.052,0,1,0,0-6.1h-.767a3.1,3.1,0,0,0,3.146-3.051,3.2,3.2,0,0,0-3.264-3.051h-6.183A4.03,4.03,0,0,1,153.51,90.1a14.951,14.951,0,0,1,.451-3.656,8.581,8.581,0,0,0-.014-4.552,4.84,4.84,0,0,0-3.524-3.178,2.84,2.84,0,0,0-1.642.092,2.118,2.118,0,0,0-1.217,1.947,11.083,11.083,0,0,0,.39,2.295,5.722,5.722,0,0,1-.282,3.279c-.847,2.021-2.984,3.4-4.965,4.715a30.411,30.411,0,0,0-3.173,2.424,2.48,2.48,0,0,0-.74,1.14c-.064.159-.261.928-.506.928h-8.825v18.9h4.221c1.713,0,4.085-.491,5.356.845a6.022,6.022,0,0,0,.871.9c1.1.759,3.189.383,4.452.38q7.765-.015,15.529-.011h1.821a2.155,2.155,0,1,0,0-4.307h1.009a3.052,3.052,0,1,0,0-6.1Z" transform="translate(-127.089 -78.639)" fill="#ffae00"/>
      <rect id="Rectangle" width="7.927" height="23.748" rx="3.963" transform="translate(0 14.669)" fill="#ff8600"/>
    </g>
  </g>
</svg>
