<svg xmlns="http://www.w3.org/2000/svg" width="41.5" height="68.5" viewBox="0 0 41.5 68.5">
  <g id="icone-4G_5G" data-name="icone-4G/5G" transform="translate(0.389 37.533)">
    <path id="Union_1" data-name="Union 1" d="M0,67v0H0ZM40,29.157v0ZM0,0H0Z" transform="translate(0.361 -36.783)" fill="none" stroke="#101041" stroke-linecap="round" stroke-linejoin="round" stroke-width="1.5"/>
    <text id="_4G" data-name="4G" transform="translate(17.361 -8.416)" fill="#101041" font-size="14" font-family="GothamRounded-Bold, Gotham Rounded" font-weight="700"><tspan x="-10" y="0">4G</tspan></text>
    <g id="wifi" transform="translate(14.354 -28.783) rotate(9)">
      <path id="Tracé_62" data-name="Tracé 62" d="M19.056,3.98A.619.619,0,0,0,19,3.039a15.973,15.973,0,0,0-18.746,0,.619.619,0,0,0-.061.94.661.661,0,0,0,.853.064,14.7,14.7,0,0,1,17.162,0,.662.662,0,0,0,.853-.062Z" transform="translate(0 0)" fill="#101041"/>
      <path id="Tracé_63" data-name="Tracé 63" d="M7.968,1.858A.6.6,0,0,0,7.841.9,8.324,8.324,0,0,0,.313.9a.6.6,0,0,0-.128.958L.2,1.877a.68.68,0,0,0,.781.115,7.043,7.043,0,0,1,6.183,0,.678.678,0,0,0,.781-.116l.019-.019Z" transform="translate(5.545 4.258)" fill="#101041"/>
      <path id="Tracé_64" data-name="Tracé 64" d="M13.55,2.9a.615.615,0,0,0-.081-.952,12.145,12.145,0,0,0-13.2,0A.613.613,0,0,0,.19,2.9a.671.671,0,0,0,.833.083,10.871,10.871,0,0,1,11.694,0A.67.67,0,0,0,13.55,2.9Z" transform="translate(2.752 2.129)" fill="#101041"/>
    </g>
    <text id="_5G" data-name="5G" transform="translate(17.361 19.217)" fill="#101041" font-size="14" font-family="GothamRounded-Bold, Gotham Rounded" font-weight="700"><tspan x="-9" y="0">5G</tspan></text>
    <g id="wifi-2" data-name="wifi" transform="translate(14.354 -0.774) rotate(9)">
      <path id="Tracé_62-2" data-name="Tracé 62" d="M19.056,3.98A.619.619,0,0,0,19,3.039a15.973,15.973,0,0,0-18.746,0,.619.619,0,0,0-.061.94.661.661,0,0,0,.853.064,14.7,14.7,0,0,1,17.162,0,.662.662,0,0,0,.853-.062Z" transform="translate(0 0)" fill="#101041"/>
      <path id="Tracé_63-2" data-name="Tracé 63" d="M7.968,1.858A.6.6,0,0,0,7.841.9,8.324,8.324,0,0,0,.313.9a.6.6,0,0,0-.128.958L.2,1.877a.68.68,0,0,0,.781.115,7.043,7.043,0,0,1,6.183,0,.678.678,0,0,0,.781-.116l.019-.019Z" transform="translate(5.545 4.258)" fill="#101041"/>
      <path id="Tracé_64-2" data-name="Tracé 64" d="M13.55,2.9a.615.615,0,0,0-.081-.952,12.145,12.145,0,0,0-13.2,0A.613.613,0,0,0,.19,2.9a.671.671,0,0,0,.833.083,10.871,10.871,0,0,1,11.694,0A.67.67,0,0,0,13.55,2.9Z" transform="translate(2.752 2.129)" fill="#101041"/>
    </g>
  </g>
</svg>
