<svg xmlns="http://www.w3.org/2000/svg" width="495" height="295" viewBox="0 0 495 295">
  <g id="illustration_data_center" data-name="illustration data center" transform="translate(-79.263 -99.857)">
    <g id="Groupe" transform="translate(79.263 136.532)">
      <rect id="Rectangle" width="84.763" height="257.895" transform="translate(24.566)"/>
      <rect id="Rectangle-2" data-name="Rectangle" width="66.991" height="257.895" transform="translate(96.614)" fill="#fafafa"/>
      <rect id="Rectangle-3" data-name="Rectangle" width="71.903" height="20.243" transform="translate(28.759 41.252)" fill="#e1e1e1"/>
      <rect id="Rectangle-4" data-name="Rectangle" width="4.027" height="15.493" transform="translate(47.355 43.784)" fill="#f5f5f5"/>
      <path id="Tracé_866" data-name="Tracé 866" d="M115.389,183.892a1.279,1.279,0,1,1-1.28-1.28,1.28,1.28,0,0,1,1.28,1.28" transform="translate(-59.263 -136.532)" fill="#fafafa"/>
      <path id="Tracé_867" data-name="Tracé 867" d="M115.389,189.367a1.279,1.279,0,1,1-1.28-1.28,1.28,1.28,0,0,1,1.28,1.28" transform="translate(-59.263 -136.884)" fill="#fafafa"/>
      <rect id="Rectangle-5" data-name="Rectangle" width="3.957" height="11.901" transform="translate(61.24 45.753)" fill="#f5f5f5"/>
      <rect id="Rectangle-6" data-name="Rectangle" width="3.957" height="11.901" transform="translate(49.066 45.753)" fill="#f5f5f5"/>
      <rect id="Rectangle-7" data-name="Rectangle" width="3.957" height="11.901" transform="translate(53.971 45.753)" fill="#f5f5f5"/>
      <rect id="Rectangle-8" data-name="Rectangle" width="3.957" height="11.901" transform="translate(58.876 45.753)" fill="#f5f5f5"/>
      <rect id="Rectangle-9" data-name="Rectangle" width="3.956" height="11.901" transform="translate(63.782 45.753)" fill="#f5f5f5"/>
      <rect id="Rectangle-10" data-name="Rectangle" width="3.956" height="11.901" transform="translate(68.687 45.753)" fill="#f5f5f5"/>
      <rect id="Rectangle-11" data-name="Rectangle" width="3.956" height="11.901" transform="translate(73.592 45.753)" fill="#f5f5f5"/>
      <rect id="Rectangle-12" data-name="Rectangle" width="3.957" height="11.901" transform="translate(78.496 45.753)" fill="#f5f5f5"/>
      <rect id="Rectangle-13" data-name="Rectangle" width="3.957" height="11.901" transform="translate(83.401 45.753)" fill="#f5f5f5"/>
      <rect id="Rectangle-14" data-name="Rectangle" width="3.957" height="11.901" transform="translate(88.306 45.753)" fill="#f5f5f5"/>
      <rect id="Rectangle-15" data-name="Rectangle" width="71.903" height="20.243" transform="translate(28.759 73.437)" fill="#e1e1e1"/>
      <rect id="Rectangle-16" data-name="Rectangle" width="4.027" height="15.493" transform="translate(47.355 75.974)" fill="#f5f5f5"/>
      <path id="Tracé_868" data-name="Tracé 868" d="M115.389,216.316a1.279,1.279,0,1,1-1.28-1.28,1.28,1.28,0,0,1,1.28,1.28" transform="translate(-59.263 -137.069)" fill="#fafafa"/>
      <path id="Tracé_869" data-name="Tracé 869" d="M115.389,221.79a1.279,1.279,0,1,1-1.28-1.28,1.28,1.28,0,0,1,1.28,1.28" transform="translate(-59.263 -137.106)" fill="#fafafa"/>
      <rect id="Rectangle-17" data-name="Rectangle" width="3.957" height="11.9" transform="translate(61.24 77.948)" fill="#f5f5f5"/>
      <rect id="Rectangle-18" data-name="Rectangle" width="3.957" height="11.9" transform="translate(49.066 77.948)" fill="#f5f5f5"/>
      <rect id="Rectangle-19" data-name="Rectangle" width="3.957" height="11.9" transform="translate(53.971 77.948)" fill="#f5f5f5"/>
      <rect id="Rectangle-20" data-name="Rectangle" width="3.957" height="11.9" transform="translate(58.876 77.948)" fill="#f5f5f5"/>
      <rect id="Rectangle-21" data-name="Rectangle" width="3.956" height="11.9" transform="translate(63.782 77.948)" fill="#f5f5f5"/>
      <rect id="Rectangle-22" data-name="Rectangle" width="3.956" height="11.9" transform="translate(68.687 77.948)" fill="#f5f5f5"/>
      <rect id="Rectangle-23" data-name="Rectangle" width="3.956" height="11.9" transform="translate(73.592 77.948)" fill="#f5f5f5"/>
      <rect id="Rectangle-24" data-name="Rectangle" width="3.957" height="11.9" transform="translate(78.496 77.948)" fill="#f5f5f5"/>
      <rect id="Rectangle-25" data-name="Rectangle" width="3.957" height="11.9" transform="translate(83.401 77.948)" fill="#f5f5f5"/>
      <rect id="Rectangle-26" data-name="Rectangle" width="3.957" height="11.9" transform="translate(88.306 77.948)" fill="#f5f5f5"/>
      <rect id="Rectangle-27" data-name="Rectangle" width="71.903" height="20.243" transform="translate(28.759 105.623)" fill="#e1e1e1"/>
      <rect id="Rectangle-28" data-name="Rectangle" width="4.027" height="15.493" transform="translate(47.355 108.164)" fill="#f5f5f5"/>
      <path id="Tracé_870" data-name="Tracé 870" d="M115.389,248.74a1.279,1.279,0,1,1-1.28-1.28,1.28,1.28,0,0,1,1.28,1.28" transform="translate(-59.263 -137.29)" fill="#fafafa"/>
      <path id="Tracé_871" data-name="Tracé 871" d="M115.389,254.214a1.279,1.279,0,1,1-1.28-1.28,1.28,1.28,0,0,1,1.28,1.28" transform="translate(-59.263 -137.328)" fill="#fafafa"/>
      <rect id="Rectangle-29" data-name="Rectangle" width="3.957" height="11.9" transform="translate(61.24 110.141)" fill="#f5f5f5"/>
      <rect id="Rectangle-30" data-name="Rectangle" width="3.957" height="11.9" transform="translate(49.066 110.141)" fill="#f5f5f5"/>
      <rect id="Rectangle-31" data-name="Rectangle" width="3.957" height="11.9" transform="translate(53.971 110.141)" fill="#f5f5f5"/>
      <rect id="Rectangle-32" data-name="Rectangle" width="3.957" height="11.9" transform="translate(58.876 110.141)" fill="#f5f5f5"/>
      <rect id="Rectangle-33" data-name="Rectangle" width="3.956" height="11.9" transform="translate(63.782 110.141)" fill="#f5f5f5"/>
      <rect id="Rectangle-34" data-name="Rectangle" width="3.956" height="11.9" transform="translate(68.687 110.141)" fill="#f5f5f5"/>
      <rect id="Rectangle-35" data-name="Rectangle" width="3.956" height="11.9" transform="translate(73.592 110.141)" fill="#f5f5f5"/>
      <rect id="Rectangle-36" data-name="Rectangle" width="3.957" height="11.9" transform="translate(78.496 110.141)" fill="#f5f5f5"/>
      <rect id="Rectangle-37" data-name="Rectangle" width="3.957" height="11.9" transform="translate(83.401 110.141)" fill="#f5f5f5"/>
      <rect id="Rectangle-38" data-name="Rectangle" width="3.957" height="11.9" transform="translate(88.306 110.141)" fill="#f5f5f5"/>
      <rect id="Rectangle-39" data-name="Rectangle" width="71.903" height="20.243" transform="translate(28.759 137.808)" fill="#e1e1e1"/>
      <rect id="Rectangle-40" data-name="Rectangle" width="4.027" height="15.493" transform="translate(47.355 140.355)" fill="#f5f5f5"/>
      <path id="Tracé_872" data-name="Tracé 872" d="M115.389,281.163a1.279,1.279,0,1,1-1.28-1.28,1.28,1.28,0,0,1,1.28,1.28" transform="translate(-59.263 -137.512)" fill="#fafafa"/>
      <path id="Tracé_873" data-name="Tracé 873" d="M115.389,286.637a1.279,1.279,0,1,1-1.28-1.28,1.28,1.28,0,0,1,1.28,1.28" transform="translate(-59.263 -137.549)" fill="#fafafa"/>
      <rect id="Rectangle-41" data-name="Rectangle" width="3.957" height="11.9" transform="translate(61.24 142.335)" fill="#f5f5f5"/>
      <rect id="Rectangle-42" data-name="Rectangle" width="3.957" height="11.9" transform="translate(49.066 142.335)" fill="#f5f5f5"/>
      <rect id="Rectangle-43" data-name="Rectangle" width="3.957" height="11.9" transform="translate(53.971 142.335)" fill="#f5f5f5"/>
      <rect id="Rectangle-44" data-name="Rectangle" width="3.957" height="11.9" transform="translate(58.876 142.335)" fill="#f5f5f5"/>
      <rect id="Rectangle-45" data-name="Rectangle" width="3.956" height="11.9" transform="translate(63.782 142.335)" fill="#f5f5f5"/>
      <rect id="Rectangle-46" data-name="Rectangle" width="3.956" height="11.9" transform="translate(68.687 142.335)" fill="#f5f5f5"/>
      <rect id="Rectangle-47" data-name="Rectangle" width="3.956" height="11.9" transform="translate(73.592 142.335)" fill="#f5f5f5"/>
      <rect id="Rectangle-48" data-name="Rectangle" width="3.957" height="11.9" transform="translate(78.496 142.335)" fill="#f5f5f5"/>
      <rect id="Rectangle-49" data-name="Rectangle" width="3.957" height="11.9" transform="translate(83.401 142.335)" fill="#f5f5f5"/>
      <rect id="Rectangle-50" data-name="Rectangle" width="3.957" height="11.9" transform="translate(88.306 142.335)" fill="#f5f5f5"/>
      <rect id="Rectangle-51" data-name="Rectangle" width="71.903" height="20.243" transform="translate(28.759 169.994)" fill="#e1e1e1"/>
      <rect id="Rectangle-52" data-name="Rectangle" width="4.027" height="15.493" transform="translate(47.355 172.545)" fill="#f5f5f5"/>
      <path id="Tracé_874" data-name="Tracé 874" d="M115.389,313.587a1.279,1.279,0,1,1-1.28-1.28,1.28,1.28,0,0,1,1.28,1.28" transform="translate(-59.263 -137.733)" fill="#fafafa"/>
      <path id="Tracé_875" data-name="Tracé 875" d="M115.389,319.061a1.279,1.279,0,1,1-1.28-1.28,1.28,1.28,0,0,1,1.28,1.28" transform="translate(-59.263 -137.771)" fill="#fafafa"/>
      <rect id="Rectangle-53" data-name="Rectangle" width="3.957" height="11.9" transform="translate(61.24 174.529)" fill="#f5f5f5"/>
      <rect id="Rectangle-54" data-name="Rectangle" width="3.957" height="11.9" transform="translate(49.066 174.529)" fill="#f5f5f5"/>
      <rect id="Rectangle-55" data-name="Rectangle" width="3.957" height="11.9" transform="translate(53.971 174.529)" fill="#f5f5f5"/>
      <rect id="Rectangle-56" data-name="Rectangle" width="3.957" height="11.9" transform="translate(58.876 174.529)" fill="#f5f5f5"/>
      <rect id="Rectangle-57" data-name="Rectangle" width="3.956" height="11.9" transform="translate(63.782 174.529)" fill="#f5f5f5"/>
      <rect id="Rectangle-58" data-name="Rectangle" width="3.956" height="11.9" transform="translate(68.687 174.529)" fill="#f5f5f5"/>
      <rect id="Rectangle-59" data-name="Rectangle" width="3.956" height="11.9" transform="translate(73.592 174.529)" fill="#f5f5f5"/>
      <rect id="Rectangle-60" data-name="Rectangle" width="3.957" height="11.9" transform="translate(78.496 174.529)" fill="#f5f5f5"/>
      <rect id="Rectangle-61" data-name="Rectangle" width="3.957" height="11.9" transform="translate(83.401 174.529)" fill="#f5f5f5"/>
      <rect id="Rectangle-62" data-name="Rectangle" width="3.957" height="11.9" transform="translate(88.306 174.529)" fill="#f5f5f5"/>
      <rect id="Rectangle-63" data-name="Rectangle" width="71.903" height="20.243" transform="translate(28.759 201.915)" fill="#e1e1e1"/>
      <rect id="Rectangle-64" data-name="Rectangle" width="4.027" height="15.493" transform="translate(47.355 204.459)" fill="#f5f5f5"/>
      <path id="Tracé_876" data-name="Tracé 876" d="M115.389,346.01a1.279,1.279,0,1,1-1.28-1.28,1.28,1.28,0,0,1,1.28,1.28" transform="translate(-59.263 -138.292)" fill="#fafafa"/>
      <path id="Tracé_877" data-name="Tracé 877" d="M115.389,351.485a1.279,1.279,0,1,1-1.28-1.28,1.28,1.28,0,0,1,1.28,1.28" transform="translate(-59.263 -138.292)" fill="#fafafa"/>
      <rect id="Rectangle-65" data-name="Rectangle" width="3.957" height="11.9" transform="translate(61.24 206.439)" fill="#f5f5f5"/>
      <rect id="Rectangle-66" data-name="Rectangle" width="3.957" height="11.9" transform="translate(49.066 206.439)" fill="#f5f5f5"/>
      <rect id="Rectangle-67" data-name="Rectangle" width="3.957" height="11.9" transform="translate(53.971 206.439)" fill="#f5f5f5"/>
      <rect id="Rectangle-68" data-name="Rectangle" width="3.957" height="11.9" transform="translate(58.876 206.439)" fill="#f5f5f5"/>
      <rect id="Rectangle-69" data-name="Rectangle" width="3.956" height="11.9" transform="translate(63.782 206.439)" fill="#f5f5f5"/>
      <rect id="Rectangle-70" data-name="Rectangle" width="3.956" height="11.9" transform="translate(68.687 206.439)" fill="#f5f5f5"/>
      <rect id="Rectangle-71" data-name="Rectangle" width="3.956" height="11.9" transform="translate(73.592 206.439)" fill="#f5f5f5"/>
      <rect id="Rectangle-72" data-name="Rectangle" width="3.957" height="11.9" transform="translate(78.496 206.439)" fill="#f5f5f5"/>
      <rect id="Rectangle-73" data-name="Rectangle" width="3.957" height="11.9" transform="translate(83.401 206.439)" fill="#f5f5f5"/>
      <rect id="Rectangle-74" data-name="Rectangle" width="3.957" height="11.9" transform="translate(88.306 206.439)" fill="#f5f5f5"/>
      <rect id="Rectangle-75" data-name="Rectangle" width="71.903" height="20.243" transform="translate(28.759 234.338)" fill="#e1e1e1"/>
      <rect id="Rectangle-76" data-name="Rectangle" width="4.027" height="15.493" transform="translate(47.355 236.883)" fill="#f5f5f5"/>
      <path id="Tracé_878" data-name="Tracé 878" d="M115.389,378.434a1.279,1.279,0,1,1-1.28-1.28,1.28,1.28,0,0,1,1.28,1.28" transform="translate(-59.263 -138.292)" fill="#fafafa"/>
      <path id="Tracé_879" data-name="Tracé 879" d="M115.389,383.908a1.279,1.279,0,1,1-1.28-1.28,1.28,1.28,0,0,1,1.28,1.28" transform="translate(-59.263 -138.292)" fill="#fafafa"/>
      <rect id="Rectangle-77" data-name="Rectangle" width="3.957" height="11.901" transform="translate(61.24 238.862)" fill="#f5f5f5"/>
      <rect id="Rectangle-78" data-name="Rectangle" width="3.957" height="11.901" transform="translate(49.066 238.862)" fill="#f5f5f5"/>
      <rect id="Rectangle-79" data-name="Rectangle" width="3.957" height="11.901" transform="translate(53.971 238.862)" fill="#f5f5f5"/>
      <rect id="Rectangle-80" data-name="Rectangle" width="3.957" height="11.901" transform="translate(58.876 238.862)" fill="#f5f5f5"/>
      <rect id="Rectangle-81" data-name="Rectangle" width="3.956" height="11.901" transform="translate(63.782 238.862)" fill="#f5f5f5"/>
      <rect id="Rectangle-82" data-name="Rectangle" width="3.956" height="11.901" transform="translate(68.687 238.862)" fill="#f5f5f5"/>
      <rect id="Rectangle-83" data-name="Rectangle" width="3.956" height="11.901" transform="translate(73.592 238.862)" fill="#f5f5f5"/>
      <rect id="Rectangle-84" data-name="Rectangle" width="3.957" height="11.901" transform="translate(78.496 238.862)" fill="#f5f5f5"/>
      <rect id="Rectangle-85" data-name="Rectangle" width="3.957" height="11.901" transform="translate(83.401 238.862)" fill="#f5f5f5"/>
      <rect id="Rectangle-86" data-name="Rectangle" width="3.957" height="11.901" transform="translate(88.306 238.862)" fill="#f5f5f5"/>
      <path id="Tracé_880" data-name="Tracé 880" d="M149.079,178.089a2.748,2.748,0,0,1-.079-.625c-.031-.411-.056-1.018-.077-1.8s-.037-1.736-.091-2.84a18.069,18.069,0,0,0-.5-3.689,13.191,13.191,0,0,0-1.92-4.039,8.942,8.942,0,0,0-3.932-3.159,19.06,19.06,0,0,0-5.58-1.132l-6.192-.535c-8.488-.737-16.183-1.21-21.76-1.317-2.789-.063-5.046-.048-6.607-.043l-1.8.015a2.879,2.879,0,0,1-.628-.029,2.813,2.813,0,0,1,.624-.076l1.8-.113c1.561-.067,3.822-.138,6.617-.122,5.59.012,13.306.429,21.8,1.165l6.2.547a19.311,19.311,0,0,1,5.718,1.2,9.342,9.342,0,0,1,4.1,3.351,13.393,13.393,0,0,1,1.924,4.194,17.744,17.744,0,0,1,.431,3.774c.026,1.113.012,2.069,0,2.849-.009.736-.015,1.331-.021,1.8a2.965,2.965,0,0,1-.026.628" transform="translate(-74.504 -136.532)" fill="#e1e1e1"/>
      <path id="Tracé_881" data-name="Tracé 881" d="M127.267,178.089a2.552,2.552,0,0,1-.049-.59c-.006-.444-.014-1-.024-1.693-.008-.733-.008-1.631-.089-2.663a8.209,8.209,0,0,0-.886-3.326,6.357,6.357,0,0,0-3.24-2.487,8.919,8.919,0,0,0-4.722-.478,7.986,7.986,0,0,0-2.436.828,4.638,4.638,0,0,0-1.888,1.787,2.539,2.539,0,0,0,.007,2.51,3.362,3.362,0,0,0,2.136,1.6,2.71,2.71,0,0,0,2.5-.721,3.707,3.707,0,0,0,1.123-2.382,3.626,3.626,0,0,0-.747-2.439,5.337,5.337,0,0,0-1.892-1.671,7.038,7.038,0,0,0-2.368-.611c-.811-.121-1.6-.228-2.364-.314-1.529-.172-2.96-.272-4.268-.327-2.617-.105-4.743-.067-6.212-.069l-1.691-.008a2.568,2.568,0,0,1-.591-.038,2.489,2.489,0,0,1,.588-.067l1.69-.09c1.468-.06,3.594-.154,6.228-.1,1.317.032,2.76.111,4.3.266.771.077,1.567.176,2.385.289.41.065.816.116,1.248.195a4.856,4.856,0,0,1,1.272.443,5.789,5.789,0,0,1,2.079,1.812,4.118,4.118,0,0,1,.85,2.764,4.207,4.207,0,0,1-1.276,2.719,3.228,3.228,0,0,1-2.967.853,3.873,3.873,0,0,1-2.474-1.861,3.058,3.058,0,0,1,0-3,5.11,5.11,0,0,1,2.1-1.983,8.4,8.4,0,0,1,2.6-.865,9.3,9.3,0,0,1,4.962.549,6.7,6.7,0,0,1,3.4,2.707,8.341,8.341,0,0,1,.855,3.487c.055,1.051.025,1.953,0,2.687-.029.688-.054,1.247-.073,1.691a2.514,2.514,0,0,1-.056.589" transform="translate(-59.263 -136.532)" fill="#e1e1e1"/>
      <path id="Tracé_882" data-name="Tracé 882" d="M154.948,178.089a3.356,3.356,0,0,1-.152-.669c-.08-.441-.2-1.09-.384-1.921a37.641,37.641,0,0,0-2.126-6.852,19.978,19.978,0,0,0-6.254-8.385,11.774,11.774,0,0,0-5.723-2.177,59.505,59.505,0,0,0-6.738-.361c-9.291-.176-17.714-.142-23.807-.385-3.047-.108-5.51-.254-7.21-.378l-1.955-.168a3.4,3.4,0,0,1-.68-.1,3.382,3.382,0,0,1,.686-.01l1.961.071c1.7.061,4.164.151,7.208.212,6.088.148,14.5.057,23.808.232a58.565,58.565,0,0,1,6.8.377,12.208,12.208,0,0,1,5.938,2.3,18.191,18.191,0,0,1,3.961,4.192,24.273,24.273,0,0,1,2.344,4.434,34.4,34.4,0,0,1,1.985,6.955c.15.841.243,1.5.289,1.944a3.353,3.353,0,0,1,.048.685" transform="translate(-74.654 -136.532)" fill="#e1e1e1"/>
      <rect id="Rectangle-87" data-name="Rectangle" width="69.925" height="10.15" transform="translate(29.649 3.23)" fill="#e1e1e1"/>
      <rect id="Rectangle-88" data-name="Rectangle" width="38.07" height="5.075" transform="translate(43.604 8.305)" fill="#f5f5f5"/>
      <path id="Tracé_883" data-name="Tracé 883" d="M495,396.357c0,.144-110.818.26-247.488.26C110.8,396.617,0,396.5,0,396.357s110.8-.26,247.512-.26c136.67,0,247.488.116,247.488.26" transform="translate(0 -138.292)" fill="#1a2e35"/>
    </g>
    <g id="Groupe-2" data-name="Groupe" transform="translate(212.033 99.857)">
      <rect id="Rectangle-89" data-name="Rectangle" width="112.706" height="123.657" transform="translate(196.454 164.254)" fill="#1a2e35"/>
      <rect id="Rectangle-90" data-name="Rectangle" width="123.209" height="30.568" transform="translate(179.997 189.413)" fill="#375a64"/>
      <rect id="Rectangle-91" data-name="Rectangle" width="24.259" height="3.732" transform="translate(185.468 195.775)" fill="#1a2e35"/>
      <rect id="Rectangle-92" data-name="Rectangle" width="24.259" height="3.732" transform="translate(185.468 202.164)" fill="#1a2e35"/>
      <rect id="Rectangle-93" data-name="Rectangle" width="24.259" height="3.732" transform="translate(185.468 208.771)" fill="#1a2e35"/>
      <path id="Tracé_885" data-name="Tracé 885" d="M429.877,298.895a1.392,1.392,0,1,1-1.392-1.392,1.392,1.392,0,0,1,1.392,1.392" transform="translate(-210.556 -100.866)" fill="#1a2e35"/>
      <path id="Tracé_886" data-name="Tracé 886" d="M436.018,298.895a1.392,1.392,0,1,1-1.392-1.392,1.392,1.392,0,0,1,1.392,1.392" transform="translate(-210.556 -100.866)" fill="#1a2e35"/>
      <path id="Tracé_887" data-name="Tracé 887" d="M442.159,298.895a1.391,1.391,0,1,1-1.392-1.392,1.392,1.392,0,0,1,1.392,1.392" transform="translate(-210.556 -100.866)" fill="#1a2e35"/>
      <path id="Tracé_888" data-name="Tracé 888" d="M448.3,298.895a1.391,1.391,0,1,1-1.392-1.392,1.392,1.392,0,0,1,1.392,1.392" transform="translate(-210.556 -100.866)" fill="#1a2e35"/>
      <path id="Tracé_889" data-name="Tracé 889" d="M495.889,298.895A1.392,1.392,0,1,1,494.5,297.5a1.392,1.392,0,0,1,1.392,1.392" transform="translate(-210.556 -100.866)" fill="#1a2e35"/>
      <path id="Tracé_890" data-name="Tracé 890" d="M502.152,298.895a1.392,1.392,0,1,1-1.392-1.392,1.392,1.392,0,0,1,1.392,1.392" transform="translate(-210.556 -100.866)" fill="#1a2e35"/>
      <path id="Tracé_891" data-name="Tracé 891" d="M454.441,298.895a1.391,1.391,0,1,1-1.392-1.392,1.391,1.391,0,0,1,1.392,1.392" transform="translate(-210.556 -100.866)" fill="#1a2e35"/>
      <path id="Tracé_892" data-name="Tracé 892" d="M484.6,298.895a1.392,1.392,0,1,1-1.392-1.392,1.392,1.392,0,0,1,1.392,1.392" transform="translate(-210.556 -100.866)" fill="#1a2e35"/>
      <path id="Tracé_893" data-name="Tracé 893" d="M460.583,298.895a1.392,1.392,0,1,1-1.392-1.392,1.392,1.392,0,0,1,1.392,1.392" transform="translate(-210.556 -100.866)" fill="#f5f5f5"/>
      <path id="Tracé_894" data-name="Tracé 894" d="M466.724,298.895a1.391,1.391,0,1,1-1.392-1.392,1.392,1.392,0,0,1,1.392,1.392" transform="translate(-210.556 -100.866)" fill="#f5f5f5"/>
      <path id="Tracé_895" data-name="Tracé 895" d="M479.184,298.895a1.391,1.391,0,1,1-1.392-1.392,1.392,1.392,0,0,1,1.392,1.392" transform="translate(-210.556 -100.866)" fill="#f5f5f5"/>
      <path id="Tracé_896" data-name="Tracé 896" d="M507.247,298.895a1.392,1.392,0,1,1-1.392-1.392,1.392,1.392,0,0,1,1.392,1.392" transform="translate(-210.556 -100.866)" fill="#f5f5f5"/>
      <path id="Tracé_897" data-name="Tracé 897" d="M472.865,298.895a1.391,1.391,0,1,1-1.392-1.392,1.392,1.392,0,0,1,1.392,1.392" transform="translate(-210.556 -100.866)" fill="#ff4f5b"/>
      <path id="Tracé_898" data-name="Tracé 898" d="M490.448,298.895a1.391,1.391,0,1,1-1.392-1.392,1.392,1.392,0,0,1,1.392,1.392" transform="translate(-210.556 -100.866)" fill="#ff4f5b"/>
      <path id="Tracé_899" data-name="Tracé 899" d="M504.464,305.6a1.392,1.392,0,1,1,1.392,1.392,1.392,1.392,0,0,1-1.392-1.392" transform="translate(-210.556 -100.901)" fill="#1a2e35"/>
      <path id="Tracé_900" data-name="Tracé 900" d="M498.323,305.6a1.391,1.391,0,1,1,1.392,1.392,1.391,1.391,0,0,1-1.392-1.392" transform="translate(-210.556 -100.901)" fill="#1a2e35"/>
      <path id="Tracé_901" data-name="Tracé 901" d="M492.181,305.6a1.391,1.391,0,1,1,1.392,1.392,1.392,1.392,0,0,1-1.392-1.392" transform="translate(-210.556 -100.901)" fill="#1a2e35"/>
      <path id="Tracé_902" data-name="Tracé 902" d="M486.04,305.6a1.391,1.391,0,1,1,1.392,1.392,1.392,1.392,0,0,1-1.392-1.392" transform="translate(-210.556 -100.901)" fill="#1a2e35"/>
      <path id="Tracé_903" data-name="Tracé 903" d="M438.451,305.6a1.392,1.392,0,1,1,1.392,1.392,1.392,1.392,0,0,1-1.392-1.392" transform="translate(-210.556 -100.901)" fill="#1a2e35"/>
      <path id="Tracé_904" data-name="Tracé 904" d="M432.189,305.6a1.391,1.391,0,1,1,1.392,1.392,1.392,1.392,0,0,1-1.392-1.392" transform="translate(-210.556 -100.901)" fill="#1a2e35"/>
      <path id="Tracé_905" data-name="Tracé 905" d="M479.9,305.6a1.392,1.392,0,1,1,1.392,1.392A1.392,1.392,0,0,1,479.9,305.6" transform="translate(-210.556 -100.901)" fill="#1a2e35"/>
      <path id="Tracé_906" data-name="Tracé 906" d="M449.74,305.6a1.391,1.391,0,1,1,1.392,1.392,1.391,1.391,0,0,1-1.392-1.392" transform="translate(-210.556 -100.901)" fill="#1a2e35"/>
      <path id="Tracé_907" data-name="Tracé 907" d="M473.758,305.6a1.391,1.391,0,1,1,1.392,1.392,1.392,1.392,0,0,1-1.392-1.392" transform="translate(-210.556 -100.901)" fill="#f5f5f5"/>
      <path id="Tracé_908" data-name="Tracé 908" d="M467.616,305.6a1.391,1.391,0,1,1,1.392,1.392,1.392,1.392,0,0,1-1.392-1.392" transform="translate(-210.556 -100.901)" fill="#f5f5f5"/>
      <path id="Tracé_909" data-name="Tracé 909" d="M455.157,305.6a1.391,1.391,0,1,1,1.392,1.392,1.392,1.392,0,0,1-1.392-1.392" transform="translate(-210.556 -100.901)" fill="#f5f5f5"/>
      <path id="Tracé_910" data-name="Tracé 910" d="M427.094,305.6a1.391,1.391,0,1,1,1.392,1.392,1.391,1.391,0,0,1-1.392-1.392" transform="translate(-210.556 -100.901)" fill="#f5f5f5"/>
      <path id="Tracé_911" data-name="Tracé 911" d="M461.475,305.6a1.391,1.391,0,1,1,1.392,1.392,1.392,1.392,0,0,1-1.392-1.392" transform="translate(-210.556 -100.901)" fill="#ff4f5b"/>
      <path id="Tracé_912" data-name="Tracé 912" d="M443.892,305.6a1.391,1.391,0,1,1,1.392,1.392,1.392,1.392,0,0,1-1.392-1.392" transform="translate(-210.556 -100.901)" fill="#ff4f5b"/>
      <path id="Tracé_913" data-name="Tracé 913" d="M429.877,311.569a1.392,1.392,0,1,1-1.392-1.392,1.392,1.392,0,0,1,1.392,1.392" transform="translate(-210.556 -100.931)" fill="#1a2e35"/>
      <path id="Tracé_914" data-name="Tracé 914" d="M436.018,311.569a1.392,1.392,0,1,1-1.392-1.392,1.392,1.392,0,0,1,1.392,1.392" transform="translate(-210.556 -100.931)" fill="#1a2e35"/>
      <path id="Tracé_915" data-name="Tracé 915" d="M442.159,311.569a1.391,1.391,0,1,1-1.392-1.392,1.392,1.392,0,0,1,1.392,1.392" transform="translate(-210.556 -100.931)" fill="#1a2e35"/>
      <path id="Tracé_916" data-name="Tracé 916" d="M448.3,311.569a1.391,1.391,0,1,1-1.392-1.392,1.392,1.392,0,0,1,1.392,1.392" transform="translate(-210.556 -100.931)" fill="#1a2e35"/>
      <path id="Tracé_917" data-name="Tracé 917" d="M495.889,311.569a1.392,1.392,0,1,1-1.392-1.392,1.392,1.392,0,0,1,1.392,1.392" transform="translate(-210.556 -100.931)" fill="#1a2e35"/>
      <path id="Tracé_918" data-name="Tracé 918" d="M502.152,311.569a1.392,1.392,0,1,1-1.392-1.392,1.392,1.392,0,0,1,1.392,1.392" transform="translate(-210.556 -100.931)" fill="#1a2e35"/>
      <path id="Tracé_919" data-name="Tracé 919" d="M454.441,311.569a1.391,1.391,0,1,1-1.392-1.392,1.391,1.391,0,0,1,1.392,1.392" transform="translate(-210.556 -100.931)" fill="#1a2e35"/>
      <path id="Tracé_920" data-name="Tracé 920" d="M484.6,311.569a1.392,1.392,0,1,1-1.392-1.392,1.392,1.392,0,0,1,1.392,1.392" transform="translate(-210.556 -100.931)" fill="#1a2e35"/>
      <path id="Tracé_921" data-name="Tracé 921" d="M460.583,311.569a1.392,1.392,0,1,1-1.392-1.392,1.392,1.392,0,0,1,1.392,1.392" transform="translate(-210.556 -100.931)" fill="#f5f5f5"/>
      <path id="Tracé_922" data-name="Tracé 922" d="M466.724,311.569a1.391,1.391,0,1,1-1.392-1.392,1.392,1.392,0,0,1,1.392,1.392" transform="translate(-210.556 -100.931)" fill="#f5f5f5"/>
      <path id="Tracé_923" data-name="Tracé 923" d="M479.184,311.569a1.391,1.391,0,1,1-1.392-1.392,1.392,1.392,0,0,1,1.392,1.392" transform="translate(-210.556 -100.931)" fill="#f5f5f5"/>
      <path id="Tracé_924" data-name="Tracé 924" d="M507.247,311.569a1.392,1.392,0,1,1-1.392-1.392,1.392,1.392,0,0,1,1.392,1.392" transform="translate(-210.556 -100.931)" fill="#f5f5f5"/>
      <path id="Tracé_925" data-name="Tracé 925" d="M472.865,311.569a1.391,1.391,0,1,1-1.392-1.392,1.392,1.392,0,0,1,1.392,1.392" transform="translate(-210.556 -100.931)" fill="#ff4f5b"/>
      <path id="Tracé_926" data-name="Tracé 926" d="M490.448,311.569a1.391,1.391,0,1,1-1.392-1.392,1.392,1.392,0,0,1,1.392,1.392" transform="translate(-210.556 -100.931)" fill="#ff4f5b"/>
      <rect id="Rectangle-94" data-name="Rectangle" width="123.209" height="30.568" transform="translate(179.997 226.709)" fill="#375a64"/>
      <path id="Tracé_927" data-name="Tracé 927" d="M429.572,336.313a1.391,1.391,0,1,1-1.392-1.392,1.392,1.392,0,0,1,1.392,1.392" transform="translate(-210.556 -101.057)" fill="#1a2e35"/>
      <path id="Tracé_928" data-name="Tracé 928" d="M435.713,336.313a1.392,1.392,0,1,1-1.392-1.392,1.392,1.392,0,0,1,1.392,1.392" transform="translate(-210.556 -101.057)" fill="#1a2e35"/>
      <path id="Tracé_929" data-name="Tracé 929" d="M441.854,336.313a1.391,1.391,0,1,1-1.392-1.392,1.392,1.392,0,0,1,1.392,1.392" transform="translate(-210.556 -101.057)" fill="#1a2e35"/>
      <path id="Tracé_930" data-name="Tracé 930" d="M447.995,336.313a1.391,1.391,0,1,1-1.392-1.392,1.392,1.392,0,0,1,1.392,1.392" transform="translate(-210.556 -101.057)" fill="#1a2e35"/>
      <path id="Tracé_931" data-name="Tracé 931" d="M495.584,336.313a1.392,1.392,0,1,1-1.392-1.392,1.392,1.392,0,0,1,1.392,1.392" transform="translate(-210.556 -101.057)" fill="#1a2e35"/>
      <path id="Tracé_932" data-name="Tracé 932" d="M501.847,336.313a1.391,1.391,0,1,1-1.392-1.392,1.392,1.392,0,0,1,1.392,1.392" transform="translate(-210.556 -101.057)" fill="#1a2e35"/>
      <path id="Tracé_933" data-name="Tracé 933" d="M454.136,336.313a1.391,1.391,0,1,1-1.392-1.392,1.392,1.392,0,0,1,1.392,1.392" transform="translate(-210.556 -101.057)" fill="#1a2e35"/>
      <path id="Tracé_934" data-name="Tracé 934" d="M484.3,336.313a1.391,1.391,0,1,1-1.392-1.392,1.392,1.392,0,0,1,1.392,1.392" transform="translate(-210.556 -101.057)" fill="#1a2e35"/>
      <path id="Tracé_935" data-name="Tracé 935" d="M460.278,336.313a1.392,1.392,0,1,1-1.392-1.392,1.392,1.392,0,0,1,1.392,1.392" transform="translate(-210.556 -101.057)" fill="#f5f5f5"/>
      <path id="Tracé_936" data-name="Tracé 936" d="M466.419,336.313a1.392,1.392,0,1,1-1.392-1.392,1.392,1.392,0,0,1,1.392,1.392" transform="translate(-210.556 -101.057)" fill="#f5f5f5"/>
      <path id="Tracé_937" data-name="Tracé 937" d="M478.879,336.313a1.391,1.391,0,1,1-1.392-1.392,1.392,1.392,0,0,1,1.392,1.392" transform="translate(-210.556 -101.057)" fill="#f5f5f5"/>
      <path id="Tracé_938" data-name="Tracé 938" d="M506.942,336.313a1.391,1.391,0,1,1-1.392-1.392,1.392,1.392,0,0,1,1.392,1.392" transform="translate(-210.556 -101.057)" fill="#f5f5f5"/>
      <path id="Tracé_939" data-name="Tracé 939" d="M472.56,336.313a1.391,1.391,0,1,1-1.392-1.392,1.392,1.392,0,0,1,1.392,1.392" transform="translate(-210.556 -101.057)" fill="#ff4f5b"/>
      <path id="Tracé_940" data-name="Tracé 940" d="M490.143,336.313a1.392,1.392,0,1,1-1.392-1.392,1.392,1.392,0,0,1,1.392,1.392" transform="translate(-210.556 -101.057)" fill="#ff4f5b"/>
      <path id="Tracé_941" data-name="Tracé 941" d="M504.159,343.022a1.391,1.391,0,1,1,1.392,1.392,1.392,1.392,0,0,1-1.392-1.392" transform="translate(-210.556 -101.357)" fill="#1a2e35"/>
      <path id="Tracé_942" data-name="Tracé 942" d="M498.017,343.022a1.391,1.391,0,1,1,1.392,1.392,1.392,1.392,0,0,1-1.392-1.392" transform="translate(-210.556 -101.357)" fill="#1a2e35"/>
      <path id="Tracé_943" data-name="Tracé 943" d="M491.876,343.022a1.391,1.391,0,1,1,1.392,1.392,1.392,1.392,0,0,1-1.392-1.392" transform="translate(-210.556 -101.357)" fill="#1a2e35"/>
      <path id="Tracé_944" data-name="Tracé 944" d="M485.735,343.022a1.392,1.392,0,1,1,1.392,1.392,1.392,1.392,0,0,1-1.392-1.392" transform="translate(-210.556 -101.357)" fill="#1a2e35"/>
      <path id="Tracé_945" data-name="Tracé 945" d="M438.146,343.022a1.391,1.391,0,1,1,1.392,1.392,1.392,1.392,0,0,1-1.392-1.392" transform="translate(-210.556 -101.357)" fill="#1a2e35"/>
      <path id="Tracé_946" data-name="Tracé 946" d="M431.884,343.022a1.391,1.391,0,1,1,1.392,1.392,1.392,1.392,0,0,1-1.392-1.392" transform="translate(-210.556 -101.357)" fill="#1a2e35"/>
      <path id="Tracé_947" data-name="Tracé 947" d="M479.594,343.022a1.392,1.392,0,1,1,1.392,1.392,1.392,1.392,0,0,1-1.392-1.392" transform="translate(-210.556 -101.357)" fill="#1a2e35"/>
      <path id="Tracé_948" data-name="Tracé 948" d="M449.434,343.022a1.392,1.392,0,1,1,1.392,1.392,1.392,1.392,0,0,1-1.392-1.392" transform="translate(-210.556 -101.357)" fill="#1a2e35"/>
      <path id="Tracé_949" data-name="Tracé 949" d="M473.453,343.022a1.391,1.391,0,1,1,1.392,1.392,1.392,1.392,0,0,1-1.392-1.392" transform="translate(-210.556 -101.357)" fill="#f5f5f5"/>
      <path id="Tracé_950" data-name="Tracé 950" d="M467.311,343.022a1.391,1.391,0,1,1,1.392,1.392,1.392,1.392,0,0,1-1.392-1.392" transform="translate(-210.556 -101.357)" fill="#f5f5f5"/>
      <path id="Tracé_951" data-name="Tracé 951" d="M454.852,343.022a1.392,1.392,0,1,1,1.392,1.392,1.392,1.392,0,0,1-1.392-1.392" transform="translate(-210.556 -101.357)" fill="#f5f5f5"/>
      <path id="Tracé_952" data-name="Tracé 952" d="M426.788,343.022a1.392,1.392,0,1,1,1.392,1.392,1.392,1.392,0,0,1-1.392-1.392" transform="translate(-210.556 -101.357)" fill="#f5f5f5"/>
      <path id="Tracé_953" data-name="Tracé 953" d="M461.17,343.022a1.391,1.391,0,1,1,1.392,1.392,1.392,1.392,0,0,1-1.392-1.392" transform="translate(-210.556 -101.357)" fill="#ff4f5b"/>
      <path id="Tracé_954" data-name="Tracé 954" d="M443.587,343.022a1.391,1.391,0,1,1,1.392,1.392,1.392,1.392,0,0,1-1.392-1.392" transform="translate(-210.556 -101.357)" fill="#ff4f5b"/>
      <path id="Tracé_955" data-name="Tracé 955" d="M429.572,348.987a1.391,1.391,0,1,1-1.392-1.392,1.392,1.392,0,0,1,1.392,1.392" transform="translate(-210.556 -101.357)" fill="#1a2e35"/>
      <path id="Tracé_956" data-name="Tracé 956" d="M435.713,348.987a1.392,1.392,0,1,1-1.392-1.392,1.392,1.392,0,0,1,1.392,1.392" transform="translate(-210.556 -101.357)" fill="#1a2e35"/>
      <path id="Tracé_957" data-name="Tracé 957" d="M441.854,348.987a1.391,1.391,0,1,1-1.392-1.392,1.392,1.392,0,0,1,1.392,1.392" transform="translate(-210.556 -101.357)" fill="#1a2e35"/>
      <path id="Tracé_958" data-name="Tracé 958" d="M447.995,348.987A1.391,1.391,0,1,1,446.6,347.6a1.392,1.392,0,0,1,1.392,1.392" transform="translate(-210.556 -101.357)" fill="#1a2e35"/>
      <path id="Tracé_959" data-name="Tracé 959" d="M495.584,348.987a1.392,1.392,0,1,1-1.392-1.392,1.392,1.392,0,0,1,1.392,1.392" transform="translate(-210.556 -101.357)" fill="#1a2e35"/>
      <path id="Tracé_960" data-name="Tracé 960" d="M501.847,348.987a1.391,1.391,0,1,1-1.392-1.392,1.392,1.392,0,0,1,1.392,1.392" transform="translate(-210.556 -101.357)" fill="#1a2e35"/>
      <path id="Tracé_961" data-name="Tracé 961" d="M454.136,348.987a1.391,1.391,0,1,1-1.392-1.392,1.392,1.392,0,0,1,1.392,1.392" transform="translate(-210.556 -101.357)" fill="#1a2e35"/>
      <path id="Tracé_962" data-name="Tracé 962" d="M484.3,348.987A1.391,1.391,0,1,1,482.9,347.6a1.392,1.392,0,0,1,1.392,1.392" transform="translate(-210.556 -101.357)" fill="#1a2e35"/>
      <path id="Tracé_963" data-name="Tracé 963" d="M460.278,348.987a1.392,1.392,0,1,1-1.392-1.392,1.392,1.392,0,0,1,1.392,1.392" transform="translate(-210.556 -101.357)" fill="#f5f5f5"/>
      <path id="Tracé_964" data-name="Tracé 964" d="M466.419,348.987a1.392,1.392,0,1,1-1.392-1.392,1.392,1.392,0,0,1,1.392,1.392" transform="translate(-210.556 -101.357)" fill="#f5f5f5"/>
      <path id="Tracé_965" data-name="Tracé 965" d="M478.879,348.987a1.391,1.391,0,1,1-1.392-1.392,1.392,1.392,0,0,1,1.392,1.392" transform="translate(-210.556 -101.357)" fill="#f5f5f5"/>
      <path id="Tracé_966" data-name="Tracé 966" d="M506.942,348.987a1.391,1.391,0,1,1-1.392-1.392,1.392,1.392,0,0,1,1.392,1.392" transform="translate(-210.556 -101.357)" fill="#f5f5f5"/>
      <path id="Tracé_967" data-name="Tracé 967" d="M472.56,348.987a1.391,1.391,0,1,1-1.392-1.392,1.392,1.392,0,0,1,1.392,1.392" transform="translate(-210.556 -101.357)" fill="#ff4f5b"/>
      <path id="Tracé_968" data-name="Tracé 968" d="M490.143,348.987a1.392,1.392,0,1,1-1.392-1.392,1.392,1.392,0,0,1,1.392,1.392" transform="translate(-210.556 -101.357)" fill="#ff4f5b"/>
      <rect id="Rectangle-95" data-name="Rectangle" width="24.259" height="3.732" transform="translate(185.468 233.304)" fill="#1a2e35"/>
      <rect id="Rectangle-96" data-name="Rectangle" width="24.259" height="3.732" transform="translate(185.468 239.427)" fill="#1a2e35"/>
      <rect id="Rectangle-97" data-name="Rectangle" width="24.259" height="3.732" transform="translate(185.468 246.068)" fill="#1a2e35"/>
      <rect id="Rectangle-98" data-name="Rectangle" width="123.209" height="30.568" transform="translate(179.997 264.432)" fill="#375a64"/>
      <rect id="Rectangle-99" data-name="Rectangle" width="24.259" height="3.732" transform="translate(185.468 270.728)" fill="#1a2e35"/>
      <rect id="Rectangle-100" data-name="Rectangle" width="24.259" height="3.732" transform="translate(185.468 277.15)" fill="#1a2e35"/>
      <rect id="Rectangle-101" data-name="Rectangle" width="24.259" height="3.732" transform="translate(185.468 283.791)" fill="#1a2e35"/>
      <path id="Tracé_969" data-name="Tracé 969" d="M429.125,374.036a1.391,1.391,0,1,1-1.392-1.392,1.392,1.392,0,0,1,1.392,1.392" transform="translate(-210.556 -101.357)" fill="#1a2e35"/>
      <path id="Tracé_970" data-name="Tracé 970" d="M435.267,374.036a1.391,1.391,0,1,1-1.392-1.392,1.392,1.392,0,0,1,1.392,1.392" transform="translate(-210.556 -101.357)" fill="#1a2e35"/>
      <path id="Tracé_971" data-name="Tracé 971" d="M441.408,374.036a1.391,1.391,0,1,1-1.392-1.392,1.392,1.392,0,0,1,1.392,1.392" transform="translate(-210.556 -101.357)" fill="#1a2e35"/>
      <path id="Tracé_972" data-name="Tracé 972" d="M447.549,374.036a1.392,1.392,0,1,1-1.392-1.392,1.392,1.392,0,0,1,1.392,1.392" transform="translate(-210.556 -101.357)" fill="#1a2e35"/>
      <path id="Tracé_973" data-name="Tracé 973" d="M495.138,374.036a1.391,1.391,0,1,1-1.392-1.392,1.392,1.392,0,0,1,1.392,1.392" transform="translate(-210.556 -101.357)" fill="#1a2e35"/>
      <path id="Tracé_974" data-name="Tracé 974" d="M501.4,374.036a1.391,1.391,0,1,1-1.392-1.392,1.392,1.392,0,0,1,1.392,1.392" transform="translate(-210.556 -101.357)" fill="#1a2e35"/>
      <path id="Tracé_975" data-name="Tracé 975" d="M453.69,374.036a1.391,1.391,0,1,1-1.392-1.392,1.392,1.392,0,0,1,1.392,1.392" transform="translate(-210.556 -101.357)" fill="#1a2e35"/>
      <path id="Tracé_976" data-name="Tracé 976" d="M483.849,374.036a1.391,1.391,0,1,1-1.392-1.392,1.391,1.391,0,0,1,1.392,1.392" transform="translate(-210.556 -101.357)" fill="#1a2e35"/>
      <path id="Tracé_977" data-name="Tracé 977" d="M459.831,374.036a1.391,1.391,0,1,1-1.392-1.392,1.392,1.392,0,0,1,1.392,1.392" transform="translate(-210.556 -101.357)" fill="#f5f5f5"/>
      <path id="Tracé_978" data-name="Tracé 978" d="M465.973,374.036a1.391,1.391,0,1,1-1.392-1.392,1.392,1.392,0,0,1,1.392,1.392" transform="translate(-210.556 -101.357)" fill="#f5f5f5"/>
      <path id="Tracé_979" data-name="Tracé 979" d="M478.432,374.036a1.392,1.392,0,1,1-1.392-1.392,1.392,1.392,0,0,1,1.392,1.392" transform="translate(-210.556 -101.357)" fill="#f5f5f5"/>
      <path id="Tracé_980" data-name="Tracé 980" d="M506.5,374.036a1.391,1.391,0,1,1-1.392-1.392,1.392,1.392,0,0,1,1.392,1.392" transform="translate(-210.556 -101.357)" fill="#f5f5f5"/>
      <path id="Tracé_981" data-name="Tracé 981" d="M472.114,374.036a1.392,1.392,0,1,1-1.392-1.392,1.392,1.392,0,0,1,1.392,1.392" transform="translate(-210.556 -101.357)" fill="#ff4f5b"/>
      <path id="Tracé_982" data-name="Tracé 982" d="M489.7,374.036a1.391,1.391,0,1,1-1.392-1.392,1.392,1.392,0,0,1,1.392,1.392" transform="translate(-210.556 -101.357)" fill="#ff4f5b"/>
      <path id="Tracé_983" data-name="Tracé 983" d="M503.712,380.744a1.391,1.391,0,1,1,1.392,1.392,1.392,1.392,0,0,1-1.392-1.392" transform="translate(-210.556 -101.357)" fill="#1a2e35"/>
      <path id="Tracé_984" data-name="Tracé 984" d="M497.571,380.744a1.391,1.391,0,1,1,1.392,1.392,1.392,1.392,0,0,1-1.392-1.392" transform="translate(-210.556 -101.357)" fill="#1a2e35"/>
      <path id="Tracé_985" data-name="Tracé 985" d="M491.43,380.744a1.392,1.392,0,1,1,1.392,1.392,1.392,1.392,0,0,1-1.392-1.392" transform="translate(-210.556 -101.357)" fill="#1a2e35"/>
      <path id="Tracé_986" data-name="Tracé 986" d="M485.289,380.744a1.391,1.391,0,1,1,1.392,1.392,1.392,1.392,0,0,1-1.392-1.392" transform="translate(-210.556 -101.357)" fill="#1a2e35"/>
      <path id="Tracé_987" data-name="Tracé 987" d="M437.7,380.744a1.391,1.391,0,1,1,1.392,1.392,1.392,1.392,0,0,1-1.392-1.392" transform="translate(-210.556 -101.357)" fill="#1a2e35"/>
      <path id="Tracé_988" data-name="Tracé 988" d="M431.437,380.744a1.391,1.391,0,1,1,1.392,1.392,1.392,1.392,0,0,1-1.392-1.392" transform="translate(-210.556 -101.357)" fill="#1a2e35"/>
      <path id="Tracé_989" data-name="Tracé 989" d="M479.147,380.744a1.391,1.391,0,1,1,1.392,1.392,1.392,1.392,0,0,1-1.392-1.392" transform="translate(-210.556 -101.357)" fill="#1a2e35"/>
      <path id="Tracé_990" data-name="Tracé 990" d="M448.988,380.744a1.391,1.391,0,1,1,1.392,1.392,1.392,1.392,0,0,1-1.392-1.392" transform="translate(-210.556 -101.357)" fill="#1a2e35"/>
      <path id="Tracé_991" data-name="Tracé 991" d="M473.006,380.744a1.391,1.391,0,1,1,1.392,1.392,1.392,1.392,0,0,1-1.392-1.392" transform="translate(-210.556 -101.357)" fill="#f5f5f5"/>
      <path id="Tracé_992" data-name="Tracé 992" d="M466.865,380.744a1.392,1.392,0,1,1,1.392,1.392,1.392,1.392,0,0,1-1.392-1.392" transform="translate(-210.556 -101.357)" fill="#f5f5f5"/>
      <path id="Tracé_993" data-name="Tracé 993" d="M454.4,380.744a1.391,1.391,0,1,1,1.392,1.392,1.392,1.392,0,0,1-1.392-1.392" transform="translate(-210.556 -101.357)" fill="#f5f5f5"/>
      <path id="Tracé_994" data-name="Tracé 994" d="M426.342,380.744a1.391,1.391,0,1,1,1.392,1.392,1.392,1.392,0,0,1-1.392-1.392" transform="translate(-210.556 -101.357)" fill="#f5f5f5"/>
      <path id="Tracé_995" data-name="Tracé 995" d="M460.724,380.744a1.391,1.391,0,1,1,1.392,1.392,1.392,1.392,0,0,1-1.392-1.392" transform="translate(-210.556 -101.357)" fill="#ff4f5b"/>
      <path id="Tracé_996" data-name="Tracé 996" d="M443.141,380.744a1.392,1.392,0,1,1,1.392,1.392,1.392,1.392,0,0,1-1.392-1.392" transform="translate(-210.556 -101.357)" fill="#ff4f5b"/>
      <path id="Tracé_997" data-name="Tracé 997" d="M429.125,386.71a1.391,1.391,0,1,1-1.392-1.392,1.392,1.392,0,0,1,1.392,1.392" transform="translate(-210.556 -101.357)" fill="#1a2e35"/>
      <path id="Tracé_998" data-name="Tracé 998" d="M435.267,386.71a1.391,1.391,0,1,1-1.392-1.392,1.392,1.392,0,0,1,1.392,1.392" transform="translate(-210.556 -101.357)" fill="#1a2e35"/>
      <path id="Tracé_999" data-name="Tracé 999" d="M441.408,386.71a1.391,1.391,0,1,1-1.392-1.392,1.392,1.392,0,0,1,1.392,1.392" transform="translate(-210.556 -101.357)" fill="#1a2e35"/>
      <path id="Tracé_1000" data-name="Tracé 1000" d="M447.549,386.71a1.392,1.392,0,1,1-1.392-1.392,1.392,1.392,0,0,1,1.392,1.392" transform="translate(-210.556 -101.357)" fill="#1a2e35"/>
      <path id="Tracé_1001" data-name="Tracé 1001" d="M495.138,386.71a1.391,1.391,0,1,1-1.392-1.392,1.392,1.392,0,0,1,1.392,1.392" transform="translate(-210.556 -101.357)" fill="#1a2e35"/>
      <path id="Tracé_1002" data-name="Tracé 1002" d="M501.4,386.71a1.391,1.391,0,1,1-1.392-1.392,1.392,1.392,0,0,1,1.392,1.392" transform="translate(-210.556 -101.357)" fill="#1a2e35"/>
      <path id="Tracé_1003" data-name="Tracé 1003" d="M453.69,386.71a1.391,1.391,0,1,1-1.392-1.392,1.392,1.392,0,0,1,1.392,1.392" transform="translate(-210.556 -101.357)" fill="#1a2e35"/>
      <path id="Tracé_1004" data-name="Tracé 1004" d="M483.849,386.71a1.391,1.391,0,1,1-1.392-1.392,1.391,1.391,0,0,1,1.392,1.392" transform="translate(-210.556 -101.357)" fill="#1a2e35"/>
      <path id="Tracé_1005" data-name="Tracé 1005" d="M459.831,386.71a1.391,1.391,0,1,1-1.392-1.392,1.392,1.392,0,0,1,1.392,1.392" transform="translate(-210.556 -101.357)" fill="#f5f5f5"/>
      <path id="Tracé_1006" data-name="Tracé 1006" d="M465.973,386.71a1.391,1.391,0,1,1-1.392-1.392,1.392,1.392,0,0,1,1.392,1.392" transform="translate(-210.556 -101.357)" fill="#f5f5f5"/>
      <path id="Tracé_1007" data-name="Tracé 1007" d="M478.432,386.71a1.392,1.392,0,1,1-1.392-1.392,1.392,1.392,0,0,1,1.392,1.392" transform="translate(-210.556 -101.357)" fill="#f5f5f5"/>
      <path id="Tracé_1008" data-name="Tracé 1008" d="M506.5,386.71a1.391,1.391,0,1,1-1.392-1.392,1.392,1.392,0,0,1,1.392,1.392" transform="translate(-210.556 -101.357)" fill="#f5f5f5"/>
      <path id="Tracé_1009" data-name="Tracé 1009" d="M472.114,386.71a1.392,1.392,0,1,1-1.392-1.392,1.392,1.392,0,0,1,1.392,1.392" transform="translate(-210.556 -101.357)" fill="#ff4f5b"/>
      <path id="Tracé_1010" data-name="Tracé 1010" d="M489.7,386.71a1.391,1.391,0,1,1-1.392-1.392,1.392,1.392,0,0,1,1.392,1.392" transform="translate(-210.556 -101.357)" fill="#ff4f5b"/>
      <path id="Tracé_1011" data-name="Tracé 1011" d="M532.285,320.862l-18.523.049V290.343l18.523-.049Z" transform="translate(-210.556 -100.931)" fill="#1a2e35"/>
      <path id="Tracé_1012" data-name="Tracé 1012" d="M532.285,283.695l-18.523.049V253.176l18.523-.049Z" transform="translate(-210.556 -100.722)" fill="#1a2e35"/>
      <path id="Tracé_1013" data-name="Tracé 1013" d="M532.285,358.347l-18.523.049V327.828l18.523-.049Z" transform="translate(-210.556 -101.357)" fill="#1a2e35"/>
      <path id="Tracé_1014" data-name="Tracé 1014" d="M532.285,396.307l-18.523.049V365.788l18.523-.049Z" transform="translate(-210.556 -101.357)" fill="#1a2e35"/>
      <rect id="Rectangle-102" data-name="Rectangle" width="123.209" height="30.568" transform="translate(180.889 152.173)" fill="#375a64"/>
      <rect id="Rectangle-103" data-name="Rectangle" width="24.259" height="3.732" transform="translate(186.36 158.516)" fill="#1a2e35"/>
      <rect id="Rectangle-104" data-name="Rectangle" width="24.259" height="3.732" transform="translate(186.36 164.905)" fill="#1a2e35"/>
      <rect id="Rectangle-105" data-name="Rectangle" width="24.259" height="3.732" transform="translate(186.36 171.512)" fill="#1a2e35"/>
      <path id="Tracé_1015" data-name="Tracé 1015" d="M430.769,261.444a1.392,1.392,0,1,1-1.392-1.392,1.392,1.392,0,0,1,1.392,1.392" transform="translate(-210.556 -100.675)" fill="#1a2e35"/>
      <path id="Tracé_1016" data-name="Tracé 1016" d="M436.91,261.444a1.391,1.391,0,1,1-1.392-1.392,1.392,1.392,0,0,1,1.392,1.392" transform="translate(-210.556 -100.675)" fill="#1a2e35"/>
      <path id="Tracé_1017" data-name="Tracé 1017" d="M443.051,261.444a1.391,1.391,0,1,1-1.392-1.392,1.392,1.392,0,0,1,1.392,1.392" transform="translate(-210.556 -100.675)" fill="#1a2e35"/>
      <path id="Tracé_1018" data-name="Tracé 1018" d="M449.193,261.444a1.391,1.391,0,1,1-1.392-1.392,1.392,1.392,0,0,1,1.392,1.392" transform="translate(-210.556 -100.675)" fill="#1a2e35"/>
      <path id="Tracé_1019" data-name="Tracé 1019" d="M496.781,261.444a1.392,1.392,0,1,1-1.392-1.392,1.392,1.392,0,0,1,1.392,1.392" transform="translate(-210.556 -100.675)" fill="#1a2e35"/>
      <path id="Tracé_1020" data-name="Tracé 1020" d="M503.044,261.444a1.392,1.392,0,1,1-1.392-1.392,1.392,1.392,0,0,1,1.392,1.392" transform="translate(-210.556 -100.675)" fill="#1a2e35"/>
      <path id="Tracé_1021" data-name="Tracé 1021" d="M455.334,261.444a1.392,1.392,0,1,1-1.392-1.392,1.392,1.392,0,0,1,1.392,1.392" transform="translate(-210.556 -100.675)" fill="#1a2e35"/>
      <path id="Tracé_1022" data-name="Tracé 1022" d="M485.493,261.444a1.392,1.392,0,1,1-1.392-1.392,1.392,1.392,0,0,1,1.392,1.392" transform="translate(-210.556 -100.675)" fill="#1a2e35"/>
      <path id="Tracé_1023" data-name="Tracé 1023" d="M461.475,261.444a1.392,1.392,0,1,1-1.392-1.392,1.392,1.392,0,0,1,1.392,1.392" transform="translate(-210.556 -100.675)" fill="#f5f5f5"/>
      <path id="Tracé_1024" data-name="Tracé 1024" d="M467.616,261.444a1.391,1.391,0,1,1-1.392-1.392,1.392,1.392,0,0,1,1.392,1.392" transform="translate(-210.556 -100.675)" fill="#f5f5f5"/>
      <path id="Tracé_1025" data-name="Tracé 1025" d="M480.076,261.444a1.391,1.391,0,1,1-1.392-1.392,1.392,1.392,0,0,1,1.392,1.392" transform="translate(-210.556 -100.675)" fill="#f5f5f5"/>
      <path id="Tracé_1026" data-name="Tracé 1026" d="M508.139,261.444a1.392,1.392,0,1,1-1.392-1.392,1.392,1.392,0,0,1,1.392,1.392" transform="translate(-210.556 -100.675)" fill="#f5f5f5"/>
      <path id="Tracé_1027" data-name="Tracé 1027" d="M473.757,261.444a1.391,1.391,0,1,1-1.392-1.392,1.392,1.392,0,0,1,1.392,1.392" transform="translate(-210.556 -100.675)" fill="#ff4f5b"/>
      <path id="Tracé_1028" data-name="Tracé 1028" d="M491.341,261.444a1.391,1.391,0,1,1-1.392-1.392,1.392,1.392,0,0,1,1.392,1.392" transform="translate(-210.556 -100.675)" fill="#ff4f5b"/>
      <path id="Tracé_1029" data-name="Tracé 1029" d="M505.356,268.152a1.392,1.392,0,1,1,1.392,1.392,1.392,1.392,0,0,1-1.392-1.392" transform="translate(-210.556 -100.709)" fill="#1a2e35"/>
      <path id="Tracé_1030" data-name="Tracé 1030" d="M499.215,268.152a1.391,1.391,0,1,1,1.392,1.392,1.392,1.392,0,0,1-1.392-1.392" transform="translate(-210.556 -100.709)" fill="#1a2e35"/>
      <path id="Tracé_1031" data-name="Tracé 1031" d="M493.073,268.152a1.391,1.391,0,1,1,1.392,1.392,1.392,1.392,0,0,1-1.392-1.392" transform="translate(-210.556 -100.709)" fill="#1a2e35"/>
      <path id="Tracé_1032" data-name="Tracé 1032" d="M486.932,268.152a1.391,1.391,0,1,1,1.392,1.392,1.392,1.392,0,0,1-1.392-1.392" transform="translate(-210.556 -100.709)" fill="#1a2e35"/>
      <path id="Tracé_1033" data-name="Tracé 1033" d="M439.343,268.152a1.392,1.392,0,1,1,1.392,1.392,1.392,1.392,0,0,1-1.392-1.392" transform="translate(-210.556 -100.709)" fill="#1a2e35"/>
      <path id="Tracé_1034" data-name="Tracé 1034" d="M433.081,268.152a1.392,1.392,0,1,1,1.392,1.392,1.392,1.392,0,0,1-1.392-1.392" transform="translate(-210.556 -100.709)" fill="#1a2e35"/>
      <path id="Tracé_1035" data-name="Tracé 1035" d="M480.791,268.152a1.392,1.392,0,1,1,1.392,1.392,1.392,1.392,0,0,1-1.392-1.392" transform="translate(-210.556 -100.709)" fill="#1a2e35"/>
      <path id="Tracé_1036" data-name="Tracé 1036" d="M450.632,268.152a1.392,1.392,0,1,1,1.392,1.392,1.392,1.392,0,0,1-1.392-1.392" transform="translate(-210.556 -100.709)" fill="#1a2e35"/>
      <path id="Tracé_1037" data-name="Tracé 1037" d="M474.65,268.152a1.392,1.392,0,1,1,1.392,1.392,1.392,1.392,0,0,1-1.392-1.392" transform="translate(-210.556 -100.709)" fill="#f5f5f5"/>
      <path id="Tracé_1038" data-name="Tracé 1038" d="M468.509,268.152a1.391,1.391,0,1,1,1.392,1.392,1.392,1.392,0,0,1-1.392-1.392" transform="translate(-210.556 -100.709)" fill="#f5f5f5"/>
      <path id="Tracé_1039" data-name="Tracé 1039" d="M456.049,268.152a1.391,1.391,0,1,1,1.392,1.392,1.392,1.392,0,0,1-1.392-1.392" transform="translate(-210.556 -100.709)" fill="#f5f5f5"/>
      <path id="Tracé_1040" data-name="Tracé 1040" d="M427.986,268.152a1.392,1.392,0,1,1,1.392,1.392,1.392,1.392,0,0,1-1.392-1.392" transform="translate(-210.556 -100.709)" fill="#f5f5f5"/>
      <path id="Tracé_1041" data-name="Tracé 1041" d="M462.367,268.152a1.391,1.391,0,1,1,1.392,1.392,1.392,1.392,0,0,1-1.392-1.392" transform="translate(-210.556 -100.709)" fill="#ff4f5b"/>
      <path id="Tracé_1042" data-name="Tracé 1042" d="M444.784,268.152a1.391,1.391,0,1,1,1.392,1.392,1.392,1.392,0,0,1-1.392-1.392" transform="translate(-210.556 -100.709)" fill="#ff4f5b"/>
      <path id="Tracé_1043" data-name="Tracé 1043" d="M430.769,274.118a1.392,1.392,0,1,1-1.392-1.392,1.392,1.392,0,0,1,1.392,1.392" transform="translate(-210.556 -100.74)" fill="#1a2e35"/>
      <path id="Tracé_1044" data-name="Tracé 1044" d="M436.91,274.118a1.391,1.391,0,1,1-1.392-1.392,1.392,1.392,0,0,1,1.392,1.392" transform="translate(-210.556 -100.74)" fill="#1a2e35"/>
      <path id="Tracé_1045" data-name="Tracé 1045" d="M443.051,274.118a1.391,1.391,0,1,1-1.392-1.392,1.392,1.392,0,0,1,1.392,1.392" transform="translate(-210.556 -100.74)" fill="#1a2e35"/>
      <path id="Tracé_1046" data-name="Tracé 1046" d="M449.193,274.118a1.391,1.391,0,1,1-1.392-1.392,1.392,1.392,0,0,1,1.392,1.392" transform="translate(-210.556 -100.74)" fill="#1a2e35"/>
      <path id="Tracé_1047" data-name="Tracé 1047" d="M496.781,274.118a1.392,1.392,0,1,1-1.392-1.392,1.392,1.392,0,0,1,1.392,1.392" transform="translate(-210.556 -100.74)" fill="#1a2e35"/>
      <path id="Tracé_1048" data-name="Tracé 1048" d="M503.044,274.118a1.392,1.392,0,1,1-1.392-1.392,1.392,1.392,0,0,1,1.392,1.392" transform="translate(-210.556 -100.74)" fill="#1a2e35"/>
      <path id="Tracé_1049" data-name="Tracé 1049" d="M455.334,274.118a1.392,1.392,0,1,1-1.392-1.392,1.392,1.392,0,0,1,1.392,1.392" transform="translate(-210.556 -100.74)" fill="#1a2e35"/>
      <path id="Tracé_1050" data-name="Tracé 1050" d="M485.493,274.118a1.392,1.392,0,1,1-1.392-1.392,1.392,1.392,0,0,1,1.392,1.392" transform="translate(-210.556 -100.74)" fill="#1a2e35"/>
      <path id="Tracé_1051" data-name="Tracé 1051" d="M461.475,274.118a1.392,1.392,0,1,1-1.392-1.392,1.392,1.392,0,0,1,1.392,1.392" transform="translate(-210.556 -100.74)" fill="#f5f5f5"/>
      <path id="Tracé_1052" data-name="Tracé 1052" d="M467.616,274.118a1.391,1.391,0,1,1-1.392-1.392,1.392,1.392,0,0,1,1.392,1.392" transform="translate(-210.556 -100.74)" fill="#f5f5f5"/>
      <path id="Tracé_1053" data-name="Tracé 1053" d="M480.076,274.118a1.391,1.391,0,1,1-1.392-1.392,1.392,1.392,0,0,1,1.392,1.392" transform="translate(-210.556 -100.74)" fill="#f5f5f5"/>
      <path id="Tracé_1054" data-name="Tracé 1054" d="M508.139,274.118a1.392,1.392,0,1,1-1.392-1.392,1.392,1.392,0,0,1,1.392,1.392" transform="translate(-210.556 -100.74)" fill="#f5f5f5"/>
      <path id="Tracé_1055" data-name="Tracé 1055" d="M473.757,274.118a1.391,1.391,0,1,1-1.392-1.392,1.392,1.392,0,0,1,1.392,1.392" transform="translate(-210.556 -100.74)" fill="#ff4f5b"/>
      <path id="Tracé_1056" data-name="Tracé 1056" d="M491.341,274.118a1.391,1.391,0,1,1-1.392-1.392,1.392,1.392,0,0,1,1.392,1.392" transform="translate(-210.556 -100.74)" fill="#ff4f5b"/>
      <rect id="Rectangle-106" data-name="Rectangle" width="96.612" height="294.45" transform="translate(0.408)"/>
      <path id="Tracé_1057" data-name="Tracé 1057" d="M383.794,394.307H307.576l-.137-294.45h76.355Z" transform="translate(-210.556 -99.857)"/>
      <rect id="Rectangle-107" data-name="Rectangle" width="81.954" height="23.072" transform="translate(5.757 47.105)" fill="#1a2e35"/>
      <rect id="Rectangle-108" data-name="Rectangle" width="4.59" height="17.658" transform="translate(8.044 49.996)" fill="#375a64"/>
      <path id="Tracé_1058" data-name="Tracé 1058" d="M228.6,153.838a1.458,1.458,0,1,1-1.459-1.459,1.459,1.459,0,0,1,1.459,1.459" transform="translate(-210.556 -99.857)" fill="#fff"/>
      <path id="Tracé_1059" data-name="Tracé 1059" d="M228.6,160.077a1.458,1.458,0,1,1-1.459-1.458,1.459,1.459,0,0,1,1.459,1.458" transform="translate(-210.556 -100.157)" fill="#fff"/>
      <rect id="Rectangle-109" data-name="Rectangle" width="4.51" height="13.564" transform="translate(23.87 52.244)" fill="#375a64"/>
      <rect id="Rectangle-110" data-name="Rectangle" width="4.51" height="13.564" transform="translate(30.383 52.244)" fill="#375a64"/>
      <rect id="Rectangle-111" data-name="Rectangle" width="4.51" height="13.564" transform="translate(36.897 52.244)" fill="#375a64"/>
      <rect id="Rectangle-112" data-name="Rectangle" width="4.51" height="13.564" transform="translate(43.411 52.244)" fill="#375a64"/>
      <rect id="Rectangle-113" data-name="Rectangle" width="4.51" height="13.564" transform="translate(49.925 52.244)" fill="#375a64"/>
      <rect id="Rectangle-114" data-name="Rectangle" width="4.51" height="13.564" transform="translate(56.439 52.244)" fill="#375a64"/>
      <rect id="Rectangle-115" data-name="Rectangle" width="4.51" height="13.564" transform="translate(62.953 52.244)" fill="#375a64"/>
      <rect id="Rectangle-116" data-name="Rectangle" width="4.51" height="13.564" transform="translate(69.467 52.244)" fill="#375a64"/>
      <rect id="Rectangle-117" data-name="Rectangle" width="4.51" height="13.564" transform="translate(75.981 52.244)" fill="#375a64"/>
      <rect id="Rectangle-118" data-name="Rectangle" width="4.51" height="13.564" transform="translate(82.494 52.244)" fill="#375a64"/>
      <rect id="Rectangle-119" data-name="Rectangle" width="81.954" height="23.073" transform="translate(5.757 80.069)" fill="#1a2e35"/>
      <rect id="Rectangle-120" data-name="Rectangle" width="4.59" height="17.658" transform="translate(8.044 82.963)" fill="#375a64"/>
      <path id="Tracé_1060" data-name="Tracé 1060" d="M228.6,186.984a1.458,1.458,0,1,1-1.459-1.459,1.46,1.46,0,0,1,1.459,1.459" transform="translate(-210.556 -100.295)" fill="#fff"/>
      <path id="Tracé_1061" data-name="Tracé 1061" d="M228.6,193.223a1.458,1.458,0,1,1-1.459-1.459,1.459,1.459,0,0,1,1.459,1.459" transform="translate(-210.556 -100.327)" fill="#fff"/>
      <rect id="Rectangle-121" data-name="Rectangle" width="4.51" height="13.564" transform="translate(23.87 85.214)" fill="#375a64"/>
      <rect id="Rectangle-122" data-name="Rectangle" width="4.51" height="13.564" transform="translate(30.383 85.214)" fill="#375a64"/>
      <rect id="Rectangle-123" data-name="Rectangle" width="4.51" height="13.564" transform="translate(36.897 85.214)" fill="#375a64"/>
      <rect id="Rectangle-124" data-name="Rectangle" width="4.51" height="13.564" transform="translate(43.411 85.214)" fill="#375a64"/>
      <rect id="Rectangle-125" data-name="Rectangle" width="4.51" height="13.564" transform="translate(49.925 85.214)" fill="#375a64"/>
      <rect id="Rectangle-126" data-name="Rectangle" width="4.51" height="13.564" transform="translate(56.439 85.214)" fill="#375a64"/>
      <rect id="Rectangle-127" data-name="Rectangle" width="4.51" height="13.564" transform="translate(62.953 85.214)" fill="#375a64"/>
      <rect id="Rectangle-128" data-name="Rectangle" width="4.51" height="13.564" transform="translate(69.467 85.214)" fill="#375a64"/>
      <rect id="Rectangle-129" data-name="Rectangle" width="4.51" height="13.564" transform="translate(75.981 85.214)" fill="#375a64"/>
      <rect id="Rectangle-130" data-name="Rectangle" width="4.51" height="13.564" transform="translate(82.494 85.214)" fill="#375a64"/>
      <rect id="Rectangle-131" data-name="Rectangle" width="81.954" height="23.073" transform="translate(5.757 113.298)" fill="#1a2e35"/>
      <rect id="Rectangle-132" data-name="Rectangle" width="4.59" height="17.658" transform="translate(8.044 116.195)" fill="#375a64"/>
      <path id="Tracé_1062" data-name="Tracé 1062" d="M228.6,220.4a1.458,1.458,0,1,1-1.459-1.458A1.459,1.459,0,0,1,228.6,220.4" transform="translate(-210.556 -100.465)" fill="#fff"/>
      <path id="Tracé_1063" data-name="Tracé 1063" d="M228.6,226.634a1.458,1.458,0,1,1-1.459-1.459,1.459,1.459,0,0,1,1.459,1.459" transform="translate(-210.556 -100.497)" fill="#fff"/>
      <rect id="Rectangle-133" data-name="Rectangle" width="4.51" height="13.564" transform="translate(23.87 118.448)" fill="#375a64"/>
      <rect id="Rectangle-134" data-name="Rectangle" width="4.51" height="13.564" transform="translate(30.383 118.448)" fill="#375a64"/>
      <rect id="Rectangle-135" data-name="Rectangle" width="4.51" height="13.564" transform="translate(36.897 118.448)" fill="#375a64"/>
      <rect id="Rectangle-136" data-name="Rectangle" width="4.51" height="13.564" transform="translate(43.411 118.448)" fill="#375a64"/>
      <rect id="Rectangle-137" data-name="Rectangle" width="4.51" height="13.564" transform="translate(49.925 118.448)" fill="#375a64"/>
      <rect id="Rectangle-138" data-name="Rectangle" width="4.51" height="13.564" transform="translate(56.439 118.448)" fill="#375a64"/>
      <rect id="Rectangle-139" data-name="Rectangle" width="4.51" height="13.564" transform="translate(62.953 118.448)" fill="#375a64"/>
      <rect id="Rectangle-140" data-name="Rectangle" width="4.51" height="13.564" transform="translate(69.467 118.448)" fill="#375a64"/>
      <rect id="Rectangle-141" data-name="Rectangle" width="4.51" height="13.564" transform="translate(75.981 118.448)" fill="#375a64"/>
      <rect id="Rectangle-142" data-name="Rectangle" width="4.51" height="13.564" transform="translate(82.494 118.448)" fill="#375a64"/>
      <rect id="Rectangle-143" data-name="Rectangle" width="81.954" height="23.072" transform="translate(5.757 149.192)" fill="#1a2e35"/>
      <rect id="Rectangle-144" data-name="Rectangle" width="4.59" height="17.658" transform="translate(8.044 152.093)" fill="#375a64"/>
      <path id="Tracé_1064" data-name="Tracé 1064" d="M228.6,256.487a1.458,1.458,0,1,1-1.459-1.458,1.459,1.459,0,0,1,1.459,1.458" transform="translate(-210.556 -100.65)" fill="#fff"/>
      <path id="Tracé_1065" data-name="Tracé 1065" d="M228.6,262.726a1.458,1.458,0,1,1-1.459-1.459,1.459,1.459,0,0,1,1.459,1.459" transform="translate(-210.556 -100.682)" fill="#fff"/>
      <rect id="Rectangle-145" data-name="Rectangle" width="4.51" height="13.564" transform="translate(23.87 154.349)" fill="#375a64"/>
      <rect id="Rectangle-146" data-name="Rectangle" width="4.51" height="13.564" transform="translate(30.383 154.349)" fill="#375a64"/>
      <rect id="Rectangle-147" data-name="Rectangle" width="4.51" height="13.564" transform="translate(36.897 154.349)" fill="#375a64"/>
      <rect id="Rectangle-148" data-name="Rectangle" width="4.51" height="13.564" transform="translate(43.411 154.349)" fill="#375a64"/>
      <rect id="Rectangle-149" data-name="Rectangle" width="4.51" height="13.564" transform="translate(49.925 154.349)" fill="#375a64"/>
      <rect id="Rectangle-150" data-name="Rectangle" width="4.51" height="13.564" transform="translate(56.439 154.349)" fill="#375a64"/>
      <rect id="Rectangle-151" data-name="Rectangle" width="4.51" height="13.564" transform="translate(62.953 154.349)" fill="#375a64"/>
      <rect id="Rectangle-152" data-name="Rectangle" width="4.51" height="13.564" transform="translate(69.467 154.349)" fill="#375a64"/>
      <rect id="Rectangle-153" data-name="Rectangle" width="4.51" height="13.564" transform="translate(75.981 154.349)" fill="#375a64"/>
      <rect id="Rectangle-154" data-name="Rectangle" width="4.51" height="13.564" transform="translate(82.494 154.349)" fill="#375a64"/>
      <rect id="Rectangle-155" data-name="Rectangle" width="81.954" height="23.073" transform="translate(5.757 185.441)" fill="#1a2e35"/>
      <rect id="Rectangle-156" data-name="Rectangle" width="4.59" height="17.658" transform="translate(8.044 188.346)" fill="#375a64"/>
      <path id="Tracé_1066" data-name="Tracé 1066" d="M228.6,292.936a1.458,1.458,0,1,1-1.459-1.459,1.459,1.459,0,0,1,1.459,1.459" transform="translate(-210.556 -100.836)" fill="#fff"/>
      <path id="Tracé_1067" data-name="Tracé 1067" d="M228.6,299.176a1.458,1.458,0,1,1-1.459-1.459,1.459,1.459,0,0,1,1.459,1.459" transform="translate(-210.556 -100.868)" fill="#fff"/>
      <rect id="Rectangle-157" data-name="Rectangle" width="4.51" height="13.564" transform="translate(23.87 190.605)" fill="#375a64"/>
      <rect id="Rectangle-158" data-name="Rectangle" width="4.51" height="13.564" transform="translate(30.383 190.605)" fill="#375a64"/>
      <rect id="Rectangle-159" data-name="Rectangle" width="4.51" height="13.564" transform="translate(36.897 190.605)" fill="#375a64"/>
      <rect id="Rectangle-160" data-name="Rectangle" width="4.51" height="13.564" transform="translate(43.411 190.605)" fill="#375a64"/>
      <rect id="Rectangle-161" data-name="Rectangle" width="4.51" height="13.564" transform="translate(49.925 190.605)" fill="#375a64"/>
      <rect id="Rectangle-162" data-name="Rectangle" width="4.51" height="13.564" transform="translate(56.439 190.605)" fill="#375a64"/>
      <rect id="Rectangle-163" data-name="Rectangle" width="4.51" height="13.564" transform="translate(62.953 190.605)" fill="#375a64"/>
      <rect id="Rectangle-164" data-name="Rectangle" width="4.51" height="13.564" transform="translate(69.467 190.605)" fill="#375a64"/>
      <rect id="Rectangle-165" data-name="Rectangle" width="4.51" height="13.564" transform="translate(75.981 190.605)" fill="#375a64"/>
      <rect id="Rectangle-166" data-name="Rectangle" width="4.51" height="13.564" transform="translate(82.494 190.605)" fill="#375a64"/>
      <rect id="Rectangle-167" data-name="Rectangle" width="81.954" height="23.072" transform="translate(5.757 257.506)" fill="#1a2e35"/>
      <rect id="Rectangle-168" data-name="Rectangle" width="4.59" height="17.658" transform="translate(8.044 260.407)" fill="#375a64"/>
      <path id="Tracé_1068" data-name="Tracé 1068" d="M228.6,365.478a1.458,1.458,0,1,1-1.459-1.459,1.459,1.459,0,0,1,1.459,1.459" transform="translate(-210.556 -101.357)" fill="#fff"/>
      <path id="Tracé_1069" data-name="Tracé 1069" d="M228.6,371.717a1.458,1.458,0,1,1-1.459-1.458,1.459,1.459,0,0,1,1.459,1.458" transform="translate(-210.556 -101.357)" fill="#fff"/>
      <rect id="Rectangle-169" data-name="Rectangle" width="4.51" height="13.564" transform="translate(23.87 262.662)" fill="#375a64"/>
      <rect id="Rectangle-170" data-name="Rectangle" width="4.51" height="13.564" transform="translate(30.383 262.662)" fill="#375a64"/>
      <rect id="Rectangle-171" data-name="Rectangle" width="4.51" height="13.564" transform="translate(36.897 262.662)" fill="#375a64"/>
      <rect id="Rectangle-172" data-name="Rectangle" width="4.51" height="13.564" transform="translate(43.411 262.662)" fill="#375a64"/>
      <rect id="Rectangle-173" data-name="Rectangle" width="4.51" height="13.564" transform="translate(49.925 262.662)" fill="#375a64"/>
      <rect id="Rectangle-174" data-name="Rectangle" width="4.51" height="13.564" transform="translate(56.439 262.662)" fill="#375a64"/>
      <rect id="Rectangle-175" data-name="Rectangle" width="4.51" height="13.564" transform="translate(62.953 262.662)" fill="#375a64"/>
      <rect id="Rectangle-176" data-name="Rectangle" width="4.51" height="13.564" transform="translate(69.467 262.662)" fill="#375a64"/>
      <rect id="Rectangle-177" data-name="Rectangle" width="4.51" height="13.564" transform="translate(75.981 262.662)" fill="#375a64"/>
      <rect id="Rectangle-178" data-name="Rectangle" width="4.51" height="13.564" transform="translate(82.494 262.662)" fill="#375a64"/>
      <rect id="Rectangle-179" data-name="Rectangle" width="81.954" height="23.072" transform="translate(5.757 221.544)" fill="#1a2e35"/>
      <rect id="Rectangle-180" data-name="Rectangle" width="4.59" height="17.658" transform="translate(8.044 224.453)" fill="#375a64"/>
      <path id="Tracé_1070" data-name="Tracé 1070" d="M228.6,329.238a1.458,1.458,0,1,1-1.459-1.458,1.459,1.459,0,0,1,1.459,1.458" transform="translate(-210.556 -101.022)" fill="#fff"/>
      <path id="Tracé_1071" data-name="Tracé 1071" d="M228.6,335.478a1.458,1.458,0,1,1-1.459-1.459,1.459,1.459,0,0,1,1.459,1.459" transform="translate(-210.556 -101.053)" fill="#fff"/>
      <rect id="Rectangle-181" data-name="Rectangle" width="4.51" height="13.564" transform="translate(23.87 226.715)" fill="#375a64"/>
      <rect id="Rectangle-182" data-name="Rectangle" width="4.51" height="13.564" transform="translate(30.383 226.715)" fill="#375a64"/>
      <rect id="Rectangle-183" data-name="Rectangle" width="4.51" height="13.564" transform="translate(36.897 226.715)" fill="#375a64"/>
      <rect id="Rectangle-184" data-name="Rectangle" width="4.51" height="13.564" transform="translate(43.411 226.715)" fill="#375a64"/>
      <rect id="Rectangle-185" data-name="Rectangle" width="4.51" height="13.564" transform="translate(49.925 226.715)" fill="#375a64"/>
      <rect id="Rectangle-186" data-name="Rectangle" width="4.51" height="13.564" transform="translate(56.439 226.715)" fill="#375a64"/>
      <rect id="Rectangle-187" data-name="Rectangle" width="4.51" height="13.564" transform="translate(62.953 226.715)" fill="#375a64"/>
      <rect id="Rectangle-188" data-name="Rectangle" width="4.51" height="13.564" transform="translate(69.467 226.715)" fill="#375a64"/>
      <rect id="Rectangle-189" data-name="Rectangle" width="4.51" height="13.564" transform="translate(75.981 226.715)" fill="#375a64"/>
      <rect id="Rectangle-190" data-name="Rectangle" width="4.51" height="13.564" transform="translate(82.494 226.715)" fill="#375a64"/>
      <path id="Tracé_1072" data-name="Tracé 1072" d="M266.995,147.223a3.466,3.466,0,0,1-.082-.713c-.033-.467-.06-1.159-.081-2.049s-.039-1.979-.1-3.237a20.521,20.521,0,0,0-.56-4.211,15.077,15.077,0,0,0-2.189-4.616,10.222,10.222,0,0,0-4.493-3.613,21.759,21.759,0,0,0-6.37-1.294c-2.28-.2-4.64-.4-7.058-.611-9.674-.84-18.446-1.376-24.8-1.491-3.179-.068-5.752-.047-7.531-.038l-2.048.025a3.734,3.734,0,0,1-.716-.026,3.739,3.739,0,0,1,.711-.079c.52-.032,1.2-.071,2.048-.122,1.779-.072,4.356-.149,7.541-.128,6.371.02,15.164.5,24.843,1.339l7.061.623a21.952,21.952,0,0,1,6.508,1.359,10.611,10.611,0,0,1,4.66,3.806,15.249,15.249,0,0,1,2.193,4.77,20.2,20.2,0,0,1,.495,4.3c.033,1.267.018,2.357.01,3.245-.007.849-.012,1.529-.017,2.049a3.926,3.926,0,0,1-.022.716" transform="translate(-210.556 -99.857)" fill="#f6f8f9"/>
      <path id="Tracé_1073" data-name="Tracé 1073" d="M242.134,147.223a3.283,3.283,0,0,1-.048-.674c-.006-.494-.013-1.134-.021-1.927-.006-.837-.005-1.862-.1-3.039a9.337,9.337,0,0,0-1.007-3.8,7.275,7.275,0,0,0-3.7-2.849,10.172,10.172,0,0,0-5.4-.55,9.137,9.137,0,0,0-2.788.946,5.3,5.3,0,0,0-2.166,2.051,2.927,2.927,0,0,0,.008,2.9,3.875,3.875,0,0,0,2.457,1.847,3.131,3.131,0,0,0,2.878-.832,4.252,4.252,0,0,0,1.291-2.738,4.152,4.152,0,0,0-.859-2.8,6.115,6.115,0,0,0-2.169-1.915,8.056,8.056,0,0,0-2.71-.7c-.924-.136-1.823-.257-2.695-.354-1.744-.2-3.376-.308-4.867-.37-2.985-.115-5.408-.069-7.082-.067-.794,0-1.433,0-1.928,0a3.383,3.383,0,0,1-.673-.034,3.149,3.149,0,0,1,.671-.07l1.926-.1c1.673-.064,4.1-.167,7.1-.1,1.5.038,3.143.129,4.9.308.878.088,1.784.2,2.716.33.468.075.931.133,1.421.223a5.441,5.441,0,0,1,1.441.5,6.573,6.573,0,0,1,2.357,2.054,4.669,4.669,0,0,1,.961,3.129,4.745,4.745,0,0,1-1.444,3.074,3.647,3.647,0,0,1-3.349.965,4.377,4.377,0,0,1-2.795-2.1,3.448,3.448,0,0,1-.005-3.388,5.784,5.784,0,0,1,2.377-2.245,9.563,9.563,0,0,1,2.947-.984,10.559,10.559,0,0,1,5.639.621,7.619,7.619,0,0,1,3.865,3.07,9.511,9.511,0,0,1,.977,3.963c.064,1.2.032,2.223.007,3.061-.031.794-.057,1.433-.076,1.927a3.294,3.294,0,0,1-.057.672" transform="translate(-210.556 -99.857)" fill="#f6f8f9"/>
      <path id="Tracé_1074" data-name="Tracé 1074" d="M273.685,147.223a4.452,4.452,0,0,1-.166-.765c-.088-.5-.228-1.243-.431-2.189a42.6,42.6,0,0,0-2.413-7.818,22.788,22.788,0,0,0-7.132-9.575,13.476,13.476,0,0,0-6.538-2.489,67.806,67.806,0,0,0-7.685-.412c-10.59-.2-20.19-.159-27.135-.428-3.472-.12-6.279-.284-8.217-.419-.929-.079-1.67-.14-2.229-.187a4.5,4.5,0,0,1-.775-.1,4.485,4.485,0,0,1,.782,0l2.234.087c1.939.076,4.746.181,8.216.254,6.939.176,16.531.076,27.135.275a66.651,66.651,0,0,1,7.748.43,13.876,13.876,0,0,1,6.753,2.61,20.72,20.72,0,0,1,4.51,4.77,27.686,27.686,0,0,1,2.673,5.046,39.49,39.49,0,0,1,2.272,7.92c.173.958.281,1.706.336,2.214a4.366,4.366,0,0,1,.062.78" transform="translate(-210.556 -99.857)" fill="#f6f8f9" stroke="rgba(0,0,0,0)" stroke-width="1"/>
      <rect id="Rectangle-191" data-name="Rectangle" width="79.699" height="11.569" transform="translate(6.885 3.681)" fill="#1a2e35"/>
      <rect id="Rectangle-192" data-name="Rectangle" width="43.392" height="5.785" transform="translate(24.412 9.465)" fill="#375a64"/>
      <path id="Tracé_1075" data-name="Tracé 1075" d="M329.655,343.489c.008.056-.879.144-2.41.588a20.886,20.886,0,0,0-6.02,2.95,16.8,16.8,0,0,0-3.381,3.142,11.738,11.738,0,0,0-1.388,2.144,14.414,14.414,0,0,0-.869,2.569c-.911,3.654-.635,7.84-.454,12.2s-.1,8.694-1.826,12.182a13.56,13.56,0,0,1-3.252,4.349,15.724,15.724,0,0,1-7.726,3.65,13.487,13.487,0,0,1-2.937.125,9.822,9.822,0,0,1-1.832-.289,3.023,3.023,0,0,1-.617-.188c.013-.063.87.207,2.459.274a14.141,14.141,0,0,0,2.879-.209,15.764,15.764,0,0,0,3.63-1.165,15.564,15.564,0,0,0,3.856-2.52,13.219,13.219,0,0,0,3.107-4.234c1.643-3.386,1.919-7.625,1.738-11.956s-.45-8.59.509-12.335a14.748,14.748,0,0,1,.924-2.656,12.048,12.048,0,0,1,1.464-2.215,16.91,16.91,0,0,1,3.5-3.17,19.922,19.922,0,0,1,6.178-2.844,13.483,13.483,0,0,1,1.82-.346,3,3,0,0,1,.644-.047" transform="translate(-210.556 -101.357)" fill="#1a2e35"/>
      <rect id="Rectangle-193" data-name="Rectangle" width="6.544" height="7.959" transform="translate(82.362 281.978)" fill="#1a2e35"/>
      <rect id="Rectangle-194" data-name="Rectangle" width="36.689" height="40.198" transform="translate(119.099 222.033)" fill="#375a64"/>
      <path id="Tracé_1076" data-name="Tracé 1076" d="M360.076,343.647A12.076,12.076,0,1,1,348,331.571a12.076,12.076,0,0,1,12.076,12.076" transform="translate(-210.556 -101.357)" fill="#1a2e35"/>
      <path id="Tracé_1077" data-name="Tracé 1077" d="M354.038,343.647A6.038,6.038,0,1,1,348,337.609a6.038,6.038,0,0,1,6.038,6.038" transform="translate(-210.556 -101.357)" fill="#375a64"/>
      <path id="Tracé_1078" data-name="Tracé 1078" d="M335.739,329.629a1.122,1.122,0,1,1-1.122-1.122,1.122,1.122,0,0,1,1.122,1.122" transform="translate(-210.556 -101.023)" fill="#1a2e35"/>
      <path id="Tracé_1079" data-name="Tracé 1079" d="M361.854,329.629a1.122,1.122,0,1,1-1.122-1.122,1.122,1.122,0,0,1,1.122,1.122" transform="translate(-210.556 -101.023)" fill="#1a2e35"/>
      <path id="Tracé_1080" data-name="Tracé 1080" d="M362.094,359.314a1.122,1.122,0,1,1-1.123-1.122,1.122,1.122,0,0,1,1.123,1.122" transform="translate(-210.556 -101.357)" fill="#1a2e35"/>
      <path id="Tracé_1081" data-name="Tracé 1081" d="M335.739,359.775a1.122,1.122,0,1,1-1.122-1.122,1.122,1.122,0,0,1,1.122,1.122" transform="translate(-210.556 -101.357)" fill="#1a2e35"/>
      <rect id="Rectangle-195" data-name="Rectangle" width="2.96" height="40.198" transform="translate(155.788 222.033)" fill="#1a2e35"/>
    </g>
  </g>
</svg>
