<svg xmlns="http://www.w3.org/2000/svg" width="540.5" height="347.085" viewBox="0 0 540.5 347.085">
  <g id="illustration" transform="translate(52.506 -22.458)">
    <path id="Tracé_399" data-name="Tracé 399" d="M434.585,341.809c17.449-8.472,32.185-19.454,43.307-33.709,64.722-82.958,50.1-205.292-74.55-257.745C345.734,26.113,262.793,10.763,200.536,35.666c-50.5,20.2-81.462,58.224-107.068,92.819-16.106,21.76-29.367,45.176-49.2,65.532-25.731,26.4-54.055,61.663-25.456,92.336,38.96,41.785,112.552,60.866,179.287,73.426,72.4,13.628,153.812,15.562,220.694-11.019q8.122-3.227,15.793-6.951" transform="translate(-59.338 0)" fill="#b5ddf8"/>
    <path id="Tracé_400" data-name="Tracé 400" d="M385.274,340.35c15.437-8.433,28.475-19.365,38.315-33.555,57.261-82.579,44.325-204.353-65.956-256.566C306.666,26.1,233.286,10.819,178.206,35.608,133.529,55.715,106.135,93.565,83.481,128c-14.249,21.66-25.981,44.97-43.53,65.233-22.764,26.283-47.823,61.381-22.521,91.914,34.469,41.594,99.578,60.587,158.619,73.09C240.106,371.8,312.13,373.729,371.3,347.27q7.186-3.213,13.973-6.919" transform="translate(-0.833 -0.415)" fill="#fff" opacity="0.152"/>
    <g id="wifi" transform="translate(255.108 37.238)">
      <path id="Tracé_401" data-name="Tracé 401" d="M288.522,62.3c29.452.4,54.029,10.24,73.382,29.915a5.517,5.517,0,0,1-.629,8.645,7.347,7.347,0,0,1-9.578-.786,83.141,83.141,0,0,0-24.75-17.565c-29.967-13.847-65.811-10.452-91.627,8.78a119.085,119.085,0,0,0-9.932,8.719,7.606,7.606,0,0,1-9.814.781c-2.9-2.2-3.12-5.948-.475-8.648q24.329-24.827,61.223-29.328c1.926-.234,3.868-.416,5.81-.494,2.126-.085,4.259-.019,6.389-.019" transform="translate(-213.249 -62.28)" fill="#101041"/>
      <path id="Tracé_402" data-name="Tracé 402" d="M299.951,101.3a70.953,70.953,0,0,1,49.888,21.439c2.716,2.764,2.4,6.331-.617,8.611a7.361,7.361,0,0,1-9.676-.824,54.152,54.152,0,0,0-26.514-15.22c-21.639-5.144-40.349-.453-56.018,13.651-.583.525-1.121,1.088-1.674,1.637a7.469,7.469,0,0,1-9.6.788,5.514,5.514,0,0,1-.682-8.637A67.827,67.827,0,0,1,267,107.6c9.634-4.209,19.845-6.256,32.948-6.3" transform="translate(-222.246 -77.233)" fill="#101041"/>
      <path id="Tracé_403" data-name="Tracé 403" d="M339.579,157.373a6.065,6.065,0,0,1-4.351,5.608,7.337,7.337,0,0,1-7.586-1.676,28.868,28.868,0,0,0-10.4-6.807,30.006,30.006,0,0,0-31.816,6.686,7.145,7.145,0,0,1-7.274,1.912,5.958,5.958,0,0,1-4.736-4.95,5.293,5.293,0,0,1,1.58-4.662c14.235-15.113,40.422-17.252,57.547-4.654a39.229,39.229,0,0,1,5.385,4.755,15.915,15.915,0,0,1,2.006,3.641l-.357.146" transform="translate(-231.246 -92.295)" fill="#101041"/>
      <path id="Tracé_404" data-name="Tracé 404" d="M314.813,203.881c-7.636,0-13.7-5.331-13.7-12.048,0-6.61,6.105-11.984,13.636-12.01,7.564-.027,13.7,5.393,13.684,12.079-.02,6.659-6.067,11.976-13.624,11.979" transform="translate(-239.563 -107.321)" fill="#101041"/>
    </g>
    <g id="internet" transform="translate(164.101 22.958)">
      <g id="globe" transform="translate(0 175.749)">
        <ellipse id="Ellipse_28" data-name="Ellipse 28" cx="23.249" cy="20.471" rx="23.249" ry="20.471" transform="translate(0 0)" fill="none" stroke="#101041" stroke-linecap="round" stroke-linejoin="round" stroke-width="2"/>
        <ellipse id="Ellipse_29" data-name="Ellipse 29" cx="11.5" cy="20.471" rx="11.5" ry="20.471" transform="translate(11.75 0)" fill="none" stroke="#101041" stroke-linecap="round" stroke-linejoin="round" stroke-width="2"/>
        <path id="Tracé_405" data-name="Tracé 405" d="M171.294,279.339a25.576,25.576,0,0,0,32.216-.188" transform="translate(-164.042 -273.346)" fill="none" stroke="#101041" stroke-linecap="round" stroke-linejoin="round" stroke-width="2"/>
        <path id="Tracé_406" data-name="Tracé 406" d="M203.356,311.546a25.565,25.565,0,0,0-32.362.2" transform="translate(-164.042 -276.54)" fill="none" stroke="#101041" stroke-linecap="round" stroke-linejoin="round" stroke-width="2"/>
        <line id="Ligne_108" data-name="Ligne 108" x2="46.499" transform="translate(0 20.471)" fill="none" stroke="#101041" stroke-linecap="round" stroke-linejoin="round" stroke-width="2"/>
        <line id="Ligne_109" data-name="Ligne 109" y2="40.942" transform="translate(23.25)" fill="none" stroke="#101041" stroke-linecap="round" stroke-linejoin="round" stroke-width="2"/>
      </g>
      <line id="Ligne_110" data-name="Ligne 110" y1="2.201" transform="translate(23.363 211.1)" fill="none" stroke="#1a2e35" stroke-linecap="round" stroke-linejoin="round" stroke-width="1"/>
      <line id="Ligne_111" data-name="Ligne 111" y1="202.197" transform="translate(23.363 4.435)" fill="none" stroke="#1a2e35" stroke-linecap="round" stroke-linejoin="round" stroke-width="1" stroke-dasharray="5.074 5.074"/>
      <line id="Ligne_112" data-name="Ligne 112" y1="2.201" transform="translate(23.363)" fill="none" stroke="#1a2e35" stroke-linecap="round" stroke-linejoin="round" stroke-width="1"/>
    </g>
    <g id="position" transform="translate(135.494 32.79)">
      <path id="Tracé_407" data-name="Tracé 407" d="M149.891,129.678c-7.979,0-14.447,5.7-14.447,12.721s14.447,21.394,14.447,21.394,14.447-14.369,14.447-21.394-6.468-12.721-14.447-12.721m0,18.5c-3.627,0-6.567-2.589-6.567-5.782s2.94-5.782,6.567-5.782,6.567,2.589,6.567,5.782-2.94,5.782-6.567,5.782" transform="translate(-135.444 -45.543)" fill="#101041"/>
      <path id="Tracé_408" data-name="Tracé 408" d="M149.891,129.678c-7.979,0-14.447,5.7-14.447,12.721s14.447,21.394,14.447,21.394,14.447-14.369,14.447-21.394S157.87,129.678,149.891,129.678Zm0,18.5c-3.627,0-6.567-2.589-6.567-5.782s2.94-5.782,6.567-5.782,6.567,2.589,6.567,5.782S153.518,148.181,149.891,148.181Z" transform="translate(-135.444 -45.543)" fill="none" stroke="#1a2e35" stroke-linecap="round" stroke-linejoin="round" stroke-width="1"/>
      <line id="Ligne_113" data-name="Ligne 113" y1="2.201" transform="translate(14.447 88.716)" fill="none" stroke="#1a2e35" stroke-linecap="round" stroke-linejoin="round" stroke-width="1"/>
      <line id="Ligne_114" data-name="Ligne 114" y1="102.013" transform="translate(14.447 4.372)" fill="none" stroke="#1a2e35" stroke-linecap="round" stroke-linejoin="round" stroke-width="1" stroke-dasharray="4.93 4.93"/>
      <line id="Ligne_115" data-name="Ligne 115" y1="2.201" transform="translate(14.447)" fill="none" stroke="#1a2e35" stroke-linecap="round" stroke-linejoin="round" stroke-width="1"/>
    </g>
    <g id="message" transform="translate(78.698 32.79)">
      <path id="Tracé_409" data-name="Tracé 409" d="M115.732,248.2H87.107c-4.665,0-8.446,3.329-8.446,7.437V267.12c0,4.108,3.781,7.437,8.446,7.437l.283,11.529,8.986-11.529h19.356c4.665,0,8.446-3.329,8.446-7.437V255.641c0-4.108-3.781-7.437-8.446-7.437" transform="translate(-78.661 -59.707)" fill="#fff" stroke="#101041" stroke-width="1"/>
      <path id="Tracé_411" data-name="Tracé 411" d="M104.932,255.242H128.46c3.833,0,6.941,2.737,6.941,6.112v9.435c0,3.376-3.108,6.112-6.941,6.112l-.233,9.476-7.386-9.476H104.932c-3.834,0-6.942-2.737-6.942-6.112v-9.435c0-3.376,3.108-6.112,6.942-6.112" transform="translate(-78.661 -60.548)" fill="#101041" stroke="rgba(0,0,0,0)" stroke-width="1"/>
      <path id="Tracé_413" data-name="Tracé 413" d="M111.966,267.224a2.606,2.606,0,1,0-2.586,2.277,2.447,2.447,0,0,0,2.586-2.277" transform="translate(-78.661 -61.707)" fill="#ffae00"/>
      <path id="Tracé_414" data-name="Tracé 414" d="M119.977,267.224a2.606,2.606,0,1,0-2.586,2.277,2.447,2.447,0,0,0,2.586-2.277" transform="translate(-78.661 -61.707)" fill="#ffae00"/>
      <path id="Tracé_415" data-name="Tracé 415" d="M127.989,267.224A2.606,2.606,0,1,0,125.4,269.5a2.447,2.447,0,0,0,2.586-2.277" transform="translate(-78.661 -61.707)" fill="#ffae00"/>
      <line id="Ligne_116" data-name="Ligne 116" y1="2.201" transform="translate(31.313 178.243)" fill="none" stroke="#1a2e35" stroke-linecap="round" stroke-linejoin="round" stroke-width="1"/>
      <line id="Ligne_117" data-name="Ligne 117" y1="197.53" transform="translate(31.313 4.372)" fill="none" stroke="#1a2e35" stroke-linecap="round" stroke-linejoin="round" stroke-width="1" stroke-dasharray="4.931 4.931"/>
      <line id="Ligne_118" data-name="Ligne 118" y1="2.201" transform="translate(31.313 0)" fill="none" stroke="#1a2e35" stroke-linecap="round" stroke-linejoin="round" stroke-width="1"/>
    </g>
    <g id="message-2" data-name="message" transform="translate(48.766 32.79)">
      <rect id="Rectangle" width="50.565" height="26.02" transform="translate(0.001 115.765)" fill="#fff" stroke="#101041" stroke-linecap="round" stroke-linejoin="round" stroke-width="1"/>
      <path id="Tracé_416" data-name="Tracé 416" d="M48.738,192.405l24.881-20.237L99.3,192.405Z" transform="translate(-48.738 -50.62)" fill="#fff" stroke="#101041" stroke-linecap="round" stroke-linejoin="round" stroke-width="1"/>
      <path id="Tracé_418" data-name="Tracé 418" d="M48.738,165.6,74.021,178.61,99.3,165.6Z" transform="translate(-48.738 -49.836)" fill="#fff" stroke="#101041" stroke-linecap="round" stroke-linejoin="round" stroke-width="1"/>
      <line id="Ligne_119" data-name="Ligne 119" y1="2.201" transform="translate(24.835 112.376)" fill="none" stroke="#1a2e35" stroke-linecap="round" stroke-linejoin="round" stroke-width="1"/>
      <line id="Ligne_120" data-name="Ligne 120" y1="30.998" transform="translate(24.835 84.318)" fill="none" stroke="#1a2e35" stroke-linecap="round" stroke-linejoin="round" stroke-width="1" stroke-dasharray="4.694 4.694"/>
      <line id="Ligne_122" data-name="Ligne 122" y1="2.201" transform="translate(13.803 40.797)" fill="none" stroke="#1a2e35" stroke-linecap="round" stroke-linejoin="round" stroke-width="1"/>
      <line id="Ligne_123" data-name="Ligne 123" y1="40.807" transform="translate(13.803 4.349)" fill="none" stroke="#1a2e35" stroke-linecap="round" stroke-linejoin="round" stroke-width="1" stroke-dasharray="4.878 4.878"/>
      <line id="Ligne_121" data-name="Ligne 121" y1="2.201" transform="translate(24.835 84.632)" fill="none" stroke="#1a2e35" stroke-linecap="round" stroke-linejoin="round" stroke-width="1"/>
      <line id="Ligne_124" data-name="Ligne 124" y1="2.201" transform="translate(13.803 0)" fill="none" stroke="#1a2e35" stroke-linecap="round" stroke-linejoin="round" stroke-width="1"/>
    </g>
    <g id="cloud" transform="translate(17.892 54.836)">
      <path id="Tracé_420" data-name="Tracé 420" d="M87.1,72.514c-4.375-7.9-13.724-13.352-24.553-13.352-12.722,0-23.4,7.531-26.372,17.7-.436-.029-.872-.057-1.317-.057-9.367,0-16.961,6.546-16.961,14.62,0,7.425,6.428,13.543,14.746,14.481v.139h51.15c10.821,0,19.594-7.561,19.594-16.889,0-8.355-7.042-15.289-16.287-16.644" transform="translate(-17.892 -59.162)" fill="#fff"/>
      <path id="Tracé_421" data-name="Tracé 421" d="M87.1,72.514c-4.375-7.9-13.724-13.352-24.553-13.352-12.722,0-23.4,7.531-26.372,17.7-.436-.029-.872-.057-1.317-.057-9.367,0-16.961,6.546-16.961,14.62,0,7.425,6.428,13.543,14.746,14.481v.139h51.15c10.821,0,19.594-7.561,19.594-16.889C103.382,80.8,96.34,73.869,87.1,72.514Z" transform="translate(-17.892 -59.162)" fill="none" stroke="#101041" stroke-linecap="round" stroke-linejoin="round" stroke-width="1"/>
    </g>
    <g id="partage" transform="translate(4.131 32.79)">
      <path id="Tracé_422" data-name="Tracé 422" d="M30.049,235.7a5.7,5.7,0,0,0-3.17.943L14.288,228.33a4.117,4.117,0,0,0,.35-1.649c0-2.554-2.352-4.625-5.253-4.625s-5.254,2.071-5.254,4.625,2.352,4.626,5.254,4.626a5.7,5.7,0,0,0,3.17-.944l12.59,8.315a4.062,4.062,0,0,0,0,3.3l-12.59,8.315a5.7,5.7,0,0,0-3.17-.944c-2.9,0-5.254,2.071-5.254,4.626S6.483,258.6,9.385,258.6s5.253-2.071,5.253-4.625a4.117,4.117,0,0,0-.35-1.649l12.591-8.315a5.7,5.7,0,0,0,3.17.943c2.9,0,5.253-2.071,5.253-4.625S32.95,235.7,30.049,235.7" transform="translate(-4.131 -56.582)" fill="#101041"/>
      <line id="Ligne_125" data-name="Ligne 125" y1="2.201" transform="translate(18.17 47.324)" fill="none" stroke="#1a2e35" stroke-linecap="round" stroke-linejoin="round" stroke-width="1"/>
      <line id="Ligne_126" data-name="Ligne 126" y1="44.905" transform="translate(18.17 4.564)" fill="none" stroke="#1a2e35" stroke-linecap="round" stroke-linejoin="round" stroke-width="1" stroke-dasharray="5.368 5.368"/>
      <line id="Ligne_127" data-name="Ligne 127" y1="2.201" transform="translate(18.17 0)" fill="none" stroke="#1a2e35" stroke-linecap="round" stroke-linejoin="round" stroke-width="1"/>
      <line id="Ligne_128" data-name="Ligne 128" y1="2.201" transform="translate(18.17 167.127)" fill="none" stroke="#1a2e35" stroke-linecap="round" stroke-linejoin="round" stroke-width="1"/>
      <line id="Ligne_129" data-name="Ligne 129" y1="86.138" transform="translate(18.17 84.443)" fill="none" stroke="#1a2e35" stroke-linecap="round" stroke-linejoin="round" stroke-width="1" stroke-dasharray="5.017 5.017"/>
      <line id="Ligne_130" data-name="Ligne 130" y1="2.201" transform="translate(18.17 88.347)" fill="none" stroke="#1a2e35" stroke-linecap="round" stroke-linejoin="round" stroke-width="1"/>
    </g>
    <g id="routeur" transform="translate(164.043 140.547)">
      <path id="Tracé_458" data-name="Tracé 458" d="M426.117,226.527h0a3.8,3.8,0,0,0-4.274,2.95l-19.4,131.845,12.617,1.254,14.476-132.333a3.548,3.548,0,0,0-3.42-3.715" transform="translate(-133.908 -226.505)" fill="#1a2e35"/>
      <path id="Tracé_459" data-name="Tracé 459" d="M426.117,226.527h0a3.8,3.8,0,0,0-4.274,2.95l-19.4,131.845,12.617,1.254,14.476-132.333A3.548,3.548,0,0,0,426.117,226.527Z" transform="translate(-133.908 -226.505)" fill="none" stroke="#1a2e35" stroke-linecap="round" stroke-linejoin="round" stroke-width="1"/>
      <path id="Tracé_460" data-name="Tracé 460" d="M231.232,226.527h0a3.8,3.8,0,0,1,4.274,2.95l19.4,131.845-12.617,1.254L227.812,230.242a3.548,3.548,0,0,1,3.42-3.715" transform="translate(-133.908 -226.505)" fill="#1a2e35"/>
      <path id="Tracé_461" data-name="Tracé 461" d="M231.232,226.527h0a3.8,3.8,0,0,1,4.274,2.95l19.4,131.845-12.617,1.254L227.812,230.242A3.548,3.548,0,0,1,231.232,226.527Z" transform="translate(-133.908 -226.505)" fill="none" stroke="#1a2e35" stroke-linecap="round" stroke-linejoin="round" stroke-width="1"/>
      <path id="Tracé_462" data-name="Tracé 462" d="M448.4,445.267H251.128a4.34,4.34,0,0,1-4.587-4.039V380.641a4.34,4.34,0,0,1,4.587-4.039H448.4a4.339,4.339,0,0,1,4.587,4.039v60.587a4.339,4.339,0,0,1-4.587,4.039" transform="translate(-133.908 -244.442)" fill="#fff"/>
      <rect id="Rectangle-2" data-name="Rectangle" width="206.45" height="68.665" rx="4.587" transform="translate(112.633 132.16)" fill="none" stroke="#1a2e35" stroke-linecap="round" stroke-linejoin="round" stroke-width="1"/>
      <path id="Tracé_463" data-name="Tracé 463" d="M453.187,437.95H246.344a3.946,3.946,0,0,1-4.171-3.673V389.889a3.946,3.946,0,0,1,4.171-3.673H453.187a3.947,3.947,0,0,1,4.172,3.673v44.387a3.947,3.947,0,0,1-4.172,3.673" transform="translate(-133.908 -245.59)" fill="#fff"/>
      <path id="Rectangle-3" data-name="Rectangle" d="M4.172,0H211.015a4.171,4.171,0,0,1,4.171,4.171V47.562a4.172,4.172,0,0,1-4.172,4.172H4.172A4.172,4.172,0,0,1,0,47.562V4.172A4.172,4.172,0,0,1,4.172,0Z" transform="translate(108.266 140.626)" fill="none" stroke="#1a2e35" stroke-linecap="round" stroke-linejoin="round" stroke-width="1"/>
      <path id="Tracé_464" data-name="Tracé 464" d="M340.138,445.267H142.862a4.339,4.339,0,0,1-4.587-4.039V380.641a4.339,4.339,0,0,1,4.587-4.039H340.138a4.339,4.339,0,0,1,4.587,4.039v60.587a4.339,4.339,0,0,1-4.587,4.039" transform="translate(-133.908 -244.442)" fill="#fff"/>
      <rect id="Rectangle-4" data-name="Rectangle" width="206.45" height="68.665" rx="4.587" transform="translate(4.368 132.16)" fill="none" stroke="#1a2e35" stroke-linecap="round" stroke-linejoin="round" stroke-width="1"/>
      <path id="Tracé_465" data-name="Tracé 465" d="M344.922,437.95H138.079a3.946,3.946,0,0,1-4.171-3.673V389.889a3.946,3.946,0,0,1,4.171-3.673H344.922a3.947,3.947,0,0,1,4.172,3.673v44.387a3.947,3.947,0,0,1-4.172,3.673" transform="translate(-133.908 -245.59)" fill="#fff"/>
      <path id="Rectangle-5" data-name="Rectangle" d="M4.172,0H211.015a4.171,4.171,0,0,1,4.171,4.171V47.562a4.172,4.172,0,0,1-4.172,4.172H4.172A4.172,4.172,0,0,1,0,47.562V4.172A4.172,4.172,0,0,1,4.172,0Z" transform="translate(0 140.626)" fill="none" stroke="#1a2e35" stroke-linecap="round" stroke-linejoin="round" stroke-width="1"/>
      <path id="Tracé_466" data-name="Tracé 466" d="M327.841,426.9H157.015c-2.765,0-5.007-1.974-5.007-4.409V403.5c0-2.435,2.242-4.408,5.007-4.408H327.841c2.765,0,5.007,1.973,5.007,4.408v18.989c0,2.435-2.242,4.409-5.007,4.409" transform="translate(-133.908 -247.13)" fill="#101041"/>
      <path id="Rectangle-6" data-name="Rectangle" d="M5.007,0H175.833a5.007,5.007,0,0,1,5.007,5.007V22.8a5.006,5.006,0,0,1-5.006,5.006H5.007A5.007,5.007,0,0,1,0,22.8V5.007A5.007,5.007,0,0,1,5.007,0Z" transform="translate(18.1 151.967)" fill="none" stroke="#1a2e35" stroke-linecap="round" stroke-linejoin="round" stroke-width="1"/>
      <path id="Tracé_467" data-name="Tracé 467" d="M162.052,406.751a7.472,7.472,0,0,0-5.279,6.866c0,4.083,3.759,7.393,8.4,7.393s8.4-3.31,8.4-7.393a7.446,7.446,0,0,0-5.128-6.812" transform="translate(-127.908 -246.283)" fill="none" stroke="#ffae00" stroke-linecap="round" stroke-width="3"/>
      <line id="Ligne_134" data-name="Ligne 134" y2="5.463" transform="translate(37.35 157.609)" fill="none" stroke="#ffae00" stroke-linecap="round" stroke-width="3"/>
    </g>
    <g id="M." transform="translate(276.118 157.81)">
      <path id="Tracé_468" data-name="Tracé 468" d="M263.131,423.684s-8.165,2.255-9.894,2.553-7.055-.923-7.216.916,3.068,3.46,8.2,5.274,10.76,3.31,14.577,3.153,3.09-6.776,3.3-7.91-8.962-3.986-8.962-3.986" transform="translate(-246.015 -267.331)" fill="#fff"/>
      <path id="Tracé_469" data-name="Tracé 469" d="M263.131,423.684s-8.165,2.255-9.894,2.553-7.055-.923-7.216.916,3.068,3.46,8.2,5.274,10.76,3.31,14.577,3.153,3.09-6.776,3.3-7.91S263.131,423.684,263.131,423.684Z" transform="translate(-246.015 -267.331)" fill="none" stroke="#1a2e35" stroke-linecap="round" stroke-linejoin="round" stroke-width="1"/>
      <path id="Tracé_470" data-name="Tracé 470" d="M256.9,431.2c-6.4-2.321-9.369-3.528-10.671-4.092a.783.783,0,0,0-.205.455c-.16,1.839,3.067,3.46,8.2,5.273s10.759,3.31,14.577,3.153a2.926,2.926,0,0,0,2.658-2.255A41.433,41.433,0,0,1,256.9,431.2" transform="translate(-246.015 -267.74)" fill="#fff"/>
      <path id="Tracé_471" data-name="Tracé 471" d="M256.9,431.2c-6.4-2.321-9.369-3.528-10.671-4.092a.783.783,0,0,0-.205.455c-.16,1.839,3.067,3.46,8.2,5.273s10.759,3.31,14.577,3.153a2.926,2.926,0,0,0,2.658-2.255A41.433,41.433,0,0,1,256.9,431.2Z" transform="translate(-246.015 -267.74)" fill="none" stroke="#1a2e35" stroke-linecap="round" stroke-linejoin="round" stroke-width="1"/>
      <path id="Tracé_472" data-name="Tracé 472" d="M312.787,346.812l-2.139,1.028v2.74s-44.63,6.552-45.213,9.977-2.349,54.381-2.349,54.381,7.2,6.823,8.752,5.281,1.945-6.481,1.945-6.481l7.406-45.133s50.269,4.065,57.855,2.011,11.28-10.96,11.475-15.071.194-5.994.194-5.994l-34.231-4.11Z" transform="translate(-246.015 -257.981)" fill="#ffae00"/>
      <path id="Tracé_473" data-name="Tracé 473" d="M312.787,346.812l-2.139,1.028v2.74s-44.63,6.552-45.213,9.977-2.349,54.381-2.349,54.381,7.2,6.823,8.752,5.281,1.945-6.481,1.945-6.481l7.406-45.133s50.269,4.065,57.855,2.011,11.28-10.96,11.475-15.071.194-5.994.194-5.994l-34.231-4.11Z" transform="translate(-246.015 -257.981)" fill="none" stroke="#1a2e35" stroke-linecap="round" stroke-linejoin="round" stroke-width="1"/>
      <path id="Tracé_474" data-name="Tracé 474" d="M297.617,425.7s-.113.169-.323.464a44.642,44.642,0,0,1-5.512,6.386c-3.306,3.083-8.752,5.651-8.557,6.679s3.889,1.713,16.531-1.713c5.688-1.541,9.92-1.541,10.5-3.253s-4.084-9.076-4.084-9.076Z" transform="translate(-246.015 -267.51)" fill="#fff"/>
      <path id="Tracé_475" data-name="Tracé 475" d="M297.617,425.7s-.113.169-.323.464a44.642,44.642,0,0,1-5.512,6.386c-3.306,3.083-8.752,5.651-8.557,6.679s3.889,1.713,16.531-1.713c5.688-1.541,9.92-1.541,10.5-3.253s-4.084-9.076-4.084-9.076Z" transform="translate(-246.015 -267.51)" fill="none" stroke="#1a2e35" stroke-linecap="round" stroke-linejoin="round" stroke-width="1"/>
      <path id="Tracé_476" data-name="Tracé 476" d="M310.259,435.165a4.361,4.361,0,0,0-.5-2.416,85.046,85.046,0,0,1-13.308,4.3,96.585,96.585,0,0,1-12.609,2.19c-.418.364-.659.667-.616.893.194,1.028,3.889,1.713,16.531-1.713,5.688-1.541,9.92-1.541,10.5-3.253" transform="translate(-246.015 -268.414)" fill="#fff"/>
      <path id="Tracé_477" data-name="Tracé 477" d="M310.259,435.165a4.361,4.361,0,0,0-.5-2.416,85.046,85.046,0,0,1-13.308,4.3,96.585,96.585,0,0,1-12.609,2.19c-.418.364-.659.667-.616.893.194,1.028,3.889,1.713,16.531-1.713C305.444,436.878,309.676,436.878,310.259,435.165Z" transform="translate(-246.015 -268.414)" fill="none" stroke="#1a2e35" stroke-linecap="round" stroke-linejoin="round" stroke-width="1"/>
      <path id="Tracé_478" data-name="Tracé 478" d="M325.04,355.066s-4.668-3.6-5.057-1.541-1.167,2.568-1.167,2.568-32.674,3.425-36.369,5.48-4.862,4.8-2.723,8.9,16.531,49.15,16.531,49.15a25.722,25.722,0,0,0,4.668,1.37c2.14.343,6.613-1.542,6.613-1.542s-.541-8.392-1.9-11.132S298.7,374,298.7,374s23.616.078,31.59.078,16.726-5.823,18.476-10.618.973-5.823.973-5.823" transform="translate(-246.015 -258.871)" fill="#ffae00"/>
      <path id="Tracé_479" data-name="Tracé 479" d="M325.04,355.066s-4.668-3.6-5.057-1.541-1.167,2.568-1.167,2.568-32.674,3.425-36.369,5.48-4.862,4.8-2.723,8.9,16.531,49.15,16.531,49.15a25.722,25.722,0,0,0,4.668,1.37c2.14.343,6.613-1.542,6.613-1.542s-.541-8.392-1.9-11.132S298.7,374,298.7,374s23.616.078,31.59.078,16.726-5.823,18.476-10.618.973-5.823.973-5.823" transform="translate(-246.015 -258.871)" fill="none" stroke="#1a2e35" stroke-linecap="round" stroke-linejoin="round" stroke-width="1"/>
      <line id="Ligne_135" data-name="Ligne 135" x1="1.126" y1="5.392" transform="translate(51.561 109.733)" fill="none" stroke="#1a2e35" stroke-linecap="round" stroke-linejoin="round" stroke-width="1"/>
      <path id="Tracé_480" data-name="Tracé 480" d="M335.838,363.96a10.746,10.746,0,0,1,1.511,2.491" transform="translate(-246.015 -260.194)" fill="none" stroke="#1a2e35" stroke-linecap="round" stroke-linejoin="round" stroke-width="1"/>
      <path id="Tracé_481" data-name="Tracé 481" d="M326.949,357.211a23.121,23.121,0,0,1,7.637,4.58" transform="translate(-246.015 -259.387)" fill="none" stroke="#1a2e35" stroke-linecap="round" stroke-linejoin="round" stroke-width="1"/>
      <path id="Tracé_482" data-name="Tracé 482" d="M334.338,358.3a15.316,15.316,0,0,1,7.116,5.783" transform="translate(-246.015 -259.518)" fill="none" stroke="#1a2e35" stroke-linecap="round" stroke-linejoin="round" stroke-width="1"/>
      <path id="Tracé_483" data-name="Tracé 483" d="M313.265,297.83s-.022.242-.052.672c-.171,2.413-3.214,6.019-1.4,10.526,4.13,10.25,3.29,17.774,2.917,15.584.584,3.425-2.917,10.789-2.917,13.186s-7.2,2.759,9.14,7.04,21.979,4.091,26.063,2.721,7-2.568,7.391-5.48-3.112-8.049-3.306-12.5-.884-18.391-5.747-27.3-17.7-15.071-17.7-15.071Z" transform="translate(-246.015 -251.023)" fill="#fff"/>
      <path id="Tracé_484" data-name="Tracé 484" d="M313.265,297.83s-.022.242-.052.672c-.171,2.413-3.214,6.019-1.4,10.526,4.13,10.25,3.29,17.774,2.917,15.584.584,3.425-2.917,10.789-2.917,13.186s-7.2,2.759,9.14,7.04,21.979,4.091,26.063,2.721,7-2.568,7.391-5.48-3.112-8.049-3.306-12.5-.884-18.391-5.747-27.3-17.7-15.071-17.7-15.071Z" transform="translate(-246.015 -251.023)" fill="none" stroke="#1a2e35" stroke-linecap="round" stroke-linejoin="round" stroke-width="1"/>
      <path id="Tracé_485" data-name="Tracé 485" d="M338.863,337.171c.848-.57,1.645-1.146,2.37-1.725" transform="translate(-246.015 -256.787)" fill="none" stroke="#1a2e35" stroke-linecap="round" stroke-linejoin="round" stroke-width="1"/>
      <path id="Tracé_486" data-name="Tracé 486" d="M318.361,347.778a137.032,137.032,0,0,0,17.393-8.173" transform="translate(-246.015 -257.284)" fill="none" stroke="#1a2e35" stroke-linecap="round" stroke-linejoin="round" stroke-width="1"/>
      <path id="Tracé_487" data-name="Tracé 487" d="M324.639,347.767a42.858,42.858,0,0,1-7.222,2.44" transform="translate(-246.015 -258.259)" fill="none" stroke="#1a2e35" stroke-linecap="round" stroke-linejoin="round" stroke-width="1"/>
      <path id="Tracé_488" data-name="Tracé 488" d="M327.793,346.057s-.545.3-1.471.74" transform="translate(-246.015 -258.055)" fill="none" stroke="#1a2e35" stroke-linecap="round" stroke-linejoin="round" stroke-width="1"/>
      <line id="Ligne_136" data-name="Ligne 136" y1="5.651" x2="5.251" transform="translate(84.471 59.719)" fill="none" stroke="#1a2e35" stroke-linecap="round" stroke-linejoin="round" stroke-width="1"/>
      <path id="Tracé_489" data-name="Tracé 489" d="M311.419,255.937a25.6,25.6,0,0,0-3.506,3.958c-.846,1.475-.966,2.547-2.451,3.483s-4.445.347-4.369,1.869,1.879,2.976,1.879,2.976-1.456,9.3-.9,10.777,8.1,1.752,8.1,1.752l3.851,11.039,13.6-8.11.359-3.216c.335-1.3,2.772-5.337,4.793-8.358s1.119-11.008-3.753-14.445-11.341-3.082-13.331-3.2a8.206,8.206,0,0,0-4.269,1.477" transform="translate(-246.015 -247.108)" fill="#fff"/>
      <path id="Tracé_490" data-name="Tracé 490" d="M311.419,255.937a25.6,25.6,0,0,0-3.506,3.958c-.846,1.475-.966,2.547-2.451,3.483s-4.445.347-4.369,1.869,1.879,2.976,1.879,2.976-1.456,9.3-.9,10.777,8.1,1.752,8.1,1.752l3.851,11.039,13.6-8.11.359-3.216c.335-1.3,2.772-5.337,4.793-8.358s1.119-11.008-3.753-14.445-11.341-3.082-13.331-3.2A8.206,8.206,0,0,0,311.419,255.937Z" transform="translate(-246.015 -247.108)" fill="none" stroke="#1a2e35" stroke-linecap="round" stroke-linejoin="round" stroke-width="1"/>
      <path id="Tracé_491" data-name="Tracé 491" d="M303.9,272.169a5.23,5.23,0,0,0,5.031,1" transform="translate(-246.015 -249.225)" fill="none" stroke="#1a2e35" stroke-linecap="round" stroke-linejoin="round" stroke-width="1"/>
      <path id="Tracé_492" data-name="Tracé 492" d="M309.684,265.617c-.332.677-.851,1.131-1.159,1.014s-.288-.761.045-1.439.851-1.131,1.159-1.013.287.761-.045,1.438" transform="translate(-246.015 -248.268)" fill="#1a2e35"/>
      <path id="Tracé_493" data-name="Tracé 493" d="M309.158,262s2.931-.512,3.364,2.04" transform="translate(-246.015 -248.005)" fill="none" stroke="#1a2e35" stroke-linecap="round" stroke-linejoin="round" stroke-width="1"/>
      <path id="Tracé_494" data-name="Tracé 494" d="M310.173,284.3l4.707-.158-3.224,3.467Z" transform="translate(-246.015 -250.656)" fill="#1a2e35"/>
      <path id="Tracé_495" data-name="Tracé 495" d="M310.173,284.3l4.707-.158-3.224,3.467Z" transform="translate(-246.015 -250.656)" fill="none" stroke="#1a2e35" stroke-linecap="round" stroke-linejoin="round" stroke-width="1"/>
      <path id="Tracé_496" data-name="Tracé 496" d="M320.921,279.37l-2.038-.543-1.209,1.677" transform="translate(-246.015 -250.021)" fill="none" stroke="#1a2e35" stroke-linecap="round" stroke-linejoin="round" stroke-width="1"/>
      <path id="Tracé_497" data-name="Tracé 497" d="M319.78,250.853s2.942-2.974-.59-4.363-15.539,1.15-14.243,5.789,12.5,5.23,13.569,5.308-2.144,1.079-1.262,2.487,3.035,2.111,3.111,3.633-2.007,3.572-.991,4.46,2.6-.44,3.624-.784,3.808,2.127,1.605,5.25-3.682,2.827-3.682,2.827a2.693,2.693,0,0,0,1.006,3.351c1.951,1.484,5.952,1.049,6.946-.4s2.727-2.744,6.328-5.86,5.315-10.993,2.821-16.422-13.739-7.668-18.242-5.279" transform="translate(-246.015 -246.111)" fill="#1a2e35"/>
      <path id="Tracé_498" data-name="Tracé 498" d="M319.78,250.853s2.942-2.974-.59-4.363-15.539,1.15-14.243,5.789,12.5,5.23,13.569,5.308-2.144,1.079-1.262,2.487,3.035,2.111,3.111,3.633-2.007,3.572-.991,4.46,2.6-.44,3.624-.784,3.808,2.127,1.605,5.25-3.682,2.827-3.682,2.827a2.693,2.693,0,0,0,1.006,3.351c1.951,1.484,5.952,1.049,6.946-.4s2.727-2.744,6.328-5.86,5.315-10.993,2.821-16.422S324.283,248.464,319.78,250.853Z" transform="translate(-246.015 -246.111)" fill="none" stroke="#1a2e35" stroke-linecap="round" stroke-linejoin="round" stroke-width="1"/>
      <path id="Tracé_499" data-name="Tracé 499" d="M327.619,284.342l-18.535,12.019,1.059,5.179L331,288.009Z" transform="translate(-246.015 -250.68)" fill="#fff"/>
      <path id="Tracé_500" data-name="Tracé 500" d="M327.619,284.342l-18.535,12.019,1.059,5.179L331,288.009Z" transform="translate(-246.015 -250.68)" fill="none" stroke="#1a2e35" stroke-linecap="round" stroke-linejoin="round" stroke-width="1"/>
      <path id="Tracé_501" data-name="Tracé 501" d="M281.353,362.532l32.64-6.293-7.624-3.986L275.4,358.337Z" transform="translate(-246.015 -258.795)" fill="#fff"/>
      <path id="Tracé_502" data-name="Tracé 502" d="M281.353,362.532l32.64-6.293-7.624-3.986L275.4,358.337Z" transform="translate(-246.015 -258.795)" fill="none" stroke="#1a2e35" stroke-linecap="round" stroke-linejoin="round" stroke-width="1"/>
      <path id="Tracé_503" data-name="Tracé 503" d="M266.82,332.614l14.533,27.271-5.956-4.2L260.626,330.1Z" transform="translate(-246.015 -256.147)" fill="#1a2e35"/>
      <path id="Tracé_504" data-name="Tracé 504" d="M266.82,332.614l14.533,27.271-5.956-4.2L260.626,330.1Z" transform="translate(-246.015 -256.147)" fill="none" stroke="#1a2e35" stroke-linecap="round" stroke-linejoin="round" stroke-width="1"/>
      <path id="Tracé_505" data-name="Tracé 505" d="M293.079,350.758l-7.52,1.713-4.668,5.936a1.971,1.971,0,0,0,1.426.457,11.943,11.943,0,0,0,2.853-1.713l5.445-1.256s-2.852,1.484-2.852,1.826.519.457,1.815.343,4.409-2.626,4.409-2.626l2.074-2.283Z" transform="translate(-246.015 -258.616)" fill="#fff"/>
      <path id="Tracé_506" data-name="Tracé 506" d="M293.079,350.758l-7.52,1.713-4.668,5.936a1.971,1.971,0,0,0,1.426.457,11.943,11.943,0,0,0,2.853-1.713l5.445-1.256s-2.852,1.484-2.852,1.826.519.457,1.815.343,4.409-2.626,4.409-2.626l2.074-2.283Z" transform="translate(-246.015 -258.616)" fill="none" stroke="#1a2e35" stroke-linecap="round" stroke-linejoin="round" stroke-width="1"/>
      <path id="Tracé_507" data-name="Tracé 507" d="M313.39,316.986l-3.844,15.466-16.467,14.271,3.89,3.2,13.679-5.479.946-2.17,3.3-12.957Z" transform="translate(-246.015 -254.581)" fill="#fff"/>
      <path id="Tracé_508" data-name="Tracé 508" d="M313.39,316.986l-3.844,15.466-16.467,14.271,3.89,3.2,13.679-5.479.946-2.17,3.3-12.957Z" transform="translate(-246.015 -254.581)" fill="none" stroke="#1a2e35" stroke-linecap="round" stroke-linejoin="round" stroke-width="1"/>
      <path id="Tracé_509" data-name="Tracé 509" d="M288.519,347.223s-5.251.685-7.2.685a40.476,40.476,0,0,0-7.391.685c-.778.343-4.473,2.4-4.279,3.938s3.5.172,3.5.172a21.329,21.329,0,0,0,2.529,3.938c1.555,1.884,2.333,1.2,5.445.172a43.868,43.868,0,0,0,7.78-4.11l2.723-2.227Z" transform="translate(-246.015 -258.194)" fill="#fff"/>
      <path id="Tracé_510" data-name="Tracé 510" d="M288.519,347.223s-5.251.685-7.2.685a40.476,40.476,0,0,0-7.391.685c-.778.343-4.473,2.4-4.279,3.938s3.5.172,3.5.172a21.329,21.329,0,0,0,2.529,3.938c1.555,1.884,2.333,1.2,5.445.172a43.868,43.868,0,0,0,7.78-4.11l2.723-2.227Z" transform="translate(-246.015 -258.194)" fill="none" stroke="#1a2e35" stroke-linecap="round" stroke-linejoin="round" stroke-width="1"/>
      <path id="Tracé_511" data-name="Tracé 511" d="M334.182,292.52s-7.974-1.028-10.892,2.4-5.834,9.419-6.418,13.871-4.279,13.357-4.279,13.357l-24.731,18.127,4.279,5.651s29.982-12.3,30.76-13.16S333.6,309.3,333.6,309.3" transform="translate(-246.015 -251.64)" fill="#fff"/>
      <path id="Tracé_512" data-name="Tracé 512" d="M334.182,292.52s-7.974-1.028-10.892,2.4-5.834,9.419-6.418,13.871-4.279,13.357-4.279,13.357l-24.731,18.127,4.279,5.651s29.982-12.3,30.76-13.16S333.6,309.3,333.6,309.3" transform="translate(-246.015 -251.64)" fill="none" stroke="#1a2e35" stroke-linecap="round" stroke-linejoin="round" stroke-width="1"/>
    </g>
  </g>
</svg>
