<svg id="illustration" xmlns="http://www.w3.org/2000/svg" width="539.017" height="632" viewBox="0 0 539.017 632">
  <g id="bâtiment_" data-name="bâtiment " transform="translate(0 156.765)">
    <path id="Rectangle" d="M-1.5-1.5H189.734V66.916H5.727A7.235,7.235,0,0,1-1.5,59.689ZM187.261.973H.973V59.689a4.759,4.759,0,0,0,4.754,4.754H187.261Z" transform="translate(1.5 182.675)" fill="#007bd1"/>
    <path id="Rectangle-2" data-name="Rectangle" d="M-1.5-1.5H178.194V226.827H-1.5ZM175.721.973H.973V224.354H175.721Z" transform="translate(13.04 248.408)" fill="#007bd1"/>
    <path id="Rectangle-3" data-name="Rectangle" d="M-1.5-1.5H210.341V399.514H-1.5ZM207.868.973H.973V397.041h206.9Z" transform="translate(190.838 75.721)" fill="#007bd1"/>
    <path id="Rectangle-4" data-name="Rectangle" d="M-1.5-1.5H129.149V311.316H-1.5ZM126.676.973H.973v307.87h125.7Z" transform="translate(399.977 163.919)" fill="#007bd1"/>
    <path id="Rectangle-5" data-name="Rectangle" d="M0,0H129.767a8.3,8.3,0,0,1,8.3,8.3v5.654a8.3,8.3,0,0,1-8.3,8.3H0a0,0,0,0,1,0,0V0A0,0,0,0,1,0,0Z" transform="translate(399.713 141.66)" fill="#bbe4fd"/>
    <path id="Rectangle_-_Contour" data-name="Rectangle - Contour" d="M-1.5-1.5H130.962a8.088,8.088,0,0,1,8.079,8.079V15.15a8.088,8.088,0,0,1-8.079,8.079H-1.5ZM130.962,20.756a5.612,5.612,0,0,0,5.606-5.606V6.579A5.612,5.612,0,0,0,130.962.973H.973V20.756Z" transform="translate(399.977 141.924)" fill="#007bd1"/>
    <rect id="Rectangle-6" data-name="Rectangle" width="229.151" height="21.019" rx="7.1" transform="translate(181.094 53.991)" fill="#bbe4fa"/>
    <path id="Rectangle_-_Contour-2" data-name="Rectangle - Contour" d="M5.589-1.5H223.035a7.1,7.1,0,0,1,7.089,7.089V14.9a7.1,7.1,0,0,1-7.089,7.089H5.589A7.1,7.1,0,0,1-1.5,14.9V5.589A7.1,7.1,0,0,1,5.589-1.5ZM223.035,19.519a4.621,4.621,0,0,0,4.616-4.616V5.589A4.621,4.621,0,0,0,223.035.973H5.589A4.621,4.621,0,0,0,.973,5.589V14.9a4.621,4.621,0,0,0,4.616,4.616Z" transform="translate(181.357 54.254)" fill="#007bd1"/>
    <path id="Rectangle-7" data-name="Rectangle" d="M2.473,2.473V47.808H37.917V2.473H2.473M0,0H40.39V50.281H0Z" transform="translate(218.649 109.945)" fill="#3f8fb9"/>
    <rect id="Rectangle-8" data-name="Rectangle" width="167.742" height="8.243" transform="translate(212.829 162.665)" fill="#cdeefc"/>
    <rect id="Rectangle-9" data-name="Rectangle" width="206.895" height="9.067" transform="translate(192.222 77.071)" fill="#cdeefc"/>
    <rect id="Rectangle-10" data-name="Rectangle" width="25.965" height="37.093" transform="translate(37.093 281.252)" fill="#bbe4fa"/>
    <path id="Rectangle_-_Contour-3" data-name="Rectangle - Contour" d="M-1.5-1.5H26.938V38.066H-1.5ZM24.465.973H.973v34.62H24.465Z" transform="translate(37.356 281.515)" fill="#3f8fb9"/>
    <path id="Rectangle-11" data-name="Rectangle" d="M2.342-1.5H30.927a3.846,3.846,0,0,1,3.842,3.842v9.215A3.846,3.846,0,0,1,30.927,15.4H2.342A3.846,3.846,0,0,1-1.5,11.556V2.342A3.846,3.846,0,0,1,2.342-1.5ZM30.927,12.925A1.37,1.37,0,0,0,32.3,11.556V2.342A1.37,1.37,0,0,0,30.927.973H2.342A1.37,1.37,0,0,0,.973,2.342v9.215a1.37,1.37,0,0,0,1.369,1.369Z" transform="translate(33.235 318.589)" fill="#3f8fb9"/>
    <rect id="Rectangle-12" data-name="Rectangle" width="25.965" height="37.093" transform="translate(37.093 369.315)" fill="#bbe4fa"/>
    <path id="Rectangle_-_Contour-4" data-name="Rectangle - Contour" d="M-1.5-1.5H26.938V38.066H-1.5ZM24.465.973H.973v34.62H24.465Z" transform="translate(37.356 369.578)" fill="#3f8fb9"/>
    <path id="Rectangle-13" data-name="Rectangle" d="M2.342-1.5H30.927a3.846,3.846,0,0,1,3.842,3.842v9.215A3.846,3.846,0,0,1,30.927,15.4H2.342A3.846,3.846,0,0,1-1.5,11.556V2.342A3.846,3.846,0,0,1,2.342-1.5ZM30.927,12.925A1.37,1.37,0,0,0,32.3,11.556V2.342A1.37,1.37,0,0,0,30.927.973H2.342A1.37,1.37,0,0,0,.973,2.342v9.215a1.37,1.37,0,0,0,1.369,1.369Z" transform="translate(33.235 406.671)" fill="#3f8fb9"/>
    <rect id="Rectangle-14" data-name="Rectangle" width="25.965" height="37.093" transform="translate(85.639 369.315)" fill="#bbe4fa"/>
    <path id="Rectangle_-_Contour-5" data-name="Rectangle - Contour" d="M-1.5-1.5H26.938V38.066H-1.5ZM24.465.973H.973v34.62H24.465Z" transform="translate(85.903 369.578)" fill="#3f8fb9"/>
    <path id="Rectangle-15" data-name="Rectangle" d="M2.342-1.5H30.927a3.846,3.846,0,0,1,3.842,3.842v9.215A3.846,3.846,0,0,1,30.927,15.4H2.342A3.846,3.846,0,0,1-1.5,11.556V2.342A3.846,3.846,0,0,1,2.342-1.5ZM30.927,12.925A1.37,1.37,0,0,0,32.3,11.556V2.342A1.37,1.37,0,0,0,30.927.973H2.342A1.37,1.37,0,0,0,.973,2.342v9.215a1.37,1.37,0,0,0,1.369,1.369Z" transform="translate(81.784 406.671)" fill="#3f8fb9"/>
    <rect id="Rectangle-16" data-name="Rectangle" width="25.965" height="37.093" transform="translate(134.233 369.315)" fill="#bbe4fa"/>
    <path id="Rectangle_-_Contour-6" data-name="Rectangle - Contour" d="M-1.5-1.5H26.938V38.066H-1.5ZM24.465.973H.973v34.62H24.465Z" transform="translate(134.497 369.578)" fill="#3f8fb9"/>
    <path id="Rectangle-17" data-name="Rectangle" d="M2.342-1.5H30.927a3.846,3.846,0,0,1,3.842,3.842v9.215A3.846,3.846,0,0,1,30.927,15.4H2.342A3.846,3.846,0,0,1-1.5,11.556V2.342A3.846,3.846,0,0,1,2.342-1.5ZM30.927,12.925A1.37,1.37,0,0,0,32.3,11.556V2.342A1.37,1.37,0,0,0,30.927.973H2.342A1.37,1.37,0,0,0,.973,2.342v9.215a1.37,1.37,0,0,0,1.369,1.369Z" transform="translate(130.377 406.671)" fill="#3f8fb9"/>
    <rect id="Rectangle-18" data-name="Rectangle" width="25.965" height="37.093" transform="translate(135.056 281.252)" fill="#bbe4fa"/>
    <path id="Rectangle_-_Contour-7" data-name="Rectangle - Contour" d="M-1.5-1.5H26.938V38.066H-1.5ZM24.465.973H.973v34.62H24.465Z" transform="translate(135.32 281.515)" fill="#3f8fb9"/>
    <path id="Rectangle-19" data-name="Rectangle" d="M2.342-1.5H30.927a3.846,3.846,0,0,1,3.842,3.842v9.215A3.846,3.846,0,0,1,30.927,15.4H2.342A3.846,3.846,0,0,1-1.5,11.556V2.342A3.846,3.846,0,0,1,2.342-1.5ZM30.927,12.925A1.37,1.37,0,0,0,32.3,11.556V2.342A1.37,1.37,0,0,0,30.927.973H2.342A1.37,1.37,0,0,0,.973,2.342v9.215a1.37,1.37,0,0,0,1.369,1.369Z" transform="translate(131.201 318.589)" fill="#3f8fb9"/>
    <rect id="Rectangle-20" data-name="Rectangle" width="25.965" height="37.093" transform="translate(85.639 281.252)" fill="#bbe4fa"/>
    <path id="Rectangle_-_Contour-8" data-name="Rectangle - Contour" d="M-1.5-1.5H26.938V38.066H-1.5ZM24.465.973H.973v34.62H24.465Z" transform="translate(85.903 281.515)" fill="#3f8fb9"/>
    <path id="Rectangle-21" data-name="Rectangle" d="M2.342-1.5H30.927a3.846,3.846,0,0,1,3.842,3.842v9.215A3.846,3.846,0,0,1,30.927,15.4H2.342A3.846,3.846,0,0,1-1.5,11.556V2.342A3.846,3.846,0,0,1,2.342-1.5ZM30.927,12.925A1.37,1.37,0,0,0,32.3,11.556V2.342A1.37,1.37,0,0,0,30.927.973H2.342A1.37,1.37,0,0,0,.973,2.342v9.215a1.37,1.37,0,0,0,1.369,1.369Z" transform="translate(81.784 318.589)" fill="#3f8fb9"/>
    <rect id="Rectangle-22" data-name="Rectangle" width="9.891" height="45.336" transform="translate(221.13 112.416)" fill="#b4e2fa"/>
    <rect id="Rectangle-23" data-name="Rectangle" width="9.891" height="45.336" transform="translate(337.263 112.416)" fill="#b4e2fa"/>
    <rect id="Rectangle-24" data-name="Rectangle" width="9.891" height="45.336" transform="translate(278.785 112.416)" fill="#b4e2fa"/>
    <path id="Ligne_3" data-name="Ligne 3" d="M38.741,1.3H0V-2H38.741Z" transform="translate(219.473 133.781)" fill="#3f8fb9"/>
    <path id="Rectangle-25" data-name="Rectangle" d="M2.473,2.473V47.808H37.917V2.473H2.473M0,0H40.39V50.281H0Z" transform="translate(276.713 109.945)" fill="#3f8fb9"/>
    <path id="Ligne_4" data-name="Ligne 4" d="M38.741,1.3H0V-2H38.741Z" transform="translate(277.537 133.781)" fill="#3f8fb9"/>
    <path id="Rectangle-26" data-name="Rectangle" d="M2.473,2.473V47.808H37.917V2.473H2.473M0,0H40.39V50.281H0Z" transform="translate(335.189 109.945)" fill="#3f8fb9"/>
    <path id="Ligne_5" data-name="Ligne 5" d="M38.741,1.3H0V-2H38.741Z" transform="translate(336.013 133.781)" fill="#3f8fb9"/>
    <path id="Ligne_6" data-name="Ligne 6" d="M181.342,1.3H0V-2H181.342Z" transform="translate(206.234 160.96)" fill="#007bd1"/>
    <path id="Rectangle-27" data-name="Rectangle" d="M2.473,2.473V47.808H37.917V2.473H2.473M0,0H40.39V50.281H0Z" transform="translate(218.649 281.244)" fill="#3f8fb9"/>
    <rect id="Rectangle-28" data-name="Rectangle" width="167.742" height="8.243" transform="translate(212.829 333.977)" fill="#cdeefc"/>
    <rect id="Rectangle-29" data-name="Rectangle" width="9.891" height="45.336" transform="translate(221.13 283.718)" fill="#b4e2fa"/>
    <rect id="Rectangle-30" data-name="Rectangle" width="9.891" height="45.336" transform="translate(337.263 283.718)" fill="#b4e2fa"/>
    <rect id="Rectangle-31" data-name="Rectangle" width="9.891" height="45.336" transform="translate(278.785 283.718)" fill="#b4e2fa"/>
    <path id="Ligne_7" data-name="Ligne 7" d="M38.741,1.3H0V-2H38.741Z" transform="translate(219.473 305.094)" fill="#3f8fb9"/>
    <path id="Rectangle-32" data-name="Rectangle" d="M2.473,2.473V47.808H37.917V2.473H2.473M0,0H40.39V50.281H0Z" transform="translate(276.713 281.244)" fill="#3f8fb9"/>
    <path id="Ligne_8" data-name="Ligne 8" d="M38.741,1.3H0V-2H38.741Z" transform="translate(277.537 305.094)" fill="#3f8fb9"/>
    <path id="Rectangle-33" data-name="Rectangle" d="M2.473,2.473V47.808H37.917V2.473H2.473M0,0H40.39V50.281H0Z" transform="translate(335.189 281.244)" fill="#3f8fb9"/>
    <path id="Ligne_9" data-name="Ligne 9" d="M38.741,1.3H0V-2H38.741Z" transform="translate(336.013 305.094)" fill="#3f8fb9"/>
    <path id="Ligne_10" data-name="Ligne 10" d="M181.342,1.3H0V-2H181.342Z" transform="translate(206.234 332.274)" fill="#007bd1"/>
    <path id="Rectangle-34" data-name="Rectangle" d="M2.473,2.473V47.808H37.917V2.473H2.473M0,0H40.39V50.281H0Z" transform="translate(218.649 366.842)" fill="#3f8fb9"/>
    <rect id="Rectangle-35" data-name="Rectangle" width="167.742" height="8.243" transform="translate(212.829 419.596)" fill="#cdeefc"/>
    <rect id="Rectangle-36" data-name="Rectangle" width="9.891" height="45.336" transform="translate(221.13 369.315)" fill="#b4e2fa"/>
    <rect id="Rectangle-37" data-name="Rectangle" width="9.891" height="45.336" transform="translate(337.263 369.315)" fill="#b4e2fa"/>
    <rect id="Rectangle-38" data-name="Rectangle" width="9.891" height="45.336" transform="translate(278.785 369.315)" fill="#b4e2fa"/>
    <path id="Ligne_11" data-name="Ligne 11" d="M38.741,1.3H0V-2H38.741Z" transform="translate(219.473 390.685)" fill="#3f8fb9"/>
    <path id="Rectangle-39" data-name="Rectangle" d="M2.473,2.473V47.808H37.917V2.473H2.473M0,0H40.39V50.281H0Z" transform="translate(276.713 366.842)" fill="#3f8fb9"/>
    <path id="Ligne_12" data-name="Ligne 12" d="M38.741,1.3H0V-2H38.741Z" transform="translate(277.537 390.685)" fill="#3f8fb9"/>
    <path id="Rectangle-40" data-name="Rectangle" d="M2.473,2.473V47.808H37.917V2.473H2.473M0,0H40.39V50.281H0Z" transform="translate(335.189 366.842)" fill="#3f8fb9"/>
    <path id="Ligne_13" data-name="Ligne 13" d="M38.741,1.3H0V-2H38.741Z" transform="translate(336.013 390.685)" fill="#3f8fb9"/>
    <path id="Ligne_14" data-name="Ligne 14" d="M181.342,1.3H0V-2H181.342Z" transform="translate(206.234 417.887)" fill="#007bd1"/>
    <path id="Rectangle-41" data-name="Rectangle" d="M2.473,2.473V47.808H37.917V2.473H2.473M0,0H40.39V50.281H0Z" transform="translate(218.649 194.771)" fill="#3f8fb9"/>
    <rect id="Rectangle-42" data-name="Rectangle" width="167.742" height="8.243" transform="translate(212.829 247.498)" fill="#cdeefc"/>
    <rect id="Rectangle-43" data-name="Rectangle" width="9.891" height="45.336" transform="translate(221.13 197.243)" fill="#b4e2fa"/>
    <rect id="Rectangle-44" data-name="Rectangle" width="9.891" height="45.336" transform="translate(337.263 197.243)" fill="#b4e2fa"/>
    <rect id="Rectangle-45" data-name="Rectangle" width="9.891" height="45.336" transform="translate(278.785 197.243)" fill="#b4e2fa"/>
    <path id="Ligne_15" data-name="Ligne 15" d="M38.741,1.3H0V-2H38.741Z" transform="translate(219.473 218.614)" fill="#3f8fb9"/>
    <path id="Rectangle-46" data-name="Rectangle" d="M2.473,2.473V47.808H37.917V2.473H2.473M0,0H40.39V50.281H0Z" transform="translate(276.713 194.771)" fill="#3f8fb9"/>
    <path id="Ligne_16" data-name="Ligne 16" d="M38.741,1.3H0V-2H38.741Z" transform="translate(277.537 218.614)" fill="#3f8fb9"/>
    <path id="Rectangle-47" data-name="Rectangle" d="M2.473,2.473V47.808H37.917V2.473H2.473M0,0H40.39V50.281H0Z" transform="translate(335.189 194.771)" fill="#3f8fb9"/>
    <path id="Ligne_17" data-name="Ligne 17" d="M38.741,1.3H0V-2H38.741Z" transform="translate(336.013 218.614)" fill="#3f8fb9"/>
    <path id="Ligne_18" data-name="Ligne 18" d="M181.342,1.3H0V-2H181.342Z" transform="translate(206.234 245.794)" fill="#007bd1"/>
    <rect id="Rectangle-48" data-name="Rectangle" width="173.1" height="12.364" transform="translate(15.249 249.967)" fill="#bbe5f9"/>
    <rect id="Rectangle-49" data-name="Rectangle" width="158.262" height="8.243" transform="translate(30.086 464.107)" fill="#bbe5f9"/>
    <rect id="Rectangle-50" data-name="Rectangle" width="206.895" height="8.243" transform="translate(191.399 464.107)" fill="#bbe5f9"/>
    <rect id="Rectangle-51" data-name="Rectangle" width="125.291" height="8.243" transform="translate(401.362 464.107)" fill="#bbe5f9"/>
    <rect id="Rectangle-52" data-name="Rectangle" width="125.291" height="8.243" transform="translate(401.362 165.136)" fill="#bbe5f9"/>
    <rect id="Rectangle-53" data-name="Rectangle" width="9.067" height="222.557" transform="translate(179.125 249.794)" fill="#bbe5f9"/>
    <rect id="Rectangle-54" data-name="Rectangle" width="9.891" height="307.458" transform="translate(401.507 164.892)" fill="#bbe5f9"/>
    <rect id="Rectangle-55" data-name="Rectangle" width="9.891" height="19.783" transform="translate(401.507 142.896)" fill="#87cefa"/>
    <rect id="Rectangle-56" data-name="Rectangle" width="9.067" height="62.646" transform="translate(179.125 184.06)" fill="#89d2f3"/>
    <path id="Ligne_19" data-name="Ligne 19" d="M.973,17.31H-1.5V0H.973Z" transform="translate(22.519 230.61)" fill="#007bd1"/>
    <path id="Ligne_20" data-name="Ligne 20" d="M.973,32.147H-1.5V0H.973Z" transform="translate(38.181 215.779)" fill="#007bd1"/>
    <path id="Ligne_23" data-name="Ligne 23" d="M.973,42.038H-1.5V0H.973Z" transform="translate(144.386 183.656)" fill="#007bd1"/>
    <path id="Ligne_24" data-name="Ligne 24" d="M.973,19.783H-1.5V0H.973Z" transform="translate(160.035 183.664)" fill="#007bd1"/>
    <rect id="Rectangle-57" data-name="Rectangle" width="25.965" height="37.093" transform="translate(430.037 198.209)" fill="#bbe4fa"/>
    <path id="Rectangle_-_Contour-9" data-name="Rectangle - Contour" d="M-1.5-1.5H26.938V38.066H-1.5ZM24.465.973H.973v34.62H24.465Z" transform="translate(430.3 198.473)" fill="#3f8fb9"/>
    <path id="Rectangle-58" data-name="Rectangle" d="M2.342-1.5H30.927a3.846,3.846,0,0,1,3.842,3.842v9.215A3.846,3.846,0,0,1,30.927,15.4H2.342A3.846,3.846,0,0,1-1.5,11.556V2.342A3.846,3.846,0,0,1,2.342-1.5ZM30.927,12.925A1.37,1.37,0,0,0,32.3,11.556V2.342A1.37,1.37,0,0,0,30.927.973H2.342A1.37,1.37,0,0,0,.973,2.342v9.215a1.37,1.37,0,0,0,1.369,1.369Z" transform="translate(426.177 235.543)" fill="#3f8fb9"/>
    <rect id="Rectangle-59" data-name="Rectangle" width="25.965" height="37.093" transform="translate(478.557 198.209)" fill="#bbe4fa"/>
    <path id="Rectangle_-_Contour-10" data-name="Rectangle - Contour" d="M-1.5-1.5H26.938V38.066H-1.5ZM24.465.973H.973v34.62H24.465Z" transform="translate(478.821 198.473)" fill="#3f8fb9"/>
    <path id="Rectangle-60" data-name="Rectangle" d="M2.342-1.5H30.927a3.846,3.846,0,0,1,3.842,3.842v9.215A3.846,3.846,0,0,1,30.927,15.4H2.342A3.846,3.846,0,0,1-1.5,11.556V2.342A3.846,3.846,0,0,1,2.342-1.5ZM30.927,12.925A1.37,1.37,0,0,0,32.3,11.556V2.342A1.37,1.37,0,0,0,30.927.973H2.342A1.37,1.37,0,0,0,.973,2.342v9.215a1.37,1.37,0,0,0,1.369,1.369Z" transform="translate(474.699 235.543)" fill="#3f8fb9"/>
    <rect id="Rectangle-61" data-name="Rectangle" width="25.965" height="37.093" transform="translate(430.861 281.391)" fill="#bbe4fa"/>
    <path id="Rectangle_-_Contour-11" data-name="Rectangle - Contour" d="M-1.5-1.5H26.938V38.066H-1.5ZM24.465.973H.973v34.62H24.465Z" transform="translate(431.124 281.654)" fill="#3f8fb9"/>
    <path id="Rectangle-62" data-name="Rectangle" d="M2.342-1.5H30.927a3.846,3.846,0,0,1,3.842,3.842v9.215A3.846,3.846,0,0,1,30.927,15.4H2.342A3.846,3.846,0,0,1-1.5,11.556V2.342A3.846,3.846,0,0,1,2.342-1.5ZM30.927,12.925A1.37,1.37,0,0,0,32.3,11.556V2.342A1.37,1.37,0,0,0,30.927.973H2.342A1.37,1.37,0,0,0,.973,2.342v9.215a1.37,1.37,0,0,0,1.369,1.369Z" transform="translate(427.001 318.728)" fill="#3f8fb9"/>
    <rect id="Rectangle-63" data-name="Rectangle" width="25.965" height="37.093" transform="translate(479.382 281.391)" fill="#bbe4fa"/>
    <path id="Rectangle_-_Contour-12" data-name="Rectangle - Contour" d="M-1.5-1.5H26.938V38.066H-1.5ZM24.465.973H.973v34.62H24.465Z" transform="translate(479.645 281.654)" fill="#3f8fb9"/>
    <path id="Rectangle-64" data-name="Rectangle" d="M2.342-1.5H30.927a3.846,3.846,0,0,1,3.842,3.842v9.215A3.846,3.846,0,0,1,30.927,15.4H2.342A3.846,3.846,0,0,1-1.5,11.556V2.342A3.846,3.846,0,0,1,2.342-1.5ZM30.927,12.925A1.37,1.37,0,0,0,32.3,11.556V2.342A1.37,1.37,0,0,0,30.927.973H2.342A1.37,1.37,0,0,0,.973,2.342v9.215a1.37,1.37,0,0,0,1.369,1.369Z" transform="translate(475.524 318.728)" fill="#3f8fb9"/>
    <rect id="Rectangle-65" data-name="Rectangle" width="25.965" height="37.093" transform="translate(430.037 369.454)" fill="#bbe4fa"/>
    <path id="Rectangle_-_Contour-13" data-name="Rectangle - Contour" d="M-1.5-1.5H26.938V38.066H-1.5ZM24.465.973H.973v34.62H24.465Z" transform="translate(430.3 369.718)" fill="#3f8fb9"/>
    <path id="Rectangle-66" data-name="Rectangle" d="M2.342-1.5H30.927a3.846,3.846,0,0,1,3.842,3.842v9.215A3.846,3.846,0,0,1,30.927,15.4H2.342A3.846,3.846,0,0,1-1.5,11.556V2.342A3.846,3.846,0,0,1,2.342-1.5ZM30.927,12.925A1.37,1.37,0,0,0,32.3,11.556V2.342A1.37,1.37,0,0,0,30.927.973H2.342A1.37,1.37,0,0,0,.973,2.342v9.215a1.37,1.37,0,0,0,1.369,1.369Z" transform="translate(426.177 406.81)" fill="#3f8fb9"/>
    <rect id="Rectangle-67" data-name="Rectangle" width="25.965" height="37.093" transform="translate(478.557 369.454)" fill="#bbe4fa"/>
    <path id="Rectangle_-_Contour-14" data-name="Rectangle - Contour" d="M-1.5-1.5H26.938V38.066H-1.5ZM24.465.973H.973v34.62H24.465Z" transform="translate(478.821 369.718)" fill="#3f8fb9"/>
    <path id="Rectangle-68" data-name="Rectangle" d="M2.342-1.5H30.927a3.846,3.846,0,0,1,3.842,3.842v9.215A3.846,3.846,0,0,1,30.927,15.4H2.342A3.846,3.846,0,0,1-1.5,11.556V2.342A3.846,3.846,0,0,1,2.342-1.5ZM30.927,12.925A1.37,1.37,0,0,0,32.3,11.556V2.342A1.37,1.37,0,0,0,30.927.973H2.342A1.37,1.37,0,0,0,.973,2.342v9.215a1.37,1.37,0,0,0,1.369,1.369Z" transform="translate(474.699 406.81)" fill="#3f8fb9"/>
    <path id="Ligne_25" data-name="Ligne 25" d="M.973,15.661H-1.5V0H.973Z" transform="translate(494.632 125.601)" fill="#007bd1"/>
    <path id="Ligne_26" data-name="Ligne 26" d="M.973,15.661H-1.5V0H.973Z" transform="translate(501.364 125.601)" fill="#007bd1"/>
    <path id="Rectangle-69" data-name="Rectangle" d="M-1.5-1.5H48.369V12.513H-1.5ZM45.9.973H.973V10.04H45.9Z" transform="translate(204.497 42.714)" fill="#007bd1"/>
    <path id="Rectangle-70" data-name="Rectangle" d="M-1.5-1.5H12.513V14.161H-1.5ZM10.04.973H.973V11.689H10.04Z" transform="translate(289.755 41.066)" fill="#007bd1"/>
    <path id="Rectangle-71" data-name="Rectangle" d="M3.449-1.5H61.966a4.955,4.955,0,0,1,4.949,4.949V9.624a4.955,4.955,0,0,1-4.949,4.949H3.449A4.955,4.955,0,0,1-1.5,9.624V3.449A4.955,4.955,0,0,1,3.449-1.5ZM61.966,12.1a2.479,2.479,0,0,0,2.476-2.476V3.449A2.479,2.479,0,0,0,61.966.973H3.449A2.479,2.479,0,0,0,.973,3.449V9.624A2.479,2.479,0,0,0,3.449,12.1Z" transform="translate(195.02 28.702)" fill="#007bd1"/>
    <path id="Ligne_27" data-name="Ligne 27" d="M54.139.973H-.264A1.236,1.236,0,0,1-1.5-.264,1.236,1.236,0,0,1-.264-1.5h54.4A1.236,1.236,0,0,1,55.376-.264,1.236,1.236,0,0,1,54.139.973Z" transform="translate(335.033 23.757)" fill="#007bd1"/>
    <path id="Ligne_28" data-name="Ligne 28" d="M-.264,29.823A1.236,1.236,0,0,1-1.5,28.586V-.264A1.236,1.236,0,0,1-.264-1.5,1.236,1.236,0,0,1,.973-.264v28.85A1.236,1.236,0,0,1-.264,29.823Z" transform="translate(363.887 23.757)" fill="#007bd1"/>
    <path id="Ligne_29" data-name="Ligne 29" d="M-.264,18.283A1.236,1.236,0,0,1-1.5,17.046V-.264A1.236,1.236,0,0,1-.264-1.5,1.236,1.236,0,0,1,.973-.264v17.31A1.236,1.236,0,0,1-.264,18.283Z" transform="translate(351.533 10.567)" fill="#007bd1"/>
    <path id="Ligne_30" data-name="Ligne 30" d="M-.264,18.283A1.236,1.236,0,0,1-1.5,17.046V-.264A1.236,1.236,0,0,1-.264-1.5,1.236,1.236,0,0,1,.973-.264v17.31A1.236,1.236,0,0,1-.264,18.283Z" transform="translate(376.242 10.567)" fill="#007bd1"/>
    <path id="Ligne_31" data-name="Ligne 31" d="M-.264,36.417A1.236,1.236,0,0,1-1.5,35.181V-.264A1.236,1.236,0,0,1-.264-1.5,1.236,1.236,0,0,1,.973-.264V35.181A1.236,1.236,0,0,1-.264,36.417Z" transform="translate(345.767 1.5)" fill="#007bd1"/>
    <path id="Ligne_32" data-name="Ligne 32" d="M-.264,36.417A1.236,1.236,0,0,1-1.5,35.181V-.264A1.236,1.236,0,0,1-.264-1.5,1.236,1.236,0,0,1,.973-.264V35.181A1.236,1.236,0,0,1-.264,36.417Z" transform="translate(382.831 1.5)" fill="#007bd1"/>
  </g>
  <g id="ftto" transform="translate(26.017 177.086)">
    <g id="boitier" transform="translate(0 0)">
      <rect id="Rectangle-72" data-name="Rectangle" width="108" height="34" rx="6.439" fill="#0082ca"/>
      <circle id="Ellipse" cx="5" cy="5" r="5" transform="translate(12 12)" fill="#e4f5ff"/>
      <circle id="Ellipse-2" data-name="Ellipse" cx="5" cy="5" r="5" transform="translate(30 12)" fill="#e4f5ff"/>
      <ellipse id="Ellipse-3" data-name="Ellipse" cx="5.5" cy="5" rx="5.5" ry="5" transform="translate(48 12)" fill="#e4f5ff"/>
    </g>
    <text id="FTTH" transform="translate(3.44 70.638)" fill="#0082ca" font-size="36" font-family="GothamRounded-Bold, Gotham Rounded" font-weight="700"><tspan x="0" y="0">FTTH</tspan></text>
  </g>
  <g id="xDSL" transform="translate(98.414 48.172)">
    <g id="boitier-2" data-name="boitier">
      <rect id="Rectangle-73" data-name="Rectangle" width="108.303" height="33.662" rx="6.439" fill="#0082ca"/>
      <circle id="Ellipse-4" data-name="Ellipse" cx="5.122" cy="5.122" r="5.122" transform="translate(11.708 11.708)" fill="#e4f5ff"/>
      <circle id="Ellipse-5" data-name="Ellipse" cx="5.122" cy="5.122" r="5.122" transform="translate(30.003 11.708)" fill="#e4f5ff"/>
      <circle id="Ellipse-6" data-name="Ellipse" cx="5.122" cy="5.122" r="5.122" transform="translate(48.297 11.708)" fill="#e4f5ff"/>
    </g>
    <text id="FTTO-2" data-name="FTTO" transform="translate(6.495 70.65)" fill="#0082ca" font-size="36" font-family="GothamRounded-Bold, Gotham Rounded" font-weight="700"><tspan x="0" y="0">FTTO</tspan></text>
  </g>
  <g id="FON" transform="translate(430.714 138.282)">
    <g id="boitier-3" data-name="boitier">
      <rect id="Rectangle-74" data-name="Rectangle" width="108.303" height="33.662" rx="6.439" fill="#0082ca"/>
      <circle id="Ellipse-7" data-name="Ellipse" cx="5.122" cy="5.122" r="5.122" transform="translate(11.708 11.708)" fill="#e4f5ff"/>
      <circle id="Ellipse-8" data-name="Ellipse" cx="5.122" cy="5.122" r="5.122" transform="translate(30.003 11.708)" fill="#e4f5ff"/>
      <circle id="Ellipse-9" data-name="Ellipse" cx="5.122" cy="5.122" r="5.122" transform="translate(48.297 11.708)" fill="#e4f5ff"/>
    </g>
    <text id="FON-2" data-name="FON" transform="translate(12.148 70.65)" fill="#0082ca" font-size="36" font-family="GothamRounded-Bold, Gotham Rounded" font-weight="700"><tspan x="0" y="0">FON</tspan></text>
  </g>
  <g id="_4G" data-name="4G" transform="translate(343.481 24)">
    <path id="Tracé" d="M922.709,232.271a3.659,3.659,0,0,1-3.657-3.6,17.725,17.725,0,0,0-4.919-11.775c-5.3-5.568-12.6-6.448-14.71-6.585a3.659,3.659,0,0,1,.474-7.3c3.564.231,12.6,1.556,19.537,8.843a24.78,24.78,0,0,1,6.935,16.7,3.659,3.659,0,0,1-3.6,3.716Z" transform="translate(-844.13 -170.07)" fill="#80d2ff"/>
    <path id="Tracé-2" data-name="Tracé" d="M937.824,226.9q-.168,0-.34-.016a3.659,3.659,0,0,1-3.308-3.979c.227-2.462.883-15.252-8.49-25.343-10.49-11.293-25-10.028-26.62-9.846a3.659,3.659,0,1,1-.815-7.272c3.255-.365,20.134-1.493,32.8,12.138,11.2,12.06,10.8,26.772,10.416,30.994A3.659,3.659,0,0,1,937.824,226.9Z" transform="translate(-843.862 -163.971)" fill="#00acf8"/>
    <path id="Tracé-3" data-name="Tracé" d="M953.645,220.933q-.161,0-.325-.014A3.659,3.659,0,0,1,950,216.953c.433-4.92.855-22.08-11.9-36.3-14.512-16.18-34.331-15.536-38.158-15.243a3.659,3.659,0,0,1-.559-7.3c4.427-.339,27.36-1.083,44.164,17.653,14.723,16.414,14.24,36.166,13.742,41.828A3.659,3.659,0,0,1,953.645,220.933Z" transform="translate(-844.13 -158)" fill="#0082ca"/>
    <text id="_4G-2" data-name="4G" transform="translate(0 81.721)" fill="#0082ca" font-size="47" font-family="GothamRounded-Bold, Gotham Rounded" font-weight="700"><tspan x="0" y="0">4G</tspan></text>
  </g>
  <g id="icone-MPLS_SD-WAN" data-name="icone-MPLS/SD-WAN" transform="translate(253.017)">
    <path id="Tracé_65" data-name="Tracé 65" d="M468.5,349.95a56.3,56.3,0,0,1,56.67,0c.365.628,0,14.293,0,20.875s-7.777,32.965-28.342,38.446c-.283-.075-28.328-8.133-28.328-38.446C468.126,370.608,468.5,349.95,468.5,349.95Z" transform="translate(-468.336 -342.271)" fill="#3880c4"/>
    <path id="Tracé_66" data-name="Tracé 66" d="M477.5,358.051s20.97-12.136,42.288,0" transform="translate(-470.406 -339.617)" fill="none" stroke="#e4f5ff" stroke-linecap="round" stroke-width="4"/>
  </g>
</svg>
