<svg xmlns="http://www.w3.org/2000/svg" width="298.549" height="334.894" viewBox="0 0 298.549 334.894">
  <g id="illustration_iot" data-name="illustration iot" transform="translate(0.001)">
    <line id="Ligne_162" data-name="Ligne 162" y1="137.75" transform="translate(149.274 29.696)" fill="none" stroke="#3f8fb9" stroke-linecap="round" stroke-linejoin="round" stroke-width="3" stroke-dasharray="0 9"/>
    <line id="Ligne_163" data-name="Ligne 163" x1="119.295" y1="68.875" transform="translate(29.979 98.571)" fill="none" stroke="#3f8fb9" stroke-linecap="round" stroke-linejoin="round" stroke-width="3" stroke-dasharray="0 9"/>
    <line id="Ligne_164" data-name="Ligne 164" x1="119.295" y2="68.875" transform="translate(29.979 167.447)" fill="none" stroke="#3f8fb9" stroke-linecap="round" stroke-linejoin="round" stroke-width="3" stroke-dasharray="0 9"/>
    <line id="Ligne_165" data-name="Ligne 165" y2="137.75" transform="translate(149.274 167.447)" fill="none" stroke="#3f8fb9" stroke-linecap="round" stroke-linejoin="round" stroke-width="3" stroke-dasharray="0 9"/>
    <line id="Ligne_166" data-name="Ligne 166" x2="119.296" y2="68.875" transform="translate(149.274 167.447)" fill="none" stroke="#3f8fb9" stroke-linecap="round" stroke-linejoin="round" stroke-width="3" stroke-dasharray="0 9"/>
    <line id="Ligne_167" data-name="Ligne 167" y1="68.875" x2="119.296" transform="translate(149.274 98.571)" fill="none" stroke="#3f8fb9" stroke-linecap="round" stroke-linejoin="round" stroke-width="3" stroke-dasharray="0 9"/>
    <g id="Groupe" transform="translate(-0.001)">
      <path id="Tracé_687" data-name="Tracé 687" d="M221.837,295.828h0a142.166,142.166,0,1,1,71.083-123.12A142.161,142.161,0,0,1,221.837,295.828Z" transform="translate(-1.479 -5.262)" fill="none" stroke="#3f8fb9" stroke-linecap="round" stroke-linejoin="round" stroke-width="3" stroke-dasharray="0 8.992"/>
      <path id="Tracé_688" data-name="Tracé 688" d="M203.716,263.1H140.471a8.025,8.025,0,0,1-8.025-8.025V126.4a8.025,8.025,0,0,1,8.025-8.025h63.245a8.025,8.025,0,0,1,8.025,8.025V255.079a8.025,8.025,0,0,1-8.025,8.025" transform="translate(-22.819 -20.396)" fill="#2f2f5f"/>
      <path id="Tracé_689" data-name="Tracé 689" d="M203.716,255.52H140.471a8.024,8.024,0,0,1-8.025-8.025V118.82a8.025,8.025,0,0,1,8.025-8.025h63.245a8.025,8.025,0,0,1,8.025,8.025V247.495a8.024,8.024,0,0,1-8.025,8.025" transform="translate(-22.819 -19.089)" fill="#101041"/>
      <rect id="Rectangle" width="71.643" height="115.494" transform="translate(113.454 106.321)" fill="#ffae00"/>
      <path id="Tracé_690" data-name="Tracé 690" d="M184.5,275.451a5.24,5.24,0,1,1-5.24-5.24,5.24,5.24,0,0,1,5.24,5.24" transform="translate(-29.981 -46.555)" fill="#dedede"/>
      <path id="Tracé_691" data-name="Tracé 691" d="M182.909,290.715H175.6a1.586,1.586,0,1,1,0-3.173h7.307a1.586,1.586,0,1,1,0,3.173" transform="translate(-29.981 -49.541)" fill="#fff"/>
      <path id="Tracé_692" data-name="Tracé 692" d="M197.322,289.307a.724.724,0,1,1-.724-.724.725.725,0,0,1,.724.724" transform="translate(-33.747 -49.721)" fill="#fff"/>
      <path id="Tracé_693" data-name="Tracé 693" d="M200.488,289.307a.724.724,0,1,1-.724-.724.725.725,0,0,1,.724.724" transform="translate(-34.293 -49.721)" fill="#fff"/>
      <path id="Tracé_694" data-name="Tracé 694" d="M203.654,289.307a.724.724,0,1,1-.724-.724.725.725,0,0,1,.724.724" transform="translate(-34.838 -49.721)" fill="#fff"/>
      <path id="Tracé_695" data-name="Tracé 695" d="M206.821,289.307a.724.724,0,1,1-.724-.724.725.725,0,0,1,.724.724" transform="translate(-35.384 -49.721)" fill="#fff"/>
      <path id="Tracé_696" data-name="Tracé 696" d="M209.988,289.307a.724.724,0,1,1-.724-.724.725.725,0,0,1,.724.724" transform="translate(-35.929 -49.721)" fill="#fff"/>
      <path id="Tracé_697" data-name="Tracé 697" d="M213.154,289.307a.724.724,0,1,1-.724-.724.725.725,0,0,1,.724.724" transform="translate(-36.475 -49.721)" fill="#fff"/>
      <path id="Tracé_698" data-name="Tracé 698" d="M148.685,289.307a.724.724,0,1,1-.724-.724.725.725,0,0,1,.724.724" transform="translate(-25.367 -49.721)" fill="#fff"/>
      <path id="Tracé_699" data-name="Tracé 699" d="M151.851,289.307a.724.724,0,1,1-.724-.724.725.725,0,0,1,.724.724" transform="translate(-25.913 -49.721)" fill="#fff"/>
      <path id="Tracé_700" data-name="Tracé 700" d="M155.019,289.307a.724.724,0,1,1-.724-.724.725.725,0,0,1,.724.724" transform="translate(-26.459 -49.721)" fill="#fff"/>
      <path id="Tracé_701" data-name="Tracé 701" d="M158.185,289.307a.724.724,0,1,1-.724-.724.725.725,0,0,1,.724.724" transform="translate(-27.004 -49.721)" fill="#fff"/>
      <path id="Tracé_702" data-name="Tracé 702" d="M161.351,289.307a.724.724,0,1,1-.724-.724.725.725,0,0,1,.724.724" transform="translate(-27.55 -49.721)" fill="#fff"/>
      <path id="Tracé_703" data-name="Tracé 703" d="M164.518,289.307a.724.724,0,1,1-.724-.724.725.725,0,0,1,.724.724" transform="translate(-28.095 -49.721)" fill="#fff"/>
      <path id="Tracé_704" data-name="Tracé 704" d="M181.3,119.541a1.205,1.205,0,1,1-1.205-1.205,1.2,1.2,0,0,1,1.205,1.205" transform="translate(-30.821 -20.388)" fill="#dedede"/>
      <path id="Tracé_705" data-name="Tracé 705" d="M174.944,152.087a42.418,42.418,0,0,0-24.513,7.78,3.4,3.4,0,0,0-.454,5.178,3.315,3.315,0,0,0,4.232.436,35.855,35.855,0,0,1,41.471,0,3.314,3.314,0,0,0,4.231-.436,3.4,3.4,0,0,0-.454-5.178,42.408,42.408,0,0,0-24.512-7.78" transform="translate(-25.669 -26.204)" fill="#f4f4f4"/>
      <path id="Tracé_706" data-name="Tracé 706" d="M176.948,168.183a29.143,29.143,0,0,0-14.7,3.967,3.392,3.392,0,0,0-.618,5.314,3.343,3.343,0,0,0,4.037.557,22.408,22.408,0,0,1,22.567,0,3.342,3.342,0,0,0,4.037-.557h0a3.393,3.393,0,0,0-.619-5.314,29.132,29.132,0,0,0-14.7-3.968" transform="translate(-27.673 -28.977)" fill="#f4f4f4"/>
      <path id="Tracé_707" data-name="Tracé 707" d="M183.735,187.9a4.279,4.279,0,1,1-4.279-4.279,4.279,4.279,0,0,1,4.279,4.279" transform="translate(-30.181 -31.636)" fill="#f4f4f4"/>
      <path id="Tracé_708" data-name="Tracé 708" d="M205.5,31.762A31.762,31.762,0,1,1,173.734,0,31.763,31.763,0,0,1,205.5,31.762" transform="translate(-24.46)" fill="#0085cc"/>
      <path id="Tracé_709" data-name="Tracé 709" d="M47.648,86.218A31.763,31.763,0,1,1,4.26,97.844,31.762,31.762,0,0,1,47.648,86.218" transform="translate(0.001 -14.121)" fill="#ffae00"/>
      <path id="Tracé_710" data-name="Tracé 710" d="M15.886,250.146A31.763,31.763,0,1,1,4.26,293.534a31.762,31.762,0,0,1,11.626-43.388" transform="translate(0.001 -42.364)" fill="#fd6146"/>
      <path id="Tracé_711" data-name="Tracé 711" d="M141.972,359.618a31.762,31.762,0,1,1,31.762,31.762,31.763,31.763,0,0,1-31.762-31.762" transform="translate(-24.46 -56.487)" fill="#0085cc"/>
      <path id="Tracé_712" data-name="Tracé 712" d="M299.818,305.161a31.763,31.763,0,1,1,43.388-11.626,31.761,31.761,0,0,1-43.388,11.626" transform="translate(-48.919 -42.364)" fill="#ffae00"/>
      <path id="Tracé_713" data-name="Tracé 713" d="M331.581,141.232a31.763,31.763,0,1,1,11.626-43.388,31.762,31.762,0,0,1-11.626,43.388" transform="translate(-48.919 -14.121)" fill="#fd6146"/>
      <path id="Tracé_714" data-name="Tracé 714" d="M195.932,42.122H156.568V18.81a1.993,1.993,0,0,1,1.992-1.993h35.378a1.993,1.993,0,0,1,1.994,1.993Z" transform="translate(-26.975 -2.897)" fill="#353535"/>
      <path id="Tracé_715" data-name="Tracé 715" d="M201.961,47.39H147.369v1.589a1.342,1.342,0,0,0,1.342,1.343h51.908a1.343,1.343,0,0,0,1.343-1.343Z" transform="translate(-25.39 -8.165)" fill="#fff"/>
      <path id="Tracé_716" data-name="Tracé 716" d="M183.69,47.39h-8.445v.723a.314.314,0,0,0,.315.315h7.816a.314.314,0,0,0,.315-.315Z" transform="translate(-30.193 -8.165)" fill="#e3e3e3"/>
      <rect id="Rectangle-2" data-name="Rectangle" width="35.122" height="22.902" transform="translate(131.714 16.323)" fill="#595959"/>
      <path id="Tracé_717" data-name="Tracé 717" d="M178.127,24.958a17.415,17.415,0,0,0-10.065,3.195,1.4,1.4,0,0,0-.186,2.126,1.359,1.359,0,0,0,1.737.18,14.724,14.724,0,0,1,17.029,0,1.36,1.36,0,0,0,1.737-.179,1.4,1.4,0,0,0-.187-2.126,17.411,17.411,0,0,0-10.065-3.195" transform="translate(-28.853 -4.3)" fill="#ffb857"/>
      <path id="Tracé_718" data-name="Tracé 718" d="M178.951,31.568a11.973,11.973,0,0,0-6.036,1.629,1.393,1.393,0,0,0-.254,2.182,1.372,1.372,0,0,0,1.657.229,9.2,9.2,0,0,1,9.267,0,1.373,1.373,0,0,0,1.658-.228,1.394,1.394,0,0,0-.254-2.182,11.966,11.966,0,0,0-6.037-1.63" transform="translate(-29.676 -5.439)" fill="#ffb857"/>
      <path id="Tracé_719" data-name="Tracé 719" d="M181.737,39.662A1.757,1.757,0,1,1,179.98,37.9a1.757,1.757,0,0,1,1.757,1.757" transform="translate(-30.706 -6.531)" fill="#ffb857"/>
      <path id="Tracé_720" data-name="Tracé 720" d="M329.068,122.455c0,4.712-3.819,12.32-8.532,12.32s-8.531-7.607-8.531-12.32a8.532,8.532,0,1,1,17.063,0" transform="translate(-53.756 -19.628)" fill="#ffd442"/>
      <path id="Tracé_721" data-name="Tracé 721" d="M319.426,136.384a34.9,34.9,0,0,0-.785-5.516,1.756,1.756,0,0,1-1.025-.416,1.823,1.823,0,0,1-.228-2.451l.417-.124a2.47,2.47,0,0,1,1.364,1.94c.018.068.035.137.052.205a.813.813,0,0,0,.076-.037,1.68,1.68,0,0,1-.122-.483,3.569,3.569,0,0,1,.263-1.487s.577-1.179,1.1.842a3.384,3.384,0,0,1,.164-.653.968.968,0,0,1,.463-.556.573.573,0,0,1,.455,0,.712.712,0,0,1,.393.72l0,.233c.418-1.477,1.433-.656,1.433-.656.249.207.057,1.292-.27,1.914a1.493,1.493,0,0,1-.119.194,1.188,1.188,0,0,0,.1.067A6.957,6.957,0,0,1,324.435,128a1.384,1.384,0,0,1,1.084-.5.711.711,0,0,1,.556.36,1.054,1.054,0,0,1-.04.948c-.428,1.008-.966,1.971-1.993,2.186a1.7,1.7,0,0,1-.4.035,9.718,9.718,0,0,0-.253,1.082,21.862,21.862,0,0,0-.2,4.124l-.758.012a22.508,22.508,0,0,1,.214-4.268,10.415,10.415,0,0,1,.265-1.133,1.889,1.889,0,0,1-.427-.281,1.6,1.6,0,0,1-.3.13,1.274,1.274,0,0,1-.967-.073,1.248,1.248,0,0,1-.945.213,1.214,1.214,0,0,1-.513-.234,1.777,1.777,0,0,1-.36.173,35.557,35.557,0,0,1,.786,5.569Zm5.99-8.152a1.021,1.021,0,0,0-.415.27,6.152,6.152,0,0,0-1.074,1.738c.662-.166,1.069-.929,1.41-1.731.084-.2.082-.26.078-.277m-5.119,1.814a.444.444,0,0,0,.114.04.469.469,0,0,0,.257-.031,1.689,1.689,0,0,1-.153-.577,1.8,1.8,0,0,1-.219.568m-2.463-1.294a1.083,1.083,0,0,0,.281,1.127.912.912,0,0,0,.334.183c-.006-.019-.011-.04-.015-.06a2.519,2.519,0,0,0-.6-1.25M321.765,130a.664.664,0,0,0,.192-.029c.024-.007.046-.016.069-.025a1.378,1.378,0,0,1-.051-.133,1.463,1.463,0,0,1-.056-.219,2.288,2.288,0,0,1-.118.331l-.036.075" transform="translate(-54.619 -21.966)" fill="#ffeaaa"/>
      <path id="Tracé_722" data-name="Tracé 722" d="M323.159,113.982a9.9,9.9,0,0,1,4.153,8.242c0,4.028-2.2,9.929-5.314,12.547.086.006.173.013.259.013,4.712,0,8.532-7.607,8.532-12.32a8.532,8.532,0,0,0-7.631-8.483" transform="translate(-55.478 -19.638)" fill="#ffc93f"/>
      <path id="Tracé_723" data-name="Tracé 723" d="M321.711,144.6h0a2.89,2.89,0,0,1-2.89-2.89v-1.076h5.78v1.076a2.89,2.89,0,0,1-2.89,2.89" transform="translate(-54.93 -24.231)" fill="#ebebeb"/>
      <path id="Tracé_724" data-name="Tracé 724" d="M324.162,142.311h-5.43a1.44,1.44,0,0,1-1.44-1.44v-4.26H325.6v4.26a1.439,1.439,0,0,1-1.439,1.44" transform="translate(-54.667 -23.537)" fill="#d1d1d1"/>
      <path id="Tracé_725" data-name="Tracé 725" d="M325.869,137.554l-8.679,1.261a.474.474,0,1,1-.136-.939l8.679-1.261a.474.474,0,0,1,.136.939" transform="translate(-54.556 -23.537)" fill="#ebebeb"/>
      <path id="Tracé_726" data-name="Tracé 726" d="M325.869,139.663l-8.679,1.261a.474.474,0,1,1-.136-.939l8.679-1.261a.474.474,0,0,1,.136.939" transform="translate(-54.556 -23.9)" fill="#ebebeb"/>
      <path id="Tracé_727" data-name="Tracé 727" d="M325.869,141.772l-8.679,1.261a.474.474,0,1,1-.136-.939l8.679-1.261a.474.474,0,0,1,.136.939" transform="translate(-54.556 -24.264)" fill="#ebebeb"/>
      <path id="Tracé_728" data-name="Tracé 728" d="M319.837,95.247a19.427,19.427,0,0,0-11.231,3.565,1.556,1.556,0,0,0-.209,2.371h0a1.519,1.519,0,0,0,1.938.2,16.43,16.43,0,0,1,19,0,1.518,1.518,0,0,0,1.938-.2,1.558,1.558,0,0,0-.208-2.372,19.43,19.43,0,0,0-11.23-3.565" transform="translate(-53.056 -16.41)" fill="#ffd9a6"/>
      <path id="Tracé_729" data-name="Tracé 729" d="M320.756,102.621a13.347,13.347,0,0,0-6.737,1.818,1.554,1.554,0,0,0-.284,2.434,1.533,1.533,0,0,0,1.85.256,10.263,10.263,0,0,1,10.34,0,1.53,1.53,0,0,0,1.849-.256,1.554,1.554,0,0,0-.282-2.434,13.349,13.349,0,0,0-6.736-1.818" transform="translate(-53.974 -17.681)" fill="#ffd9a6"/>
      <path id="Tracé_730" data-name="Tracé 730" d="M46.9,142.176c0,1.228-4.817,2.225-10.76,2.225s-10.76-1-10.76-2.225,4.817-2.225,10.76-2.225,10.76,1,10.76,2.225" transform="translate(-4.372 -24.113)" fill="#212121"/>
      <path id="Tracé_731" data-name="Tracé 731" d="M46.9,142.423v-1.035H25.38v1.035l16.3.881Z" transform="translate(-4.372 -24.36)" fill="#212121"/>
      <path id="Tracé_732" data-name="Tracé 732" d="M46.9,140.926c0,1.228-4.817,2.225-10.76,2.225s-10.76-1-10.76-2.225S30.2,138.7,36.14,138.7s10.76,1,10.76,2.225" transform="translate(-4.372 -23.897)" fill="#353535"/>
      <path id="Tracé_733" data-name="Tracé 733" d="M34.044,136.254V114.585h6.974v21.669a7.554,7.554,0,0,1-6.81.08Z" transform="translate(-5.865 -19.742)" fill="#212121"/>
      <path id="Tracé_734" data-name="Tracé 734" d="M55.062,128.484H11.5a2.12,2.12,0,0,1-2.12-2.12v-24.73a2.12,2.12,0,0,1,2.12-2.12H55.062a2.119,2.119,0,0,1,2.12,2.12v24.73a2.12,2.12,0,0,1-2.12,2.12" transform="translate(-1.616 -17.146)" fill="#535353"/>
      <rect id="Rectangle-3" data-name="Rectangle" width="44.502" height="26.07" transform="translate(9.415 83.818)" fill="#353535"/>
      <path id="Tracé_735" data-name="Tracé 735" d="M35.868,108.049a18.757,18.757,0,0,0-10.839,3.44,1.5,1.5,0,0,0-.2,2.289,1.466,1.466,0,0,0,1.871.194,15.853,15.853,0,0,1,18.337,0,1.467,1.467,0,0,0,1.871-.193,1.5,1.5,0,0,0-.2-2.289,18.75,18.75,0,0,0-10.839-3.441" transform="translate(-4.202 -18.616)" fill="#ffd9a6"/>
      <path id="Tracé_736" data-name="Tracé 736" d="M36.754,115.167a12.892,12.892,0,0,0-6.5,1.754,1.5,1.5,0,0,0-.274,2.35,1.48,1.48,0,0,0,1.785.247,9.911,9.911,0,0,1,9.979,0,1.477,1.477,0,0,0,1.785-.247,1.5,1.5,0,0,0-.274-2.349,12.882,12.882,0,0,0-6.5-1.755" transform="translate(-5.088 -19.842)" fill="#ffd9a6"/>
      <path id="Tracé_737" data-name="Tracé 737" d="M39.755,123.883a1.892,1.892,0,1,1-1.892-1.892,1.892,1.892,0,0,1,1.892,1.892" transform="translate(-6.197 -21.018)" fill="#ffd9a6"/>
      <rect id="Rectangle-4" data-name="Rectangle" width="33.419" height="19.037" transform="translate(132.565 303.099)" fill="#fff2e5"/>
      <path id="Tracé_738" data-name="Tracé 738" d="M172.217,386.743h-7.2v-9.915a1.843,1.843,0,0,1,1.843-1.844h3.514a1.843,1.843,0,0,1,1.843,1.844Z" transform="translate(-28.431 -64.607)" fill="#daccc1"/>
      <rect id="Rectangle-5" data-name="Rectangle" width="5.897" height="10.132" transform="translate(157.478 288.717)" fill="#cb9c3e"/>
      <path id="Tracé_739" data-name="Tracé 739" d="M155.751,363.627l20.357-20.358,20.358,20.358Z" transform="translate(-26.834 -59.143)" fill="#ffce54"/>
      <path id="Tracé_740" data-name="Tracé 740" d="M155.751,365.519,167.02,354.25l11.27,11.269Z" transform="translate(-26.834 -61.035)" fill="#e3af46"/>
      <path id="Tracé_741" data-name="Tracé 741" d="M192.04,382.294h-9.075a1.733,1.733,0,0,1-1.732-1.732v-3.846a1.733,1.733,0,0,1,1.732-1.732h9.075a1.733,1.733,0,0,1,1.732,1.732v3.846a1.733,1.733,0,0,1-1.732,1.732" transform="translate(-31.225 -64.607)" fill="#d5c7bc"/>
      <path id="Tracé_742" data-name="Tracé 742" d="M171.282,362.469a2.655,2.655,0,1,1-2.655-2.655,2.656,2.656,0,0,1,2.655,2.655" transform="translate(-28.595 -61.993)" fill="#cb9c3e"/>
      <path id="Tracé_743" data-name="Tracé 743" d="M60.471,289.874l-1.895-.262a38.725,38.725,0,0,0,.551-7.5,12.234,12.234,0,0,0-2.2-6.7,7.007,7.007,0,0,0-5.8-2.949A6.007,6.007,0,0,0,46.31,275.6l-1.685-.9a7.954,7.954,0,0,1,6.387-4.143,8.913,8.913,0,0,1,7.441,3.7A14.128,14.128,0,0,1,61.038,282a40.2,40.2,0,0,1-.566,7.872" transform="translate(-7.688 -46.613)" fill="#8a807a"/>
      <path id="Tracé_744" data-name="Tracé 744" d="M38,296.776H33.86l-4.144-12.431H33.86Z" transform="translate(-5.119 -48.991)" fill="#ffeee0"/>
      <path id="Tracé_745" data-name="Tracé 745" d="M41.6,264.451H14.827v17.8H41.6c1.878,0,3.4-3.985,3.4-8.9s-1.521-8.9-3.4-8.9" transform="translate(-2.554 -45.563)" fill="#ffeee0"/>
      <path id="Tracé_746" data-name="Tracé 746" d="M44.359,268.94c0,.046,0,.091,0,.137,0,4.915-1.522,8.9-3.4,8.9H14.826v5.047H41.6c1.877,0,3.4-3.985,3.4-8.9a19.967,19.967,0,0,0-.64-5.185" transform="translate(-2.554 -46.336)" fill="#f1e2d5"/>
      <path id="Tracé_747" data-name="Tracé 747" d="M17.519,273.351c0,4.915-1.522,8.9-3.4,8.9s-3.4-3.985-3.4-8.9,1.523-8.9,3.4-8.9,3.4,3.985,3.4,8.9" transform="translate(-1.846 -45.563)" fill="#eadacf"/>
      <path id="Tracé_748" data-name="Tracé 748" d="M27.735,277.674a.242.242,0,0,1-.042,0,.319.319,0,0,1-.274-.358,22.029,22.029,0,0,0,.188-2.9,21.485,21.485,0,0,0-.265-3.421.32.32,0,0,1,.263-.366.316.316,0,0,1,.366.264,22.092,22.092,0,0,1,.273,3.523,22.6,22.6,0,0,1-.194,2.984.319.319,0,0,1-.315.276" transform="translate(-4.71 -46.626)" fill="#c8bbb1"/>
      <path id="Tracé_749" data-name="Tracé 749" d="M29.566,277.674a.193.193,0,0,1-.043,0,.317.317,0,0,1-.273-.358,21.985,21.985,0,0,0,.187-2.9,21.455,21.455,0,0,0-.265-3.421.321.321,0,0,1,.264-.366.316.316,0,0,1,.366.264,22.138,22.138,0,0,1,.272,3.523,22.548,22.548,0,0,1-.193,2.984.32.32,0,0,1-.315.276" transform="translate(-5.025 -46.626)" fill="#c8bbb1"/>
      <path id="Tracé_750" data-name="Tracé 750" d="M31.4,277.674a.242.242,0,0,1-.042,0,.319.319,0,0,1-.274-.358,21.994,21.994,0,0,0,.187-2.9A21.569,21.569,0,0,0,31,270.993a.319.319,0,1,1,.629-.1,22.064,22.064,0,0,1,.272,3.523,22.566,22.566,0,0,1-.193,2.984.319.319,0,0,1-.315.276" transform="translate(-5.341 -46.626)" fill="#c8bbb1"/>
      <path id="Tracé_751" data-name="Tracé 751" d="M33.228,277.674a.19.19,0,0,1-.043,0,.317.317,0,0,1-.273-.358,21.985,21.985,0,0,0,.187-2.9,21.485,21.485,0,0,0-.265-3.421.321.321,0,0,1,.264-.366.316.316,0,0,1,.366.264,22.191,22.191,0,0,1,.272,3.523,22.548,22.548,0,0,1-.193,2.984.32.32,0,0,1-.315.276" transform="translate(-5.656 -46.626)" fill="#c8bbb1"/>
      <path id="Tracé_752" data-name="Tracé 752" d="M14.252,265.221c-1.154,0-2.762,3.143-2.762,8.262s1.608,8.262,2.762,8.262,2.762-3.143,2.762-8.262-1.608-8.262-2.762-8.262" transform="translate(-1.979 -45.696)" fill="#00839d"/>
      <path id="Tracé_753" data-name="Tracé 753" d="M16.188,267.251c-1.251.535-2.684,2.941-2.684,6.581s1.433,6.048,2.684,6.582a16.253,16.253,0,0,0,1.173-6.582,16.237,16.237,0,0,0-1.173-6.581" transform="translate(-2.326 -46.045)" fill="#00a4c4"/>
      <rect id="Rectangle-6" data-name="Rectangle" width="23.293" height="4.037" transform="translate(28.74 243.749)" fill="#ffeee0"/>
      <path id="Tracé_754" data-name="Tracé 754" d="M37.823,296.582a1.647,1.647,0,1,1-1.646-1.646,1.646,1.646,0,0,1,1.646,1.646" transform="translate(-5.949 -50.815)" fill="#a0948c"/>
      <path id="Tracé_755" data-name="Tracé 755" d="M64.946,301.616h0a5.263,5.263,0,0,1-5.263-5.263v-1.321a5.263,5.263,0,0,1,5.263-5.263Z" transform="translate(-10.282 -49.925)" fill="#a0948c"/>
      <path id="Tracé_756" data-name="Tracé 756" d="M329.657,294.713H311.106V283.967a9.276,9.276,0,0,1,18.551,0Zm-16.068-2.483h13.585v-8.263a6.793,6.793,0,0,0-13.585,0Z" transform="translate(-53.601 -47.328)" fill="#b2a294"/>
      <path id="Tracé_757" data-name="Tracé 757" d="M330.912,308.906H308.375a1.549,1.549,0,0,1-1.549-1.549V292.783a1.549,1.549,0,0,1,1.549-1.549h22.537a1.548,1.548,0,0,1,1.549,1.549v14.574a1.548,1.548,0,0,1-1.549,1.549" transform="translate(-52.863 -50.178)" fill="#ffeed8"/>
      <path id="Tracé_758" data-name="Tracé 758" d="M330.916,291.235h-5.26c0,.056.017.112.017.17v14.573a1.549,1.549,0,0,1-1.549,1.549H306.848a1.543,1.543,0,0,0,1.531,1.379h22.537a1.548,1.548,0,0,0,1.549-1.549V292.784a1.548,1.548,0,0,0-1.549-1.549" transform="translate(-52.867 -50.178)" fill="#f7e2cd"/>
      <path id="Tracé_759" data-name="Tracé 759" d="M320.3,255.947a15.826,15.826,0,0,0-9.145,2.9,1.269,1.269,0,0,0-.17,1.932,1.236,1.236,0,0,0,1.578.162,13.38,13.38,0,0,1,15.472,0,1.234,1.234,0,0,0,1.578-.162,1.268,1.268,0,0,0-.169-1.932,15.825,15.825,0,0,0-9.145-2.9" transform="translate(-53.516 -44.098)" fill="#ffeed8"/>
      <path id="Tracé_760" data-name="Tracé 760" d="M321.045,261.952a10.868,10.868,0,0,0-5.485,1.48,1.266,1.266,0,0,0-.231,1.983,1.249,1.249,0,0,0,1.506.208,8.36,8.36,0,0,1,8.419,0,1.248,1.248,0,0,0,1.506-.208,1.266,1.266,0,0,0-.23-1.982,10.867,10.867,0,0,0-5.484-1.481" transform="translate(-54.264 -45.133)" fill="#ffeed8"/>
      <path id="Tracé_761" data-name="Tracé 761" d="M323.576,269.306a1.6,1.6,0,1,1-1.6-1.6,1.6,1.6,0,0,1,1.6,1.6" transform="translate(-55.199 -46.124)" fill="#ffeed8"/>
    </g>
    <text id="Internet" transform="translate(120.344 181.885)" fill="#fff3e5" font-size="19" font-family="BebasNeueRegular, Bebas Neue"><tspan x="0" y="0" letter-spacing="0.026em">I</tspan><tspan y="0" letter-spacing="0.025em">n</tspan><tspan y="0" letter-spacing="0.026em">ter</tspan><tspan y="0" letter-spacing="0.025em">n</tspan><tspan y="0" letter-spacing="0.026em">e</tspan><tspan y="0">t</tspan></text>
    <text id="Of_Things" data-name="Of Things" transform="translate(120.479 204.891)" fill="#fff3e5" font-size="19" font-family="BebasNeueRegular, Bebas Neue"><tspan x="0" y="0">Of Things</tspan></text>
  </g>
</svg>
