<svg id="illustration" xmlns="http://www.w3.org/2000/svg" xmlns:xlink="http://www.w3.org/1999/xlink" width="600" height="330" viewBox="0 0 600 330">
  <defs>
    <clipPath id="clip-path">
      <path id="Tracé_3" data-name="Tracé 3" d="M529.438,113.905a70.6,70.6,0,0,0-24.605,4.4c.242-2.966.371-5.964.371-8.993C505.2,48.941,456.09,0,395.5,0a109.732,109.732,0,0,0-99.577,63.407A79.976,79.976,0,0,0,226.519,73.89a70.557,70.557,0,1,0-133.6,35.192C41.579,109.225,0,150.743,0,201.942,0,253.228,41.722,294.8,93.189,294.8s93.19-41.576,93.19-92.862a92.229,92.229,0,0,0-18.1-55,70.255,70.255,0,0,0,23.991-8.887c0,.36-.027.716-.027,1.077a79.722,79.722,0,0,0,124.934,65.34A95.443,95.443,0,0,0,486.65,240.12a70.411,70.411,0,1,0,42.788-126.215" fill="none"/>
    </clipPath>
    <linearGradient id="linear-gradient" y1="1.118" x2="0.002" y2="1.118" gradientUnits="objectBoundingBox">
      <stop offset="0" stop-color="#00b5f8"/>
      <stop offset="1" stop-color="#abdefb"/>
    </linearGradient>
    <clipPath id="clip-path-2">
      <path id="Tracé_4" data-name="Tracé 4" d="M49.551,96.13a10.562,10.562,0,1,0,10.562,10.561A10.561,10.561,0,0,0,49.551,96.13" transform="translate(-38.989 -96.13)" fill="none"/>
    </clipPath>
    <linearGradient id="linear-gradient-2" x1="-1.846" y1="11.223" x2="-1.798" y2="11.223" xlink:href="#linear-gradient"/>
    <clipPath id="clip-path-3">
      <path id="Tracé_5" data-name="Tracé 5" d="M45.489,72.327a6.5,6.5,0,1,0-6.5,6.5,6.5,6.5,0,0,0,6.5-6.5" transform="translate(-32.489 -65.827)" fill="none"/>
    </clipPath>
    <linearGradient id="linear-gradient-3" x1="-2.499" y1="20.567" x2="-2.422" y2="20.567" xlink:href="#linear-gradient"/>
    <clipPath id="clip-path-4">
      <path id="Tracé_6" data-name="Tracé 6" d="M71.6,82.081a4.5,4.5,0,1,0,4.5,4.5,4.5,4.5,0,0,0-4.5-4.5" transform="translate(-67.095 -82.081)" fill="none"/>
    </clipPath>
    <linearGradient id="linear-gradient-4" x1="-7.455" y1="27.902" x2="-7.344" y2="27.902" xlink:href="#linear-gradient"/>
    <clipPath id="clip-path-5">
      <path id="Tracé_7" data-name="Tracé 7" d="M240.058,25.223a4.5,4.5,0,1,0-4.5-4.5,4.5,4.5,0,0,0,4.5,4.5" transform="translate(-235.558 -16.223)" fill="none"/>
    </clipPath>
    <linearGradient id="linear-gradient-5" x1="-26.173" y1="35.219" x2="-26.062" y2="35.219" xlink:href="#linear-gradient"/>
    <clipPath id="clip-path-6">
      <path id="Tracé_8" data-name="Tracé 8" d="M309.4,35.685a6.5,6.5,0,1,0-6.5-6.5,6.5,6.5,0,0,0,6.5,6.5" transform="translate(-302.905 -22.685)" fill="none"/>
    </clipPath>
    <linearGradient id="linear-gradient-6" x1="-23.3" y1="23.885" x2="-23.224" y2="23.885" xlink:href="#linear-gradient"/>
    <clipPath id="clip-path-7">
      <path id="Tracé_9" data-name="Tracé 9" d="M554.8,276.655a6.5,6.5,0,1,0,6.5,6.5,6.5,6.5,0,0,0-6.5-6.5" transform="translate(-548.303 -276.655)" fill="none"/>
    </clipPath>
    <linearGradient id="linear-gradient-7" x1="-42.177" y1="4.349" x2="-42.1" y2="4.349" xlink:href="#linear-gradient"/>
    <clipPath id="clip-path-8">
      <path id="Tracé_10" data-name="Tracé 10" d="M499.918,312.2a10.5,10.5,0,1,0,10.5,10.5,10.5,10.5,0,0,0-10.5-10.5" transform="translate(-489.418 -312.196)" fill="none"/>
    </clipPath>
    <linearGradient id="linear-gradient-8" x1="-23.306" y1="1" x2="-23.258" y2="1" xlink:href="#linear-gradient"/>
    <clipPath id="clip-path-9">
      <path id="Tracé_11" data-name="Tracé 11" d="M240,51.676a8.5,8.5,0,1,0,8.5-8.5,8.5,8.5,0,0,0-8.5,8.5" transform="translate(-240.002 -43.176)" fill="none"/>
    </clipPath>
    <linearGradient id="linear-gradient-9" x1="-14.118" y1="17.06" x2="-14.059" y2="17.06" xlink:href="#linear-gradient"/>
    <clipPath id="clip-path-10">
      <path id="Tracé_12" data-name="Tracé 12" d="M280.892,46.466a15.5,15.5,0,1,0-15.5-15.5,15.5,15.5,0,0,0,15.5,15.5" transform="translate(-265.392 -15.466)" fill="none"/>
    </clipPath>
    <linearGradient id="linear-gradient-10" x1="-8.561" y1="10.249" x2="-8.529" y2="10.249" xlink:href="#linear-gradient"/>
    <clipPath id="clip-path-11">
      <path id="Tracé_13" data-name="Tracé 13" d="M506.418,275.332a13,13,0,1,0,13,13,13,13,0,0,0-13-13" transform="translate(-493.418 -275.332)" fill="none"/>
    </clipPath>
    <linearGradient id="linear-gradient-11" x1="-18.978" y1="2.226" x2="-18.939" y2="2.226" xlink:href="#linear-gradient"/>
    <clipPath id="clip-path-12">
      <path id="Tracé_14" data-name="Tracé 14" d="M492.3,267.217a7,7,0,1,0-7,7,7,7,0,0,0,7-7" transform="translate(-478.304 -260.217)" fill="none"/>
    </clipPath>
    <linearGradient id="linear-gradient-12" x1="-34.165" y1="5.213" x2="-34.093" y2="5.213" xlink:href="#linear-gradient"/>
    <clipPath id="clip-path-13">
      <path id="Tracé_16" data-name="Tracé 16" d="M133.689,312.478v6.068a9.848,9.848,0,0,0,9.847,9.848H460.845a9.848,9.848,0,0,0,9.847-9.848v-6.068Z" transform="translate(-133.689 -312.478)" fill="none"/>
    </clipPath>
    <linearGradient id="linear-gradient-13" x1="-0.397" y1="1.302" x2="-0.394" y2="1.302" gradientUnits="objectBoundingBox">
      <stop offset="0" stop-color="#fff"/>
      <stop offset="1" stop-color="#abdefb"/>
    </linearGradient>
    <clipPath id="clip-path-14">
      <rect id="Rectangle" width="600" height="330" fill="none"/>
    </clipPath>
    <clipPath id="clip-path-15">
      <rect id="Rectangle-2" data-name="Rectangle" width="121.138" height="42.953" fill="none"/>
    </clipPath>
    <clipPath id="clip-path-16">
      <path id="Tracé_17" data-name="Tracé 17" d="M512.469,187.949H399.61a4.134,4.134,0,0,0-4.14,4.129v34.694a4.135,4.135,0,0,0,4.14,4.13H512.469a4.135,4.135,0,0,0,4.139-4.13V192.078a4.134,4.134,0,0,0-4.139-4.129" transform="translate(-395.47 -187.949)" fill="none"/>
    </clipPath>
    <linearGradient id="linear-gradient-14" x1="-3.241" y1="3.349" x2="-3.233" y2="3.349" gradientUnits="objectBoundingBox">
      <stop offset="0" stop-color="#9ae5fc"/>
      <stop offset="1" stop-color="#00c3f8"/>
    </linearGradient>
    <clipPath id="clip-path-17">
      <path id="Tracé_18" data-name="Tracé 18" d="M260.474,105.047v82.645c0,46.563,55.2,74.228,87.5,87.512,32.3-13.284,87.5-40.949,87.5-87.512V105.047l-87.5-39.6Z" transform="translate(-260.474 -65.444)" fill="none"/>
    </clipPath>
    <linearGradient id="linear-gradient-15" x1="-0.779" y1="1.099" x2="-0.775" y2="1.099" xlink:href="#linear-gradient-13"/>
    <clipPath id="clip-path-18">
      <path id="Tracé_19" data-name="Tracé 19" d="M269.527,110.885v76.807c0,29.523,26.389,55.655,78.446,77.7,52.057-22.048,78.447-48.18,78.447-77.7V110.885L347.973,75.379Z" transform="translate(-269.527 -75.379)" fill="none"/>
    </clipPath>
    <linearGradient id="linear-gradient-16" x1="-1.718" y1="1.357" x2="-1.712" y2="1.357" gradientUnits="objectBoundingBox">
      <stop offset="0" stop-color="#0088e8"/>
      <stop offset="1" stop-color="#6fcafa"/>
    </linearGradient>
    <clipPath id="clip-path-20">
      <rect id="Rectangle-4" data-name="Rectangle" width="128.084" height="118.486" fill="none"/>
    </clipPath>
    <clipPath id="clip-path-21">
      <path id="Rectangle-5" data-name="Rectangle" d="M4.168,0H117.851a4.17,4.17,0,0,1,4.17,4.17V39.2a4.169,4.169,0,0,1-4.169,4.169H4.168A4.168,4.168,0,0,1,0,39.2V4.168A4.168,4.168,0,0,1,4.168,0Z" fill="none"/>
    </clipPath>
    <linearGradient id="linear-gradient-17" x1="-3.196" y1="3.457" x2="-3.187" y2="3.457" xlink:href="#linear-gradient-13"/>
    <clipPath id="clip-path-23">
      <path id="Tracé_29" data-name="Tracé 29" d="M110.007,245.38A44.954,44.954,0,1,1,146.7,264.286a44.965,44.965,0,0,1-36.691-18.906m3.132-73.2a57.935,57.935,0,1,0,33.417-10.657,57.947,57.947,0,0,0-33.417,10.657" transform="translate(-88.774 -161.526)" fill="none"/>
    </clipPath>
    <clipPath id="clip-path-24">
      <rect id="Rectangle-7" data-name="Rectangle" width="89.798" height="89.798" fill="none"/>
    </clipPath>
    <clipPath id="clip-path-26">
      <path id="Tracé_23" data-name="Tracé 23" d="M134.73,204.958a14.314,14.314,0,0,0,0,28.628h84.033V204.958Z" transform="translate(-120.416 -204.958)" fill="none"/>
    </clipPath>
    <linearGradient id="linear-gradient-18" x1="-1.224" y1="4.479" x2="-1.214" y2="4.479" xlink:href="#linear-gradient-16"/>
  </defs>
  <g id="Groupe">
    <g id="Groupe-2" data-name="Groupe">
      <g id="Groupe-3" data-name="Groupe" clip-path="url(#clip-path)">
        <rect id="Rectangle-9" data-name="Rectangle" width="600" height="294.804" transform="translate(0 0)" fill="url(#linear-gradient)"/>
      </g>
      <g id="Groupe-4" data-name="Groupe" transform="translate(38.989 95.146)" clip-path="url(#clip-path-2)">
        <rect id="Rectangle-10" data-name="Rectangle" width="21.124" height="21.123" transform="translate(0 0)" fill="url(#linear-gradient-2)"/>
      </g>
      <g id="Groupe-5" data-name="Groupe" transform="translate(32.489 65.17)" clip-path="url(#clip-path-3)">
        <rect id="Rectangle-11" data-name="Rectangle" width="13" height="13" transform="translate(0 0)" fill="url(#linear-gradient-3)"/>
      </g>
      <g id="Groupe-6" data-name="Groupe" transform="translate(67.095 81.272)" clip-path="url(#clip-path-4)">
        <rect id="Rectangle-12" data-name="Rectangle" width="9" height="9" transform="translate(0 0)" fill="url(#linear-gradient-4)"/>
      </g>
      <g id="Groupe-7" data-name="Groupe" transform="translate(233.825 16.223)" clip-path="url(#clip-path-5)">
        <rect id="Rectangle-13" data-name="Rectangle" width="9" height="9" transform="translate(0 0)" fill="url(#linear-gradient-5)"/>
      </g>
      <g id="Groupe-8" data-name="Groupe" transform="translate(300.662 22.685)" clip-path="url(#clip-path-6)">
        <rect id="Rectangle-14" data-name="Rectangle" width="13" height="13" transform="translate(0 0)" fill="url(#linear-gradient-6)"/>
      </g>
      <g id="Groupe-9" data-name="Groupe" transform="translate(543.923 273.459)" clip-path="url(#clip-path-7)">
        <rect id="Rectangle-15" data-name="Rectangle" width="13" height="13" transform="translate(0 0)" fill="url(#linear-gradient-7)"/>
      </g>
      <g id="Groupe-10" data-name="Groupe" transform="translate(485.038 309)" clip-path="url(#clip-path-8)">
        <rect id="Rectangle-16" data-name="Rectangle" width="21" height="21" transform="translate(0)" fill="url(#linear-gradient-8)"/>
      </g>
      <g id="Groupe-11" data-name="Groupe" transform="translate(238.212 43.176)" clip-path="url(#clip-path-9)">
        <rect id="Rectangle-17" data-name="Rectangle" width="17" height="17" transform="translate(0 0)" fill="url(#linear-gradient-9)"/>
      </g>
      <g id="Groupe-12" data-name="Groupe" transform="translate(263.365 15.466)" clip-path="url(#clip-path-10)">
        <rect id="Rectangle-18" data-name="Rectangle" width="31" height="31" transform="translate(0 0)" fill="url(#linear-gradient-10)"/>
      </g>
      <g id="Groupe-13" data-name="Groupe" transform="translate(489.038 272.136)" clip-path="url(#clip-path-11)">
        <rect id="Rectangle-19" data-name="Rectangle" width="26" height="26" fill="url(#linear-gradient-11)"/>
      </g>
      <g id="Groupe-14" data-name="Groupe" transform="translate(474.756 257.612)" clip-path="url(#clip-path-12)">
        <rect id="Rectangle-20" data-name="Rectangle" width="14" height="14" fill="url(#linear-gradient-12)"/>
      </g>
    </g>
    <path id="Tracé_15" data-name="Tracé 15" d="M455.768,312.478H144.232V138.406A12.053,12.053,0,0,1,156.2,126.27H443.8a12.053,12.053,0,0,1,11.967,12.136Z" transform="translate(0 -3.196)" fill="#1a2e35"/>
    <rect id="Rectangle-21" data-name="Rectangle" width="295.227" height="161.302" transform="translate(152.386 133.14)" fill="#ffae00"/>
    <rect id="Rectangle-22" data-name="Rectangle" width="295.227" height="20.603" transform="translate(152.386 134.943)" fill="#ff8600"/>
  </g>
  <g id="Groupe-15" data-name="Groupe" transform="translate(131.499 309.282)" clip-path="url(#clip-path-13)">
    <rect id="Rectangle-23" data-name="Rectangle" width="337.003" height="15.916" transform="translate(0 0)" fill="url(#linear-gradient-13)"/>
  </g>
  <g id="Groupe-16" data-name="Groupe" clip-path="url(#clip-path-14)">
    <rect id="Rectangle-24" data-name="Rectangle" width="334.562" height="5.517" transform="translate(132.719 309.482)" fill="#d8f4fd"/>
    <g id="Groupe-17" data-name="Groupe" transform="translate(392.604 186.146)" opacity="0.58" style="mix-blend-mode: multiply;isolation: isolate">
      <g id="Groupe-18" data-name="Groupe">
        <g id="Groupe-19" data-name="Groupe" clip-path="url(#clip-path-15)">
          <g id="Groupe-20" data-name="Groupe" transform="translate(0 0)">
            <g id="Groupe-21" data-name="Groupe" clip-path="url(#clip-path-16)">
              <rect id="Rectangle-25" data-name="Rectangle" width="121.138" height="42.953" transform="translate(0 0)" fill="url(#linear-gradient-14)"/>
            </g>
          </g>
        </g>
      </g>
    </g>
  </g>
  <g id="Groupe-22" data-name="Groupe" transform="translate(257.817 63.75)" clip-path="url(#clip-path-17)">
    <rect id="Rectangle-26" data-name="Rectangle" width="272.065" height="272.065" transform="translate(-104.88 104.88) rotate(-45)" fill="url(#linear-gradient-15)"/>
  </g>
  <g id="Groupe-23" data-name="Groupe" transform="translate(266.889 73.696)" clip-path="url(#clip-path-18)">
    <rect id="Rectangle-27" data-name="Rectangle" width="156.893" height="190.016" transform="translate(0 0)" fill="url(#linear-gradient-16)"/>
  </g>
  <g id="Groupe-24" data-name="Groupe" clip-path="url(#clip-path-14)">
    <path id="Tracé_20" data-name="Tracé 20" d="M347.111,206.373,311.644,170.99l9.828-9.8,25.639,25.577,48.4-48.288,9.828,9.805Z" transform="translate(-2.258 -1.328)" fill="#ddf1fd"/>
    <g id="Groupe-25" data-name="Groupe" transform="translate(258.587 64.816)" opacity="0.21" style="mix-blend-mode: overlay;isolation: isolate">
      <g id="Groupe-26" data-name="Groupe">
        <g id="Groupe-27" data-name="Groupe" clip-path="url(#clip-path-20)">
          <path id="Tracé_21" data-name="Tracé 21" d="M260.475,104.667V180.76a102.793,102.793,0,0,0,128.084-96.7L347.34,65.444Z" transform="translate(-260.475 -65.444)" fill="#ddf1fd"/>
        </g>
      </g>
    </g>
  </g>
  <g id="Groupe-28" data-name="Groupe" transform="translate(386.396 181.239)" clip-path="url(#clip-path-21)">
    <rect id="Rectangle-28" data-name="Rectangle" width="122.021" height="43.369" fill="url(#linear-gradient-17)"/>
  </g>
  <g id="Groupe-29" data-name="Groupe" clip-path="url(#clip-path-14)">
    <path id="Rectangle-29" data-name="Rectangle" d="M0,0,2.009,0l.007,5.423-2.009,0Z" transform="translate(238.318 220.419) rotate(-45)" fill="#fff"/>
    <path id="Tracé_24" data-name="Tracé 24" d="M231.478,212.536a6.9,6.9,0,1,0,9.776,0,6.885,6.885,0,0,0-9.776,0m8.316,8.3a4.843,4.843,0,1,1,0-6.841,4.857,4.857,0,0,1,0,6.841" transform="translate(-1.663 -2.019)" fill="#fff"/>
  </g>
  <g id="Groupe-30" data-name="Groupe" transform="translate(88.92 164.15)" clip-path="url(#clip-path-23)">
    <rect id="Rectangle-30" data-name="Rectangle" width="180.233" height="180.233" transform="translate(-69.582 61.768) rotate(-45)" fill="#101041"/>
  </g>
  <g id="Groupe-31" data-name="Groupe" transform="translate(30.241 176.991)">
    <path id="Tracé_25" data-name="Tracé 25" d="M144.693,215.547a5.2,5.2,0,0,0-10.385,0H132.55v8.689h13.9v-8.689Zm-4.593,6.082h-1.2v-3.475h1.2Zm-4.633-6.082a4.044,4.044,0,0,1,8.068,0Z" transform="translate(-30.241 -180.187)" fill="#fff"/>
    <g id="Groupe-32" data-name="Groupe" transform="translate(71.312)" clip-path="url(#clip-path-24)">
      <path id="Tracé_26" data-name="Tracé 26" d="M183.265,193.4a44.914,44.914,0,1,0-10.637,62.622A44.966,44.966,0,0,0,183.265,193.4" transform="translate(-101.737 -174.489)" fill="#fff"/>
    </g>
    <rect id="Rectangle-31" data-name="Rectangle" width="8.218" height="13.489" transform="translate(48.94 78.797) rotate(-35.358)" fill="#101041"/>
    <rect id="Rectangle-32" data-name="Rectangle" width="24.655" height="7.472" transform="matrix(0.816, -0.579, 0.579, 0.816, 54.032, 78.872)" fill="#101041"/>
    <path id="Tracé_28" data-name="Tracé 28" d="M31.486,301.1h0a6.744,6.744,0,0,1,1.6-9.4l47.8-33.918,7.807,11L40.889,302.7a6.744,6.744,0,0,1-9.4-1.6" transform="translate(-30.241 -180.187)" fill="#ffae00"/>
  </g>
  <g id="Groupe-33" data-name="Groupe" clip-path="url(#clip-path-14)">
    <rect id="Rectangle-33" data-name="Rectangle" width="60.326" height="2.443" transform="translate(396.323 195.187)" fill="#fff"/>
    <rect id="Rectangle-34" data-name="Rectangle" width="102.711" height="2.443" transform="translate(396.324 201.903)" fill="#fff"/>
    <rect id="Rectangle-35" data-name="Rectangle" width="102.711" height="2.443" transform="translate(396.324 208.619)" fill="#fff"/>
    <path id="Tracé_22" data-name="Tracé 22" d="M237.319,200.01H134.584a19.077,19.077,0,1,0,0,38.154H237.319a19.077,19.077,0,1,0,0-38.154m14.21,19.077a14.21,14.21,0,1,1-14.21-14.177A14.193,14.193,0,0,1,251.53,219.087Z" transform="translate(-0.837 -1.918)" fill="#ddf1fd"/>
  </g>
  <g id="Groupe-34" data-name="Groupe" transform="translate(119.374 202.807)" clip-path="url(#clip-path-26)">
    <rect id="Rectangle-36" data-name="Rectangle" width="98.347" height="28.628" transform="translate(0 0)" fill="url(#linear-gradient-18)"/>
  </g>
  <text id="https" transform="translate(149.925 222.107)" fill="#fff" font-size="13.902" font-family="Montserrat-SemiBold, Montserrat" font-weight="600"><tspan x="0" y="0" letter-spacing="0.099em">h</tspan><tspan y="0" letter-spacing="0.087em">t</tspan><tspan y="0" letter-spacing="0.099em">t</tspan><tspan y="0">p</tspan></text>
  <g id="Groupe-35" data-name="Groupe" transform="translate(145.534 21.347)">
    <path id="Tracé_30" data-name="Tracé 30" d="M234.7,73.066a36.2,36.2,0,1,1-36.2-36.2,36.2,36.2,0,0,1,36.2,36.2" transform="translate(-146.782 -21.347)" fill="#49ad25"/>
    <path id="Tracé_31" data-name="Tracé 31" d="M164.051,110.515a2.992,2.992,0,0,1-2.122-.879,51.719,51.719,0,0,1,73.142-73.142,3,3,0,1,1-4.242,4.244,45.719,45.719,0,1,0-64.656,64.656,3,3,0,0,1-2.122,5.121" transform="translate(-146.782 -21.347)" fill="#fff"/>
    <path id="Tracé_32" data-name="Tracé 32" d="M181.721,66.7V77.41a16.779,16.779,0,0,0,33.557,0V66.7ZM200.113,78.9v6h-3.227v-6a3.871,3.871,0,1,1,3.227,0" transform="translate(-146.782 -21.347)" fill="#fff"/>
    <path id="Tracé_33" data-name="Tracé 33" d="M187.852,66.7v-.882a10.647,10.647,0,0,1,21.295,0V66.7h3.227v-.882a13.874,13.874,0,0,0-27.749,0V66.7Z" transform="translate(-146.782 -21.347)" fill="#fff"/>
  </g>
</svg>
