<svg xmlns="http://www.w3.org/2000/svg" xmlns:xlink="http://www.w3.org/1999/xlink" width="785" height="646" viewBox="0 0 785 646">
  <defs>
    <filter id="Ellipse_51" x="470.97" y="259" width="103" height="103" filterUnits="userSpaceOnUse">
      <feOffset dy="3" input="SourceAlpha"/>
      <feGaussianBlur stdDeviation="3" result="blur"/>
      <feFlood flood-opacity="0.161"/>
      <feComposite operator="in" in2="blur"/>
      <feComposite in="SourceGraphic"/>
    </filter>
  </defs>
  <g id="illustration_iot_camera" data-name="illustration iot camera" transform="translate(-14566.101 -3519.986)">
    <g id="camera" transform="translate(14566.101 3732.067)">
      <g id="Rectangle" transform="translate(106.522 102.122) rotate(-45)" fill="#fff" stroke="#101041" stroke-width="1">
        <rect width="13.103" height="44.222" stroke="none"/>
        <rect x="0.5" y="0.5" width="12.103" height="43.222" fill="none"/>
      </g>
      <g id="Ellipse_55" data-name="Ellipse 55" transform="translate(89.099 71.148)" fill="#fff" stroke="#101041" stroke-width="1">
        <circle cx="16.11" cy="16.11" r="16.11" stroke="none"/>
        <circle cx="16.11" cy="16.11" r="15.61" fill="none"/>
      </g>
      <g id="Tracé_1344" data-name="Tracé 1344" transform="translate(137.641 114.003)" fill="#fff">
        <path d="M 14.7974271774292 33.96463012695312 C 12.98464679718018 33.96463012695312 9.382177352905273 31.40397834777832 6.23155689239502 27.87598991394043 C 2.642637014389038 23.85717964172363 0.4999970197677612 19.67013931274414 0.4999970197677612 16.67564964294434 C 0.4999970197677612 15.13774871826172 1.065417051315308 13.21858882904053 2.135147094726562 11.12564945220947 C 3.113266944885254 9.211929321289062 4.486536979675293 7.188879013061523 6.10651683807373 5.275208950042725 C 9.267976760864258 1.540589094161987 12.76925659179688 -1.067710876464844 14.62098693847656 -1.067710876464844 C 15.02431678771973 -1.067710876464844 15.30562686920166 -0.9445409178733826 15.50625705718994 -0.6800808906555176 C 15.74967670440674 -0.3592309057712555 15.87833690643311 0.1887890994548798 15.87833690643311 0.9047191143035889 L 15.87833690643311 32.44659042358398 C 15.87833690643311 33.00077056884766 15.77161693572998 33.42192840576172 15.56970691680908 33.6645393371582 C 15.40165710449219 33.86647033691406 15.14904689788818 33.96463012695312 14.7974271774292 33.96463012695312 Z" stroke="none"/>
        <path d="M 14.62098693847656 -0.5677108764648438 C 13.17332649230957 -0.5677108764648438 9.914896965026855 1.550258636474609 6.488137245178223 5.598268508911133 C 4.892577171325684 7.483098983764648 3.541287422180176 9.473119735717773 2.580356597900391 11.35319900512695 C 1.546477317810059 13.37601852416992 0.9999971389770508 15.21648979187012 0.9999971389770508 16.6756477355957 C 0.9999971389770508 18.14690017700195 1.559057235717773 19.97176933288574 2.616726875305176 21.95298957824707 C 3.59318733215332 23.78207778930664 4.972137451171875 25.71505928039551 6.604496955871582 27.54293823242188 C 10.03934669494629 31.38921928405762 13.38930702209473 33.46463012695312 14.7974271774292 33.46463012695312 C 15.0855770111084 33.46463012695312 15.1580867767334 33.37749862670898 15.18538665771484 33.34469985961914 C 15.2433967590332 33.27499008178711 15.37833690643311 33.04792785644531 15.37833690643311 32.44659042358398 L 15.37833690643311 0.9047183990478516 C 15.37833690643311 0.09888839721679688 15.20891666412354 -0.2447509765625 15.10791683197021 -0.3778724670410156 C 15.05758666992188 -0.4442214965820312 14.96389675140381 -0.5677108764648438 14.62098693847656 -0.5677108764648438 M 14.62098693847656 -1.567714691162109 C 15.70081424713135 -1.567714691162109 16.37833786010742 -0.8306999206542969 16.37833786010742 0.9047183990478516 C 16.37833786010742 9.435508728027344 16.37833786010742 25.10550880432129 16.37833786010742 32.44659042358398 C 16.37833786010742 39.78767013549805 -3.814697265625e-06 25.38569831848145 -3.814697265625e-06 16.6756477355957 C -3.814697265625e-06 9.737493515014648 10.39271450042725 -1.567714691162109 14.62098693847656 -1.567714691162109 Z" stroke="none" fill="#101041"/>
      </g>
      <g id="Tracé_1353" data-name="Tracé 1353" transform="translate(11.473 68.631) rotate(-34)" fill="#fff">
        <path d="M 113.8810043334961 68.3125 L 113.8754348754883 68.3125 L 9.046911239624023 68.24571990966797 C 4.354941844940186 68.24273681640625 0.5353266000747681 64.42519378662109 0.5323419570922852 59.73579788208008 L 0.5000035166740417 8.997811317443848 C 0.4985573291778564 6.727565288543701 1.381511211395264 4.593472957611084 2.986218929290771 2.98864221572876 C 4.590911388397217 1.383811473846436 6.725542068481445 0.4999960958957672 8.99691104888916 0.4999960958957672 L 9.002449989318848 0.4999960958957672 L 113.8309707641602 0.5667960643768311 C 118.5229415893555 0.569780707359314 122.3425598144531 4.387319087982178 122.3455429077148 9.076719284057617 L 122.3778839111328 59.81470489501953 C 122.3793258666992 62.0849494934082 121.4963912963867 64.21903991699219 119.8916931152344 65.82387542724609 C 118.2870025634766 67.42868804931641 116.1523742675781 68.3125 113.8810043334961 68.3125 Z" stroke="none"/>
        <path d="M 8.996940612792969 0.9999923706054688 C 6.859138488769531 0.9999923706054688 4.850059509277344 1.831794738769531 3.339790344238281 3.342170715332031 C 1.82958984375 4.852474212646484 0.998626708984375 6.860908508300781 0.9999923706054688 8.997489929199219 L 1.032341003417969 59.7354736328125 C 1.03515625 64.14952087402344 4.630607604980469 67.74290466308594 9.047225952148438 67.7457275390625 L 113.880973815918 67.81250762939453 C 116.0187759399414 67.81250762939453 118.0278625488281 66.98070526123047 119.5381088256836 65.47034454345703 C 121.0482940673828 63.96002578735352 121.8792419433594 61.95159149169922 121.8778762817383 59.81500625610352 L 121.8455276489258 9.077041625976562 C 121.8427276611328 4.662994384765625 118.2472763061523 1.069610595703125 113.8306579589844 1.066787719726562 L 8.996940612792969 0.9999923706054688 M 8.996940612792969 -7.62939453125e-06 C 8.999069213867188 -7.62939453125e-06 9.000648498535156 -7.62939453125e-06 9.002777099609375 -7.62939453125e-06 L 113.8312911987305 0.0667877197265625 C 118.8065567016602 0.06995391845703125 122.8423767089844 4.103691101074219 122.8455276489258 9.076408386230469 L 122.8778762817383 59.81437301635742 C 122.8810424804688 64.78709411621094 118.849723815918 68.815673828125 113.8751068115234 68.81250762939453 L 9.046592712402344 68.7457275390625 C 4.071327209472656 68.74256134033203 0.0355072021484375 64.70880889892578 0.03234100341796875 59.73610687255859 L -7.62939453125e-06 8.998123168945312 C -0.003173828125 4.027549743652344 4.024612426757812 -7.62939453125e-06 8.996940612792969 -7.62939453125e-06 Z" stroke="none" fill="#101041"/>
      </g>
      <g id="Rectangle-2" data-name="Rectangle" transform="translate(0 96.085) rotate(-34)" fill="#fff" stroke="#101041" stroke-width="1">
        <path d="M3,0H26.205a0,0,0,0,1,0,0V37.67a0,0,0,0,1,0,0H3a3,3,0,0,1-3-3V3A3,3,0,0,1,3,0Z" stroke="none"/>
        <path d="M3,.5H25.205a.5.5,0,0,1,.5.5V36.67a.5.5,0,0,1-.5.5H3a2.5,2.5,0,0,1-2.5-2.5V3A2.5,2.5,0,0,1,3,.5Z" fill="none"/>
      </g>
      <g id="Rectangle-3" data-name="Rectangle" transform="translate(147.112 84.972)" fill="#fff" stroke="#101041" stroke-width="1">
        <rect width="12.888" height="97.946" stroke="none"/>
        <rect x="0.5" y="0.5" width="11.888" height="96.946" fill="none"/>
      </g>
    </g>
    <text id="IP_caméra" data-name="IP caméra" transform="translate(14589.101 3940.985)" fill="#101041" font-size="25" font-family="Avenir-Roman, Avenir"><tspan x="0" y="0">IP caméra</tspan></text>
    <text id="Public_Internet" data-name="Public Internet" transform="translate(14834.101 4156.985)" fill="#101041" font-size="25" font-family="Avenir-Roman, Avenir"><tspan x="0" y="0">Public Internet</tspan></text>
    <text id="Ordinateur" transform="translate(15215.101 3942.986)" fill="#101041" font-size="25" font-family="Avenir-Roman, Avenir"><tspan x="0" y="0">Ordinateur</tspan></text>
    <line id="Ligne" x2="80" transform="translate(14741.07 3822.986)" fill="none" stroke="#3f8fb9" stroke-width="2"/>
    <line id="Ligne-2" data-name="Ligne" x2="210" transform="translate(14982.07 3826.986)" fill="none" stroke="#3f8fb9" stroke-width="2"/>
    <g id="public_..." data-name="public ..." transform="translate(14835.263 3742.161)">
      <g id="Ellipse_56" data-name="Ellipse 56" transform="translate(-0.162 -0.176)" fill="#fff" stroke="#101041" stroke-width="1">
        <circle cx="80" cy="80" r="80" stroke="none"/>
        <circle cx="80" cy="80" r="79.5" fill="none"/>
      </g>
      <text id="Public_APN_Private_APN_or_ISP" data-name="Public APN/
Private APN 
or ISP" transform="translate(79.838 66.824)" fill="#101041" font-size="15" font-family="Avenir-Roman, Avenir"><tspan x="-40" y="0">Public APN/</tspan><tspan x="-42" y="18">Private APN </tspan><tspan x="-19" y="36">or ISP</tspan></text>
    </g>
    <line id="Ligne-3" data-name="Ligne" y2="50" transform="translate(14916.57 3671.986)" fill="none" stroke="#3f8fb9" stroke-width="2"/>
    <line id="Ligne-4" data-name="Ligne" y2="50" transform="translate(14916.57 3921.986)" fill="none" stroke="#3f8fb9" stroke-width="2"/>
    <path id="Icon_awesome-cloud" data-name="Icon awesome-cloud" d="M126,45.688a20.672,20.672,0,0,0,1.5-7.723c0-11.83-10.078-21.429-22.5-21.429a23.185,23.185,0,0,0-12.492,3.616A37.836,37.836,0,0,0,60,2.25c-20.719,0-37.5,15.982-37.5,35.714,0,.6.023,1.205.047,1.808C9.422,44.17,0,56.089,0,70.107,0,87.853,15.117,102.25,33.75,102.25H120c16.57,0,30-12.79,30-28.571C150,59.862,139.688,48.321,126,45.688Z" transform="translate(14840.101 3517.736)" fill="#3f8fb9"/>
    <text id="Cloud_manager_service" data-name="Cloud manager service" transform="translate(14915.101 3651.986)" fill="#101041" font-size="20" font-family="Avenir-Roman, Avenir"><tspan x="-103" y="0">Cloud manager service</tspan></text>
    <g id="cybersécurisé" transform="translate(15046.07 3784.986)">
      <g transform="matrix(1, 0, 0, 1, -479.97, -265)" filter="url(#Ellipse_51)">
        <circle id="Ellipse_51-2" data-name="Ellipse 51" cx="42.5" cy="42.5" r="42.5" transform="translate(479.97 265)" fill="#fff"/>
      </g>
      <g id="Groupe" transform="translate(25.079 21.655)">
        <path id="Tracé_1256" data-name="Tracé 1256" d="M24.764,54.225l5.271,2.282,3.756-1.645A21.371,21.371,0,0,0,46.612,35.294l-.193-16.817-16.531-4.3L13.073,18.67l.193,18.088a19.043,19.043,0,0,0,11.5,17.468" transform="translate(-12.28 -13.316)" fill="#9fbecf"/>
        <path id="Tracé_1257" data-name="Tracé 1257" d="M62.384,89.02l4.54,2.015,3.235-1.453A18.9,18.9,0,0,0,81.2,72.3l-.166-14.854-14.227-3.64L52.316,57.615l.166,15.976a16.837,16.837,0,0,0,9.9,15.429" transform="translate(-49.142 -50.542)" fill="#0998ea"/>
        <path id="Tracé_1258" data-name="Tracé 1258" d="M66.808,53.806l.208.053V90.994l-.092.041-4.54-2.015a16.837,16.837,0,0,1-9.9-15.429l-.166-15.976Z" transform="translate(-49.142 -50.542)" fill="#38b5fd"/>
        <path id="Tracé_1259" data-name="Tracé 1259" d="M17.73,44.183a.134.134,0,0,1-.053-.011L12.209,41.8A19.881,19.881,0,0,1,.2,23.56L0,4.8a.134.134,0,0,1,.1-.131L17.543,0a.134.134,0,0,1,.068,0l17.15,4.462a.134.134,0,0,1,.1.128l.2,17.446a22.31,22.31,0,0,1-13.38,20.424l-3.9,1.706a.134.134,0,0,1-.054.011M.268,4.9l.2,18.661a19.614,19.614,0,0,0,11.848,18L17.73,43.9l3.843-1.683a22.042,22.042,0,0,0,13.22-20.177L34.595,4.7,17.578.272Z" transform="translate(0 0)" fill="#0998ea"/>
        <path id="Tracé_1260" data-name="Tracé 1260" d="M169.175,281.035v5.978a7.669,7.669,0,0,0,15.338,0v-5.978Zm5.911,4.743a1.758,1.758,0,1,1,2.37,1.646v3.235h-1.224v-3.235a1.757,1.757,0,0,1-1.146-1.646" transform="translate(-158.912 -263.986)" fill="#fff"/>
        <path id="Tracé_1262" data-name="Tracé 1262" d="M194.679,146.944a.134.134,0,0,1-.134-.134,6.69,6.69,0,0,0-13.38,0,.134.134,0,1,1-.268,0,6.958,6.958,0,0,1,13.915,0,.134.134,0,0,1-.134.134" transform="translate(-169.923 -131.369)" fill="#f6f8f9"/>
      </g>
    </g>
    <g id="ordinateur-2" data-name="ordinateur" transform="translate(15201.101 3752.986)">
      <g id="Rectangle-4" data-name="Rectangle" transform="translate(57.923 124.225)" fill="#fff" stroke="#707070" stroke-width="1">
        <rect width="36.085" height="21.909" stroke="none"/>
        <rect x="0.5" y="0.5" width="35.085" height="20.909" fill="none"/>
      </g>
      <g id="Rectangle-5" data-name="Rectangle" transform="translate(42.58 143.556)" fill="#fff" stroke="#707070" stroke-width="1">
        <rect width="65.727" height="6.444" stroke="none"/>
        <rect x="0.5" y="0.5" width="64.727" height="5.444" fill="none"/>
      </g>
      <g id="Rectangle-6" data-name="Rectangle" fill="#fff" stroke="#707070" stroke-width="1">
        <rect width="150" height="126.802" rx="6" stroke="none"/>
        <rect x="0.5" y="0.5" width="149" height="125.802" rx="5.5" fill="none"/>
      </g>
      <g id="Rectangle-7" data-name="Rectangle" transform="translate(12.888 10.31)" fill="#fff" stroke="#101041" stroke-width="1">
        <rect width="124.225" height="97.946" stroke="none"/>
        <rect x="0.5" y="0.5" width="123.225" height="96.946" fill="none"/>
      </g>
      <g id="Ellipse_57" data-name="Ellipse 57" transform="translate(70.996 108.938)" fill="#fff" stroke="#707070" stroke-width="1">
        <circle cx="4.511" cy="4.511" r="4.511" stroke="none"/>
        <circle cx="4.511" cy="4.511" r="4.011" fill="none"/>
      </g>
    </g>
    <g id="globe2" transform="translate(14854.07 3991.985)">
      <path id="Tracé_1352" data-name="Tracé 1352" d="M7.955,58.594H27.41a104.684,104.684,0,0,1,3.413-23.5A71.281,71.281,0,0,1,18.6,29.882,54.406,54.406,0,0,0,7.955,58.594ZM23.826,23.819a65.1,65.1,0,0,0,9.361,3.83,69.1,69.1,0,0,1,3.757-8.42,52.343,52.343,0,0,1,4.663-7.288A54.764,54.764,0,0,0,23.837,23.826ZM62.5,0A62.5,62.5,0,1,0,125,62.5,62.5,62.5,0,0,0,62.5,0ZM58.594,8.413c-5.236,1.594-10.431,6.406-14.743,14.493a59.664,59.664,0,0,0-3.087,6.813,99.454,99.454,0,0,0,17.83,2.243Zm0,31.361a105.624,105.624,0,0,1-20.243-2.594,96.438,96.438,0,0,0-3.125,21.413H58.594Zm7.813,18.819V39.774a105.624,105.624,0,0,0,20.243-2.594,96.126,96.126,0,0,1,3.125,21.413Zm-7.812,7.813H35.233a95.735,95.735,0,0,0,3.118,21.413,106.221,106.221,0,0,1,20.243-2.587Zm7.813,18.819V66.406H89.767a96.43,96.43,0,0,1-3.118,21.413,106.218,106.218,0,0,0-20.243-2.587Zm-7.812,7.813a99.1,99.1,0,0,0-17.83,2.243,60.894,60.894,0,0,0,3.087,6.813c4.313,8.087,9.514,12.889,14.743,14.493V93.045ZM41.618,113.063a52.307,52.307,0,0,1-4.663-7.288,69.195,69.195,0,0,1-3.757-8.42,65.281,65.281,0,0,0-9.361,3.83,54.764,54.764,0,0,0,17.781,11.875ZM18.594,95.118a70.749,70.749,0,0,1,12.226-5.212,104.375,104.375,0,0,1-3.413-23.5H7.951A54.406,54.406,0,0,0,18.594,95.118Zm64.788,17.944a54.764,54.764,0,0,0,17.774-11.882,65.261,65.261,0,0,0-9.351-3.83,69.213,69.213,0,0,1-3.757,8.42,52.249,52.249,0,0,1-4.663,7.288Zm.858-17.781a98.674,98.674,0,0,0-17.833-2.236V116.59C71.642,115,76.837,110.184,81.149,102.1a59.66,59.66,0,0,0,3.087-6.813Zm9.938-5.375A70.75,70.75,0,0,1,106.4,95.118a54.406,54.406,0,0,0,10.642-28.712H97.59a104.336,104.336,0,0,1-3.413,23.5ZM97.59,58.594h19.455A54.4,54.4,0,0,0,106.4,29.882a70.748,70.748,0,0,1-12.226,5.212A104.654,104.654,0,0,1,97.59,58.594ZM91.809,27.656a69.172,69.172,0,0,0-3.767-8.431,52.28,52.28,0,0,0-4.663-7.288,54.819,54.819,0,0,1,17.774,11.882,65.376,65.376,0,0,1-9.351,3.83Zm-7.58,2.062A99.454,99.454,0,0,1,66.4,31.962V8.413c5.236,1.594,10.431,6.406,14.743,14.493A59.663,59.663,0,0,1,84.229,29.719Z" fill="none" stroke="#101041" stroke-width="1" fill-rule="evenodd"/>
    </g>
  </g>
</svg>
