<svg xmlns="http://www.w3.org/2000/svg" width="305" height="266" viewBox="0 0 305 266">
  <g id="illustration_contact" data-name="illustration contact" transform="translate(-12.044 0.001)">
    <path id="Tracé_591" data-name="Tracé 591" d="M316.889,169.768a91.875,91.875,0,0,0-.418-15.593c-2.742-24.3-15.155-47.21-33.426-63.377-6.517-5.767-13.934-10.934-18.177-18.547-7.143-12.821-6.6-27.556-15.469-40.215A75.02,75.02,0,0,0,213,4.4c-43.493-15.134-104.387,9.508-98.9,62.132.02.189.041.463.065.811a19.125,19.125,0,0,1-18.689,20.38c-40.129.957-74.672,32.026-82.063,71.383-4.752,25.31,3.029,53.052,21.467,70.957,13.764,13.366,32.229,20.708,50.7,25.754,37.041,10.116,76.022,12.236,114.215,8.368,35.752-3.621,73.463-13.942,96.584-41.564a90.914,90.914,0,0,0,20.513-52.856" transform="translate(0 0)" fill="#fff" opacity="0.498"/>
    <path id="Tracé_592" data-name="Tracé 592" d="M283.739,172.248a72.01,72.01,0,0,0-.326-12.214,79.074,79.074,0,0,0-26.153-49.644c-5.1-4.518-10.9-8.565-14.222-14.529-5.589-10.043-5.165-21.584-12.1-31.5a58.708,58.708,0,0,0-28.479-21.645c-34.03-11.855-81.673,7.447-77.384,48.669.016.147.033.362.051.635A14.973,14.973,0,0,1,110.5,107.984c-31.4.749-58.424,25.086-64.207,55.914-3.718,19.826,2.371,41.557,16.8,55.582,10.768,10.47,25.215,16.221,39.669,20.174,28.981,7.924,59.479,9.585,89.361,6.555,27.972-2.837,57.477-10.922,75.568-32.558a71.261,71.261,0,0,0,16.049-41.4" transform="translate(0 0)" fill="#f6f8f9" opacity="0.497"/>
    <path id="Tracé_596" data-name="Tracé 596" d="M183.6,78.6a52.33,52.33,0,1,1-52.33-52.33A52.33,52.33,0,0,1,183.6,78.6" transform="translate(-0.474)" fill="#62a6c9"/>
    <path id="Tracé_597" data-name="Tracé 597" d="M167.6,116.287a.5.5,0,0,1-.354-.854,51.83,51.83,0,1,0-73.3-73.3.5.5,0,1,1-.707-.707,52.83,52.83,0,1,1,74.713,74.713.5.5,0,0,1-.354.146" transform="translate(-0.532)" fill="#243762"/>
    <path id="Tracé_598" data-name="Tracé 598" d="M171.087,78.6A39.822,39.822,0,1,1,131.265,38.78,39.822,39.822,0,0,1,171.087,78.6" transform="translate(-0.498)" fill="#fff"/>
    <path id="Tracé_599" data-name="Tracé 599" d="M131.265,118.923a40.321,40.321,0,0,1,0-80.643.5.5,0,0,1,0,1,39.321,39.321,0,0,0,0,78.643.5.5,0,0,1,0,1" transform="translate(-0.423)" fill="#243762"/>
    <path id="Tracé_600" data-name="Tracé 600" d="M141.582,86.213H130.749a4.035,4.035,0,0,1-4.03-4.03V67.164a3.5,3.5,0,1,1,7,0V79.213h7.863a3.5,3.5,0,0,1,0,7" transform="translate(-0.56 -0.022)" fill="#243762"/>
    <path id="Tracé_608" data-name="Tracé 608" d="M234.979,249.049l-73.9-10.926a15.289,15.289,0,0,1-12.891-17.361l26.5-179.113A15.293,15.293,0,0,1,192.06,28.763l73.9,10.926A15.288,15.288,0,0,1,278.849,57.05l-26.5,179.113a15.292,15.292,0,0,1-17.367,12.887" transform="translate(-1.381 0)" fill="#243762"/>
    <rect id="Rectangle" width="171.048" height="92.747" transform="translate(154.289 214.613) rotate(-81.586)" fill="#f6f8f9"/>
    <rect id="Rectangle-2" data-name="Rectangle" width="12.835" height="92.746" transform="translate(177.414 58.172) rotate(-81.586)" fill="#62a6c9"/>
    <path id="Tracé_609" data-name="Tracé 609" d="M199.761,237.979a5.988,5.988,0,1,1,5.92-5.113,5.974,5.974,0,0,1-5.92,5.113M199.745,227a5,5,0,1,0,.742.055,5.168,5.168,0,0,0-.742-.055" transform="translate(-0.859 -0.086)" fill="#ecf1f7"/>
    <path id="Tracé_611" data-name="Tracé 611" d="M242.821,48.282a1.844,1.844,0,0,1-.286-.021L219.128,44.8a1.926,1.926,0,1,1,.563-3.81L243.1,44.452a1.925,1.925,0,0,1-.277,3.83m-23.412-6.313a.925.925,0,0,0-.135,1.841l23.407,3.462a.925.925,0,1,0,.271-1.831l-23.407-3.462a.9.9,0,0,0-.136-.01" transform="translate(-4.011)" fill="#ecf1f7"/>
    <path id="Tracé_614" data-name="Tracé 614" d="M257.741,107.7l-64-9.467a1.908,1.908,0,0,0-2.166,1.608l-2.456,16.6a1.908,1.908,0,0,0,1.608,2.166l54.719,8.094,5.637,7.775,1-6.793,2.642.391a1.908,1.908,0,0,0,2.166-1.608l2.456-16.6a1.908,1.908,0,0,0-1.608-2.166" transform="translate(-1.041 -0.037)" fill="#c5d9ff"/>
    <path id="Tracé_615" data-name="Tracé 615" d="M251.4,135.763l-6.233-8.6L190.651,119.1a2.411,2.411,0,0,1-2.029-2.734.5.5,0,0,1,.568-.421.5.5,0,0,1,.421.567,1.41,1.41,0,0,0,1.186,1.6l54.927,8.124,5.041,6.953.9-6.075,3.137.464a1.406,1.406,0,0,0,1.6-1.186l1.634-11.046a.5.5,0,0,1,.989.146l-1.633,11.046a2.407,2.407,0,0,1-2.734,2.029l-2.147-.317Z" transform="translate(-1.039 -0.04)" fill="#243762"/>
    <path id="Tracé_616" data-name="Tracé 616" d="M176.729,129.091l64,9.467a1.907,1.907,0,0,1,1.608,2.166l-2.456,16.6a1.908,1.908,0,0,1-2.166,1.608L183,150.842l-7.646,5.81,1-6.792-2.642-.391a1.908,1.908,0,0,1-1.608-2.166l2.456-16.6a1.908,1.908,0,0,1,2.166-1.608" transform="translate(-0.943 -0.047)" fill="#af9cda"/>
    <path id="Tracé_617" data-name="Tracé 617" d="M238,159.457a2.406,2.406,0,0,1-.358-.027l-34.157-5.052a.5.5,0,0,1,.146-.988l34.158,5.051a1.408,1.408,0,0,0,1.6-1.186l2.456-16.605a1.41,1.41,0,0,0-1.187-1.6.5.5,0,1,1,.147-.989,2.41,2.41,0,0,1,2.029,2.734l-2.456,16.6A2.41,2.41,0,0,1,238,159.457" transform="translate(-0.995 -0.048)" fill="#243762"/>
    <rect id="Rectangle-3" data-name="Rectangle" width="15.737" height="92.746" transform="translate(154.497 214.613) rotate(-81.586)" fill="#fff"/>
    <path id="Tracé_618" data-name="Tracé 618" d="M171.28,208.949a5.581,5.581,0,1,1-4.7-6.337,5.58,5.58,0,0,1,4.7,6.337" transform="translate(-0.701 -0.068)" fill="#fff" stroke="#3f8fb9" stroke-width="1"/>
    <path id="Tracé_619" data-name="Tracé 619" d="M238.946,224.073a4.893,4.893,0,0,1-.731-.055l-59.459-8.795a4.975,4.975,0,1,1,1.456-9.843l59.459,8.795a4.976,4.976,0,0,1-.725,9.9m-.585-1.043a3.976,3.976,0,0,0,3.774-6.3,3.945,3.945,0,0,0-2.61-1.562l-59.46-8.8a3.976,3.976,0,1,0-1.163,7.866Z" transform="translate(-0.953 -0.071)" fill="#3f8fb9" opacity="0.5"/>
    <path id="Tracé_620" data-name="Tracé 620" d="M186.172,54.618a2.011,2.011,0,0,1-.287-.021,1.957,1.957,0,0,1-.88-3.509,1.937,1.937,0,0,1,1.453-.365,1.958,1.958,0,0,1-.286,3.9m0-2.916a.958.958,0,0,0-.138,1.906.961.961,0,0,0,1.088-.808.958.958,0,0,0-.807-1.087.994.994,0,0,0-.143-.011" transform="translate(-0.793 -0.017)" fill="#fff"/>
    <path id="Tracé_621" data-name="Tracé 621" d="M191.588,55.419a2.035,2.035,0,0,1-.291-.021,1.957,1.957,0,1,1,.291.021m-.005-2.916a.958.958,0,0,0-.14,1.905.958.958,0,1,0,.281-1.9.965.965,0,0,0-.141-.01" transform="translate(-0.818 -0.017)" fill="#fff"/>
    <path id="Tracé_622" data-name="Tracé 622" d="M196.893,56.2a2.014,2.014,0,0,1-.288-.021,1.959,1.959,0,1,1,.288.021m0-2.917a.958.958,0,0,0-.138,1.906.958.958,0,1,0,.138-1.906" transform="translate(-0.842 -0.017)" fill="#fff"/>
    <path id="Tracé_623" data-name="Tracé 623" d="M279.1,73.637a.684.684,0,0,1-.081-.005l-92.4-13.668a.544.544,0,1,1,.159-1.076l92.4,13.667a.544.544,0,0,1-.079,1.083" transform="translate(-8.737 -0.617)" fill="#243762"/>
    <path id="Tracé_628" data-name="Tracé 628" d="M230.641,142.719a.471.471,0,0,1-.074-.006l-45.314-6.7a.5.5,0,0,1-.422-.567.493.493,0,0,1,.568-.421l45.315,6.7a.5.5,0,0,1-.073.994" transform="translate(-0.924 -0.045)" fill="#fff"/>
    <path id="Tracé_629" data-name="Tracé 629" d="M203.814,144.275a.471.471,0,0,1-.074-.006l-19.286-2.852a.5.5,0,1,1,.146-.989l19.287,2.853a.5.5,0,0,1-.073.994" transform="translate(-0.837 -0.046)" fill="#fff"/>
    <path id="Tracé_630" data-name="Tracé 630" d="M223.854,152.411a.509.509,0,0,1-.077-.006l-39.108-6.067a.5.5,0,1,1,.153-.988l39.108,6.067a.5.5,0,0,1-.076.994" transform="translate(-0.9 -0.048)" fill="#fff"/>
    <path id="Tracé_632" data-name="Tracé 632" d="M184.948,66.671l64,9.467a1.907,1.907,0,0,1,1.608,2.166l-2.456,16.6a1.908,1.908,0,0,1-2.166,1.608l-54.719-8.094-7.646,5.81,1-6.792-2.641-.391a1.908,1.908,0,0,1-1.608-2.166l2.456-16.6a1.908,1.908,0,0,1,2.166-1.608" transform="translate(-0.99 -0.024)" fill="#444467"/>
    <path id="Tracé_633" data-name="Tracé 633" d="M248.1,95.408a.627.627,0,0,1-.074,0,.5.5,0,0,1-.421-.568l2.456-16.6a1.406,1.406,0,0,0-1.187-1.6l-39.737-5.878a.5.5,0,0,1-.421-.568.506.506,0,0,1,.568-.421l39.737,5.877a2.409,2.409,0,0,1,2.029,2.734l-2.456,16.6a.5.5,0,0,1-.494.427" transform="translate(-1.034 -0.025)" fill="#243762"/>
    <path id="Tracé_634" data-name="Tracé 634" d="M238.861,80.3a.627.627,0,0,1-.074-.005l-45.314-6.7a.5.5,0,1,1,.146-.989l45.315,6.7a.5.5,0,0,1-.073,1" transform="translate(-0.967 -0.024)" fill="#fff"/>
    <path id="Tracé_635" data-name="Tracé 635" d="M212.033,81.856a.628.628,0,0,1-.074-.005L192.673,79a.5.5,0,1,1,.146-.989l19.287,2.852a.5.5,0,0,1-.073,1" transform="translate(-0.876 -0.025)" fill="#fff"/>
    <path id="Tracé_636" data-name="Tracé 636" d="M232.074,89.991a.509.509,0,0,1-.077-.006l-39.108-6.067a.5.5,0,1,1,.153-.988L232.15,89a.5.5,0,0,1-.076.994" transform="translate(-0.942 -0.027)" fill="#fff"/>
    <path id="Tracé_638" data-name="Tracé 638" d="M246.391,112.158a.627.627,0,0,1-.074,0L201,105.45a.5.5,0,1,1,.146-.989l45.315,6.7a.5.5,0,0,1-.073.995" transform="translate(-1.007 -0.035)" fill="#fff"/>
    <path id="Tracé_639" data-name="Tracé 639" d="M219.564,113.714a.627.627,0,0,1-.074,0L200.2,110.856a.5.5,0,0,1,.146-.99l19.287,2.853a.5.5,0,0,1-.073.995" transform="translate(-0.912 -0.036)" fill="#fff"/>
    <path id="Tracé_640" data-name="Tracé 640" d="M213.065,117.923a.468.468,0,0,1-.074,0l-13.536-2a.5.5,0,0,1,.147-.99l13.536,2a.5.5,0,0,1-.073.995" transform="translate(-0.891 -0.037)" fill="#fff"/>
    <path id="Tracé_642" data-name="Tracé 642" d="M154.248,233.767,51.593,245.333a3.592,3.592,0,0,1-3.972-3.168L40.211,176.4a.189.189,0,0,1,.167-.209l109.395-12.325a.188.188,0,0,1,.209.167l7.413,65.787a3.57,3.57,0,0,1-3.147,3.946" transform="translate(0 -0.086)" fill="#fff"/>
    <path id="Tracé_643" data-name="Tracé 643" d="M51.189,245.856a4.1,4.1,0,0,1-4.065-3.636l-7.41-65.762a.692.692,0,0,1,.608-.763L149.717,163.37a.686.686,0,0,1,.762.607l7.413,65.789a4.068,4.068,0,0,1-3.587,4.5L51.649,245.831a4.207,4.207,0,0,1-.46.025m-10.446-69.2,7.375,65.455a3.088,3.088,0,0,0,3.419,2.728L154.192,233.27l.056.5-.056-.5a3.068,3.068,0,0,0,2.706-3.392l-7.377-65.48Z" transform="translate(0 -0.086)" fill="#243762"/>
    <path id="Tracé_644" data-name="Tracé 644" d="M149.438,233.767,56.614,245.333c-1.972.222,28.764-39.2,28.542-41.175L40.212,176.4a.189.189,0,0,1,.167-.209l109.4-12.325a.189.189,0,0,1,.209.167L112.56,201.071c.22,1.958,38.836,32.475,36.878,32.7" transform="translate(0 -0.086)" fill="#243762" opacity="0.502"/>
    <path id="Tracé_645" data-name="Tracé 645" d="M40.378,176.192l45.238-44.739A8.215,8.215,0,0,1,95.724,130.3l53.77,33.394a.114.114,0,0,1-.047.21L40.19,176.213" transform="translate(0 -0.05)" fill="#3f8fb9"/>
    <path id="Tracé_646" data-name="Tracé 646" d="M40.246,176.71l-.083-.736-.137-.138.109-.107v-.013l.016,0L85.265,131.1a8.693,8.693,0,0,1,10.722-1.224l53.771,33.4a.614.614,0,0,1-.252,1.131ZM91.4,129.564a7.7,7.7,0,0,0-5.43,2.244L41.755,175.534l106.531-12L95.46,130.724a7.7,7.7,0,0,0-4.062-1.16" transform="translate(0 -0.05)" fill="#243762"/>
    <path id="Tracé_647" data-name="Tracé 647" d="M40.378,176.192l45.238-44.739A8.215,8.215,0,0,1,95.724,130.3l53.77,33.394a.114.114,0,0,1-.047.21L40.19,176.213" transform="translate(0 -0.05)" fill="#243762" opacity="0.505"/>
    <path id="Tracé_648" data-name="Tracé 648" d="M90.619,197.263,56.613,244.576l92.825-10.458-43.681-38.561a10.271,10.271,0,0,0-15.138,1.706" transform="translate(-0.107 -0.086)" fill="#f7a9b4"/>
    <path id="Tracé_649" data-name="Tracé 649" d="M55.55,245.2l34.663-48.228.406.292-.406-.292a10.772,10.772,0,0,1,15.875-1.789l44.525,39.307Zm43.405-51.712a9.765,9.765,0,0,0-7.93,4.068l-33.348,46.4,90.586-10.206-42.837-37.815a9.79,9.79,0,0,0-6.471-2.445" transform="translate(-0.106 -0.086)" fill="#243762"/>
    <path id="Tracé_650" data-name="Tracé 650" d="M45.9,143.781l71.5-8.056c4.687-.528,8.858,2.342,9.316,6.41l4.595,40.788L111.429,201.2l-26.274,2.961L59.2,187.926l-4.452-39.517Z" transform="translate(0 -0.059)" fill="#fff"/>
    <path id="Tracé_651" data-name="Tracé 651" d="M85.039,204.676,58.734,188.223l-4.45-39.492-6.809-5.63,69.87-7.872a9.685,9.685,0,0,1,6.584,1.566,7.4,7.4,0,0,1,3.286,5.285l4.624,41.039-20.191,18.558ZM59.673,187.631l25.6,16.012,25.939-2.923,19.576-17.993-4.567-40.535a6.413,6.413,0,0,0-2.859-4.573,8.69,8.69,0,0,0-5.9-1.4L47.581,144.1l7.637,3.994Z" transform="translate(0 -0.059)" fill="#243762"/>
    <path id="Tracé_652" data-name="Tracé 652" d="M90.619,193.181l-34.006,51.4,92.825-10.458-43.681-42.642a10.27,10.27,0,0,0-15.138,1.705" transform="translate(-0.107 -0.086)" fill="#243762" opacity="0.499"/>
    <path id="Tracé_653" data-name="Tracé 653" d="M90.619,197.263,56.613,244.576l92.825-10.458-43.681-38.561a10.271,10.271,0,0,0-15.138,1.706" transform="translate(-0.107 -0.086)" fill="#fff"/>
    <path id="Tracé_654" data-name="Tracé 654" d="M55.55,245.2l34.663-48.228.406.292-.406-.292a10.772,10.772,0,0,1,15.875-1.789l44.525,39.307Zm43.405-51.712a9.765,9.765,0,0,0-7.93,4.068l-33.348,46.4,90.586-10.206-42.837-37.815a9.79,9.79,0,0,0-6.471-2.445" transform="translate(-0.106 -0.086)" fill="#243762"/>
    <line id="Ligne_156" data-name="Ligne 156" x2="44.737" y2="27.877" transform="translate(40.419 176.218)" fill="#f7a9b4"/>
    <rect id="Rectangle-4" data-name="Rectangle" width="1.001" height="52.712" transform="translate(40.154 176.643) rotate(-58.072)" fill="#243762"/>
    <line id="Ligne_157" data-name="Ligne 157" x1="37.412" y2="37.133" transform="translate(112.032 163.877)" fill="#f7a9b4"/>
    <rect id="Rectangle-5" data-name="Rectangle" width="52.712" height="1" transform="translate(111.684 200.659) rotate(-44.797)" fill="#243762"/>
    <path id="Tracé_656" data-name="Tracé 656" d="M56.731,166.621l-12.478,1.406-2.006-17.8a5.993,5.993,0,0,1,5.284-6.627l.568-.064a5.993,5.993,0,0,1,6.626,5.285Z" transform="translate(0 -0.051)" fill="#ecf1f7"/>
    <path id="Tracé_657" data-name="Tracé 657" d="M43.811,168.58l-2.061-18.3a6.492,6.492,0,0,1,5.725-7.178l.568-.064a6.494,6.494,0,0,1,7.179,5.726l2.061,18.3ZM48.781,144a5.722,5.722,0,0,0-.626.035l-.568.064a5.49,5.49,0,0,0-4.843,6.073l1.949,17.307,11.485-1.294-1.95-17.307A5.493,5.493,0,0,0,48.781,144" transform="translate(0 -0.051)" fill="#243762"/>
    <path id="Tracé_658" data-name="Tracé 658" d="M65.2,157.352a.5.5,0,0,1-.056-1l51.805-5.837a.5.5,0,1,1,.113.994L65.26,157.349l-.057,0" transform="translate(-0.302 -0.05)" fill="#243762"/>
    <path id="Tracé_659" data-name="Tracé 659" d="M67.188,174.964a.5.5,0,0,1-.056-1l51.8-5.836a.5.5,0,0,1,.112.994l-51.8,5.836-.057,0" transform="translate(-0.313 -0.055)" fill="#243762"/>
    <path id="Tracé_660" data-name="Tracé 660" d="M66.184,166.056a.5.5,0,0,1-.056-1l22.387-2.523a.5.5,0,0,1,.112,1l-22.386,2.522a.544.544,0,0,1-.057,0" transform="translate(-0.276 -0.053)" fill="#243762"/>
    <path id="Tracé_661" data-name="Tracé 661" d="M94.432,162.873a.5.5,0,0,1-.056-1l23.557-2.653a.5.5,0,1,1,.113.994L94.489,162.87a.544.544,0,0,1-.057,0" transform="translate(-0.414 -0.052)" fill="#243762"/>
  </g>
</svg>
