<svg xmlns="http://www.w3.org/2000/svg" xmlns:xlink="http://www.w3.org/1999/xlink" width="88" height="88" viewBox="0 0 88 88">
  <defs>
    <filter id="Ellipse_51" x="0" y="0" width="88" height="88" filterUnits="userSpaceOnUse">
      <feOffset dy="3" input="SourceAlpha"/>
      <feGaussianBlur stdDeviation="3" result="blur"/>
      <feFlood flood-opacity="0.161"/>
      <feComposite operator="in" in2="blur"/>
      <feComposite in="SourceGraphic"/>
    </filter>
  </defs>
  <g id="interconnexion_cloud" data-name="interconnexion cloud" transform="translate(-186 -1401)">
    <g transform="matrix(1, 0, 0, 1, 186, 1401)" filter="url(#Ellipse_51)">
      <circle id="Ellipse_51-2" data-name="Ellipse 51" cx="35" cy="35" r="35" transform="translate(9 6)" fill="#fff"/>
    </g>
    <g id="points" transform="translate(210 1422.206)">
      <path id="Tracé_1183" data-name="Tracé 1183" d="M9.44,28.382a.374.374,0,1,1-.374-.374.374.374,0,0,1,.374.374" transform="translate(-3.339 -10.714)" fill="#546d7b"/>
      <path id="Tracé_1184" data-name="Tracé 1184" d="M11.33,28.382a.374.374,0,1,1-.374-.374.375.375,0,0,1,.374.374" transform="translate(-4.065 -10.714)" fill="#546d7b"/>
      <path id="Tracé_1185" data-name="Tracé 1185" d="M13.219,28.382a.374.374,0,1,1-.374-.374.374.374,0,0,1,.374.374" transform="translate(-4.667 -10.714)" fill="#546d7b"/>
      <path id="Tracé_1186" data-name="Tracé 1186" d="M15.108,28.382a.374.374,0,1,1-.374-.374.374.374,0,0,1,.374.374" transform="translate(-5.373 -10.714)" fill="#546d7b"/>
      <path id="Tracé_1187" data-name="Tracé 1187" d="M17,28.382a.374.374,0,1,1-.374-.374.374.374,0,0,1,.374.374" transform="translate(-6.08 -10.714)" fill="#546d7b"/>
      <path id="Tracé_1188" data-name="Tracé 1188" d="M18.886,28.382a.374.374,0,1,1-.374-.374.374.374,0,0,1,.374.374" transform="translate(-6.787 -10.714)" fill="#546d7b"/>
      <path id="Tracé_1189" data-name="Tracé 1189" d="M20.776,28.382a.374.374,0,1,1-.374-.374.374.374,0,0,1,.374.374" transform="translate(-7.495 -10.714)" fill="#546d7b"/>
      <path id="Tracé_1190" data-name="Tracé 1190" d="M22.665,28.382a.374.374,0,1,1-.374-.374.374.374,0,0,1,.374.374" transform="translate(-8.201 -10.714)" fill="#546d7b"/>
      <path id="Tracé_1191" data-name="Tracé 1191" d="M24.554,28.382a.374.374,0,1,1-.374-.374.374.374,0,0,1,.374.374" transform="translate(-8.908 -10.714)" fill="#546d7b"/>
      <path id="Tracé_1192" data-name="Tracé 1192" d="M26.443,28.382a.374.374,0,1,1-.374-.374.374.374,0,0,1,.374.374" transform="translate(-9.615 -10.714)" fill="#546d7b"/>
      <path id="Tracé_1193" data-name="Tracé 1193" d="M28.333,28.382a.374.374,0,1,1-.374-.374.374.374,0,0,1,.374.374" transform="translate(-10.323 -10.714)" fill="#546d7b"/>
      <path id="Tracé_1194" data-name="Tracé 1194" d="M30.222,28.382a.374.374,0,1,1-.374-.374.374.374,0,0,1,.374.374" transform="translate(-11.029 -10.714)" fill="#546d7b"/>
      <path id="Tracé_1195" data-name="Tracé 1195" d="M32.111,28.382a.374.374,0,1,1-.374-.374.374.374,0,0,1,.374.374" transform="translate(-11.736 -10.714)" fill="#546d7b"/>
      <path id="Tracé_1196" data-name="Tracé 1196" d="M34,28.382a.374.374,0,1,1-.374-.374.374.374,0,0,1,.374.374" transform="translate(-12.444 -10.714)" fill="#546d7b"/>
      <path id="Tracé_1197" data-name="Tracé 1197" d="M35.89,28.382a.374.374,0,1,1-.374-.374.374.374,0,0,1,.374.374" transform="translate(-13.151 -10.714)" fill="#546d7b"/>
      <path id="Tracé_1198" data-name="Tracé 1198" d="M37.779,28.382a.374.374,0,1,1-.374-.374.374.374,0,0,1,.374.374" transform="translate(-13.857 -10.714)" fill="#546d7b"/>
      <path id="Tracé_1199" data-name="Tracé 1199" d="M39.668,28.382a.374.374,0,1,1-.374-.374.374.374,0,0,1,.374.374" transform="translate(-14.564 -10.714)" fill="#546d7b"/>
      <path id="Tracé_1200" data-name="Tracé 1200" d="M41.558,28.382a.374.374,0,1,1-.374-.374.374.374,0,0,1,.374.374" transform="translate(-15.272 -10.714)" fill="#546d7b"/>
      <path id="Tracé_1201" data-name="Tracé 1201" d="M43.447,28.382a.374.374,0,1,1-.374-.374.374.374,0,0,1,.374.374" transform="translate(-15.979 -10.714)" fill="#546d7b"/>
      <path id="Tracé_1202" data-name="Tracé 1202" d="M45.336,28.382a.374.374,0,1,1-.374-.374.374.374,0,0,1,.374.374" transform="translate(-16.686 -10.714)" fill="#546d7b"/>
      <path id="Tracé_1203" data-name="Tracé 1203" d="M47.225,28.382a.374.374,0,1,1-.374-.374.374.374,0,0,1,.374.374" transform="translate(-17.392 -10.714)" fill="#546d7b"/>
      <path id="Tracé_1204" data-name="Tracé 1204" d="M49.114,28.382a.374.374,0,1,1-.374-.374.374.374,0,0,1,.374.374" transform="translate(-18.099 -10.714)" fill="#546d7b"/>
      <path id="Tracé_1205" data-name="Tracé 1205" d="M51,28.382a.374.374,0,1,1-.374-.374.374.374,0,0,1,.374.374" transform="translate(-18.807 -10.714)" fill="#546d7b"/>
      <path id="Tracé_1206" data-name="Tracé 1206" d="M52.893,28.382a.374.374,0,1,1-.374-.374.374.374,0,0,1,.374.374" transform="translate(-19.408 -10.714)" fill="#546d7b"/>
      <path id="Tracé_1207" data-name="Tracé 1207" d="M54.782,28.382a.374.374,0,1,1-.374-.374.374.374,0,0,1,.374.374" transform="translate(-20.134 -10.714)" fill="#546d7b"/>
      <path id="Tracé_1208" data-name="Tracé 1208" d="M31.737,23.089a.374.374,0,1,1,.374-.374.374.374,0,0,1-.374.374" transform="translate(-11.737 -8.545)" fill="#546d7b"/>
      <path id="Tracé_1209" data-name="Tracé 1209" d="M31.737,24.978a.374.374,0,1,1,.374-.374.374.374,0,0,1-.374.374" transform="translate(-11.737 -9.268)" fill="#546d7b"/>
      <path id="Tracé_1210" data-name="Tracé 1210" d="M31.737,26.868a.374.374,0,1,1,.374-.374.374.374,0,0,1-.374.374" transform="translate(-11.737 -9.991)" fill="#546d7b"/>
      <path id="Tracé_1214" data-name="Tracé 1214" d="M54.407,30.646a.374.374,0,1,1,.374-.374.374.374,0,0,1-.374.374" transform="translate(-20.134 -11.437)" fill="#546d7b"/>
      <path id="Tracé_1215" data-name="Tracé 1215" d="M54.407,32.535a.374.374,0,1,1,.374-.374.374.374,0,0,1-.374.374" transform="translate(-20.134 -12.159)" fill="#546d7b"/>
      <path id="Tracé_1216" data-name="Tracé 1216" d="M54.407,34.425a.374.374,0,1,1,.374-.374.374.374,0,0,1-.374.374" transform="translate(-20.134 -12.882)" fill="#546d7b"/>
      <path id="Tracé_1217" data-name="Tracé 1217" d="M9.065,30.646a.374.374,0,1,1,.374-.374.374.374,0,0,1-.374.374" transform="translate(-3.339 -11.437)" fill="#546d7b"/>
      <path id="Tracé_1218" data-name="Tracé 1218" d="M9.065,32.535a.374.374,0,1,1,.374-.374.374.374,0,0,1-.374.374" transform="translate(-3.339 -12.159)" fill="#546d7b"/>
      <path id="Tracé_1219" data-name="Tracé 1219" d="M9.065,34.425a.374.374,0,1,1,.374-.374.374.374,0,0,1-.374.374" transform="translate(-3.339 -12.882)" fill="#546d7b"/>
      <path id="Tracé_1221" data-name="Tracé 1221" d="M54.407,36.314a.374.374,0,1,1,.374-.374.374.374,0,0,1-.374.374" transform="translate(-20.134 -13.604)" fill="#546d7b"/>
      <path id="Tracé_1222" data-name="Tracé 1222" d="M9.065,36.314a.374.374,0,1,1,.374-.374.374.374,0,0,1-.374.374" transform="translate(-3.339 -13.604)" fill="#546d7b"/>
    </g>
    <g id="azure" transform="translate(234 1442)">
      <path id="Icon_awesome-cloud" data-name="Icon awesome-cloud" d="M18.48,8.766a3.162,3.162,0,0,0,.22-1.158,3.259,3.259,0,0,0-3.3-3.214,3.345,3.345,0,0,0-1.832.542A5.523,5.523,0,0,0,8.8,2.25,5.428,5.428,0,0,0,3.3,7.607c0,.09,0,.181.007.271A4.835,4.835,0,0,0,0,12.429,4.888,4.888,0,0,0,4.95,17.25H17.6a4.277,4.277,0,0,0,.88-8.484Z" transform="translate(0 -2.25)" fill="#0998ea"/>
      <path id="Icon_simple-microsoftazure" data-name="Icon simple-microsoftazure" d="M2.579,12.815h8.708L6.6,4.669,5.167,8.6l2.745,3.27ZM6.222,4.05,2.871,6.867,0,11.851H2.589v.007Z" transform="translate(5.357 -0.213)" fill="#9fbecf"/>
    </g>
    <g id="amazon" transform="translate(219 1421)">
      <path id="Icon_awesome-cloud-2" data-name="Icon awesome-cloud" d="M18.48,8.766a3.162,3.162,0,0,0,.22-1.158,3.259,3.259,0,0,0-3.3-3.214,3.345,3.345,0,0,0-1.832.542A5.523,5.523,0,0,0,8.8,2.25,5.428,5.428,0,0,0,3.3,7.607c0,.09,0,.181.007.271A4.835,4.835,0,0,0,0,12.429,4.888,4.888,0,0,0,4.95,17.25H17.6a4.277,4.277,0,0,0,.88-8.484Z" transform="translate(0 -2.25)" fill="#0998ea"/>
      <path id="amazonaws" d="M2.882,9.36a.938.938,0,0,0,.037.289,1.705,1.705,0,0,0,.109.235.136.136,0,0,1,.024.074.128.128,0,0,1-.065.1l-.214.137a.168.168,0,0,1-.089.029.158.158,0,0,1-.1-.046,1.012,1.012,0,0,1-.122-.153q-.057-.094-.106-.192a1.28,1.28,0,0,1-1,.448.957.957,0,0,1-.68-.234A.889.889,0,0,1,.733,8.752,1.276,1.276,0,0,1,1.566,8.5a2.8,2.8,0,0,1,.36.026c.126.016.256.042.391.072V8.359a.7.7,0,0,0-.16-.52A.806.806,0,0,0,1.6,7.69a1.61,1.61,0,0,0-.368.042,2.8,2.8,0,0,0-.367.111,1,1,0,0,1-.119.042.217.217,0,0,1-.054.01c-.048,0-.072-.033-.072-.1V7.634A.2.2,0,0,1,.648,7.52a.254.254,0,0,1,.1-.068,2.01,2.01,0,0,1,.428-.147A2.153,2.153,0,0,1,1.7,7.244a1.281,1.281,0,0,1,.891.264,1.046,1.046,0,0,1,.282.8V9.36ZM1.5,9.854a1.147,1.147,0,0,0,.35-.059.761.761,0,0,0,.323-.208.51.51,0,0,0,.116-.208A1.125,1.125,0,0,0,2.325,9.1V8.96A2.957,2.957,0,0,0,2.011,8.9a2.683,2.683,0,0,0-.32-.02.811.811,0,0,0-.507.13.517.517,0,0,0-.04.718A.483.483,0,0,0,1.5,9.854Zm2.731.351a.2.2,0,0,1-.13-.033.263.263,0,0,1-.072-.127l-.8-2.513A.548.548,0,0,1,3.2,7.4a.073.073,0,0,1,.081-.081h.334a.2.2,0,0,1,.132.033.254.254,0,0,1,.068.127l.572,2.152.531-2.152a.229.229,0,0,1,.064-.127.243.243,0,0,1,.136-.033h.272a.168.168,0,0,1,.2.16L6.13,9.659l.588-2.178a.276.276,0,0,1,.068-.127.23.23,0,0,1,.133-.033h.317a.075.075,0,0,1,.085.081.288.288,0,0,1-.007.052.447.447,0,0,1-.024.081l-.82,2.512a.246.246,0,0,1-.072.127.225.225,0,0,1-.129.033H5.977a.214.214,0,0,1-.136-.033.227.227,0,0,1-.064-.13l-.528-2.1-.524,2.093a.255.255,0,0,1-.064.13.22.22,0,0,1-.136.033Zm4.37.088a2.379,2.379,0,0,1-.524-.058,1.6,1.6,0,0,1-.391-.13.233.233,0,0,1-.105-.091.22.22,0,0,1-.02-.091V9.757c0-.068.027-.1.078-.1a.2.2,0,0,1,.061.01c.02.007.051.02.085.033a1.9,1.9,0,0,0,.374.114,2.128,2.128,0,0,0,.4.039.951.951,0,0,0,.5-.107.347.347,0,0,0,.177-.309.309.309,0,0,0-.092-.228A.877.877,0,0,0,8.8,9.039L8.31,8.892a1.038,1.038,0,0,1-.544-.331.753.753,0,0,1-.17-.472.7.7,0,0,1,.092-.361.849.849,0,0,1,.245-.266,1.086,1.086,0,0,1,.354-.169,1.547,1.547,0,0,1,.429-.055,1.787,1.787,0,0,1,.228.013c.078.01.149.023.221.036s.133.033.194.052A.762.762,0,0,1,9.5,7.4a.291.291,0,0,1,.1.081.169.169,0,0,1,.03.107v.153c0,.068-.027.1-.078.1A.365.365,0,0,1,9.425,7.8a1.619,1.619,0,0,0-.653-.127.908.908,0,0,0-.453.091.31.31,0,0,0-.16.289.3.3,0,0,0,.1.231,1.026,1.026,0,0,0,.374.179l.483.146a1.044,1.044,0,0,1,.527.312A.715.715,0,0,1,9.8,9.38a.809.809,0,0,1-.088.377.889.889,0,0,1-.248.286,1.114,1.114,0,0,1-.378.182,1.694,1.694,0,0,1-.487.068Zm.643,1.58A7.578,7.578,0,0,1,5.1,13.081,7.7,7.7,0,0,1,.045,11.239c-.105-.091-.01-.214.116-.143A10.568,10.568,0,0,0,5.222,12.38a10.506,10.506,0,0,0,3.86-.754c.187-.081.347.117.163.247Zm.466-.507c-.143-.175-.946-.084-1.31-.042-.109.013-.126-.078-.027-.147a2.105,2.105,0,0,1,1.813-.163,1.856,1.856,0,0,1-.633,1.631c-.092.075-.18.036-.139-.061.136-.322.439-1.046.3-1.219Z" transform="translate(5.887 -0.973)" fill="#9fbecf"/>
    </g>
    <g id="google" transform="translate(204 1442)">
      <path id="Icon_awesome-cloud-3" data-name="Icon awesome-cloud" d="M18.48,8.766a3.162,3.162,0,0,0,.22-1.158,3.259,3.259,0,0,0-3.3-3.214,3.345,3.345,0,0,0-1.832.542A5.523,5.523,0,0,0,8.8,2.25,5.428,5.428,0,0,0,3.3,7.607c0,.09,0,.181.007.271A4.835,4.835,0,0,0,0,12.429,4.888,4.888,0,0,0,4.95,17.25H17.6a4.277,4.277,0,0,0,.88-8.484Z" transform="translate(0 -2.25)" fill="#0998ea"/>
      <path id="Icon_simple-googlecloud" data-name="Icon simple-googlecloud" d="M5.194,3.567A3.987,3.987,0,0,0,1.26,6.532c.023-.009-.023.006,0,0a2.9,2.9,0,0,0-.105,4.706l0,0,0,.013a2.844,2.844,0,0,0,1.737.583H5.1l.013.013H7.32A2.909,2.909,0,0,0,8.955,6.532a4.034,4.034,0,0,0-1.2-1.958l-.018.018,0-.022a3.961,3.961,0,0,0-2.542-1ZM5.042,5.351a2.262,2.262,0,0,1,1.485.495A2.24,2.24,0,0,1,7.32,7.6v.223a1.117,1.117,0,1,1,0,2.234H5.108l0,0v-.017H2.891a1.1,1.1,0,0,1-.455-.1h0a1.12,1.12,0,0,1,.3-2.123A1.1,1.1,0,0,1,3.9,8.465l1.284-1.3a2.871,2.871,0,0,0-1.73-1.082c.008,0,.017-.011.023-.01a2.2,2.2,0,0,1,1.564-.727Z" transform="translate(5.887 0.755)" fill="#9fbecf"/>
    </g>
  </g>
</svg>
