<svg xmlns="http://www.w3.org/2000/svg" width="40" height="67" viewBox="0 0 40 67">
  <g id="iocne-fibre" transform="translate(-307.5 -198)">
    <g id="bas" transform="translate(307.5 229.073)">
      <path id="Ligne_10" data-name="Ligne 10" d="M9.626-.648H-1.733A.858.858,0,0,1-2.5-1.574.858.858,0,0,1-1.733-2.5H9.626a.858.858,0,0,1,.767.926A.858.858,0,0,1,9.626-.648Z" transform="translate(2.5 17.315)" fill="#101041"/>
      <path id="Ligne_11" data-name="Ligne 11" d="M-1.574,18.612a.926.926,0,0,1-.926-.926V-1.574A.926.926,0,0,1-1.574-2.5a.926.926,0,0,1,.926.926v19.26A.926.926,0,0,1-1.574,18.612Z" transform="translate(2.5 17.315)" fill="#101041"/>
      <path id="Ligne_12" data-name="Ligne 12" d="M16.274-.648H-1.9c-.33,0-.6-.415-.6-.926s.268-.926.6-.926H16.274c.33,0,.6.415.6.926S16.6-.648,16.274-.648Z" transform="translate(23.128 17.315)" fill="#101041"/>
      <path id="Ligne_13" data-name="Ligne 13" d="M-1.574,18.612a.926.926,0,0,1-.926-.926V-1.574A.926.926,0,0,1-1.574-2.5a.926.926,0,0,1,.926.926v19.26A.926.926,0,0,1-1.574,18.612Z" transform="translate(40.648 17.315)" fill="#101041"/>
      <path id="Ligne_14" data-name="Ligne 14" d="M-1.574,13.8a.926.926,0,0,1-.926-.926V-1.574A.926.926,0,0,1-1.574-2.5a.926.926,0,0,1,.926.926V12.871A.926.926,0,0,1-1.574,13.8Z" transform="translate(9.783 2.87)" fill="#101041"/>
      <path id="Ligne_15" data-name="Ligne 15" d="M-1.912-.463c-.324,0-.587-.412-.588-.921s.261-.928.586-.93L22.093-2.5h0c.324,0,.587.412.588.921s-.261.928-.586.93L-1.909-.463Z" transform="translate(10.093 2.5)" fill="#101041"/>
      <path id="Ligne_16" data-name="Ligne 16" d="M-1.574,14.167a.926.926,0,0,1-.926-.926V-1.574A.926.926,0,0,1-1.574-2.5a.926.926,0,0,1,.926.926V13.241A.926.926,0,0,1-1.574,14.167Z" transform="translate(33.729 2.5)" fill="#101041"/>
    </g>
    <g id="haut" transform="translate(311.278 198)">
      <g id="_4" data-name="4">
        <path id="Ligne_17" data-name="Ligne 17" d="M-1.574,15.278a.926.926,0,0,1-.926-.926V-1.574A.926.926,0,0,1-1.574-2.5a.926.926,0,0,1,.926.926V14.353A.926.926,0,0,1-1.574,15.278Z" transform="translate(26.737 17.13)" fill="#101041"/>
        <path id="Ellipse_11" data-name="Ellipse 11" d="M3.148,1.111A2.037,2.037,0,1,0,5.185,3.148,2.039,2.039,0,0,0,3.148,1.111M3.148,0A3.148,3.148,0,1,1,0,3.148,3.148,3.148,0,0,1,3.148,0Z" transform="translate(22.014 9.26)" fill="#101041"/>
      </g>
      <g id="_3" data-name="3">
        <path id="Ligne_18" data-name="Ligne 18" d="M-1.574,8.612A.926.926,0,0,1-2.5,7.686v-9.26A.926.926,0,0,1-1.574-2.5a.926.926,0,0,1,.926.926v9.26A.926.926,0,0,1-1.574,8.612Z" transform="translate(21.081 23.797)" fill="#101041"/>
        <path id="Ellipse_10" data-name="Ellipse 10" d="M3.148,1.111A2.037,2.037,0,1,0,5.185,3.148,2.039,2.039,0,0,0,3.148,1.111M3.148,0A3.148,3.148,0,1,1,0,3.148,3.148,3.148,0,0,1,3.148,0Z" transform="translate(16.343 15.927)" fill="#101041"/>
      </g>
      <g id="_2" data-name="2">
        <path id="Ligne_19" data-name="Ligne 19" d="M-1.574,24.538a.926.926,0,0,1-.926-.926V-1.574A.926.926,0,0,1-1.574-2.5a.926.926,0,0,1,.926.926V23.612A.926.926,0,0,1-1.574,24.538Z" transform="translate(14.378 7.871)" fill="#101041"/>
        <path id="Ellipse_9" data-name="Ellipse 9" d="M3.148,1.111A2.037,2.037,0,1,0,5.185,3.148,2.039,2.039,0,0,0,3.148,1.111M3.148,0A3.148,3.148,0,1,1,0,3.148,3.148,3.148,0,0,1,3.148,0Z" transform="translate(9.671)" fill="#101041"/>
      </g>
      <g id="_1" data-name="1">
        <path id="Ligne_20" data-name="Ligne 20" d="M-1.574,15.278a.926.926,0,0,1-.926-.926V-1.574A.926.926,0,0,1-1.574-2.5a.926.926,0,0,1,.926.926V14.353A.926.926,0,0,1-1.574,15.278Z" transform="translate(8.722 17.13)" fill="#101041"/>
        <path id="Ellipse_8" data-name="Ellipse 8" d="M3.148,1.111A2.037,2.037,0,1,0,5.185,3.148,2.039,2.039,0,0,0,3.148,1.111M3.148,0A3.148,3.148,0,1,1,0,3.148,3.148,3.148,0,0,1,3.148,0Z" transform="translate(4 9.26)" fill="#101041"/>
      </g>
    </g>
  </g>
</svg>
