<svg xmlns="http://www.w3.org/2000/svg" width="50" height="50" viewBox="0 0 50 50">
  <g id="iot-connect" transform="translate(-2.25 -2.25)">
    <path id="Tracé_849" data-name="Tracé 849" d="M52.25,32.607H45.107V25.464H41.536V41.536H12.964V12.964H29.036V9.393H21.893V2.25H18.321V9.393H12.964a3.575,3.575,0,0,0-3.571,3.571v5.357H2.25v3.571H9.393V32.607H2.25v3.571H9.393v5.357a3.575,3.575,0,0,0,3.571,3.571h5.357V52.25h3.571V45.107H32.607V52.25h3.571V45.107h5.357a3.576,3.576,0,0,0,3.571-3.571V36.179H52.25Z" transform="translate(0 0)" fill="#ecf6fb"/>
    <path id="Tracé_850" data-name="Tracé 850" d="M40.168,2.25a7.418,7.418,0,0,0-7.411,7.411A7.329,7.329,0,0,0,33.807,13.4l-5.524,5.522H12.375V37.454H30.9V21.546l5.522-5.522a7.327,7.327,0,0,0,3.742,1.049,7.411,7.411,0,0,0,0-14.823ZM27.2,33.748H16.081V22.631H27.2Zm12.97-20.381a3.706,3.706,0,1,1,3.706-3.706,3.706,3.706,0,0,1-3.706,3.706Z" transform="translate(4.671)" fill="#ecf6fb"/>
  </g>
</svg>
