<svg xmlns="http://www.w3.org/2000/svg" xmlns:xlink="http://www.w3.org/1999/xlink" width="88" height="88" viewBox="0 0 88 88">
  <defs>
    <filter id="Ellipse_48" x="0" y="0" width="88" height="88" filterUnits="userSpaceOnUse">
      <feOffset dy="3" input="SourceAlpha"/>
      <feGaussianBlur stdDeviation="3" result="blur"/>
      <feFlood flood-opacity="0.161"/>
      <feComposite operator="in" in2="blur"/>
      <feComposite in="SourceGraphic"/>
    </filter>
  </defs>
  <g id="ip" transform="translate(21.567 24.384)">
    <g transform="matrix(1, 0, 0, 1, -21.57, -24.38)" filter="url(#Ellipse_48)">
      <circle id="Ellipse_48-2" data-name="Ellipse 48" cx="35" cy="35" r="35" transform="translate(9 6)" fill="#fff"/>
    </g>
    <path id="Tracé_1246" data-name="Tracé 1246" d="M18.435,33.128C18.387,33.033,8.5,22.915,6.762,18.369,4.963,13.6,5.123,7.294,13.054,3.655a37.635,37.635,0,0,1,5.381-1.528c-.056.009,9.448.832,11.754,8.28,1.206,5.485,1.125,7.58-4.045,14.153A67.9,67.9,0,0,1,18.435,33.128Z" transform="translate(1.606 1.489)" fill="#0998ea"/>
    <g id="wifi" transform="translate(21.433 -1.384)">
      <path id="Tracé_1100" data-name="Tracé 1100" d="M13.008,13.821a1.963,1.963,0,1,1-1.963-1.963,1.963,1.963,0,0,1,1.963,1.963" transform="translate(-3.045 -3.783)" fill="#9fbecf"/>
      <path id="Tracé_1101" data-name="Tracé 1101" d="M15.439,4.986a.557.557,0,0,1-.45-.231,8.579,8.579,0,0,0-13.98,0,.552.552,0,0,1-.785.116.586.586,0,0,1-.113-.806,9.685,9.685,0,0,1,15.776,0,.586.586,0,0,1-.113.806.549.549,0,0,1-.336.115" transform="translate(0 0)" fill="#9fbecf"/>
      <path id="Tracé_1102" data-name="Tracé 1102" d="M14.349,8.273a.55.55,0,0,1-.465-.259,5.833,5.833,0,0,0-9.953,0,.543.543,0,0,1-.77.165A.588.588,0,0,1,3,7.382a6.925,6.925,0,0,1,11.812,0,.588.588,0,0,1-.159.8.537.537,0,0,1-.3.094" transform="translate(-0.907 -1.3)" fill="#9fbecf"/>
      <path id="Tracé_1103" data-name="Tracé 1103" d="M6.3,11.457a.523.523,0,0,1-.232-.055.589.589,0,0,1-.262-.765A4.418,4.418,0,0,1,9.8,7.959a4.42,4.42,0,0,1,3.987,2.678.589.589,0,0,1-.262.765.537.537,0,0,1-.728-.275,3.325,3.325,0,0,0-3-2.017,3.323,3.323,0,0,0-3,2.017.547.547,0,0,1-.5.33" transform="translate(-1.795 -2.536)" fill="#9fbecf"/>
    </g>
    <path id="Tracé_1098" data-name="Tracé 1098" d="M17.875,20a5.5,5.5,0,1,1,5.5-5.5A5.5,5.5,0,0,1,17.875,20Zm0-8.8a3.3,3.3,0,1,0,3.3,3.3A3.3,3.3,0,0,0,17.875,11.2Z" transform="translate(1.709 0.193)" fill="#fff"/>
  </g>
</svg>
