<svg xmlns="http://www.w3.org/2000/svg" width="55" height="55" viewBox="0 0 55 55">
  <g id="LinkedIn" transform="translate(-15 -3780)">
    <circle id="Ellipse_54" data-name="Ellipse 54" cx="27.5" cy="27.5" r="27.5" transform="translate(15 3780)" fill="#3f8fb9"/>
    <path id="Icon_awesome-linkedin-in" data-name="Icon awesome-linkedin-in" d="M4.924,22H.363V7.312H4.924ZM2.641,5.309A2.654,2.654,0,1,1,5.283,2.642,2.664,2.664,0,0,1,2.641,5.309ZM22,22H17.444v-7.15c0-1.7-.034-3.889-2.371-3.889-2.371,0-2.735,1.851-2.735,3.767V22H7.782V7.312h4.374v2h.064a4.793,4.793,0,0,1,4.316-2.372c4.616,0,5.465,3.04,5.465,6.988V22Z" transform="translate(31 3795.999)" fill="#fff"/>
  </g>
</svg>
