<svg xmlns="http://www.w3.org/2000/svg" width="395" height="85" viewBox="0 0 395 85">
  <g id="logo" transform="translate(-60 -25)">
    <g id="logotype" transform="translate(157 38)">
      <g id="OPÉRATEUR_DATA_SÉCURISÉ" data-name="OPÉRATEUR DATA SÉCURISÉ" transform="translate(0 49.892)" style="mix-blend-mode: normal;isolation: isolate">
        <g id="baseline" style="mix-blend-mode: normal;isolation: isolate">
          <path id="Tracé" d="M727.236,467.423a3.727,3.727,0,0,1,1.62.353,3.594,3.594,0,0,1,1.249.972,4.6,4.6,0,0,1,.792,1.472,5.774,5.774,0,0,1,.285,1.837,5.521,5.521,0,0,1-.484,2.33,4.039,4.039,0,0,1-1.392,1.679,3.761,3.761,0,0,1-4.146.006,3.989,3.989,0,0,1-1.392-1.672,5.547,5.547,0,0,1-.484-2.344,5.485,5.485,0,0,1,.492-2.346,4.019,4.019,0,0,1,1.4-1.672A3.583,3.583,0,0,1,727.236,467.423Zm0,.622a3.1,3.1,0,0,0-1.4.314,2.952,2.952,0,0,0-1.047.856,4.055,4.055,0,0,0-.644,1.274,5.259,5.259,0,0,0-.228,1.568,4.94,4.94,0,0,0,.4,2.007,3.452,3.452,0,0,0,1.163,1.452,3.124,3.124,0,0,0,4.167-.578,4.45,4.45,0,0,0,.905-2.882,5.09,5.09,0,0,0-.4-2.061,3.3,3.3,0,0,0-1.157-1.43A3.036,3.036,0,0,0,727.236,468.045Z" transform="translate(-723.285 -463.585)" fill="#101041" stroke="#101041" stroke-width="0.5"/>
          <path id="Tracé-2" data-name="Tracé" d="M744.95,467.623a2.949,2.949,0,0,1,2.154.847,3.158,3.158,0,0,1-.036,4.369,3.142,3.142,0,0,1-2.236.839h-2.574v2.84h-.635v-8.894Zm-2.693,5.446h2.527a2.59,2.59,0,0,0,1.836-.652,2.306,2.306,0,0,0,.7-1.779,2.341,2.341,0,0,0-.664-1.76,2.467,2.467,0,0,0-1.792-.645h-2.61Z" transform="translate(-725.891 -463.598)" fill="#101041" stroke="#101041" stroke-width="0.5"/>
          <path id="Tracé-3" data-name="Tracé" d="M763.506,467.354v.6h-5.078v3.383h4.431v.6h-4.431v3.707h5.309v.609h-5.944v-8.894Zm-1.483-3.694-1.091,2.191h-.511l1.044-2.522Z" transform="translate(-728.189 -463.329)" fill="#101041" stroke="#101041" stroke-width="0.5"/>
          <path id="Tracé-4" data-name="Tracé" d="M776.994,467.623a2.893,2.893,0,0,1,2.082.782,2.679,2.679,0,0,1,.819,2.032,2.8,2.8,0,0,1-.59,1.763,2.755,2.755,0,0,1-1.522,1l2.249,3.318h-.789l-2.106-3.17H774.2v3.17h-.635v-8.894Zm-2.794,5.109h2.646a2.4,2.4,0,0,0,1.759-.638,2.225,2.225,0,0,0,.649-1.656,2.093,2.093,0,0,0-.632-1.627,2.47,2.47,0,0,0-1.73-.577H774.2Z" transform="translate(-730.43 -463.598)" fill="#101041" stroke="#101041" stroke-width="0.5"/>
          <path id="Tracé-5" data-name="Tracé" d="M793.55,467.6l3.559,8.919h-.67l-.884-2.242h-4.912l-.885,2.242H789.1l3.559-8.919Zm-2.664,6.055H795.3l-2.106-5.355H793Z" transform="translate(-733.868 -463.596)" fill="#101041" stroke="#101041" stroke-width="0.5"/>
          <path id="Tracé-6" data-name="Tracé" d="M813.623,467.623v.609h-3.246v8.285h-.635v-8.285H806.5v-.609Z" transform="translate(-736.662 -463.598)" fill="#101041" stroke="#101041" stroke-width="0.5"/>
          <path id="Tracé-7" data-name="Tracé" d="M829.219,467.623v.6H824.14V471.6h4.432v.6H824.14v3.707h5.31v.609H823.5v-8.894Z" transform="translate(-739.387 -463.598)" fill="#101041" stroke="#101041" stroke-width="0.5"/>
          <path id="Tracé-8" data-name="Tracé" d="M839.911,467.623v4.765a4.3,4.3,0,0,0,.769,2.739,2.549,2.549,0,0,0,2.109.963,2.613,2.613,0,0,0,2.112-.918,4.2,4.2,0,0,0,.771-2.758v-4.791h.629v4.765a4.987,4.987,0,0,1-.91,3.157,3.513,3.513,0,0,1-5.2.02,4.868,4.868,0,0,1-.914-3.125v-4.816Z" transform="translate(-741.929 -463.598)" fill="#101041" stroke="#101041" stroke-width="0.5"/>
          <path id="Tracé-9" data-name="Tracé" d="M860.095,467.623a2.893,2.893,0,0,1,2.082.782,2.681,2.681,0,0,1,.818,2.032,2.793,2.793,0,0,1-.59,1.763,2.753,2.753,0,0,1-1.522,1l2.249,3.318h-.789l-2.106-3.17H857.3v3.17h-.635v-8.894Zm-2.794,5.109h2.646a2.4,2.4,0,0,0,1.759-.638,2.22,2.22,0,0,0,.65-1.656,2.091,2.091,0,0,0-.631-1.627,2.469,2.469,0,0,0-1.729-.577H857.3Z" transform="translate(-744.719 -463.598)" fill="#101041" stroke="#101041" stroke-width="0.5"/>
          <path id="Tracé-10" data-name="Tracé" d="M886.558,467.623a4.439,4.439,0,0,1,2.266.567,3.812,3.812,0,0,1,1.5,1.576,4.934,4.934,0,0,1,.523,2.3,4.772,4.772,0,0,1-.543,2.295,3.949,3.949,0,0,1-1.53,1.582,4.421,4.421,0,0,1-2.252.57H883.74v-8.894Zm-2.183,8.272h2.147a3.892,3.892,0,0,0,1.9-.457,3.249,3.249,0,0,0,1.308-1.332,4.218,4.218,0,0,0,.474-2.036,3.827,3.827,0,0,0-.994-2.833,3.655,3.655,0,0,0-2.7-.992h-2.135Z" transform="translate(-749.076 -463.598)" fill="#101041" stroke="#101041" stroke-width="0.5"/>
          <path id="Tracé-11" data-name="Tracé" d="M904.617,467.6l3.56,8.919h-.67l-.885-2.242h-4.912l-.883,2.242h-.659l3.56-8.919Zm-2.664,6.055h4.414l-2.106-5.355h-.19Z" transform="translate(-751.727 -463.596)" fill="#101041" stroke="#101041" stroke-width="0.5"/>
          <path id="Tracé-12" data-name="Tracé" d="M924.69,467.623v.609h-3.246v8.285h-.634v-8.285h-3.239v-.609Z" transform="translate(-754.515 -463.598)" fill="#101041" stroke="#101041" stroke-width="0.5"/>
          <path id="Tracé-13" data-name="Tracé" d="M938.386,467.6l3.559,8.919h-.67l-.884-2.242h-4.912l-.885,2.242h-.658L937.5,467.6Zm-2.664,6.055h4.414L938.03,468.3h-.189Z" transform="translate(-757.157 -463.596)" fill="#101041" stroke="#101041" stroke-width="0.5"/>
          <path id="Tracé-14" data-name="Tracé" d="M965.534,468.032a2.646,2.646,0,0,0-1.753.49,1.6,1.6,0,0,0-.573,1.28,1.457,1.457,0,0,0,.436,1.134,2.643,2.643,0,0,0,1.338.551l1.364.214a3.214,3.214,0,0,1,1.813.785,2.155,2.155,0,0,1,.632,1.626,2.268,2.268,0,0,1-.917,1.848,3.86,3.86,0,0,1-2.477.733,5.544,5.544,0,0,1-1.691-.24,4.68,4.68,0,0,1-1.465-.8l.326-.545a4.282,4.282,0,0,0,1.341.743,5,5,0,0,0,1.513.211,3.28,3.28,0,0,0,2.014-.545,1.71,1.71,0,0,0,.721-1.432,1.583,1.583,0,0,0-.464-1.17,2.506,2.506,0,0,0-1.447-.607l-1.43-.214q-2.237-.337-2.237-2.282a2.116,2.116,0,0,1,.807-1.751,3.331,3.331,0,0,1,2.135-.641,5.379,5.379,0,0,1,1.566.233,3.987,3.987,0,0,1,1.335.681l-.338.518a3.915,3.915,0,0,0-1.184-.606A4.415,4.415,0,0,0,965.534,468.032Z" transform="translate(-761.686 -463.585)" fill="#101041" stroke="#101041" stroke-width="0.5"/>
          <path id="Tracé-15" data-name="Tracé" d="M984.362,467.354v.6h-5.078v3.383h4.431v.6h-4.431v3.707h5.309v.609h-5.944v-8.894Zm-1.484-3.694-1.091,2.191h-.51l1.044-2.522Z" transform="translate(-764.313 -463.329)" fill="#101041" stroke="#101041" stroke-width="0.5"/>
          <path id="Tracé-16" data-name="Tracé" d="M998.335,468.032a3.461,3.461,0,0,0-2.666,1.115,4.647,4.647,0,0,0,0,5.835,3.446,3.446,0,0,0,2.631,1.1,4.058,4.058,0,0,0,2.877-1.167l.38.467a4.548,4.548,0,0,1-3.316,1.316,4.334,4.334,0,0,1-2.207-.551,3.8,3.8,0,0,1-1.5-1.6,5.722,5.722,0,0,1-.224-4.3,4.441,4.441,0,0,1,.883-1.481,3.975,3.975,0,0,1,1.412-.982,4.677,4.677,0,0,1,1.846-.356,4.221,4.221,0,0,1,1.553.314,4.475,4.475,0,0,1,1.365.827l-.337.492A3.879,3.879,0,0,0,998.335,468.032Z" transform="translate(-766.807 -463.585)" fill="#101041" stroke="#101041" stroke-width="0.5"/>
          <path id="Tracé-17" data-name="Tracé" d="M1012.078,467.623v4.765a4.3,4.3,0,0,0,.768,2.739,2.551,2.551,0,0,0,2.11.963,2.615,2.615,0,0,0,2.112-.918,4.209,4.209,0,0,0,.772-2.758v-4.791h.629v4.765a4.982,4.982,0,0,1-.911,3.157,3.512,3.512,0,0,1-5.2.02,4.866,4.866,0,0,1-.914-3.125v-4.816Z" transform="translate(-770.684 -463.598)" fill="#101041" stroke="#101041" stroke-width="0.5"/>
          <path id="Tracé-18" data-name="Tracé" d="M1032.26,467.623a2.891,2.891,0,0,1,2.082.782,2.681,2.681,0,0,1,.818,2.032,2.79,2.79,0,0,1-.59,1.763,2.746,2.746,0,0,1-1.521,1l2.248,3.318h-.788l-2.106-3.17h-2.937v3.17h-.634v-8.894Zm-2.794,5.109h2.646a2.4,2.4,0,0,0,1.759-.638,2.222,2.222,0,0,0,.649-1.656,2.092,2.092,0,0,0-.631-1.627,2.47,2.47,0,0,0-1.73-.577h-2.693Z" transform="translate(-773.156 -463.598)" fill="#101041" stroke="#101041" stroke-width="0.5"/>
          <path id="Tracé-19" data-name="Tracé" d="M1045.639,467.623v8.894H1045v-8.894Z" transform="translate(-775.454 -463.598)" fill="#101041" stroke="#101041" stroke-width="0.5"/>
          <path id="Tracé-20" data-name="Tracé" d="M1057.746,468.032a2.653,2.653,0,0,0-1.753.49,1.606,1.606,0,0,0-.572,1.28,1.453,1.453,0,0,0,.436,1.134,2.643,2.643,0,0,0,1.338.551l1.364.214a3.211,3.211,0,0,1,1.813.785,2.155,2.155,0,0,1,.631,1.626,2.267,2.267,0,0,1-.917,1.848,3.854,3.854,0,0,1-2.476.733,5.551,5.551,0,0,1-1.691-.24,4.7,4.7,0,0,1-1.466-.8l.326-.545a4.279,4.279,0,0,0,1.341.743,5,5,0,0,0,1.512.211,3.28,3.28,0,0,0,2.014-.545,1.711,1.711,0,0,0,.721-1.432,1.583,1.583,0,0,0-.463-1.17,2.51,2.51,0,0,0-1.447-.607l-1.43-.214q-2.236-.337-2.236-2.282a2.12,2.12,0,0,1,.806-1.751,3.336,3.336,0,0,1,2.136-.641,5.382,5.382,0,0,1,1.567.233,3.981,3.981,0,0,1,1.335.681l-.339.518a3.893,3.893,0,0,0-1.183-.606A4.413,4.413,0,0,0,1057.746,468.032Z" transform="translate(-776.797 -463.585)" fill="#101041" stroke="#101041" stroke-width="0.5"/>
          <path id="Tracé-21" data-name="Tracé" d="M1076.574,467.354v.6H1071.5v3.383h4.432v.6H1071.5v3.707h5.31v.609h-5.944v-8.894Zm-1.483-3.694L1074,465.851h-.509l1.044-2.522Z" transform="translate(-779.128 -463.329)" fill="#101041" stroke="#101041" stroke-width="0.5"/>
        </g>
      </g>
      <g id="METRO_OPTIC" data-name="METRO OPTIC" transform="translate(1.479 -3)" style="mix-blend-mode: normal;isolation: isolate">
        <g id="nom" transform="translate(0)" style="mix-blend-mode: normal;isolation: isolate">
          <path id="Tracé-22" data-name="Tracé" d="M730.935,421.158l7.995,14.113,7.911-14.113h6.832v31.13h-6.25V431.754h-.374l-6.6,11.844h-3.3l-6.6-11.844h-.373v20.534h-6.209v-31.13Z" transform="translate(-723.959 -420.5)" fill="#101041"/>
          <path id="Tracé-23" data-name="Tracé" d="M787.692,421.158v6.263H772.68v5.853h13.392v6.1H772.68v6.648h15.739v6.262H766.388v-31.13Z" transform="translate(-729.989 -420.5)" fill="#101041"/>
          <path id="Tracé-24" data-name="Tracé" d="M822.671,421.158v6.308h-9.738v24.822H806.6V427.466h-9.738v-6.308Z" transform="translate(-735.774 -420.5)" fill="#101041"/>
          <path id="Tracé-25" data-name="Tracé" d="M845.822,421.158a11.249,11.249,0,0,1,8.036,2.893,10.082,10.082,0,0,1,3.073,7.7,10.461,10.461,0,0,1-1.526,5.65,9.669,9.669,0,0,1-4.308,3.721l6.935,11.163h-7.745l-5.233-9.3h-5.731v9.3h-6.374v-31.13Zm-6.5,15.656h6.043a5.19,5.19,0,0,0,3.675-1.271,4.5,4.5,0,0,0,1.37-3.471,4.567,4.567,0,0,0-1.288-3.459,4.969,4.969,0,0,0-3.592-1.237h-6.209Z" transform="translate(-741.618 -420.5)" fill="#101041"/>
          <path id="Tracé-26" data-name="Tracé" d="M881.567,420.456a15.236,15.236,0,0,1,6.157,1.236,13.931,13.931,0,0,1,4.8,3.393,15.616,15.616,0,0,1,3.072,5.15,18.386,18.386,0,0,1,1.112,6.444,17.807,17.807,0,0,1-1.112,6.285,16.2,16.2,0,0,1-3.072,5.173,14.088,14.088,0,0,1-4.818,3.483,15.394,15.394,0,0,1-12.22.034,14.191,14.191,0,0,1-4.8-3.4,15.654,15.654,0,0,1-3.094-5.15,18.172,18.172,0,0,1-1.121-6.421,17.545,17.545,0,0,1,1.911-8.156,14.8,14.8,0,0,1,5.388-5.888A14.386,14.386,0,0,1,881.567,420.456Zm0,6.24a8.247,8.247,0,0,0-4.682,1.35,8.476,8.476,0,0,0-3.052,3.6,11.962,11.962,0,0,0-1.028,5.037,10.7,10.7,0,0,0,2.388,7.158,7.921,7.921,0,0,0,6.374,2.825,8.247,8.247,0,0,0,4.745-1.373,8.416,8.416,0,0,0,3.021-3.607,12.144,12.144,0,0,0,1-5,10.738,10.738,0,0,0-2.367-7.193A7.955,7.955,0,0,0,881.567,426.7Z" transform="translate(-747.102 -420.456)" fill="#101041"/>
          <path id="Tracé-27" data-name="Tracé" d="M936.606,420.456a15.233,15.233,0,0,1,6.156,1.236,13.931,13.931,0,0,1,4.8,3.393,15.62,15.62,0,0,1,3.073,5.15,18.4,18.4,0,0,1,1.111,6.444,17.822,17.822,0,0,1-1.111,6.285,16.2,16.2,0,0,1-3.073,5.173,14.088,14.088,0,0,1-4.818,3.483,15.392,15.392,0,0,1-12.219.034,14.17,14.17,0,0,1-4.8-3.4,15.668,15.668,0,0,1-3.094-5.15,18.166,18.166,0,0,1-1.121-6.421,17.549,17.549,0,0,1,1.91-8.156,14.8,14.8,0,0,1,5.389-5.888A14.386,14.386,0,0,1,936.606,420.456Zm0,6.24a8.252,8.252,0,0,0-4.683,1.35,8.475,8.475,0,0,0-3.052,3.6,11.971,11.971,0,0,0-1.027,5.037,10.7,10.7,0,0,0,2.388,7.158,7.923,7.923,0,0,0,6.375,2.825,8.244,8.244,0,0,0,4.744-1.373,8.42,8.42,0,0,0,3.021-3.607,12.154,12.154,0,0,0,1-5A10.737,10.737,0,0,0,943,429.486,7.952,7.952,0,0,0,936.606,426.7Z" transform="translate(-756.04 -420.456)" fill="#101041"/>
          <path id="Tracé-28" data-name="Tracé" d="M975.662,421.158a11.234,11.234,0,0,1,8.233,3.075,10.929,10.929,0,0,1,3.125,8.156,11.624,11.624,0,0,1-1.578,6.115,10.153,10.153,0,0,1-4.257,3.948,13.433,13.433,0,0,1-6.042,1.326H969.37v8.509H963v-31.13Zm-6.292,16.45h5.773a5.583,5.583,0,0,0,4-1.384,4.938,4.938,0,0,0,1.465-3.767,5.094,5.094,0,0,0-1.329-3.733,5.189,5.189,0,0,0-3.863-1.35H969.37Z" transform="translate(-762.67 -420.5)" fill="#101041"/>
          <path id="Tracé-29" data-name="Tracé" d="M1021.312,421.158v6.308h-9.739v24.822h-6.333V427.466H995.5v-6.308Z" transform="translate(-768.997 -420.5)" fill="#101041"/>
          <path id="Tracé-30" data-name="Tracé" d="M1038.005,421.158v31.13h-6.417v-31.13Z" transform="translate(-774.126 -420.5)" fill="#101041"/>
          <path id="Tracé-31" data-name="Tracé" d="M1068.511,429.8a10.759,10.759,0,0,0-7.725-2.972,8.509,8.509,0,0,0-6.623,2.745,11.36,11.36,0,0,0,.02,14.226,8.465,8.465,0,0,0,6.52,2.723,11.106,11.106,0,0,0,8.285-3.54l3.613,4.878a16.389,16.389,0,0,1-12.251,5.037,15.278,15.278,0,0,1-7.807-1.974,13.553,13.553,0,0,1-5.306-5.65,18.277,18.277,0,0,1-1.9-8.508,18.085,18.085,0,0,1,1.1-6.33,15.9,15.9,0,0,1,3.093-5.184,14.191,14.191,0,0,1,4.974-3.506,16.223,16.223,0,0,1,6.53-1.294,15.227,15.227,0,0,1,11.005,4.289Z" transform="translate(-776.079 -420.456)" fill="#101041"/>
        </g>
      </g>
    </g>
    <g id="logo-2" data-name="logo" transform="translate(60 25)">
      <g id="mo">
        <g id="MO-2">
          <g id="fibre">
            <path id="Ligne" d="M920.6,386.022l-.992-2.215,30.352-13.6.993,2.215Z" transform="translate(-865.238 -305.715)" fill="#101041"/>
            <path id="Ligne-2" data-name="Ligne" d="M960.835,372.842l-.348-.73,3.848-1.84.348.73Z" transform="translate(-877.682 -305.265)" fill="#ff5d41" stroke="#ff5d41" stroke-width="1"/>
            <path id="Tracé-32" data-name="Tracé" d="M859.274,353.615l-1.024-.634c-2.991-1.85-17.96-12-19.281-30.244-.765-10.543,3.141-20.537,11.605-29.7,8.96-9.7,20.5-13.155,25.425-14.629a113.709,113.709,0,0,1,12.663-2.883c2.772-.474,5.582-.848,8.347-1.116l1.208-.117.241,2.35-1.208.117c-2.707.262-5.458.63-8.173,1.093a111.1,111.1,0,0,0-12.376,2.817c-4.724,1.413-15.812,4.729-24.323,13.947-8.008,8.673-11.705,18.079-10.99,27.96,1.239,17.107,15.347,26.671,18.163,28.417l1.024.634Z" transform="translate(-838.654 -274.291)" fill="#db0011"/>
            <g id="Ellipse" transform="translate(0 12.395)">
              <ellipse id="Ellipse-2" data-name="Ellipse" cx="33.173" cy="32.5" rx="33.173" ry="32.5" transform="translate(2.427 2.428)" fill="none"/>
              <path id="Ellipse-3" data-name="Ellipse" d="M874.157,293.372c19.661,0,35.6,15.637,35.6,34.927s-15.939,34.928-35.6,34.928-35.6-15.637-35.6-34.927h0C838.579,309.019,854.5,293.394,874.157,293.372Zm0,67.473c18.321,0,33.173-14.572,33.173-32.546s-14.852-32.546-33.173-32.546-33.173,14.571-33.173,32.546h0C841,346.265,855.844,360.825,874.157,360.845Z" transform="translate(-838.557 -293.372)" fill="#101041"/>
            </g>
            <g id="Ellipse-4" data-name="Ellipse" transform="translate(3.13 11.76)">
              <ellipse id="Ellipse-5" data-name="Ellipse" cx="33.182" cy="34.193" rx="33.182" ry="34.193" transform="translate(2.427 2.428)" fill="none"/>
              <path id="Ellipse-6" data-name="Ellipse" d="M878.666,294.418c19.666,0,35.61,16.4,35.61,36.619s-15.943,36.621-35.609,36.621-35.611-16.395-35.611-36.619h0C843.081,310.824,859.009,294.443,878.666,294.418Zm0,70.812c18.363,0,33.249-15.309,33.249-34.192s-14.886-34.192-33.249-34.192-33.249,15.308-33.249,34.192h0C845.437,349.913,860.312,365.21,878.666,365.23Z" transform="translate(-843.057 -294.418)" fill="#101041"/>
            </g>
            <g id="Ellipse-7" data-name="Ellipse" transform="translate(5.256 8.94)">
              <ellipse id="Ellipse-8" data-name="Ellipse" cx="32.575" cy="32.466" rx="32.575" ry="32.466" transform="translate(2.427 2.428)" fill="none"/>
              <path id="Ellipse-9" data-name="Ellipse" d="M881.115,287.144a34.893,34.893,0,1,1-35,34.893h0A34.988,34.988,0,0,1,881.115,287.144Zm0,67.434a32.541,32.541,0,1,0-32.643-32.541,32.592,32.592,0,0,0,32.643,32.541Z" transform="translate(-846.113 -287.144)" fill="#db0011"/>
            </g>
            <g id="Ellipse-10" data-name="Ellipse" transform="translate(2.809 11.992)">
              <ellipse id="Ellipse-11" data-name="Ellipse" cx="33.321" cy="32.264" rx="33.321" ry="32.264" transform="translate(2.427 2.428)" fill="none"/>
              <path id="Ellipse-12" data-name="Ellipse" d="M878.344,291.532c19.743,0,35.748,15.532,35.748,34.691s-16,34.691-35.748,34.691S842.6,345.382,842.6,326.223h0C842.618,307.073,858.611,291.554,878.344,291.532Zm0,67.03c18.405,0,33.325-14.479,33.325-32.339s-14.92-32.339-33.325-32.339-33.325,14.479-33.325,32.339h0C845.04,344.075,859.948,358.542,878.344,358.562Z" transform="translate(-842.596 -291.532)" fill="#fff"/>
            </g>
            <path id="Ligne-3" data-name="Ligne" d="M921.128,276.322l-.078-.805,4.243-.412.081.806Z" transform="translate(-865.03 -274.539)" fill="#ff5d41" stroke="#ff5d41" stroke-width="1"/>
          </g>
          <g id="M" transform="translate(15.878 25.185)">
            <path id="M_-_Contour" data-name="M - Contour" d="M862.953,312.889h10.54l11.359,18.347,11.24-18.347h10.332v41.7h-9.629v-27.1h-.06l-9.523,15.632H882.1l-9.521-15.632h-.061v27.1h-9.567Z" transform="translate(-862.605 -312.541)" fill="#fff"/>
            <path id="Tracé-33" data-name="Tracé" d="M872.716,354.788H862.453v-42.4h11.082L884.7,330.421l11.046-18.032h10.874v42.4H896.295v-26.31l-9.042,14.84h-5.5l-.1-.167-8.937-14.672Zm-9.567-.7h8.872v-27.1h.543l.162.168,9.42,15.464h4.716l9.524-15.632h.544l.061.348v26.755h8.932V313.084h-9.788L884.7,331.747l-11.553-18.663h-10Z" transform="translate(-862.453 -312.389)" fill="#101041"/>
          </g>
        </g>
      </g>
    </g>
  </g>
</svg>
