<svg xmlns="http://www.w3.org/2000/svg" width="40.333" height="40.002" viewBox="0 0 40.333 40.002">
  <g id="logo" transform="translate(0 0.002)">
    <g id="mo">
      <g id="MO-2">
        <g id="fibre">
          <path id="Ligne" d="M920.086,377.792l-.476-1.063,14.559-6.524.476,1.063Z" transform="translate(-895.26 -340.043)" fill="#101041"/>
          <path id="Ligne-2" data-name="Ligne" d="M960.654,371.5l-.167-.35,1.845-.882.167.35Z" transform="translate(-922.5 -340.1)" fill="#ff5d41" stroke="#ff5d41" stroke-width="0.5"/>
          <path id="Tracé_17" data-name="Tracé 17" d="M848.659,311.569l-.491-.3c-1.435-.87-8.615-5.641-9.248-14.213-.367-4.955,1.507-9.651,5.567-13.958,4.3-4.56,9.833-6.182,12.2-6.874a55.507,55.507,0,0,1,6.074-1.355c1.33-.223,2.677-.4,4-.524l.579-.055.115,1.1-.579.055c-1.3.123-2.618.3-3.92.514a54.255,54.255,0,0,0-5.936,1.324c-2.266.664-7.584,2.222-11.667,6.554-3.841,4.076-5.615,8.5-5.271,13.14.594,8.039,7.362,12.534,8.712,13.354l.491.3Z" transform="translate(-838.769 -274.291)" fill="#db0011"/>
          <g id="Ellipse" transform="translate(0 5.945)">
            <ellipse id="Ellipse-2" data-name="Ellipse" cx="15.893" cy="15.204" rx="15.893" ry="15.204" transform="translate(1.164 1.164)" fill="none"/>
            <path id="Ellipse-3" data-name="Ellipse" d="M855.614,293.372c9.42,0,17.057,7.328,17.058,16.368s-7.637,16.368-17.057,16.368-17.058-7.328-17.058-16.368h0C838.568,300.7,846.2,293.382,855.614,293.372Zm0,31.619c8.778,0,15.894-6.828,15.894-15.252s-7.116-15.252-15.894-15.252-15.894,6.829-15.894,15.252h0C839.73,318.159,846.84,324.982,855.614,324.991Z" transform="translate(-838.557 -293.372)" fill="#101041"/>
          </g>
          <g id="Ellipse-4" data-name="Ellipse" transform="translate(1.501 6.049)">
            <ellipse id="Ellipse-5" data-name="Ellipse" cx="15.07" cy="15.811" rx="15.07" ry="15.811" transform="translate(1.164 1.164)" fill="none"/>
            <path id="Ellipse-6" data-name="Ellipse" d="M859.291,294.418c8.966,0,16.234,7.6,16.234,16.975s-7.268,16.976-16.234,16.976-16.234-7.6-16.234-16.975h0C843.068,302.023,850.33,294.43,859.291,294.418Zm0,32.825c8.371,0,15.158-7.1,15.158-15.85s-6.786-15.85-15.158-15.85-15.158,7.1-15.158,15.85h0C844.142,320.143,850.923,327.234,859.291,327.243Z" transform="translate(-843.057 -294.418)" fill="#101041"/>
          </g>
          <g id="Ellipse-7" data-name="Ellipse" transform="translate(2.521 4.288)">
            <ellipse id="Ellipse-8" data-name="Ellipse" cx="14.76" cy="15.187" rx="14.76" ry="15.187" transform="translate(1.164 1.164)" fill="none"/>
            <path id="Ellipse-9" data-name="Ellipse" d="M862.037,287.144A16.357,16.357,0,1,1,846.113,303.5h0A16.16,16.16,0,0,1,862.037,287.144Zm0,31.6A15.254,15.254,0,1,0,847.186,303.5a15.054,15.054,0,0,0,14.851,15.249Z" transform="translate(-846.113 -287.144)" fill="#db0011"/>
          </g>
          <g id="Ellipse-10" data-name="Ellipse" transform="translate(1.348 5.752)">
            <ellipse id="Ellipse-11" data-name="Ellipse" cx="15.404" cy="15.09" rx="15.404" ry="15.09" transform="translate(1.164 1.164)" fill="none"/>
            <path id="Ellipse-12" data-name="Ellipse" d="M859.164,291.532A16.257,16.257,0,1,1,842.6,307.786h0A16.432,16.432,0,0,1,859.164,291.532Zm0,31.407a15.155,15.155,0,1,0-15.445-15.152h0A15.318,15.318,0,0,0,859.164,322.939Z" transform="translate(-842.596 -291.532)" fill="#fff"/>
          </g>
          <path id="Ligne-3" data-name="Ligne" d="M921.087,275.688l-.037-.386,2.035-.2.039.387Z" transform="translate(-893.428 -274.833)" fill="#ff5d41" stroke="#ff5d41" stroke-width="0.5"/>
        </g>
        <g id="M" transform="translate(6.975 11.624)">
          <path id="M_-_Contour" data-name="M - Contour" d="M862.953,312.889h5.056l5.448,8.8,5.391-8.8H883.8v20h-4.618v-13h-.029l-4.568,7.5h-2.451l-4.567-7.5h-.029v13h-4.589Z" transform="translate(-862.786 -312.722)" fill="#fff"/>
          <path id="Tracé_61" data-name="Tracé 61" d="M867.376,332.726h-4.923V312.389h5.315l5.354,8.649,5.3-8.649h5.216v20.336h-4.951v-12.62l-4.337,7.118h-2.638l-.048-.08-4.287-7.038Zm-4.589-.334h4.255v-13h.261l.078.08,4.518,7.418h2.262l4.568-7.5h.261l.029.167v12.833H883.3V312.723h-4.695l-5.484,8.952-5.542-8.952h-4.8Z" transform="translate(-862.453 -312.389)" fill="#101041"/>
        </g>
      </g>
    </g>
  </g>
</svg>
