<svg xmlns="http://www.w3.org/2000/svg" width="196.098" height="40.28" viewBox="0 0 196.098 40.28">
  <g id="logo" transform="translate(-50 -24.72)">
    <g id="logotype" transform="translate(88 -105.021)">
      <g id="OPÉRATEUR_DATA_SÉCURISÉ" data-name="OPÉRATEUR DATA SÉCURISÉ" transform="translate(18 156.851)" style="mix-blend-mode: normal;isolation: isolate">
        <g id="baseline" transform="translate(0)" style="mix-blend-mode: normal;isolation: isolate">
          <path id="Tracé" d="M725.145,467.423a1.754,1.754,0,0,1,.762.166,1.691,1.691,0,0,1,.588.458,2.166,2.166,0,0,1,.373.693,2.717,2.717,0,0,1,.134.865,2.6,2.6,0,0,1-.228,1.1,1.9,1.9,0,0,1-.655.79,1.77,1.77,0,0,1-1.952,0,1.878,1.878,0,0,1-.655-.787,2.611,2.611,0,0,1-.228-1.1,2.582,2.582,0,0,1,.232-1.1,1.892,1.892,0,0,1,.661-.787A1.687,1.687,0,0,1,725.145,467.423Zm0,.293a1.459,1.459,0,0,0-.658.148,1.39,1.39,0,0,0-.493.4,1.908,1.908,0,0,0-.3.6,2.475,2.475,0,0,0-.107.738,2.325,2.325,0,0,0,.187.945,1.625,1.625,0,0,0,.547.683,1.471,1.471,0,0,0,1.962-.272,2.1,2.1,0,0,0,.426-1.356,2.4,2.4,0,0,0-.187-.97,1.552,1.552,0,0,0-.544-.673A1.429,1.429,0,0,0,725.145,467.716Z" transform="translate(-723.285 -465.617)" fill="#fff" stroke="#fff" stroke-width="0.5"/>
          <path id="Tracé-2" data-name="Tracé" d="M743.188,467.623a1.388,1.388,0,0,1,1.014.4,1.487,1.487,0,0,1-.017,2.056,1.479,1.479,0,0,1-1.053.395h-1.212v1.337h-.3v-4.186Zm-1.267,2.563h1.19a1.219,1.219,0,0,0,.864-.307,1.085,1.085,0,0,0,.331-.837,1.1,1.1,0,0,0-.312-.829,1.161,1.161,0,0,0-.844-.3h-1.228Z" transform="translate(-734.218 -465.728)" fill="#fff" stroke="#fff" stroke-width="0.5"/>
          <path id="Tracé-3" data-name="Tracé" d="M760.483,465.224v.281h-2.39V467.1h2.086v.281h-2.086v1.745h2.5v.287h-2.8v-4.186Zm-.7-1.739-.514,1.031h-.24l.491-1.187Z" transform="translate(-743.86 -463.329)" fill="#fff" stroke="#fff" stroke-width="0.5"/>
          <path id="Tracé-4" data-name="Tracé" d="M775.179,467.623a1.361,1.361,0,0,1,.98.368,1.261,1.261,0,0,1,.386.957,1.316,1.316,0,0,1-.278.83,1.3,1.3,0,0,1-.716.47l1.058,1.562h-.372l-.991-1.492h-1.382v1.492h-.3v-4.186Zm-1.315,2.4h1.245a1.131,1.131,0,0,0,.828-.3,1.047,1.047,0,0,0,.306-.78.985.985,0,0,0-.3-.766,1.162,1.162,0,0,0-.814-.272h-1.268Z" transform="translate(-753.263 -465.728)" fill="#fff" stroke="#fff" stroke-width="0.5"/>
          <path id="Tracé-5" data-name="Tracé" d="M791.2,467.6l1.675,4.2h-.315l-.416-1.055h-2.312l-.416,1.055h-.31l1.675-4.2Zm-1.254,2.85h2.078l-.991-2.52h-.089Z" transform="translate(-763.154 -465.713)" fill="#fff" stroke="#fff" stroke-width="0.5"/>
          <path id="Tracé-6" data-name="Tracé" d="M809.855,467.623v.287h-1.528v3.9h-.3v-3.9H806.5v-.287Z" transform="translate(-773.694 -465.728)" fill="#fff" stroke="#fff" stroke-width="0.5"/>
          <path id="Tracé-7" data-name="Tracé" d="M826.194,467.623v.281H823.8V469.5h2.086v.281H823.8v1.745h2.5v.287h-2.8v-4.186Z" transform="translate(-783.988 -465.728)" fill="#fff" stroke="#fff" stroke-width="0.5"/>
          <path id="Tracé-8" data-name="Tracé" d="M839.575,467.623v2.243a2.022,2.022,0,0,0,.362,1.289,1.2,1.2,0,0,0,.992.453,1.23,1.23,0,0,0,.994-.432,1.979,1.979,0,0,0,.363-1.3v-2.255h.3v2.243a2.347,2.347,0,0,1-.428,1.486,1.654,1.654,0,0,1-2.448.009,2.291,2.291,0,0,1-.43-1.471v-2.267Z" transform="translate(-793.544 -465.728)" fill="#fff" stroke="#fff" stroke-width="0.5"/>
          <path id="Tracé-9" data-name="Tracé" d="M858.28,467.623a1.361,1.361,0,0,1,.98.368,1.262,1.262,0,0,1,.385.957,1.314,1.314,0,0,1-.278.83,1.3,1.3,0,0,1-.716.47l1.058,1.562h-.371l-.991-1.492h-1.382v1.492h-.3v-4.186Zm-1.315,2.4h1.245a1.13,1.13,0,0,0,.828-.3,1.045,1.045,0,0,0,.306-.78.984.984,0,0,0-.3-.766,1.162,1.162,0,0,0-.814-.272h-1.268Z" transform="translate(-804.076 -465.728)" fill="#fff" stroke="#fff" stroke-width="0.5"/>
          <path id="Tracé-10" data-name="Tracé" d="M885.066,467.623a2.089,2.089,0,0,1,1.066.267,1.794,1.794,0,0,1,.707.742,2.322,2.322,0,0,1,.246,1.085,2.246,2.246,0,0,1-.256,1.08,1.859,1.859,0,0,1-.72.745,2.081,2.081,0,0,1-1.06.268h-1.31v-4.186Zm-1.028,3.893h1.011a1.832,1.832,0,0,0,.9-.215,1.529,1.529,0,0,0,.616-.627,1.985,1.985,0,0,0,.223-.958,1.8,1.8,0,0,0-.468-1.333,1.721,1.721,0,0,0-1.272-.467h-1.005Z" transform="translate(-820.478 -465.728)" fill="#fff" stroke="#fff" stroke-width="0.5"/>
          <path id="Tracé-11" data-name="Tracé" d="M902.261,467.6l1.675,4.2h-.315l-.416-1.055h-2.312l-.416,1.055h-.31l1.676-4.2Zm-1.254,2.85h2.078l-.991-2.52H902Z" transform="translate(-830.434 -465.713)" fill="#fff" stroke="#fff" stroke-width="0.5"/>
          <path id="Tracé-12" data-name="Tracé" d="M920.922,467.623v.287h-1.528v3.9h-.3v-3.9h-1.525v-.287Z" transform="translate(-840.971 -465.728)" fill="#fff" stroke="#fff" stroke-width="0.5"/>
          <path id="Tracé-13" data-name="Tracé" d="M936.031,467.6l1.675,4.2h-.315l-.416-1.055h-2.312l-.416,1.055h-.31l1.675-4.2Zm-1.254,2.85h2.077l-.991-2.52h-.089Z" transform="translate(-850.89 -465.713)" fill="#fff" stroke="#fff" stroke-width="0.5"/>
          <path id="Tracé-14" data-name="Tracé" d="M963.792,467.71a1.246,1.246,0,0,0-.825.23.754.754,0,0,0-.27.6.686.686,0,0,0,.205.534,1.244,1.244,0,0,0,.63.259l.642.1a1.513,1.513,0,0,1,.853.369,1.014,1.014,0,0,1,.3.765,1.068,1.068,0,0,1-.432.87,1.817,1.817,0,0,1-1.166.345,2.611,2.611,0,0,1-.8-.113,2.2,2.2,0,0,1-.69-.376l.153-.256a2.017,2.017,0,0,0,.631.35,2.353,2.353,0,0,0,.712.1,1.544,1.544,0,0,0,.948-.256.8.8,0,0,0,.34-.674.745.745,0,0,0-.218-.551,1.18,1.18,0,0,0-.681-.286l-.673-.1q-1.053-.159-1.053-1.074a1,1,0,0,1,.38-.824,1.568,1.568,0,0,1,1.005-.3,2.533,2.533,0,0,1,.737.11,1.877,1.877,0,0,1,.628.32l-.159.244a1.843,1.843,0,0,0-.557-.285A2.079,2.079,0,0,0,963.792,467.71Z" transform="translate(-868.025 -465.617)" fill="#fff" stroke="#fff" stroke-width="0.5"/>
          <path id="Tracé-15" data-name="Tracé" d="M981.338,465.224v.281h-2.39V467.1h2.085v.281h-2.085v1.745h2.5v.287h-2.8v-4.186Zm-.7-1.739-.514,1.031h-.24l.491-1.187Z" transform="translate(-877.958 -463.329)" fill="#fff" stroke="#fff" stroke-width="0.5"/>
          <path id="Tracé-16" data-name="Tracé" d="M996.039,467.71a1.629,1.629,0,0,0-1.255.525,2.188,2.188,0,0,0,0,2.746,1.622,1.622,0,0,0,1.238.516,1.91,1.91,0,0,0,1.354-.549l.179.22a2.14,2.14,0,0,1-1.561.619,2.04,2.04,0,0,1-1.039-.259,1.788,1.788,0,0,1-.7-.754,2.694,2.694,0,0,1-.106-2.023,2.091,2.091,0,0,1,.416-.7,1.871,1.871,0,0,1,.665-.462,2.2,2.2,0,0,1,.869-.168,1.986,1.986,0,0,1,.731.148,2.106,2.106,0,0,1,.642.389l-.159.232A1.826,1.826,0,0,0,996.039,467.71Z" transform="translate(-887.269 -465.617)" fill="#fff" stroke="#fff" stroke-width="0.5"/>
          <path id="Tracé-17" data-name="Tracé" d="M1011.742,467.623v2.243a2.022,2.022,0,0,0,.361,1.289,1.2,1.2,0,0,0,.993.453,1.231,1.231,0,0,0,.994-.432,1.981,1.981,0,0,0,.363-1.3v-2.255h.3v2.243a2.345,2.345,0,0,1-.429,1.486,1.653,1.653,0,0,1-2.447.009,2.29,2.29,0,0,1-.43-1.471v-2.267Z" transform="translate(-898.385 -465.728)" fill="#fff" stroke="#fff" stroke-width="0.5"/>
          <path id="Tracé-18" data-name="Tracé" d="M1030.446,467.623a1.361,1.361,0,0,1,.98.368,1.262,1.262,0,0,1,.385.957,1.313,1.313,0,0,1-.278.83,1.293,1.293,0,0,1-.716.47l1.058,1.562h-.371l-.991-1.492h-1.382v1.492h-.3v-4.186Zm-1.315,2.4h1.245a1.13,1.13,0,0,0,.828-.3,1.046,1.046,0,0,0,.306-.78.984.984,0,0,0-.3-.766,1.163,1.163,0,0,0-.814-.272h-1.268Z" transform="translate(-908.753 -465.728)" fill="#fff" stroke="#fff" stroke-width="0.5"/>
          <path id="Tracé-19" data-name="Tracé" d="M1045.3,467.623v4.186h-.3v-4.186Z" transform="translate(-918.395 -465.728)" fill="#fff" stroke="#fff" stroke-width="0.5"/>
          <path id="Tracé-20" data-name="Tracé" d="M1056,467.71a1.249,1.249,0,0,0-.825.23.756.756,0,0,0-.269.6.684.684,0,0,0,.205.534,1.245,1.245,0,0,0,.63.259l.642.1a1.511,1.511,0,0,1,.853.369,1.014,1.014,0,0,1,.3.765,1.067,1.067,0,0,1-.431.87,1.814,1.814,0,0,1-1.166.345,2.614,2.614,0,0,1-.8-.113,2.212,2.212,0,0,1-.69-.376l.154-.256a2.014,2.014,0,0,0,.631.35,2.352,2.352,0,0,0,.712.1,1.544,1.544,0,0,0,.948-.256.806.806,0,0,0,.339-.674.745.745,0,0,0-.218-.551,1.181,1.181,0,0,0-.681-.286l-.673-.1q-1.052-.159-1.053-1.074a1,1,0,0,1,.38-.824,1.57,1.57,0,0,1,1.005-.3,2.534,2.534,0,0,1,.738.11,1.873,1.873,0,0,1,.628.32l-.16.244a1.833,1.833,0,0,0-.557-.285A2.078,2.078,0,0,0,1056,467.71Z" transform="translate(-924.029 -465.617)" fill="#fff" stroke="#fff" stroke-width="0.5"/>
          <path id="Tracé-21" data-name="Tracé" d="M1073.55,465.224v.281h-2.391V467.1h2.086v.281h-2.086v1.745h2.5v.287h-2.8v-4.186Zm-.7-1.739-.514,1.031h-.24l.491-1.187Z" transform="translate(-933.811 -463.329)" fill="#fff" stroke="#fff" stroke-width="0.5"/>
        </g>
      </g>
      <g id="METRO_OPTIC" data-name="METRO OPTIC" transform="translate(18.696 138.021)" style="mix-blend-mode: normal;isolation: isolate">
        <g id="nom" transform="translate(0)" style="mix-blend-mode: normal;isolation: isolate">
          <path id="Tracé-22" data-name="Tracé" d="M727.243,421.158l3.763,6.643,3.723-6.643h3.216V435.81H735v-9.665h-.176l-3.108,5.575h-1.554l-3.108-5.575h-.176v9.665h-2.922V421.158Z" transform="translate(-723.959 -420.848)" fill="#fff"/>
          <path id="Tracé-23" data-name="Tracé" d="M776.415,421.158v2.948h-7.066v2.755h6.3v2.873h-6.3v3.129h7.408v2.947H766.388V421.158Z" transform="translate(-749.256 -420.848)" fill="#fff"/>
          <path id="Tracé-24" data-name="Tracé" d="M809.009,421.158v2.969h-4.584V435.81h-2.981V424.127h-4.583v-2.969Z" transform="translate(-768.168 -420.848)" fill="#fff"/>
          <path id="Tracé-25" data-name="Tracé" d="M839.008,421.158a5.3,5.3,0,0,1,3.782,1.362,4.745,4.745,0,0,1,1.446,3.626,4.924,4.924,0,0,1-.718,2.659,4.551,4.551,0,0,1-2.028,1.752l3.264,5.254H841.11l-2.463-4.379h-2.7v4.379h-3V421.158Zm-3.059,7.369h2.844a2.443,2.443,0,0,0,1.73-.6,2.118,2.118,0,0,0,.645-1.634,2.15,2.15,0,0,0-.606-1.628,2.339,2.339,0,0,0-1.69-.582h-2.922Z" transform="translate(-790.049 -420.848)" fill="#fff"/>
          <path id="Tracé-26" data-name="Tracé" d="M873.576,420.456a7.172,7.172,0,0,1,2.9.582,6.557,6.557,0,0,1,2.258,1.6,7.351,7.351,0,0,1,1.446,2.424,8.654,8.654,0,0,1,.523,3.033,8.381,8.381,0,0,1-.523,2.958,7.625,7.625,0,0,1-1.446,2.435,6.631,6.631,0,0,1-2.268,1.64,7.246,7.246,0,0,1-5.752.016,6.68,6.68,0,0,1-2.258-1.6A7.367,7.367,0,0,1,867,431.114a8.552,8.552,0,0,1-.528-3.022,8.258,8.258,0,0,1,.9-3.839,6.968,6.968,0,0,1,2.536-2.771A6.771,6.771,0,0,1,873.576,420.456Zm0,2.937a3.882,3.882,0,0,0-2.2.635,3.989,3.989,0,0,0-1.437,1.693,5.631,5.631,0,0,0-.484,2.371,5.037,5.037,0,0,0,1.124,3.369,3.728,3.728,0,0,0,3,1.33,3.881,3.881,0,0,0,2.233-.646,3.96,3.96,0,0,0,1.422-1.7,5.716,5.716,0,0,0,.469-2.355,5.054,5.054,0,0,0-1.114-3.385A3.744,3.744,0,0,0,873.576,423.393Z" transform="translate(-810.404 -420.456)" fill="#fff"/>
          <path id="Tracé-27" data-name="Tracé" d="M928.616,420.456a7.17,7.17,0,0,1,2.9.582,6.558,6.558,0,0,1,2.258,1.6,7.352,7.352,0,0,1,1.446,2.424,8.66,8.66,0,0,1,.523,3.033,8.386,8.386,0,0,1-.523,2.958,7.626,7.626,0,0,1-1.446,2.435,6.631,6.631,0,0,1-2.268,1.64,7.245,7.245,0,0,1-5.751.016,6.67,6.67,0,0,1-2.257-1.6,7.375,7.375,0,0,1-1.456-2.424,8.552,8.552,0,0,1-.528-3.022,8.26,8.26,0,0,1,.9-3.839,6.969,6.969,0,0,1,2.536-2.771A6.771,6.771,0,0,1,928.616,420.456Zm0,2.937a3.884,3.884,0,0,0-2.2.635,3.989,3.989,0,0,0-1.437,1.693,5.634,5.634,0,0,0-.483,2.371,5.036,5.036,0,0,0,1.124,3.369,3.729,3.729,0,0,0,3,1.33,3.88,3.88,0,0,0,2.233-.646,3.963,3.963,0,0,0,1.422-1.7,5.721,5.721,0,0,0,.469-2.355,5.054,5.054,0,0,0-1.115-3.385A3.743,3.743,0,0,0,928.616,423.393Z" transform="translate(-843.79 -420.456)" fill="#fff"/>
          <path id="Tracé-28" data-name="Tracé" d="M968.958,421.158a5.288,5.288,0,0,1,3.875,1.447,5.144,5.144,0,0,1,1.471,3.839,5.471,5.471,0,0,1-.743,2.878,4.779,4.779,0,0,1-2,1.858,6.323,6.323,0,0,1-2.844.624H966v4.005h-3V421.158ZM966,428.9h2.717a2.628,2.628,0,0,0,1.881-.651,2.324,2.324,0,0,0,.689-1.773,2.4,2.4,0,0,0-.625-1.757,2.442,2.442,0,0,0-1.818-.635H966Z" transform="translate(-868.9 -420.848)" fill="#fff"/>
          <path id="Tracé-29" data-name="Tracé" d="M1007.65,421.158v2.969h-4.584V435.81h-2.981V424.127H995.5v-2.969Z" transform="translate(-889.153 -420.848)" fill="#fff"/>
          <path id="Tracé-30" data-name="Tracé" d="M1034.609,421.158V435.81h-3.02V421.158Z" transform="translate(-910.669 -420.848)" fill="#fff"/>
          <path id="Tracé-31" data-name="Tracé" d="M1056.244,424.856a5.064,5.064,0,0,0-3.636-1.4,4.005,4.005,0,0,0-3.117,1.292,5.347,5.347,0,0,0,.009,6.7,3.984,3.984,0,0,0,3.069,1.282,5.227,5.227,0,0,0,3.9-1.666l1.7,2.3a7.714,7.714,0,0,1-5.766,2.371,7.191,7.191,0,0,1-3.675-.929,6.379,6.379,0,0,1-2.5-2.659,8.6,8.6,0,0,1-.894-4,8.512,8.512,0,0,1,.518-2.98,7.483,7.483,0,0,1,1.456-2.44,6.68,6.68,0,0,1,2.341-1.65,7.636,7.636,0,0,1,3.074-.609,7.167,7.167,0,0,1,5.18,2.019Z" transform="translate(-918.865 -420.456)" fill="#fff"/>
        </g>
      </g>
    </g>
    <g id="logo-2" data-name="logo" transform="translate(-786.113 -249.291)">
      <g id="mo" transform="translate(836.113 274.291)">
        <g id="MO-2">
          <g id="fibre">
            <path id="Ligne" d="M920.077,377.65l-.467-1.043,14.286-6.4.468,1.043Z" transform="translate(-893.967 -339.859)" fill="#101041"/>
            <path id="Ligne-2" data-name="Ligne" d="M960.651,371.482l-.164-.344,1.811-.866.164.344Z" transform="translate(-921.462 -339.681)" fill="#ff5d41" stroke="#ff5d41" stroke-width="1"/>
            <path id="Tracé-32" data-name="Tracé" d="M848.476,311.62l-.482-.3c-1.408-.871-8.453-5.649-9.075-14.232-.36-4.961,1.478-9.664,5.462-13.977,4.217-4.567,9.648-6.19,11.967-6.884a53.53,53.53,0,0,1,5.96-1.357c1.3-.223,2.627-.4,3.929-.525l.568-.055.113,1.106-.568.055c-1.274.124-2.569.3-3.847.514a52.3,52.3,0,0,0-5.825,1.325c-2.224.665-7.442,2.225-11.448,6.563-3.769,4.081-5.51,8.508-5.173,13.158.583,8.05,7.224,12.551,8.549,13.372l.482.3Z" transform="translate(-838.771 -274.291)" fill="#db0011"/>
            <g id="Ellipse" transform="translate(0 5.834)">
              <ellipse id="Ellipse-2" data-name="Ellipse" cx="15.614" cy="15.293" rx="15.614" ry="15.293" transform="translate(1.143 1.143)" fill="none"/>
              <path id="Ellipse-3" data-name="Ellipse" d="M855.313,293.372a16.439,16.439,0,1,1-16.756,16.436h0A16.617,16.617,0,0,1,855.313,293.372Zm0,31.751A15.318,15.318,0,1,0,839.7,309.807h0A15.484,15.484,0,0,0,855.313,325.123Z" transform="translate(-838.557 -293.372)" fill="#101041"/>
            </g>
            <g id="Ellipse-4" data-name="Ellipse" transform="translate(1.473 5.535)">
              <ellipse id="Ellipse-5" data-name="Ellipse" cx="15.644" cy="16.09" rx="15.644" ry="16.09" transform="translate(1.143 1.143)" fill="none"/>
              <path id="Ellipse-6" data-name="Ellipse" d="M859.843,294.418a17.238,17.238,0,1,1-16.786,17.233h0A17.034,17.034,0,0,1,859.843,294.418Zm0,33.322a16.1,16.1,0,1,0-15.673-16.09h0A15.9,15.9,0,0,0,859.843,327.74Z" transform="translate(-843.057 -294.418)" fill="#101041"/>
            </g>
            <g id="Ellipse-7" data-name="Ellipse" transform="translate(2.474 4.208)">
              <ellipse id="Ellipse-8" data-name="Ellipse" cx="15.358" cy="15.277" rx="15.358" ry="15.277" transform="translate(1.143 1.143)" fill="none"/>
              <path id="Ellipse-9" data-name="Ellipse" d="M862.613,287.144a16.42,16.42,0,1,1-16.5,16.42h0A16.479,16.479,0,0,1,862.613,287.144Zm0,31.732a15.313,15.313,0,1,0-15.388-15.313,15.35,15.35,0,0,0,15.388,15.313Z" transform="translate(-846.113 -287.144)" fill="#db0011"/>
            </g>
            <g id="Ellipse-10" data-name="Ellipse" transform="translate(1.322 5.644)">
              <ellipse id="Ellipse-11" data-name="Ellipse" cx="15.709" cy="15.182" rx="15.709" ry="15.182" transform="translate(1.143 1.143)" fill="none"/>
              <path id="Ellipse-12" data-name="Ellipse" d="M859.447,291.532A16.333,16.333,0,1,1,842.6,307.856h0A16.613,16.613,0,0,1,859.447,291.532Zm0,31.542a15.225,15.225,0,1,0-15.709-15.218h0A15.486,15.486,0,0,0,859.447,323.074Z" transform="translate(-842.596 -291.532)" fill="#fff"/>
            </g>
            <path id="Ligne-3" data-name="Ligne" d="M921.087,275.677l-.037-.379,2-.194.038.379Z" transform="translate(-894.648 -274.838)" fill="#ff5d41" stroke="#ff5d41" stroke-width="1"/>
          </g>
          <g id="M" transform="translate(7.492 11.849)">
            <path id="M_-_Contour" data-name="M - Contour" d="M862.953,312.889h4.961l5.346,8.636,5.29-8.636h4.863v19.628h-4.532V319.761h-.029l-4.482,7.358h-2.4l-4.481-7.358h-.029v12.757h-4.5Z" transform="translate(-862.789 -312.725)" fill="#fff"/>
            <path id="Tracé-33" data-name="Tracé" d="M867.284,332.345h-4.831V312.389h5.216l5.254,8.487,5.2-8.487h5.118v19.956h-4.859V319.961l-4.256,6.985h-2.588l-.047-.079-4.207-6.906Zm-4.5-.327h4.176V319.261h.256l.076.079,4.434,7.279h2.22l4.482-7.358h.256l.029.164v12.593h4.2v-19.3h-4.607l-5.382,8.784-5.438-8.784H862.78Z" transform="translate(-862.453 -312.389)" fill="#101041"/>
          </g>
        </g>
      </g>
    </g>
  </g>
</svg>
