<svg xmlns="http://www.w3.org/2000/svg" xmlns:xlink="http://www.w3.org/1999/xlink" width="540" height="540" viewBox="0 0 540 540">
  <defs>
    <clipPath id="clip-path">
      <path id="Tracé_784" data-name="Tracé 784" d="M313.187,786.613c0,105.72,85.7,191.423,191.423,191.423s191.423-85.7,191.423-191.423S610.33,595.19,504.61,595.19s-191.423,85.7-191.423,191.423" transform="translate(-313.187 -595.19)" fill="none"/>
    </clipPath>
    <clipPath id="clip-path-2">
      <path id="Tracé_785" data-name="Tracé 785" d="M489.481,7.725A78.223,78.223,0,0,1,466.7,10.4c-5.457-.053-9.312-.107-14.281,2.97-9.443,5.848-5.308,12.252-14.478,19.11-7.736,5.786-15.679,5.3-23.016,4.824-6.76-.443-13.006-.886-18.1,3.573-10.048,8.8-10.279,31.2.289,43.433,11.981,13.863,33.585,9.7,48.065,6.949a88.5,88.5,0,0,0,34.456-15.635,91.751,91.751,0,0,0,18.821-18.676,6.792,6.792,0,0,1,4.2-2.461c2.247-.24,4.052,1.135,4.922,1.737,4.568,3.163,12.509,5.263,15.491,3.33,3.036-1.968.27-7.693.106-19.992-.2-15.07,3.8-17.879.587-23.791-3.931-7.23-13.827-10.222-20.383-10.363-.5-.011-.862-.111-1.617-.111-1.447,0-4.323.366-12.281,2.427" transform="translate(-389.239 -5.298)" fill="none"/>
    </clipPath>
    <linearGradient id="linear-gradient" x1="-0.353" y1="3.673" x2="-0.352" y2="3.673" gradientUnits="objectBoundingBox">
      <stop offset="0" stop-color="#311944"/>
      <stop offset="1" stop-color="#6b3976"/>
    </linearGradient>
    <clipPath id="clip-path-3">
      <path id="Tracé_786" data-name="Tracé 786" d="M1007.095,236.812c-4.879,4.445,6.708,24.423,15.428,39.457,8.689,14.98,13.213,22.587,22,28.328,12.657,8.264,26.223,8.509,33.134,8.093l3.035-7.588c-14.292-7.784-22.359-16.669-27.064-23.269-9.464-13.276-8.63-21.941-19.475-32.627-7.532-7.422-18.191-13.351-23.98-13.351a4.466,4.466,0,0,0-3.083.956" transform="translate(-1005.938 -235.856)" fill="none"/>
    </clipPath>
    <linearGradient id="linear-gradient-2" x1="-2.457" y1="6.414" x2="-2.454" y2="6.414" gradientUnits="objectBoundingBox">
      <stop offset="0" stop-color="#ffc444"/>
      <stop offset="0.996" stop-color="#f36f56"/>
      <stop offset="1" stop-color="#f36f56"/>
    </linearGradient>
    <clipPath id="clip-path-4">
      <path id="Tracé_787" data-name="Tracé 787" d="M1368.623,1240.692c-.176,4.193,7.973,13.563,13.127,17.284.856.618,2.076,1.441,2.817,1.017,1.255-.718.375-4.575-.393-7.257l-4.438-9.43a8.162,8.162,0,0,0-2.844-3.306l-2.2-1.471h-.091c-.7,0-5.226.118-5.98,3.164" transform="translate(-1368.62 -1237.528)" fill="none"/>
    </clipPath>
    <linearGradient id="linear-gradient-3" x1="-9.404" y1="11.355" x2="-9.397" y2="11.355" xlink:href="#linear-gradient"/>
    <clipPath id="clip-path-5">
      <rect id="Rectangle" width="540" height="540" fill="none"/>
    </clipPath>
    <clipPath id="clip-path-6">
      <path id="Tracé_789" data-name="Tracé 789" d="M1399.252,1033.932s1.4,4.524,2.6,7.7,9.8,12.57,10.6,6.144-4.113-12.288-4.113-12.288a5.163,5.163,0,0,0-4.69-2.842,9.432,9.432,0,0,0-4.4,1.288" transform="translate(-1399.252 -1032.644)" fill="none"/>
    </clipPath>
    <linearGradient id="linear-gradient-4" x1="-19.522" y1="15.765" x2="-19.508" y2="15.765" xlink:href="#linear-gradient"/>
    <clipPath id="clip-path-8">
      <path id="Tracé_791" data-name="Tracé 791" d="M1230.081,683.6c-.321,7.8,10.307,11.925,20.3,23.333,6,6.847,12.4,17.05,16.045,32.5l4.532-1.651a51.064,51.064,0,0,0,4.273-24.972c-2.471-27.638-28.033-42.284-30.873-43.852-6.965,3.494-14.019,8.424-14.275,14.639" transform="translate(-1230.074 -668.959)" fill="none"/>
    </clipPath>
    <linearGradient id="linear-gradient-5" x1="-2.902" y1="7.004" x2="-2.9" y2="7.004" gradientUnits="objectBoundingBox">
      <stop offset="0" stop-color="#ab316d"/>
      <stop offset="1" stop-color="#792d3d"/>
    </linearGradient>
    <clipPath id="clip-path-9">
      <path id="Tracé_792" data-name="Tracé 792" d="M819.891,592.11c-1.183,1.56-4.146,4.942-4.719,9.93-1.293,11.253,9.764,24.8,22.171,27.63,7.543,1.72,13.571-1.088,19.336-3.9,6.288-3.062,12.263-6.124,19.551-3.313,3.908,1.507,7.221,5.241,13.848,12.709a105.655,105.655,0,0,1,14.962,21.776c5.338,10.446,9.387,18.157,9.977,28.151a27.012,27.012,0,0,0,2.947,12.1,25.233,25.233,0,0,0,7.041,8.094l5.858.442a110.213,110.213,0,0,0,2.276-44.578c-2.177-13.855-6.6-42.037-25.419-52.546-4.109-2.295-9.983-4.35-17.142-10.73a60.723,60.723,0,0,1-12.071-14.879,91.747,91.747,0,0,0-25.569-3.934c-14.441,0-26.441,4.334-33.047,13.039" transform="translate(-815.069 -579.071)" fill="none"/>
    </clipPath>
    <linearGradient id="linear-gradient-6" x1="-0.918" y1="2.818" x2="-0.917" y2="2.818" xlink:href="#linear-gradient-5"/>
    <clipPath id="clip-path-11">
      <rect id="Rectangle-4" data-name="Rectangle" width="113.567" height="61.096" fill="none"/>
    </clipPath>
    <clipPath id="clip-path-12">
      <path id="Tracé_793" data-name="Tracé 793" d="M815.172,601.973c.572-4.973,3.529-8.345,4.71-9.9,10.222-13.456,33.388-16.438,58.5-9.078a60.555,60.555,0,0,0,12.048,14.835c7.146,6.361,13.008,8.41,17.109,10.7,11.468,6.4,17.575,19.365,21.091,31.64-5.217-8.081-9.683-10.229-13.139-10.267-4.947-.055-7.157,4.17-13.064,3.593-6.313-.616-7.757-5.831-12.875-6.43a9.542,9.542,0,0,0-5.681,1.261c-3.021-3.16-5.272-5.03-7.762-5.989-13.944-5.371-23.075,10.772-38.813,7.187-12.384-2.821-23.42-16.329-22.129-27.549" transform="translate(-815.069 -579.072)" fill="none"/>
    </clipPath>
    <linearGradient id="linear-gradient-7" x1="-1.169" y1="4.647" x2="-1.168" y2="4.647" xlink:href="#linear-gradient-5"/>
    <clipPath id="clip-path-13">
      <path id="Tracé_794" data-name="Tracé 794" d="M804.226,655.615c-7.434,6.148-8.462,21.778-1.666,30.85,9.467,12.635,31.323,9.443,36.232,8.726,20.752-3.03,27.673-15.45,52.782-17.932a82.912,82.912,0,0,1,12.525-.284c.119-12.219-3.868-17.542-6.594-20.02-4.331-3.937-8.826-3.735-23.935-3.533-5.279.071-11.854.141-20.171.035-7.588-.1-15.176-.121-22.764-.19-4.576-.041-8.273-.077-11.291-.077-10.273,0-12.686.414-15.118,2.425" transform="translate(-798.009 -653.191)" fill="none"/>
    </clipPath>
    <linearGradient id="linear-gradient-8" x1="-2.754" y1="3.909" x2="-2.75" y2="3.909" xlink:href="#linear-gradient-5"/>
    <clipPath id="clip-path-14">
      <path id="Tracé_795" data-name="Tracé 795" d="M751.981,243.818c-2.05,2.32-3.671,5.372-4.85,11.262-6.01,30.017,16.722,48.047,7.766,63.882-3.556,6.288-9.82,8.183-14.272,19.484-.753,1.913-3.479,8.834-.978,11.014,1.217,1.061,2.868.3,5.187-.465a15.68,15.68,0,0,1,7.073-.886c6.815.829,8.407,6.064,12.992,5.3,2.99-.5,4.278-3.049,8.682-9.413,6.376-9.212,9.564-13.818,11.849-15.433,4.518-3.193,8.522-2.7,12.685-2.206,4.147.491,8.452.982,13.582-2.166,3.722-2.285,17.515-20.042,13.457-15.164-9.658-12.049-11.9-21.989-12.133-28.9-.253-7.578,1.931-11.022,0-19.979a44.924,44.924,0,0,0-9.928-18.577c-1.116-1.232-2.446-2.515-14.595-3a63.713,63.713,0,0,0-15.912-2.149c-7.3,0-15.46,1.57-20.606,7.4" transform="translate(-738.612 -236.423)" fill="none"/>
    </clipPath>
    <linearGradient id="linear-gradient-9" x1="-1.551" y1="4.207" x2="-1.549" y2="4.207" xlink:href="#linear-gradient-2"/>
    <clipPath id="clip-path-16">
      <rect id="Rectangle-6" data-name="Rectangle" width="87.115" height="76.777" fill="none"/>
    </clipPath>
    <clipPath id="clip-path-17">
      <path id="Tracé_798" data-name="Tracé 798" d="M824.99,473.939c-1.16-1.445-2.207-2.859-3.162-4.242a50.359,50.359,0,0,0-13.626-2.621c-8.369-.406-12.952,1.562-18.649-1.863-6.467-3.887-5.322-9.283-11.562-12.3-6.568-3.17-11.211.412-17.53-.745-3.816-.7-8.464-3.248-13.207-10.684,3.632,17.9,14.2,30.725,7.612,42.354-3.55,6.27-9.8,8.159-14.245,19.427-.752,1.907-3.473,8.807-.976,10.982,2.2,1.915,5.814-2.128,12.237-1.347,6.8.827,8.391,6.046,12.967,5.286,2.984-.5,4.27-3.04,8.666-9.385,6.364-9.185,9.545-13.777,11.826-15.388,9-6.353,15.955,1.932,26.217-4.359,3.716-2.278,17.481-19.983,13.432-15.12" transform="translate(-738.613 -441.489)" fill="none"/>
    </clipPath>
    <linearGradient id="linear-gradient-10" x1="-1.551" y1="5.861" x2="-1.549" y2="5.861" xlink:href="#linear-gradient-2"/>
    <clipPath id="clip-path-18">
      <path id="Tracé_799" data-name="Tracé 799" d="M911.426,626.654a2.409,2.409,0,0,0-1.928,1.133l-1.587,2.547a1.863,1.863,0,0,0,1.652,2.847l60.762-2.315-1.536-7Z" transform="translate(-907.626 -623.863)" fill="none"/>
    </clipPath>
    <linearGradient id="linear-gradient-11" x1="-2.797" y1="44.769" x2="-2.794" y2="44.769" gradientUnits="objectBoundingBox">
      <stop offset="0" stop-color="#40447e"/>
      <stop offset="0.996" stop-color="#3c3b6b"/>
      <stop offset="1" stop-color="#3c3b6b"/>
    </linearGradient>
    <clipPath id="clip-path-19">
      <path id="Tracé_800" data-name="Tracé 800" d="M1180.1,460.341l-59.264,1.148a4.971,4.971,0,0,0-4.226,2.514l-20.522,36.107,62.59-2.494a5.094,5.094,0,0,0,4.169-2.474l19.014-31.765a2.006,2.006,0,0,0-1.719-3.037h-.041" transform="translate(-1096.084 -460.341)" fill="none"/>
    </clipPath>
    <linearGradient id="linear-gradient-12" x1="-2.377" y1="5.34" x2="-2.375" y2="5.34" xlink:href="#linear-gradient-11"/>
    <clipPath id="clip-path-21">
      <rect id="Rectangle-8" data-name="Rectangle" width="67.881" height="38.533" fill="none"/>
    </clipPath>
    <clipPath id="clip-path-22">
      <path id="Tracé_801" data-name="Tracé 801" d="M1116.567,468.625a4.962,4.962,0,0,1,4.218-2.507l1.3-.025a9.2,9.2,0,0,0,1.947,5.061c3.647,4.4,9.707,1.685,14.224,6.339,4.961,5.112.378,11.2,4.814,15.957,4.669,5.008,12.219.93,20.9,4.135l-1.25,2.086a5.084,5.084,0,0,1-4.16,2.467l-62.47,2.486Z" transform="translate(-1096.084 -466.093)" fill="none"/>
    </clipPath>
    <linearGradient id="linear-gradient-13" x1="-2.786" y1="6.224" x2="-2.784" y2="6.224" xlink:href="#linear-gradient-11"/>
    <clipPath id="clip-path-23">
      <path id="Tracé_802" data-name="Tracé 802" d="M643.491,321.411c7.91,11.622,32.3,13.472,57.674,4.219l2.24-5.915c-8.252-2.263-19.665-5.605-31.371-9.788-1.833-.655-4.012-1.467-4.725-3.4-2-5.412,10.723-11.02,15.67-22.836,4.575-10.929,2.057-26.094-3.253-27.886a4.123,4.123,0,0,0-1.32-.2c-12.52,0-48.4,46-34.916,65.8" transform="translate(-640.509 -255.607)" fill="none"/>
    </clipPath>
    <linearGradient id="linear-gradient-14" x1="-1.102" y1="5.103" x2="-1.1" y2="5.103" xlink:href="#linear-gradient-2"/>
    <clipPath id="clip-path-25">
      <path id="Tracé_804" data-name="Tracé 804" d="M1672.212,1815.921c-8.512,13.866-10.349,33.6-4.075,37.077,7.421,4.113,25.614-14.838,35.04-28.114,2.6-3.659,18.6-26.187,13.038-32.188-1.078-1.164-2.985-1.727-5.446-1.727-9.934,0-28.872,9.171-38.558,24.951" transform="translate(-1664.41 -1790.97)" fill="none"/>
    </clipPath>
    <linearGradient id="linear-gradient-15" x1="-3.506" y1="2.282" x2="-3.504" y2="2.282" gradientUnits="objectBoundingBox">
      <stop offset="0" stop-color="#aa80f9"/>
      <stop offset="0.996" stop-color="#6165d7"/>
      <stop offset="1" stop-color="#6165d7"/>
    </linearGradient>
    <clipPath id="clip-path-26">
      <path id="Tracé_805" data-name="Tracé 805" d="M1262.456,2686.488c-1.151.063-1.138.163-6.655,1.359-3.887.844-5.046,1.043-5.144,1.667-.14.887,1.973,1.966,3.183,2.449a9.878,9.878,0,0,0,4.8.576,29.69,29.69,0,0,1,4.059.038c4.259.341,5.661,1.365,6.783.328,1.141-1.055,1.136-3.452.114-4.866-.974-1.346-2.753-1.64-4.753-1.64-.775,0-1.583.044-2.39.088" transform="translate(-1250.65 -2686.4)" fill="none"/>
    </clipPath>
    <linearGradient id="linear-gradient-16" x1="-17.117" y1="1.106" x2="-17.103" y2="1.106" gradientUnits="objectBoundingBox">
      <stop offset="0" stop-color="#444b8c"/>
      <stop offset="0.996" stop-color="#26264f"/>
      <stop offset="1" stop-color="#26264f"/>
    </linearGradient>
    <clipPath id="clip-path-27">
      <path id="Tracé_806" data-name="Tracé 806" d="M1320.965,2662.523a4.44,4.44,0,0,0,4.381,1.4l4.2-6.99-5.463-1.742Z" transform="translate(-1320.965 -2655.188)" fill="none"/>
    </clipPath>
    <linearGradient id="linear-gradient-17" x1="-20.15" y1="1.936" x2="-20.134" y2="1.936" xlink:href="#linear-gradient-2"/>
    <clipPath id="clip-path-28">
      <path id="Tracé_807" data-name="Tracé 807" d="M1406.317,2736.868c-1.151.063-1.138.163-6.656,1.359-3.887.843-5.045,1.043-5.144,1.667-.14.887,1.973,1.967,3.183,2.449a9.876,9.876,0,0,0,4.8.576,29.692,29.692,0,0,1,4.06.038c2.89.231,4.465.778,5.529.781h.019a1.688,1.688,0,0,0,1.235-.452c1.141-1.055,1.137-3.452.114-4.867-.974-1.346-2.753-1.639-4.753-1.639-.775,0-1.583.044-2.39.088" transform="translate(-1394.511 -2736.78)" fill="none"/>
    </clipPath>
    <linearGradient id="linear-gradient-18" x1="-19.83" y1="0.663" x2="-19.816" y2="0.663" xlink:href="#linear-gradient-16"/>
    <clipPath id="clip-path-29">
      <path id="Tracé_808" data-name="Tracé 808" d="M1464.826,2712.9a4.438,4.438,0,0,0,4.381,1.4l4.2-6.99-5.463-1.743Z" transform="translate(-1464.826 -2705.567)" fill="none"/>
    </clipPath>
    <linearGradient id="linear-gradient-19" x1="-22.362" y1="1.16" x2="-22.347" y2="1.16" xlink:href="#linear-gradient-2"/>
    <clipPath id="clip-path-30">
      <path id="Tracé_809" data-name="Tracé 809" d="M1821.387,1778.894c-15.426,0-27.816,0-36.37,7.294-20.761,17.7,2.476,60.079-9.428,91.466-1.3,3.438-5.1,14.337-1.8,26.092.608,2.167,1.861,4.044,4,7.223,12.575,18.657,48.595,24.8,64.776,8.62,8.552-8.549,15.545-11.593,15.751-21.348.811-38.5-5.163-76.913-4.829-113.985a99.541,99.541,0,0,0-32.094-5.362h-.011" transform="translate(-1772.476 -1778.894)" fill="none"/>
    </clipPath>
    <linearGradient id="linear-gradient-20" x1="-1.745" y1="1.136" x2="-1.744" y2="1.136" xlink:href="#linear-gradient-15"/>
    <clipPath id="clip-path-32">
      <rect id="Rectangle-11" data-name="Rectangle" width="58.459" height="115.671" fill="none"/>
    </clipPath>
    <clipPath id="clip-path-33">
      <path id="Tracé_810" data-name="Tracé 810" d="M1966,1950.989c2.935-8.028-.106-17.217,6.438-21.228a15.739,15.739,0,0,1,8.625-2.021c-.388,28.217-.944,56.407-1.631,85.856-.227,9.726-1.444,10.208-10.882,18.732-10.936,9.876-29.781,13.1-45.944,9.869,21.169-13.005,36.273-26.476,34.11-38.024-2.519-13.448-27.172-17.419-26.18-26.98,1.052-10.133,29.049-8.654,35.465-26.2" transform="translate(-1922.605 -1927.734)" fill="none"/>
    </clipPath>
    <linearGradient id="linear-gradient-21" x1="-2.898" y1="1.322" x2="-2.896" y2="1.322" xlink:href="#linear-gradient-15"/>
    <clipPath id="clip-path-34">
      <path id="Tracé_811" data-name="Tracé 811" d="M2040.218,1806.328c-7.965,5.377-.293,30.12.423,35.125,2.653,18.548,12.763,26.7,9.442,31.077-1.342,1.769-3.853,1.32-7.427.872a30.486,30.486,0,0,0-13.963.922,47.5,47.5,0,0,0-15.773,8.69l5.919,6.4,6.017,5.339c14.676,10.993,32.992,12.99,46.557,5.228,15.15-8.669,18.023-26.367,18.647-30.152,3.829-23.229-11.582-40.52-16.008-45.486-8.048-9.03-21.561-19.1-29.859-19.1a6.97,6.97,0,0,0-3.974,1.085" transform="translate(-2012.92 -1805.243)" fill="none"/>
    </clipPath>
    <linearGradient id="linear-gradient-22" x1="-2.913" y1="1.554" x2="-2.912" y2="1.554" xlink:href="#linear-gradient-15"/>
    <clipPath id="clip-path-35">
      <path id="Tracé_812" data-name="Tracé 812" d="M1373,2181.907c-16.54,3.9-27.312,16.234-32.969,22.654-23.394,26.553-22.436,59.183-21.927,67.676l10.417,5.718a65.914,65.914,0,0,0,9.945-7.286c22.648-20.121,15.652-41.437,30.115-52.838,19.418-15.309,58.629,2.328,76.221,13.54,16.7,10.646,24.693,17.8,21.687,2.04-2.5-13.1-40.139-53.02-80.3-53.016a57.413,57.413,0,0,0-13.191,1.512" transform="translate(-1317.924 -2180.395)" fill="none"/>
    </clipPath>
    <linearGradient id="linear-gradient-23" x1="-1.334" y1="0.908" x2="-1.333" y2="0.908" xlink:href="#linear-gradient-16"/>
    <clipPath id="clip-path-36">
      <path id="Tracé_813" data-name="Tracé 813" d="M1519.929,2238.444c-7.737,1.535-21.242,4.394-32.561,15.525-9.111,8.959-12.384,18.928-16.038,30.056a129.867,129.867,0,0,0-6.3,44.749l10.417,5.719a65.967,65.967,0,0,0,9.944-7.286c23.22-20.63,18.17-49.764,30.115-52.839,7.687-1.979,10.628,9.838,28.706,18.139,14.858,6.823,39.388,11,51.914-1.665,5.643-5.706,9.48-15.467,7.411-24.555-4.335-19.052-34.787-29.711-63.584-29.71a103.822,103.822,0,0,0-20.029,1.867" transform="translate(-1464.968 -2236.577)" fill="none"/>
    </clipPath>
    <linearGradient id="linear-gradient-24" x1="-1.574" y1="0.844" x2="-1.573" y2="0.844" xlink:href="#linear-gradient-16"/>
    <clipPath id="clip-path-37">
      <path id="Tracé_814" data-name="Tracé 814" d="M1652.067,2230.37l-.22,5.6,63.291,4.142,22.847-11.026Z" transform="translate(-1651.847 -2229.087)" fill="none"/>
    </clipPath>
    <linearGradient id="linear-gradient-25" x1="-8.863" y1="1.685" x2="-8.858" y2="1.685" gradientUnits="objectBoundingBox">
      <stop offset="0" stop-color="#311944"/>
      <stop offset="1" stop-color="#893976"/>
    </linearGradient>
    <clipPath id="clip-path-38">
      <path id="Tracé_815" data-name="Tracé 815" d="M1981.307,2228.7l-27.064,9.178.125,7.462,27.454-10.763a3.825,3.825,0,0,0,2.517-3.594h0a2.372,2.372,0,0,0-3.032-2.283" transform="translate(-1954.243 -2228.607)" fill="none"/>
    </clipPath>
    <linearGradient id="linear-gradient-26" x1="-18.511" y1="3.541" x2="-18.502" y2="3.541" xlink:href="#linear-gradient-25"/>
    <clipPath id="clip-path-39">
      <path id="Tracé_816" data-name="Tracé 816" d="M1952.042,2194.349c-2.43.712-14.318,7.6-15.4,10.438l-1.081,2.837s5.185.405,8.4-.675,8.789-6.069,13.078-7.025c.5-.111-2.242-5.632-4.6-5.632a1.415,1.415,0,0,0-.4.057" transform="translate(-1935.563 -2194.292)" fill="none"/>
    </clipPath>
    <linearGradient id="linear-gradient-27" x1="-17.205" y1="8.221" x2="-17.196" y2="8.221" xlink:href="#linear-gradient-2"/>
    <clipPath id="clip-path-40">
      <path id="Tracé_817" data-name="Tracé 817" d="M1424.306,1984.358l11.151,53.258a3.114,3.114,0,0,0,2.922,2.584l88.844,5.454c1.912.09,4.576-2.745,4.367-4.647l-6.056-55.142a3.114,3.114,0,0,0-3.008-2.774l-93.1-2.618h-.08c-1.979,0-5.365,1.974-5.037,3.886" transform="translate(-1424.284 -1980.472)" fill="none"/>
    </clipPath>
    <linearGradient id="linear-gradient-28" x1="-2.374" y1="1.471" x2="-2.373" y2="1.471" xlink:href="#linear-gradient-16"/>
    <clipPath id="clip-path-41">
      <path id="Tracé_818" data-name="Tracé 818" d="M1423.844,1992.345l9.191,53.5a3.115,3.115,0,0,0,2.923,2.584l89.968,4.259a3.116,3.116,0,0,0,3.244-3.452l-6.057-55.143a3.114,3.114,0,0,0-3.009-2.773L1427,1988.7h-.09a3.115,3.115,0,0,0-3.067,3.643" transform="translate(-1423.798 -1988.703)" fill="none"/>
    </clipPath>
    <linearGradient id="linear-gradient-29" x1="-2.183" y1="1.661" x2="-2.182" y2="1.661" xlink:href="#linear-gradient-25"/>
    <clipPath id="clip-path-43">
      <rect id="Rectangle-13" data-name="Rectangle" width="97.235" height="61.379" fill="none"/>
    </clipPath>
    <clipPath id="clip-path-44">
      <path id="Tracé_819" data-name="Tracé 819" d="M1503.034,2045.386c7.841-3.319,5.073-9.65,14.332-17.538,12.214-10.406,24.664-5.893,29.023-13.96,1.357-2.512,2.005-6.421-.359-12.748l6.729.189a3.107,3.107,0,0,1,3,2.765l6.045,54.98a3.109,3.109,0,0,1-3.238,3.441l-89.8-4.246a3.107,3.107,0,0,1-2.917-2.576l-1.266-7.361a33.948,33.948,0,0,1,9.779-3.662c13.174-2.669,19.637,4.538,28.664.716" transform="translate(-1464.591 -2001.14)" fill="none"/>
    </clipPath>
    <linearGradient id="linear-gradient-30" x1="-2.931" y1="2.444" x2="-2.929" y2="2.444" xlink:href="#linear-gradient-25"/>
    <clipPath id="clip-path-45">
      <path id="Tracé_820" data-name="Tracé 820" d="M1922.419,1679.418c2.11,3.43,3.895,7.572,2.3,10.49-2.289,4.195-9.97,2.95-10.4,5.269s6.566,6.69,14.255,7.776c12.563,1.773,24.724-5.585,24.244-7.744-.1-.442-.672-.413-5.132-1.518-8.2-2.032-9.646-2.974-10.6-4.1-.636-.746-1.134-1.665-1.825-5.224a66.832,66.832,0,0,1-1.194-13.361c-2.043,3.829-9.6,4.58-11.646,8.409" transform="translate(-1914.301 -1671.009)" fill="none"/>
    </clipPath>
    <linearGradient id="linear-gradient-31" x1="-9.479" y1="6.381" x2="-9.474" y2="6.381" xlink:href="#linear-gradient-2"/>
    <clipPath id="clip-path-46">
      <path id="Tracé_821" data-name="Tracé 821" d="M1924.772,1635.788c-1.591.617-4.249,1.646-5.413,4.315a8.087,8.087,0,0,0,2.179,9.021c2.241,1.777,4.025.392,7.289,2.768a17.864,17.864,0,0,1,3.245,3.2,20.228,20.228,0,0,1,1.921,2.944c2.021-3.787,3.271-6.062,4.074-7.5.58-1.035,1.341-1.635,1.53-2.853.167-1.078,1.438-7.161-.474-9.432-2.04-2.423-5.394-3.483-8.751-3.483a15.721,15.721,0,0,0-5.6,1.015" transform="translate(-1918.786 -1634.773)" fill="none"/>
    </clipPath>
    <linearGradient id="linear-gradient-32" x1="-11.439" y1="7.011" x2="-11.433" y2="7.011" xlink:href="#linear-gradient-16"/>
    <clipPath id="clip-path-47">
      <path id="Tracé_822" data-name="Tracé 822" d="M1933.182,1687.569c-2.868,3.578,1.2,15.858,6.867,14.77a10.976,10.976,0,0,0,8.117-7.156c2.693-1.831,3.522-3.992,2.371-5.216a1.964,1.964,0,0,0-.93-.529c-1.015-.191-2.183.554-2.966,1.906.14-3.936-.69-5.159-1.486-5.539-.637-.3-1.075.016-2.923.017-2,0-2.512-.371-3.738-.394h-.117a7.248,7.248,0,0,0-5.2,2.143" transform="translate(-1932.239 -1685.426)" fill="none"/>
    </clipPath>
    <linearGradient id="linear-gradient-33" x1="-17.571" y1="11.796" x2="-17.562" y2="11.796" xlink:href="#linear-gradient-2"/>
    <clipPath id="clip-path-48">
      <path id="Tracé_823" data-name="Tracé 823" d="M1950.128,1682.925c-.217.27.866,1.059,1.3,2.461.836,2.722-1.09,6.754-3.861,7.775a4.275,4.275,0,0,1-2.292.118,9.777,9.777,0,0,0-2.927.023,13.155,13.155,0,0,0-3.993,1.29c-.087,3.248,1.519,6.045,3.9,6.916,2.565.938,5.1-.7,6.165-1.381a8.237,8.237,0,0,0,3.692-4.538c.736-2.731-.967-3.818.169-5.831.573-1.015,1.511-1.635,2.1-3.466a8,8,0,0,0,.29-1.205c-1.62-1.014-3.679-2.227-4.354-2.227a.233.233,0,0,0-.191.067" transform="translate(-1938.348 -1682.858)" fill="none"/>
    </clipPath>
    <linearGradient id="linear-gradient-34" x1="-15.112" y1="8.467" x2="-15.104" y2="8.467" xlink:href="#linear-gradient-16"/>
    <clipPath id="clip-path-50">
      <path id="Tracé_825" data-name="Tracé 825" d="M1782.779,295.07c0,20.744,29.061,58.6,42.212,74.665a8.184,8.184,0,0,0,12.664,0c13.152-16.068,42.213-53.921,42.213-74.665a48.544,48.544,0,0,0-97.089,0" transform="translate(-1782.779 -246.526)" fill="#036eff"/>
    </clipPath>
    <clipPath id="clip-path-51">
      <path id="Tracé_828" data-name="Tracé 828" d="M1980.482,957.247a9.922,9.922,0,1,0,9.922-9.922,9.922,9.922,0,0,0-9.922,9.922" transform="translate(-1980.482 -947.325)" fill="#036eff"/>
    </clipPath>
    <clipPath id="clip-path-52">
      <path id="Tracé_829" data-name="Tracé 829" d="M735.775,1125.36c0,20.743,29.061,58.6,42.212,74.665a8.184,8.184,0,0,0,12.664,0c13.151-16.068,42.212-53.921,42.212-74.665a48.544,48.544,0,1,0-97.088,0" transform="translate(-735.775 -1076.816)" fill="none"/>
    </clipPath>
    <clipPath id="clip-path-54">
      <rect id="Rectangle-16" data-name="Rectangle" width="62.648" height="125.25" fill="none"/>
    </clipPath>
    <clipPath id="clip-path-55">
      <path id="Tracé_831" data-name="Tracé 831" d="M784.012,1182.2c3.074-20.223,16.442-26.7,14.148-45.79-2.646-22.022-22.165-27.887-22.636-47.486a31.078,31.078,0,0,1,1.164-9.112,48.427,48.427,0,0,0-40.913,47.817c0,20.682,29.005,58.423,42.132,74.444a8.15,8.15,0,0,0,7.561,2.894,55.293,55.293,0,0,1-1.456-22.767" transform="translate(-735.775 -1079.815)" fill="none"/>
    </clipPath>
    <linearGradient id="linear-gradient-35" x1="-1.162" y1="2.4" x2="-1.16" y2="2.4" gradientUnits="objectBoundingBox">
      <stop offset="0" stop-color="#ff9085"/>
      <stop offset="1" stop-color="#fb6fbb"/>
    </linearGradient>
    <clipPath id="clip-path-56">
      <path id="Tracé_832" data-name="Tracé 832" d="M933.477,1787.538a9.922,9.922,0,1,0,9.922-9.922,9.922,9.922,0,0,0-9.922,9.922" transform="translate(-933.477 -1777.616)" fill="none"/>
    </clipPath>
    <clipPath id="clip-path-57">
      <path id="Tracé_833" data-name="Tracé 833" d="M1609.09,1857.651a4.885,4.885,0,1,0,4.885-4.885,4.885,4.885,0,0,0-4.885,4.885" transform="translate(-1609.09 -1852.766)" fill="#62a6c9"/>
    </clipPath>
    <clipPath id="clip-path-58">
      <path id="Tracé_834" data-name="Tracé 834" d="M1492.55,1678.09a3.33,3.33,0,0,0-.2,4.882l.138.138a3.3,3.3,0,0,0,4.492.182,34.088,34.088,0,0,1,44.565,0,3.305,3.305,0,0,0,4.492-.182l.138-.138a3.33,3.33,0,0,0-.2-4.882,40.937,40.937,0,0,0-53.418,0" transform="translate(-1491.378 -1668.177)" fill="#62a6c9"/>
    </clipPath>
    <clipPath id="clip-path-59">
      <path id="Tracé_835" data-name="Tracé 835" d="M1533.894,1732.989a3.312,3.312,0,0,0-.233,4.908l.024.024a3.341,3.341,0,0,0,4.469.2,22.874,22.874,0,0,1,28.684,0,3.341,3.341,0,0,0,4.469-.2l.024-.024a3.312,3.312,0,0,0-.233-4.908,29.543,29.543,0,0,0-37.2,0" transform="translate(-1532.685 -1726.397)" fill="#62a6c9"/>
    </clipPath>
    <clipPath id="clip-path-60">
      <path id="Tracé_836" data-name="Tracé 836" d="M1575.728,1787.772a3.322,3.322,0,0,0-.479,5.093l.016.016a3.56,3.56,0,0,0,4.485.407,11.381,11.381,0,0,1,12.426,0,3.56,3.56,0,0,0,4.485-.407l.015-.016a3.322,3.322,0,0,0-.479-5.093,18.185,18.185,0,0,0-20.469,0" transform="translate(-1574.277 -1784.619)" fill="#62a6c9"/>
    </clipPath>
    <clipPath id="clip-path-61">
      <path id="Tracé_837" data-name="Tracé 837" d="M1339.872,363.055a4.885,4.885,0,1,0,4.885-4.885,4.885,4.885,0,0,0-4.885,4.885" transform="translate(-1339.872 -358.17)" fill="#62a6c9"/>
    </clipPath>
    <clipPath id="clip-path-62">
      <path id="Tracé_838" data-name="Tracé 838" d="M1223.332,183.494a3.33,3.33,0,0,0-.2,4.882l.138.138a3.3,3.3,0,0,0,4.492.182,34.089,34.089,0,0,1,44.565,0,3.3,3.3,0,0,0,4.492-.182l.138-.138a3.33,3.33,0,0,0-.2-4.882,40.938,40.938,0,0,0-53.418,0" transform="translate(-1222.161 -173.581)" fill="#62a6c9"/>
    </clipPath>
    <clipPath id="clip-path-63">
      <path id="Tracé_839" data-name="Tracé 839" d="M1264.677,238.393a3.311,3.311,0,0,0-.233,4.907l.024.024a3.34,3.34,0,0,0,4.469.2,22.876,22.876,0,0,1,28.684,0,3.34,3.34,0,0,0,4.469-.2l.024-.024a3.311,3.311,0,0,0-.233-4.907,29.542,29.542,0,0,0-37.2,0" transform="translate(-1263.468 -231.801)" fill="#62a6c9"/>
    </clipPath>
    <clipPath id="clip-path-64">
      <path id="Tracé_840" data-name="Tracé 840" d="M1306.51,293.176a3.322,3.322,0,0,0-.479,5.093l.016.016a3.56,3.56,0,0,0,4.486.407,11.38,11.38,0,0,1,12.425,0,3.56,3.56,0,0,0,4.486-.407l.016-.016a3.322,3.322,0,0,0-.479-5.093,18.187,18.187,0,0,0-20.469,0" transform="translate(-1305.059 -290.023)" fill="#62a6c9"/>
    </clipPath>
  </defs>
  <g id="nomade" transform="translate(0 -0.001)">
    <g id="globe" transform="translate(61.182 114.674)" clip-path="url(#clip-path)">
      <path id="Tracé_776" data-name="Tracé 776" d="M688.3,777.408A192.39,192.39,0,0,1,653.578,887.8c-.086.129-.394.252-.394.381v.005c-34.274,50.219-93,82.755-158.882,82.755a114.18,114.18,0,0,1-15.825-.981h-.005c-.021,0-.032.321-.054.321-2.6-.215-5.174-.315-7.739-.631-.913-.107-1.825-.144-2.732-.273-.805-.107-1.6-.179-2.4-.3-.7-.1-1.39-.189-2.077-.3-.156-.027-.311-.043-.467-.065-1.69-.279-3.376-.569-5.056-.891-.011,0-.016,0-.027,0A194.468,194.468,0,0,1,309.2,719.98c.88-2.844,1.977-5.656,2.706-8.442v-.005c2.188-4.642,3.654-9.2,5.667-13.67.811-1.787,1.706-3.564,2.56-5.324a193.931,193.931,0,0,1,16.444-27.581c.564-.789,1.148-1.572,1.723-2.356q3.445-4.685,7.178-9.151,5.579-6.7,11.736-12.875A194.67,194.67,0,0,1,392.737,612.4q6-3.712,12.286-6.988A194.017,194.017,0,0,1,616.359,626.59,195.324,195.324,0,0,1,673.283,701.4c2.8,6.559,4.695,13.3,7.612,20.2v.005c0,.032-.334.054-.323.086a193.534,193.534,0,0,1,7.733,55.72" transform="translate(-303.114 -585.822)" fill="#b5ddf8"/>
      <g id="Groupe_" data-name="Groupe " transform="translate(6.089 4.905)" style="mix-blend-mode: soft-light;isolation: isolate">
        <g id="Groupe_2" data-name="Groupe ">
          <g id="Groupe_3" data-name="Groupe ">
            <path id="Tracé_777" data-name="Tracé 777" d="M1210.824,2564.884v-.005h.016l-.01.005Z" transform="translate(-1041.556 -2184.997)" fill="#fff"/>
            <path id="Tracé_778" data-name="Tracé 778" d="M571.926,872.34c-4.159,5.861-17.029,13.385-8.3,28.166,8.657,14.743-.6,17.507-6.558,16.128-5.984-1.363-24.586-2.125-21.484,6.328s8.421,11.636,1.6,14.9c-6.811,3.252-9.693,11.748-16.664,23.443-6.924,11.716-23.379,1.583-18.506,13.327s8.657,10.61,8.2,18.8c-.107,2.249,1.384,4.556,3.4,6.751-2.6-.215-5.206-.478-7.793-.794-.912-.108-1.825-.226-2.732-.355-.805-.107-1.6-.22-2.4-.343q-1.046-.153-2.077-.322c-.156-.027-.116-.053-.271-.075-1.664-.279-2.527-.58-4.715-.9v-.005c-1.459-1.385-.545-2.887-.325-4.508,2.174-15.113-18.678-25.5-22.172-36.088-3.435-10.562-.043-16.863-.838-25.616-.816-8.738,2.042-20.325-2.987-27.688-5.029-7.337-25.3-9.795-29.16-24.6-3.886-14.775,5.151-36.9,8.662-40.671,3.467-3.768-16.786-20.91-26.425-21.457-9.682-.59-5.809-20.083-22.178-17.115-16.4,2.877-45.867-6.274-39.781-16.117,5.024-8.109,13.456-26-14.072-33.973.88-2.845,1.971-5.657,2.7-8.442v-.005c2.188-4.643,3.654-9.2,5.667-13.67.81-1.787,1.706-3.564,2.56-5.324a194.979,194.979,0,0,1,16.444-27.581c.564-.789,1.148-1.572,1.723-2.356q3.454-4.685,7.178-9.15,5.579-6.7,11.736-12.876a194.669,194.669,0,0,1,35.526-28.177c5.453,3.821,11.679,6.178,17.057,3.274,13.187-7.379,4.493-8.512-.907-8.786a6.962,6.962,0,0,1-3.864-1.476,191.913,191.913,0,0,1,31.891-13.155c-.821,7.444-10.938,19.4-3.494,17.942,8.662-1.648,12.2-25.053,18.559-17.277,6.451,7.809-7.058,18.044,5.63,12.113,12.7-5.871,14.4-18.977,28.558-12.6,14.228,6.457,12.929,14.1,16.9,13.342,3.956-.746,16.75,7.852,9.011,14.926-7.809,7.1-14.969-1.943-26.674-4.669-11.711-2.694-11.426,6.886-16.815,9.075-5.48,2.115-31.912-10.659-38.4.886-6.558,11.453-9.349,19.444.386,19.149,9.725-.273,10.353-2.791,9.591,4.4-.778,7.2.993,12.585,9.806,5.818,8.786-6.758,6.816-13.348,13.686-10.128s7.686.306,15-5,16.917-5.861,19.434,6.048-1.787,14.588-14.636,15.189c-12.854.623-14.308-3.429-18.4,7.315-4.074,10.75-21.076,24.554-36,30.243-14.9,5.7-20.738,14.121-20.395,25.482.354,11.383-5.249,23.389-8.99,14.008-3.757-9.408-14.287-25.252-25.032-14.663-10.766,10.61-29.5,29.368-8.8,32.8,20.663,3.494,9.881-15.865,20.325-12,10.428,3.9-6.607,12.43.365,15.51,6.982,3.107,9.907,1.653,9.854,11.169s2.313,18.747,10.788,14.711c8.469-4.02,19.328-18.257,31.58-7.228,12.269,11.056,11.42,5.21,17.855,1.99s10.525,6.424,13.16,10.814,12.972-.091,21.35,12.972,11.657,15.392,21.2,10.691,13.439-1.208,15.929,5.389,8.362.15,11.2,8.866c2.818,8.711,1.465,7.358-2.668,13.224" transform="translate(-344.356 -620.301)" fill="#fff"/>
            <path id="Tracé_779" data-name="Tracé 779" d="M1672.933,861.791c-6.768-14.523,26.765-12.892,32.69-11.775,5.963.993,19.949-9.94,21.726-15.022,1.825-5.12,4.82-2.689,15.43-2.834,10.605-.113,1.234-2.512-10.439-6.36-11.652-3.837-1.69-4.224-12.43-12.7-4.621-3.714-3.167-6.87-.086-9.215a194.473,194.473,0,0,1,56.574,74.805,3.679,3.679,0,0,0-1-.172c-7.428-.043-9.065-16.466-12.891-19.665-3.773-3.193.107,9.022,1.031,14.04s-2.034.8-5.737,5.41c-3.719,4.616-10.434,4.7-11.04-2.222-.617-6.907-5.485-13.691-15.365-16.847s-18.43-.564-26.459,2.533c-7.986,3.043-25.187,14.437-32,.027" transform="translate(-1412.667 -768.018)" fill="#fff"/>
            <path id="Tracé_780" data-name="Tracé 780" d="M1716.945,1374.4c.671-4.986,1.766-10.138-.317-12.022-5.061-4.7-6.166-17.491-4.411-23.974,1.75-6.5,15.387-6.129,6.135-16.922-9.279-10.825-17.641-23.674-13.745-31.021s2.716-7.873-4.589-7.83-10.519.365-17.8-6.14c-7.289-6.591-17.314,15.553-44.745-2.206-27.425-17.936-11.807-48.169-1.529-48.244,10.342-.172,22.423-5.394,13.949-18.006-8.448-12.661,4.755-14.448,11.206-11.571,6.462,2.844,17.92-4.8,29.6-8.244,11.705-3.429,11.19,15.64,17.689,19.455,6.537,3.821,18.784.789,25.15-5.319,4.546-4.358,5.539.725,10.031,5.549a194.269,194.269,0,0,1-26.62,166.495" transform="translate(-1372.493 -1076.94)" fill="#fff"/>
            <path id="Tracé_781" data-name="Tracé 781" d="M1826.341,850.918c.007-.012,8.553-3.87,5.456-10.086-3.07-6.217-7.938-25.272-11.5-19.267-3.579,6.032,1.7,17.743.546,22.8-1.163,5.069-1.194,7.722,5.494,6.557" transform="translate(-1530.952 -781.317)" fill="#fff"/>
            <path id="Tracé_782" data-name="Tracé 782" d="M1768.266,906.071c-.121-2,1.141-10.138-5.261-9.883.012-.013-9.259,3.856-3.835,10.429,5.448,6.553,9.235,1.452,9.1-.546" transform="translate(-1481.41 -842.287)" fill="#fff"/>
          </g>
        </g>
      </g>
      <g id="Groupe_4" data-name="Groupe " transform="translate(-1.829 -1.782)" opacity="0.3" style="mix-blend-mode: multiply;isolation: isolate">
        <g id="Groupe_5" data-name="Groupe ">
          <g id="Groupe_6" data-name="Groupe ">
            <path id="Tracé_783" data-name="Tracé 783" d="M690.331,779.1A192.18,192.18,0,0,1,655.862,889.49a.687.687,0,0,0-.136.381v.005a193.23,193.23,0,0,1-159.14,82.6,117.963,117.963,0,0,1-16.083-1.14H480.5c-.021,0-.032.48-.054.48-2.6-.215-5.174-.241-7.739-.557-.913-.107-1.825-.1-2.732-.233-.8-.107-1.6-.16-2.4-.283-.7-.1-1.39-.176-2.077-.289-.156-.027-.311-.04-.467-.061-1.69-.279-3.376-.567-5.056-.889l-.027,0A194.019,194.019,0,0,1,303.827,800.11c19.423,55.715,67.452,97.576,126.5,109.244h.021c1.449.729,2.9.582,4.363.824.134.016.274.063.408.085.59.1,1.191.2,1.792.281.687.107,1.379.194,2.077.285.784.113,1.567.18,2.356.272,2.216.274,4.438.779,6.682.961.022,0,.032.21.048.21h.005c4.556,0,9.1.366,13.75.366a167.13,167.13,0,0,0,137.287-71.862c0-.113.182-.263.252-.376a167.386,167.386,0,0,0,22.877-143.476c-.005-.027-.067-.059-.067-.086v-.005a114.474,114.474,0,0,0-6.223-17.443A167.665,167.665,0,0,0,514.6,586.068a192.9,192.9,0,0,1,103.788,42.211A195.066,195.066,0,0,1,675.2,703.084c2.8,6.559,4.588,13.3,7.505,20.2v.005c0,.032-.227.054-.216.086a193.573,193.573,0,0,1,7.84,55.72" transform="translate(-303.827 -586.068)" fill="#97a6b7"/>
          </g>
        </g>
      </g>
    </g>
    <g id="Groupe" transform="translate(76.039 1.035)">
      <g id="Groupe-2" data-name="Groupe" clip-path="url(#clip-path-2)">
        <rect id="Rectangle-17" data-name="Rectangle" width="168.352" height="155.734" transform="matrix(0.827, -0.562, 0.562, 0.827, -45.861, 29.322)" fill="url(#linear-gradient)"/>
      </g>
    </g>
    <g id="Groupe-3" data-name="Groupe" transform="translate(196.078 46.075)">
      <g id="Groupe-4" data-name="Groupe" clip-path="url(#clip-path-3)">
        <rect id="Rectangle-18" data-name="Rectangle" width="78.481" height="77.251" transform="translate(-3.722 0)" fill="url(#linear-gradient-2)"/>
      </g>
    </g>
    <g id="Groupe-5" data-name="Groupe" transform="translate(266.839 241.013)">
      <g id="Groupe-6" data-name="Groupe" clip-path="url(#clip-path-4)">
        <rect id="Rectangle-19" data-name="Rectangle" width="27.855" height="26.614" transform="matrix(0.556, -0.831, 0.831, 0.556, -10.291, 15.116)" fill="url(#linear-gradient-3)"/>
      </g>
    </g>
    <g id="Groupe-7" data-name="Groupe" transform="translate(0 0.001)">
      <g id="Groupe-8" data-name="Groupe" clip-path="url(#clip-path-5)">
        <path id="Tracé_788" data-name="Tracé 788" d="M1383.228,1211.286c-.7,4.033.185,6.135,1.136,7.313.67.829,6.1,9.777,3.871,11.222-1.007.652-7.909-7.91-8.578-9.222-.606-1.188-1-.907-1.036-4.144a16.84,16.84,0,0,0-.8-4.919l5.4-.25" transform="translate(-1109.174 -975.356)" fill="#fff"/>
      </g>
    </g>
    <g id="Groupe-9" data-name="Groupe" transform="translate(272.814 201.116)">
      <g id="Groupe-10" data-name="Groupe" clip-path="url(#clip-path-6)">
        <rect id="Rectangle-20" data-name="Rectangle" width="14.002" height="21.557" transform="translate(0 0)" fill="url(#linear-gradient-4)"/>
      </g>
    </g>
    <g id="Groupe-11" data-name="Groupe" transform="translate(0 0.001)">
      <g id="Groupe-12" data-name="Groupe" clip-path="url(#clip-path-5)">
        <path id="Tracé_790" data-name="Tracé 790" d="M1415.95,1000.246s-1.33,6.809,1.207,10.4c1.264,1.79,2.968,3.308,2.467,4.765a2.706,2.706,0,0,1-2.692,1.567c-2.068-.212-3.215-3.38-4.024-5.614-1.194-3.3-1.86-10.361-1.86-10.361Z" transform="translate(-1135.921 -805.421)" fill="#fff"/>
      </g>
    </g>
    <g id="Groupe-13" data-name="Groupe" transform="translate(239.799 130.24)">
      <g id="Groupe-14" data-name="Groupe" clip-path="url(#clip-path-8)">
        <rect id="Rectangle-21" data-name="Rectangle" width="77.357" height="57.762" transform="matrix(0.17, -0.985, 0.985, 0.17, -12.15, 68.428)" fill="url(#linear-gradient-5)"/>
      </g>
    </g>
    <g id="Groupe-15" data-name="Groupe" transform="translate(158.837 112.688)">
      <g id="Groupe-16" data-name="Groupe" clip-path="url(#clip-path-9)">
        <rect id="Rectangle-22" data-name="Rectangle" width="154.472" height="157.532" transform="translate(-37.58 11.498) rotate(-17.535)" fill="url(#linear-gradient-6)"/>
      </g>
    </g>
    <g id="Groupe-17" data-name="Groupe" transform="translate(0 0.001)">
      <g id="Groupe-18" data-name="Groupe" clip-path="url(#clip-path-5)">
        <g id="Groupe-19" data-name="Groupe" transform="translate(158.923 112.789)" opacity="0.3" style="mix-blend-mode: multiply;isolation: isolate">
          <g id="Groupe-20" data-name="Groupe">
            <g id="Groupe-21" data-name="Groupe" clip-path="url(#clip-path-11)">
              <g id="Groupe-22" data-name="Groupe" transform="translate(0 0)">
                <g id="Groupe-23" data-name="Groupe" clip-path="url(#clip-path-12)">
                  <path id="Tracé_841" data-name="Tracé 841" d="M0,0,128.873.039,128.9,96.12.029,96.082Z" transform="translate(-19.747 2.42) rotate(-17.535)" fill="url(#linear-gradient-7)"/>
                </g>
              </g>
            </g>
          </g>
        </g>
      </g>
    </g>
    <g id="Groupe-24" data-name="Groupe" transform="translate(155.524 127.194)">
      <g id="Groupe-25" data-name="Groupe" clip-path="url(#clip-path-13)">
        <rect id="Rectangle-23" data-name="Rectangle" width="63.892" height="114.72" transform="translate(-9.985 44.571) rotate(-80.187)" fill="url(#linear-gradient-8)"/>
      </g>
    </g>
    <g id="Groupe-26" data-name="Groupe" transform="translate(143.962 46.186)">
      <g id="Groupe-27" data-name="Groupe" clip-path="url(#clip-path-14)">
        <rect id="Rectangle-24" data-name="Rectangle" width="92.067" height="117.752" transform="translate(-1.467 0)" fill="url(#linear-gradient-9)"/>
      </g>
    </g>
    <g id="Groupe-28" data-name="Groupe" transform="translate(0 0.001)">
      <g id="Groupe-29" data-name="Groupe" clip-path="url(#clip-path-5)">
        <path id="Tracé_796" data-name="Tracé 796" d="M905.891,163.248c.343,1.6,2.087,10.181-1.428,12.39-.762.479-2.226.753-5.154,1.3-1.917.359-3.525.579-4.66.714a11.733,11.733,0,0,0,2.312,5.912c4.66,5.973,14.005,4.427,15.337,4.185,4.7-.855,9.326-2.306,10.443-3.192a23.7,23.7,0,0,0,3.829-3.392c-1.819-.878-5.491-3.194-7.956-3.952a45.747,45.747,0,0,0-5.143-1.26q-.387-2.487-.776-4.973l-6.8-7.733" transform="translate(-720.21 -131.452)" fill="#fff"/>
        <path id="Tracé_797" data-name="Tracé 797" d="M944.579,142.082s.635,6.289,6.755,7.4c5.48.992,9.6-12.236,6.8-15.657a7.344,7.344,0,0,0-5.247-2.17c-1.408.041-6.164,1.85-6.828,6.6-.947-1-2.127-1.283-2.709-.866-.738.529-.343,2.069-.253,2.418a4.433,4.433,0,0,0,1.481,2.274" transform="translate(-759.062 -106.009)" fill="#fff"/>
        <g id="Groupe-30" data-name="Groupe" transform="translate(144.015 85.992)" opacity="0.4" style="mix-blend-mode: multiply;isolation: isolate">
          <g id="Groupe-31" data-name="Groupe">
            <g id="Groupe-32" data-name="Groupe" clip-path="url(#clip-path-16)">
              <g id="Groupe-33" data-name="Groupe" transform="translate(0 0)">
                <g id="Groupe-34" data-name="Groupe" clip-path="url(#clip-path-17)">
                  <rect id="Rectangle-25" data-name="Rectangle" width="91.891" height="77.462" transform="translate(-1.464)" fill="url(#linear-gradient-10)"/>
                </g>
              </g>
            </g>
          </g>
        </g>
      </g>
    </g>
    <g id="Groupe-35" data-name="Groupe" transform="translate(176.925 121.508)">
      <g id="Groupe-36" data-name="Groupe" clip-path="url(#clip-path-18)">
        <rect id="Rectangle-26" data-name="Rectangle" width="63.205" height="9.375" transform="translate(-0.505 0)" fill="url(#linear-gradient-11)"/>
      </g>
    </g>
    <g id="Groupe-37" data-name="Groupe" transform="translate(213.638 89.643)">
      <g id="Groupe-38" data-name="Groupe" clip-path="url(#clip-path-19)">
        <rect id="Rectangle-27" data-name="Rectangle" width="89.471" height="89.205" transform="matrix(0.71, -0.704, 0.704, 0.71, -19.884, 19.725)" fill="url(#linear-gradient-12)"/>
      </g>
    </g>
    <g id="Groupe-39" data-name="Groupe" transform="translate(0 0.001)">
      <g id="Groupe-40" data-name="Groupe" clip-path="url(#clip-path-5)">
        <g id="Groupe-41" data-name="Groupe" transform="translate(213.715 90.783)" opacity="0.3" style="mix-blend-mode: multiply;isolation: isolate">
          <g id="Groupe-42" data-name="Groupe">
            <g id="Groupe-43" data-name="Groupe" clip-path="url(#clip-path-21)">
              <g id="Groupe-44" data-name="Groupe" transform="translate(0.001 0.001)">
                <g id="Groupe-45" data-name="Groupe" clip-path="url(#clip-path-22)">
                  <path id="Tracé_842" data-name="Tracé 842" d="M0,0,75.317.039l.039,75.15L.039,75.15Z" transform="translate(-19.285 19.111) rotate(-44.77)" fill="url(#linear-gradient-13)"/>
                </g>
              </g>
            </g>
          </g>
        </g>
      </g>
    </g>
    <g id="Groupe-46" data-name="Groupe" transform="translate(124.855 49.934)">
      <g id="Groupe-47" data-name="Groupe" clip-path="url(#clip-path-23)">
        <rect id="Rectangle-28" data-name="Rectangle" width="94.442" height="98.199" transform="translate(-33.968 7.69) rotate(-18.15)" fill="url(#linear-gradient-14)"/>
      </g>
    </g>
    <g id="Groupe-48" data-name="Groupe" transform="translate(0 0.001)">
      <g id="Groupe-49" data-name="Groupe" clip-path="url(#clip-path-5)">
        <path id="Tracé_803" data-name="Tracé 803" d="M951.191,578.83c5.171-2.744,11.36.069,11.759.257a15.457,15.457,0,0,1,4.46,3.195c.189.257,2.432,3.362,1.615,4.357-.655.8-3.191.137-6.24-1.758a23.707,23.707,0,0,0-5.459-.134c-4.185.386-6.1,1.707-7.621.567a3.764,3.764,0,0,1-1.091-3.911,4.66,4.66,0,0,1,2.577-2.573" transform="translate(-763.527 -465.125)" fill="#fff"/>
      </g>
    </g>
    <g id="Groupe-50" data-name="Groupe" transform="translate(324.461 348.705)">
      <g id="Groupe-51" data-name="Groupe" clip-path="url(#clip-path-25)">
        <rect id="Rectangle-29" data-name="Rectangle" width="88.009" height="89.038" transform="translate(-34.717 25.406) rotate(-38.3)" fill="url(#linear-gradient-15)"/>
      </g>
    </g>
    <g id="Groupe-52" data-name="Groupe" transform="translate(243.835 523.2)">
      <g id="Groupe-53" data-name="Groupe" clip-path="url(#clip-path-26)">
        <rect id="Rectangle-30" data-name="Rectangle" width="14.432" height="21.474" transform="matrix(0.369, -0.929, 0.929, 0.369, -2.721, 6.516)" fill="url(#linear-gradient-16)"/>
      </g>
    </g>
    <g id="Groupe-54" data-name="Groupe" transform="translate(257.555 517.103)">
      <g id="Groupe-55" data-name="Groupe" clip-path="url(#clip-path-27)">
        <rect id="Rectangle-31" data-name="Rectangle" width="12.705" height="12.675" transform="matrix(0.688, -0.726, 0.726, 0.688, -4.68, 4.935)" fill="url(#linear-gradient-17)"/>
      </g>
    </g>
    <g id="Groupe-56" data-name="Groupe" transform="translate(271.883 533.042)">
      <g id="Groupe-57" data-name="Groupe" clip-path="url(#clip-path-28)">
        <rect id="Rectangle-32" data-name="Rectangle" width="13.888" height="21.258" transform="translate(-2.52 6.011) rotate(-68.345)" fill="url(#linear-gradient-18)"/>
      </g>
    </g>
    <g id="Groupe-58" data-name="Groupe" transform="translate(285.604 526.945)">
      <g id="Groupe-59" data-name="Groupe" clip-path="url(#clip-path-29)">
        <rect id="Rectangle-33" data-name="Rectangle" width="12.704" height="12.675" transform="translate(-4.68 4.935) rotate(-46.515)" fill="url(#linear-gradient-19)"/>
      </g>
    </g>
    <g id="Groupe-60" data-name="Groupe" transform="translate(345.474 345.915)">
      <g id="Groupe-61" data-name="Groupe" clip-path="url(#clip-path-30)">
        <rect id="Rectangle-34" data-name="Rectangle" width="171.682" height="181.911" transform="matrix(0.785, -0.62, 0.62, 0.785, -84.52, 60.257)" fill="url(#linear-gradient-20)"/>
      </g>
    </g>
    <g id="Groupe-62" data-name="Groupe" transform="translate(0 0.001)">
      <g id="Groupe-63" data-name="Groupe" clip-path="url(#clip-path-5)">
        <g id="Groupe-64" data-name="Groupe" transform="translate(374.87 375.478)" opacity="0.3" style="mix-blend-mode: multiply;isolation: isolate">
          <g id="Groupe-65" data-name="Groupe">
            <g id="Groupe-66" data-name="Groupe" clip-path="url(#clip-path-32)">
              <g id="Groupe-67" data-name="Groupe" transform="translate(0.001)">
                <g id="Groupe-68" data-name="Groupe" clip-path="url(#clip-path-33)">
                  <path id="Tracé_843" data-name="Tracé 843" d="M0,0,118.889.06l.065,128.659L.065,128.659Z" transform="translate(-57.336 45.168) rotate(-38.3)" fill="url(#linear-gradient-21)"/>
                </g>
              </g>
            </g>
          </g>
        </g>
      </g>
    </g>
    <g id="Groupe-69" data-name="Groupe" transform="translate(392.199 351.386)">
      <g id="Groupe-70" data-name="Groupe" clip-path="url(#clip-path-34)">
        <rect id="Rectangle-35" data-name="Rectangle" width="127.069" height="130.622" transform="translate(-49.854 39.371) rotate(-38.3)" fill="url(#linear-gradient-22)"/>
      </g>
    </g>
    <g id="Groupe-71" data-name="Groupe" transform="translate(256.783 424.35)">
      <g id="Groupe-72" data-name="Groupe" clip-path="url(#clip-path-35)">
        <rect id="Rectangle-36" data-name="Rectangle" width="181.332" height="163.767" transform="matrix(0.848, -0.53, 0.53, 0.848, -45.149, 27.422)" fill="url(#linear-gradient-23)"/>
      </g>
    </g>
    <g id="Groupe-73" data-name="Groupe" transform="translate(285.451 435.326)">
      <g id="Groupe-74" data-name="Groupe" clip-path="url(#clip-path-36)">
        <rect id="Rectangle-37" data-name="Rectangle" width="171.789" height="161.999" transform="matrix(0.811, -0.585, 0.585, 0.811, -46.996, 33.494)" fill="url(#linear-gradient-24)"/>
      </g>
    </g>
    <g id="Groupe-75" data-name="Groupe" transform="translate(321.962 433.862)">
      <g id="Groupe-76" data-name="Groupe" clip-path="url(#clip-path-37)">
        <rect id="Rectangle-38" data-name="Rectangle" width="39.066" height="84.898" transform="translate(-3.461 9.805) rotate(-70.56)" fill="url(#linear-gradient-25)"/>
      </g>
    </g>
    <g id="Groupe-77" data-name="Groupe" transform="translate(380.997 433.769)">
      <g id="Groupe-78" data-name="Groupe" clip-path="url(#clip-path-38)">
        <rect id="Rectangle-39" data-name="Rectangle" width="20.873" height="32.183" transform="translate(-2.372 16.39) rotate(-81.764)" fill="url(#linear-gradient-26)"/>
      </g>
    </g>
    <g id="Groupe-79" data-name="Groupe" transform="translate(377.368 427.366)">
      <g id="Groupe-80" data-name="Groupe" clip-path="url(#clip-path-39)">
        <rect id="Rectangle-40" data-name="Rectangle" width="21.978" height="13.738" transform="translate(0)" fill="url(#linear-gradient-27)"/>
      </g>
    </g>
    <g id="Groupe-81" data-name="Groupe" transform="translate(277.577 385.595)">
      <g id="Groupe-82" data-name="Groupe" clip-path="url(#clip-path-40)">
        <rect id="Rectangle-41" data-name="Rectangle" width="115.449" height="125.738" transform="matrix(0.576, -0.818, 0.818, 0.576, -31.034, 43.633)" fill="url(#linear-gradient-28)"/>
      </g>
    </g>
    <g id="Groupe-83" data-name="Groupe" transform="translate(277.485 387.201)">
      <g id="Groupe-84" data-name="Groupe" clip-path="url(#clip-path-41)">
        <rect id="Rectangle-42" data-name="Rectangle" width="123.278" height="104.246" transform="translate(-25.674 12.5) rotate(-26.211)" fill="url(#linear-gradient-29)"/>
      </g>
    </g>
    <g id="Groupe-85" data-name="Groupe" transform="translate(0 0.001)">
      <g id="Groupe-86" data-name="Groupe" clip-path="url(#clip-path-5)">
        <g id="Groupe-87" data-name="Groupe" transform="translate(285.567 389.776)" opacity="0.3" style="mix-blend-mode: multiply;isolation: isolate">
          <g id="Groupe-88" data-name="Groupe">
            <g id="Groupe-89" data-name="Groupe" clip-path="url(#clip-path-43)">
              <g id="Groupe-90" data-name="Groupe" transform="translate(0 0)">
                <g id="Groupe-91" data-name="Groupe" clip-path="url(#clip-path-44)">
                  <rect id="Rectangle-43" data-name="Rectangle" width="97.424" height="61.465" transform="translate(0 0)" fill="url(#linear-gradient-30)"/>
                </g>
              </g>
            </g>
          </g>
        </g>
      </g>
    </g>
    <g id="Groupe-92" data-name="Groupe" transform="translate(373.197 325.414)">
      <g id="Groupe-93" data-name="Groupe" clip-path="url(#clip-path-45)">
        <rect id="Rectangle-44" data-name="Rectangle" width="39.409" height="33.717" transform="translate(-0.411 0)" fill="url(#linear-gradient-31)"/>
      </g>
    </g>
    <g id="Groupe-94" data-name="Groupe" transform="translate(374.097 318.374)">
      <g id="Groupe-95" data-name="Groupe" clip-path="url(#clip-path-46)">
        <rect id="Rectangle-45" data-name="Rectangle" width="32.294" height="32.348" transform="matrix(0.81, -0.586, 0.586, 0.81, -11.828, 7.991)" fill="url(#linear-gradient-32)"/>
      </g>
    </g>
    <g id="Groupe-96" data-name="Groupe" transform="translate(376.724 328.251)">
      <g id="Groupe-97" data-name="Groupe" clip-path="url(#clip-path-47)">
        <rect id="Rectangle-46" data-name="Rectangle" width="21.373" height="18.001" transform="translate(-1.925 0)" fill="url(#linear-gradient-33)"/>
      </g>
    </g>
    <g id="Groupe-98" data-name="Groupe" transform="translate(377.918 327.747)">
      <g id="Groupe-99" data-name="Groupe" clip-path="url(#clip-path-48)">
        <rect id="Rectangle-47" data-name="Rectangle" width="24.775" height="25.488" transform="translate(-9.385 6.728) rotate(-35.879)" fill="url(#linear-gradient-34)"/>
      </g>
    </g>
    <g id="Groupe-100" data-name="Groupe" transform="translate(0 0.001)">
      <g id="Groupe-101" data-name="Groupe" clip-path="url(#clip-path-5)">
        <path id="Tracé_824" data-name="Tracé 824" d="M1948.423,1744.45a7,7,0,0,0,3.409-.342c.1-.032.219-.031.245.017a2.634,2.634,0,0,1-2.319,1.387c-.935-.018-1.827-.665-1.765-.905.027-.1.227-.141.43-.157" transform="translate(-1568.169 -1404.378)" fill="#f4f7fa"/>
      </g>
    </g>
    <g id="Groupe-102" data-name="Groupe" transform="translate(347.462 48.16)" clip-path="url(#clip-path-50)">
      <rect id="Rectangle-48" data-name="Rectangle" width="136.546" height="153.722" transform="matrix(0.932, -0.362, 0.362, 0.932, -42.918, 16.662)" fill="#036eff"/>
    </g>
    <path id="Tracé_826" data-name="Tracé 826" d="M1946.832,383.5a27.074,27.074,0,1,1-27.074-27.074,27.074,27.074,0,0,1,27.074,27.074" transform="translate(-1523.725 -286.801)" fill="#fff"/>
    <g id="Groupe-103" data-name="Groupe" transform="translate(386.128 184.497)">
      <g id="Groupe-104" data-name="Groupe" clip-path="url(#clip-path-51)">
        <rect id="Rectangle-49" data-name="Rectangle" width="27.489" height="27.489" transform="matrix(0.55, -0.835, 0.835, 0.55, -9.117, 13.838)" fill="#036eff"/>
      </g>
    </g>
    <g id="Groupe-105" data-name="Groupe" transform="translate(143.402 209.551)">
      <g id="Groupe-106" data-name="Groupe" clip-path="url(#clip-path-52)">
        <rect id="Rectangle-50" data-name="Rectangle" width="136.545" height="153.722" transform="translate(-42.918 16.662) rotate(-21.218)" fill="#ffae00"/>
      </g>
    </g>
    <g id="Groupe-107" data-name="Groupe" transform="translate(0 0.001)">
      <g id="Groupe-108" data-name="Groupe" clip-path="url(#clip-path-5)">
        <path id="Tracé_830" data-name="Tracé 830" d="M899.724,1213.715a27.022,27.022,0,1,1-27.022-26.994,27.008,27.008,0,0,1,27.022,26.994" transform="translate(-680.788 -955.575)" fill="#fff"/>
        <g id="Groupe-109" data-name="Groupe" transform="translate(143.462 210.322)" opacity="0.2" style="mix-blend-mode: multiply;isolation: isolate">
          <g id="Groupe-110" data-name="Groupe">
            <g id="Groupe-111" data-name="Groupe" clip-path="url(#clip-path-54)">
              <g id="Groupe-112" data-name="Groupe" transform="translate(0 0.001)">
                <g id="Groupe-113" data-name="Groupe" clip-path="url(#clip-path-55)">
                  <path id="Tracé_844" data-name="Tracé 844" d="M0,0,105.774.037l.05,140.462L.05,140.462Z" transform="translate(-42.41 16.448) rotate(-21.218)" fill="url(#linear-gradient-35)"/>
                </g>
              </g>
            </g>
          </g>
        </g>
      </g>
    </g>
    <g id="Groupe-114" data-name="Groupe" transform="translate(181.997 346.2)">
      <g id="Groupe-115" data-name="Groupe" clip-path="url(#clip-path-56)">
        <rect id="Rectangle-51" data-name="Rectangle" width="27.489" height="27.489" transform="matrix(0.55, -0.835, 0.835, 0.55, -9.117, 13.838)" fill="#ffae00"/>
      </g>
    </g>
    <g id="Groupe-116" data-name="Groupe" transform="translate(313.731 360.857)">
      <g id="Groupe-117" data-name="Groupe" clip-path="url(#clip-path-57)">
        <rect id="Rectangle-52" data-name="Rectangle" width="9.77" height="9.77" transform="translate(0 0)" fill="#62a6c9"/>
      </g>
    </g>
    <g id="Groupe-118" data-name="Groupe" transform="translate(290.726 324.894)">
      <g id="Groupe-119" data-name="Groupe" clip-path="url(#clip-path-58)">
        <rect id="Rectangle-53" data-name="Rectangle" width="56.571" height="16.244" transform="translate(-0.405 0)" fill="#62a6c9"/>
      </g>
    </g>
    <g id="Groupe-120" data-name="Groupe" transform="translate(298.799 336.24)">
      <g id="Groupe-121" data-name="Groupe" clip-path="url(#clip-path-59)">
        <rect id="Rectangle-54" data-name="Rectangle" width="40.438" height="12.803" transform="translate(-0.408 0)" fill="#62a6c9"/>
      </g>
    </g>
    <g id="Groupe-122" data-name="Groupe" transform="translate(306.927 347.585)">
      <g id="Groupe-123" data-name="Groupe" clip-path="url(#clip-path-60)">
        <rect id="Rectangle-55" data-name="Rectangle" width="24.372" height="9.598" transform="translate(-0.5 0)" fill="#62a6c9"/>
      </g>
    </g>
    <g id="Groupe-124" data-name="Groupe" transform="translate(261.24 69.97)">
      <g id="Groupe-125" data-name="Groupe" clip-path="url(#clip-path-61)">
        <rect id="Rectangle-56" data-name="Rectangle" width="10.843" height="10.843" transform="translate(-1.132 0.133) rotate(-6.698)" fill="#62a6c9"/>
      </g>
    </g>
    <g id="Groupe-126" data-name="Groupe" transform="translate(238.246 33.91)">
      <g id="Groupe-127" data-name="Groupe" clip-path="url(#clip-path-62)">
        <rect id="Rectangle-57" data-name="Rectangle" width="58.08" height="22.732" transform="translate(-2.287 0.221) rotate(-6.698)" fill="#62a6c9"/>
      </g>
    </g>
    <g id="Groupe-128" data-name="Groupe" transform="translate(246.315 45.283)">
      <g id="Groupe-129" data-name="Groupe" clip-path="url(#clip-path-63)">
        <rect id="Rectangle-58" data-name="Rectangle" width="41.655" height="17.432" transform="translate(-1.891 0.174) rotate(-6.698)" fill="#62a6c9"/>
      </g>
    </g>
    <g id="Groupe-130" data-name="Groupe" transform="translate(254.44 56.657)">
      <g id="Groupe-131" data-name="Groupe" clip-path="url(#clip-path-64)">
        <rect id="Rectangle-59" data-name="Rectangle" width="25.325" height="12.375" transform="translate(-1.612 0.131) rotate(-6.698)" fill="#62a6c9"/>
      </g>
    </g>
  </g>
</svg>
