<svg xmlns="http://www.w3.org/2000/svg" xmlns:xlink="http://www.w3.org/1999/xlink" width="88" height="88" viewBox="0 0 88 88">
  <defs>
    <filter id="Ellipse_49" x="0" y="0" width="88" height="88" filterUnits="userSpaceOnUse">
      <feOffset dy="3" input="SourceAlpha"/>
      <feGaussianBlur stdDeviation="3" result="blur"/>
      <feFlood flood-opacity="0.161"/>
      <feComposite operator="in" in2="blur"/>
      <feComposite in="SourceGraphic"/>
    </filter>
  </defs>
  <g id="peering" transform="translate(-186 -1143)">
    <g transform="matrix(1, 0, 0, 1, 186, 1143)" filter="url(#Ellipse_49)">
      <circle id="Ellipse_49-2" data-name="Ellipse 49" cx="35" cy="35" r="35" transform="translate(9 6)" fill="#fff"/>
    </g>
    <g id="peering-2" data-name="peering" transform="translate(208 1162)">
      <path id="Tracé_1104" data-name="Tracé 1104" d="M53.431,29.966a.62.62,0,0,1-.575-.635.64.64,0,0,1,.626-.6.584.584,0,0,1,.575.636.6.6,0,0,1-.626.6" transform="translate(-14.985 -7.545)" fill="#546d7b"/>
      <path id="Tracé_1105" data-name="Tracé 1105" d="M53.149,32.563a.635.635,0,0,1-.509-.7.625.625,0,0,1,.681-.525.6.6,0,0,1,.509.7.588.588,0,0,1-.681.525" transform="translate(-14.922 -8.23)" fill="#546d7b"/>
      <path id="Tracé_1106" data-name="Tracé 1106" d="M52.578,35.112a.651.651,0,0,1-.436-.757.6.6,0,1,1,1.162.314.573.573,0,0,1-.726.443" transform="translate(-14.778 -8.902)" fill="#546d7b"/>
      <path id="Tracé_1107" data-name="Tracé 1107" d="M51.7,37.57a.65.65,0,0,1-.334-.8.593.593,0,0,1,.762-.358.625.625,0,0,1,.358.807.574.574,0,0,1-.786.348" transform="translate(-14.554 -9.555)" fill="#546d7b"/>
      <path id="Tracé_1108" data-name="Tracé 1108" d="M50.545,39.913a.617.617,0,0,1-.228-.823.578.578,0,0,1,.787-.27.641.641,0,0,1,.275.848.6.6,0,0,1-.835.245" transform="translate(-14.244 -10.179)" fill="#546d7b"/>
      <path id="Tracé_1109" data-name="Tracé 1109" d="M49.133,42.112a.624.624,0,0,1-.14-.848.607.607,0,0,1,.823-.169.615.615,0,0,1,.169.868.6.6,0,0,1-.852.149" transform="translate(-13.859 -10.768)" fill="#546d7b"/>
      <path id="Tracé_1110" data-name="Tracé 1110" d="M47.487,44.14a.639.639,0,0,1-.054-.866.62.62,0,0,1,.85-.06.6.6,0,0,1,.059.87.583.583,0,0,1-.855.056" transform="translate(-13.406 -11.312)" fill="#546d7b"/>
      <path id="Tracé_1111" data-name="Tracé 1111" d="M45.626,45.969a.654.654,0,0,1,.035-.875.605.605,0,0,1,.848.035.615.615,0,0,1-.035.875.57.57,0,0,1-.848-.035" transform="translate(-12.893 -11.802)" fill="#546d7b"/>
      <path id="Tracé_1112" data-name="Tracé 1112" d="M43.564,47.567a.665.665,0,0,1,.134-.861.591.591,0,0,1,.831.125.627.627,0,0,1-.124.875.565.565,0,0,1-.841-.139" transform="translate(-12.322 -12.235)" fill="#546d7b"/>
      <path id="Tracé_1113" data-name="Tracé 1113" d="M41.325,48.915a.632.632,0,0,1,.236-.824.582.582,0,0,1,.807.212.639.639,0,0,1-.216.864.589.589,0,0,1-.828-.252" transform="translate(-11.696 -12.607)" fill="#546d7b"/>
      <path id="Tracé_1114" data-name="Tracé 1114" d="M38.949,50a.612.612,0,0,1,.328-.787.6.6,0,0,1,.779.308.624.624,0,0,1-.31.83.606.606,0,0,1-.8-.352" transform="translate(-11.031 -12.913)" fill="#546d7b"/>
      <path id="Tracé_1115" data-name="Tracé 1115" d="M36.468,50.815a.62.62,0,0,1,.412-.752.629.629,0,0,1,.744.414.6.6,0,1,1-1.156.338" transform="translate(-10.333 -13.143)" fill="#546d7b"/>
      <path id="Tracé_1116" data-name="Tracé 1116" d="M33.909,51.335a.6.6,0,1,1,1.187-.2.6.6,0,1,1-1.187.2" transform="translate(-9.612 -13.294)" fill="#546d7b"/>
      <path id="Tracé_1117" data-name="Tracé 1117" d="M31.307,51.566a.633.633,0,0,1,.566-.654.627.627,0,0,1,.634.582.6.6,0,0,1-.566.653.589.589,0,0,1-.634-.581" transform="translate(-8.876 -13.371)" fill="#546d7b"/>
      <path id="Tracé_1118" data-name="Tracé 1118" d="M28.693,51.507a.639.639,0,0,1,.635-.591.622.622,0,0,1,.567.644.6.6,0,0,1-.634.591.586.586,0,0,1-.567-.644" transform="translate(-8.134 -13.372)" fill="#546d7b"/>
      <path id="Tracé_1119" data-name="Tracé 1119" d="M26.107,51.137a.632.632,0,0,1,.692-.5.614.614,0,0,1,.493.7.6.6,0,0,1-.7.521.59.59,0,0,1-.489-.72" transform="translate(-7.398 -13.298)" fill="#546d7b"/>
      <path id="Tracé_1120" data-name="Tracé 1120" d="M23.581,50.474a.6.6,0,0,1,.739-.4.617.617,0,0,1-.338,1.187.621.621,0,0,1-.4-.788" transform="translate(-6.677 -13.145)" fill="#546d7b"/>
      <path id="Tracé_1121" data-name="Tracé 1121" d="M21.146,49.525a.584.584,0,0,1,.777-.306.627.627,0,0,1,.327.79.594.594,0,0,1-.8.35.636.636,0,0,1-.31-.833" transform="translate(-5.979 -12.912)" fill="#546d7b"/>
      <path id="Tracé_1122" data-name="Tracé 1122" d="M18.833,48.308a.592.592,0,0,1,.812-.221.66.66,0,0,1,.229.838.565.565,0,0,1-.82.238.627.627,0,0,1-.221-.855" transform="translate(-5.314 -12.607)" fill="#546d7b"/>
      <path id="Tracé_1123" data-name="Tracé 1123" d="M16.669,46.842a.6.6,0,0,1,.838-.133.654.654,0,0,1,.131.866.571.571,0,0,1-.838.134.616.616,0,0,1-.13-.866" transform="translate(-4.691 -12.237)" fill="#546d7b"/>
      <path id="Tracé_1124" data-name="Tracé 1124" d="M14.683,45.144a.618.618,0,0,1,.853-.041.642.642,0,0,1,.042.868.582.582,0,0,1-.855.044.6.6,0,0,1-.039-.87" transform="translate(-4.115 -11.806)" fill="#546d7b"/>
      <path id="Tracé_1125" data-name="Tracé 1125" d="M12.919,43.215a.608.608,0,0,1,.838.07.626.626,0,0,1-.046.859.593.593,0,0,1-.862-.049.614.614,0,0,1,.07-.88" transform="translate(-3.599 -11.314)" fill="#546d7b"/>
      <path id="Tracé_1126" data-name="Tracé 1126" d="M11.384,41.1a.575.575,0,0,1,.812.176.616.616,0,0,1-.134.844.6.6,0,0,1-.857-.145.645.645,0,0,1,.179-.875" transform="translate(-3.149 -10.769)" fill="#546d7b"/>
      <path id="Tracé_1127" data-name="Tracé 1127" d="M10.094,38.829a.591.591,0,0,1,.8.265.653.653,0,0,1-.242.83.573.573,0,0,1-.82-.251.63.63,0,0,1,.266-.844" transform="translate(-2.767 -10.181)" fill="#546d7b"/>
      <path id="Tracé_1128" data-name="Tracé 1128" d="M9.068,36.428a.606.606,0,0,1,.771.355.654.654,0,0,1-.348.8.571.571,0,0,1-.772-.354.614.614,0,0,1,.349-.8" transform="translate(-2.46 -9.558)" fill="#546d7b"/>
      <path id="Tracé_1129" data-name="Tracé 1129" d="M8.319,33.924a.622.622,0,0,1,.736.441.638.638,0,0,1-.427.754.585.585,0,0,1-.736-.441.6.6,0,0,1,.427-.754" transform="translate(-2.231 -8.905)" fill="#546d7b"/>
      <path id="Tracé_1130" data-name="Tracé 1130" d="M7.865,31.35a.637.637,0,0,1,.684.524.622.622,0,0,1-.5.7.6.6,0,0,1-.691-.523.587.587,0,0,1,.507-.7" transform="translate(-2.084 -8.233)" fill="#546d7b"/>
      <path id="Tracé_1131" data-name="Tracé 1131" d="M7.718,28.74a.635.635,0,0,1,.609.6.6.6,0,1,1-1.2.035.588.588,0,0,1,.592-.636" transform="translate(-2.02 -7.548)" fill="#546d7b"/>
      <path id="Tracé_1132" data-name="Tracé 1132" d="M7.863,26.132a.617.617,0,0,1,.527.666.594.594,0,0,1-.624.566.624.624,0,0,1-.573-.67.6.6,0,0,1,.67-.561" transform="translate(-2.039 -6.862)" fill="#546d7b"/>
      <path id="Tracé_1133" data-name="Tracé 1133" d="M8.3,23.558a.6.6,0,0,1,.444.723.6.6,0,0,1-.683.488.623.623,0,0,1-.5-.733.614.614,0,0,1,.734-.478" transform="translate(-2.142 -6.182)" fill="#546d7b"/>
      <path id="Tracé_1134" data-name="Tracé 1134" d="M9.028,21.05a.617.617,0,0,1-.378,1.173.616.616,0,0,1,.378-1.173" transform="translate(-2.329 -5.519)" fill="#546d7b"/>
      <path id="Tracé_1135" data-name="Tracé 1135" d="M10.038,18.64a.637.637,0,0,1,.29.816.622.622,0,0,1-.8.3.6.6,0,0,1-.29-.816.584.584,0,0,1,.8-.3" transform="translate(-2.601 -4.879)" fill="#546d7b"/>
      <path id="Tracé_1136" data-name="Tracé 1136" d="M11.311,16.357a.654.654,0,0,1,.206.851.605.605,0,0,1-.822.212.614.614,0,0,1-.206-.851.571.571,0,0,1,.822-.212" transform="translate(-2.948 -4.271)" fill="#546d7b"/>
      <path id="Tracé_1137" data-name="Tracé 1137" d="M12.847,14.244a.664.664,0,0,1,.1.864.591.591,0,0,1-.831.12.628.628,0,0,1-.12-.876.564.564,0,0,1,.846-.108" transform="translate(-3.367 -3.703)" fill="#546d7b"/>
      <path id="Tracé_1138" data-name="Tracé 1138" d="M14.613,12.323a.628.628,0,0,1,0,.858.577.577,0,0,1-.831.03.644.644,0,0,1-.031-.892.592.592,0,0,1,.866,0" transform="translate(-3.851 -3.187)" fill="#546d7b"/>
      <path id="Tracé_1139" data-name="Tracé 1139" d="M16.582,10.613a.623.623,0,0,1-.1.853.6.6,0,0,1-.834-.074.621.621,0,0,1,.072-.883.6.6,0,0,1,.859.1" transform="translate(-4.394 -2.724)" fill="#546d7b"/>
      <path id="Tracé_1140" data-name="Tracé 1140" d="M18.729,9.132a.634.634,0,0,1-.186.845.621.621,0,0,1-.83-.185.6.6,0,0,1,.179-.855.587.587,0,0,1,.837.195" transform="translate(-4.991 -2.321)" fill="#546d7b"/>
      <path id="Tracé_1141" data-name="Tracé 1141" d="M21.035,7.9a.647.647,0,0,1-.274.828.615.615,0,0,1-.531-1.11.577.577,0,0,1,.8.282" transform="translate(-5.638 -1.983)" fill="#546d7b"/>
      <path id="Tracé_1142" data-name="Tracé 1142" d="M23.465,6.94a.657.657,0,0,1-.363.793.6.6,0,0,1-.765-.365.617.617,0,0,1,.36-.8.569.569,0,0,1,.767.371" transform="translate(-6.321 -1.714)" fill="#546d7b"/>
      <path id="Tracé_1143" data-name="Tracé 1143" d="M25.995,6.28a.641.641,0,0,1-.451.73.6.6,0,0,1-.716-.444.624.624,0,0,1,.445-.761.583.583,0,0,1,.723.475" transform="translate(-7.032 -1.519)" fill="#546d7b"/>
      <path id="Tracé_1144" data-name="Tracé 1144" d="M28.58,5.912a.6.6,0,0,1-.532.657.587.587,0,0,1-.661-.516.632.632,0,0,1,.525-.713.616.616,0,0,1,.667.572" transform="translate(-7.763 -1.402)" fill="#546d7b"/>
      <path id="Tracé_1145" data-name="Tracé 1145" d="M31.191,5.837a.6.6,0,0,1-.6.592.619.619,0,0,1,0-1.237.623.623,0,0,1,.6.644" transform="translate(-8.502 -1.364)" fill="#546d7b"/>
      <path id="Tracé_1146" data-name="Tracé 1146" d="M33.795,6.054a.6.6,0,0,1-.663.526.641.641,0,0,1-.529-.675.584.584,0,0,1,.665-.555.618.618,0,0,1,.527.7" transform="translate(-9.242 -1.403)" fill="#546d7b"/>
      <path id="Tracé_1147" data-name="Tracé 1147" d="M36.358,6.565a.607.607,0,0,1-.719.453.653.653,0,0,1-.449-.747.571.571,0,0,1,.719-.458.613.613,0,0,1,.448.751" transform="translate(-9.974 -1.522)" fill="#546d7b"/>
      <path id="Tracé_1148" data-name="Tracé 1148" d="M38.847,7.36a.616.616,0,0,1-.768.375.644.644,0,0,1-.364-.79.58.58,0,0,1,.768-.375.606.606,0,0,1,.364.79" transform="translate(-10.684 -1.715)" fill="#546d7b"/>
      <path id="Tracé_1149" data-name="Tracé 1149" d="M41.227,8.437a.624.624,0,0,1-.805.284.634.634,0,0,1-.278-.818.588.588,0,0,1,.809-.291.6.6,0,0,1,.274.826" transform="translate(-11.366 -1.983)" fill="#546d7b"/>
      <path id="Tracé_1150" data-name="Tracé 1150" d="M43.46,9.793a.605.605,0,0,1-.822.173.621.621,0,0,1-.191-.836.6.6,0,0,1,.841-.2.615.615,0,0,1,.171.867" transform="translate(-12.01 -2.319)" fill="#546d7b"/>
      <path id="Tracé_1151" data-name="Tracé 1151" d="M45.53,11.387a.576.576,0,0,1-.829.066.622.622,0,0,1-.1-.849.6.6,0,0,1,.861-.108.645.645,0,0,1,.067.891" transform="translate(-12.61 -2.721)" fill="#546d7b"/>
      <path id="Tracé_1152" data-name="Tracé 1152" d="M47.411,13.2a.588.588,0,0,1-.838-.023.66.66,0,0,1,.007-.869.567.567,0,0,1,.854.007.631.631,0,0,1-.023.886" transform="translate(-13.158 -3.183)" fill="#546d7b"/>
      <path id="Tracé_1153" data-name="Tracé 1153" d="M49.073,15.218a.6.6,0,0,1-.839-.114.656.656,0,0,1,.112-.87.567.567,0,0,1,.839.114.617.617,0,0,1-.112.87" transform="translate(-13.641 -3.702)" fill="#546d7b"/>
      <path id="Tracé_1154" data-name="Tracé 1154" d="M50.5,17.407a.619.619,0,0,1-.83-.206.64.64,0,0,1,.2-.846.581.581,0,0,1,.83.206.6.6,0,0,1-.2.846" transform="translate(-14.057 -4.27)" fill="#546d7b"/>
      <path id="Tracé_1155" data-name="Tracé 1155" d="M51.65,19.754a.615.615,0,0,1-.507-1.12.6.6,0,0,1,.812.3.6.6,0,0,1-.3.823" transform="translate(-14.403 -4.877)" fill="#546d7b"/>
      <path id="Tracé_1156" data-name="Tracé 1156" d="M52.53,22.214a.59.59,0,0,1-.732-.4.6.6,0,1,1,1.143-.383.63.63,0,0,1-.411.787" transform="translate(-14.675 -5.516)" fill="#546d7b"/>
      <path id="Tracé_1157" data-name="Tracé 1157" d="M53.126,24.758a.591.591,0,0,1-.684-.488.627.627,0,0,1,.452-.724.594.594,0,0,1,.726.479.628.628,0,0,1-.494.733" transform="translate(-14.865 -6.179)" fill="#546d7b"/>
      <path id="Tracé_1158" data-name="Tracé 1158" d="M53.423,27.353a.6.6,0,0,1-.633-.565.647.647,0,0,1,.544-.667.577.577,0,0,1,.653.562.613.613,0,0,1-.563.67" transform="translate(-14.966 -6.859)" fill="#546d7b"/>
      <path id="Tracé_1159" data-name="Tracé 1159" d="M56.509,30.784H45.866a.39.39,0,0,1-.385-.4v-8.47a.39.39,0,0,1,.385-.4H56.509a.39.39,0,0,1,.385.4v8.47a.391.391,0,0,1-.385.4" transform="translate(-12.894 -5.653)" fill="#9fbecf"/>
      <path id="Tracé_1160" data-name="Tracé 1160" d="M56.307,29.751h-9.58a.085.085,0,0,1-.084-.086V22.546a.085.085,0,0,1,.084-.086h9.58a.085.085,0,0,1,.084.086v7.119a.085.085,0,0,1-.084.086" transform="translate(-13.224 -5.899)" fill="#546d7b"/>
      <rect id="Rectangle" width="9.61" height="7.15" rx="0.021" transform="translate(33.489 16.632)" fill="#38b5fd"/>
      <path id="Tracé_1161" data-name="Tracé 1161" d="M46.754,29.705a.015.015,0,0,1-.015-.015l9.595-7.135a.015.015,0,0,1,.015.015V29.69a.015.015,0,0,1-.015.015Z" transform="translate(-13.251 -5.924)" fill="#0998ea"/>
      <path id="Tracé_1162" data-name="Tracé 1162" d="M53.466,34.083h-2c0,.65-.489,1.015-1.472,1.2H54.94c-.983-.186-1.473-.551-1.473-1.2" transform="translate(-14.174 -8.951)" fill="#71a0b9"/>
      <path id="Tracé_1163" data-name="Tracé 1163" d="M55.623,36.117a.4.4,0,0,0-.395-.406H48.811a.4.4,0,0,0-.395.406Z" transform="translate(-13.726 -9.379)" fill="#9fbecf"/>
      <rect id="Rectangle-2" data-name="Rectangle" width="0.38" height="0.247" transform="translate(42.74 24.364)" fill="#009e58"/>
      <path id="Tracé_1164" data-name="Tracé 1164" d="M11.028,30.784H.385a.39.39,0,0,1-.385-.4v-8.47a.39.39,0,0,1,.385-.4H11.028a.39.39,0,0,1,.384.4v8.47a.39.39,0,0,1-.384.4" transform="translate(0 -5.653)" fill="#9fbecf"/>
      <path id="Tracé_1165" data-name="Tracé 1165" d="M10.825,29.751H1.246a.085.085,0,0,1-.084-.086V22.546a.085.085,0,0,1,.084-.086h9.58a.085.085,0,0,1,.084.086v7.119a.085.085,0,0,1-.084.086" transform="translate(-0.329 -5.899)" fill="#546d7b"/>
      <rect id="Rectangle-3" data-name="Rectangle" width="9.61" height="7.15" rx="0.021" transform="translate(0.901 16.632)" fill="#38b5fd"/>
      <path id="Tracé_1166" data-name="Tracé 1166" d="M1.273,29.705a.015.015,0,0,1-.015-.015l9.595-7.135a.015.015,0,0,1,.015.015V29.69a.015.015,0,0,1-.015.015Z" transform="translate(-0.357 -5.924)" fill="#0998ea"/>
      <path id="Tracé_1167" data-name="Tracé 1167" d="M7.985,34.083h-2c0,.65-.489,1.015-1.472,1.2H9.459c-.983-.186-1.473-.551-1.473-1.2" transform="translate(-1.28 -8.951)" fill="#71a0b9"/>
      <path id="Tracé_1168" data-name="Tracé 1168" d="M10.142,36.117a.4.4,0,0,0-.395-.406H3.33a.4.4,0,0,0-.395.406Z" transform="translate(-0.832 -9.379)" fill="#9fbecf"/>
      <rect id="Rectangle-4" data-name="Rectangle" width="0.38" height="0.247" transform="translate(10.153 24.364)" fill="#009e58"/>
      <path id="Tracé_1169" data-name="Tracé 1169" d="M33.892,9.261H23.249a.39.39,0,0,1-.385-.4V.4a.39.39,0,0,1,.385-.4H33.892a.39.39,0,0,1,.384.4V8.866a.39.39,0,0,1-.384.4" transform="translate(-6.482 0)" fill="#9fbecf"/>
      <path id="Tracé_1170" data-name="Tracé 1170" d="M33.69,8.229h-9.58a.085.085,0,0,1-.084-.086V1.024a.085.085,0,0,1,.084-.086h9.58a.085.085,0,0,1,.084.086V8.143a.085.085,0,0,1-.084.086" transform="translate(-6.812 -0.247)" fill="#546d7b"/>
      <rect id="Rectangle-5" data-name="Rectangle" width="9.61" height="7.15" rx="0.021" transform="translate(17.284 0.762)" fill="#38b5fd"/>
      <path id="Tracé_1171" data-name="Tracé 1171" d="M24.137,8.183a.015.015,0,0,1-.015-.015l9.595-7.135a.015.015,0,0,1,.015.015V8.168a.015.015,0,0,1-.015.015Z" transform="translate(-6.839 -0.272)" fill="#0998ea"/>
      <path id="Tracé_1172" data-name="Tracé 1172" d="M30.849,12.56h-2c0,.65-.489,1.015-1.472,1.2h4.945c-.983-.186-1.473-.551-1.473-1.2" transform="translate(-7.762 -3.299)" fill="#71a0b9"/>
      <path id="Tracé_1173" data-name="Tracé 1173" d="M33.006,14.594a.4.4,0,0,0-.395-.406H26.194a.4.4,0,0,0-.395.406Z" transform="translate(-7.314 -3.726)" fill="#9fbecf"/>
      <rect id="Rectangle-6" data-name="Rectangle" width="0.38" height="0.247" transform="translate(26.535 8.493)" fill="#009e58"/>
      <path id="Tracé_1174" data-name="Tracé 1174" d="M33.892,54.193H23.249a.39.39,0,0,1-.385-.4V45.327a.39.39,0,0,1,.385-.4H33.892a.39.39,0,0,1,.384.4V53.8a.39.39,0,0,1-.384.4" transform="translate(-6.482 -11.8)" fill="#9fbecf"/>
      <path id="Tracé_1175" data-name="Tracé 1175" d="M33.69,53.161h-9.58a.085.085,0,0,1-.084-.086V45.956a.085.085,0,0,1,.084-.086h9.58a.085.085,0,0,1,.084.086v7.119a.085.085,0,0,1-.084.086" transform="translate(-6.812 -12.047)" fill="#546d7b"/>
      <rect id="Rectangle-7" data-name="Rectangle" width="9.61" height="7.15" rx="0.021" transform="translate(17.284 33.893)" fill="#38b5fd"/>
      <path id="Tracé_1176" data-name="Tracé 1176" d="M24.137,53.115a.015.015,0,0,1-.015-.015l9.595-7.135a.015.015,0,0,1,.015.015V53.1a.015.015,0,0,1-.015.015Z" transform="translate(-6.839 -12.072)" fill="#0998ea"/>
      <path id="Tracé_1177" data-name="Tracé 1177" d="M30.849,57.492h-2c0,.65-.489,1.015-1.472,1.2h4.945c-.983-.186-1.473-.551-1.473-1.2" transform="translate(-7.762 -15.099)" fill="#71a0b9"/>
      <path id="Tracé_1178" data-name="Tracé 1178" d="M33.006,59.526a.4.4,0,0,0-.395-.406H26.194a.4.4,0,0,0-.395.406Z" transform="translate(-7.314 -15.527)" fill="#9fbecf"/>
      <rect id="Rectangle-8" data-name="Rectangle" width="0.38" height="0.247" transform="translate(26.535 41.625)" fill="#009e58"/>
      <path id="Tracé_1179" data-name="Tracé 1179" d="M32.064,34.072a2.045,2.045,0,1,1-2.043-2.1,2.074,2.074,0,0,1,2.043,2.1" transform="translate(-7.931 -8.396)" fill="#0998ea"/>
      <path id="Tracé_1180" data-name="Tracé 1180" d="M35.4,25.454a.6.6,0,0,1-.481-.247,9.157,9.157,0,0,0-14.943,0,.589.589,0,0,1-.839.124.629.629,0,0,1-.12-.863,10.337,10.337,0,0,1,16.863,0,.629.629,0,0,1-.12.863.586.586,0,0,1-.359.123" transform="translate(-5.356 -5.282)" fill="#0998ea"/>
      <path id="Tracé_1181" data-name="Tracé 1181" d="M34.137,28.684a.594.594,0,0,1-.5-.278,6.309,6.309,0,0,0-10.731,0,.588.588,0,0,1-.83.177.628.628,0,0,1-.172-.854,7.49,7.49,0,0,1,12.735,0,.627.627,0,0,1-.172.854.581.581,0,0,1-.328.1" transform="translate(-6.182 -6.351)" fill="#0998ea"/>
      <path id="Tracé_1182" data-name="Tracé 1182" d="M25.25,31.817A.584.584,0,0,1,25,31.758a.624.624,0,0,1-.287-.82,4.761,4.761,0,0,1,8.738,0,.624.624,0,0,1-.287.82.594.594,0,0,1-.8-.295,3.576,3.576,0,0,0-6.569,0,.6.6,0,0,1-.543.354" transform="translate(-6.989 -7.372)" fill="#0998ea"/>
    </g>
  </g>
</svg>
