<svg xmlns="http://www.w3.org/2000/svg" width="45" height="55" viewBox="0 0 45 55">
  <g id="porte-document" transform="translate(-36.315 -34.961)">
    <path id="Tracé" d="M60.976,80l35.788.052L93.61,130.344l-40.11.1Z" transform="translate(-15.448 -40.487)" fill="#206575"/>
    <path id="Tracé-2" data-name="Tracé" d="M60.792,80l34.91.052-4.034,50.292-38.168.1Z" transform="translate(-15.448 -40.487)" fill="#3f8fb9"/>
    <path id="Tracé-3" data-name="Tracé" d="M66.547,102l28.066.1,4.453,4.486c-.086,6.682-.352,12.347-.621,16.694a178.933,178.933,0,0,1-1.864,18.676c-.488,3.059-.985,5.578-1.346,7.3l-36.249-.278Z" transform="translate(-20.379 -60.263)" fill="#f6f8f9"/>
    <path id="Tracé_-_Contour" data-name="Tracé - Contour" d="M65.976,101.5h.044l28.086.1.015.015,4.468,4.5v.022c-.072,5.581-.281,11.2-.621,16.7-.171,2.755-.364,5.877-.651,9-.307,3.339-.693,6.415-1.213,9.677-.39,2.445-.843,4.9-1.347,7.306l-.009.042h-.042l-18.127-.139-18.119-.139H58.4l.01-.06Zm28.087.209-28-.1L58.52,148.482l18.059.139,18.085.139c.5-2.388.95-4.83,1.337-7.259.52-3.261.905-6.333,1.212-9.671.287-3.124.481-6.245.651-9,.34-5.488.549-11.1.621-16.668Z" transform="translate(-19.851 -59.812)" fill="#101041"/>
    <path id="Tracé-4" data-name="Tracé" d="M59.385,102l28.052.1,4.451,4.489c-.219,6.541-.628,12.156-1.035,16.6a173.9,173.9,0,0,1-2.484,18.685c-.533,2.751-1.055,5.041-1.449,6.681L51,148.244q2.985-13.978,5.59-28.915Q58.114,110.531,59.385,102Z" transform="translate(-13.201 -60.263)" fill="#f6f8f9"/>
    <path id="Tracé_-_Contour-2" data-name="Tracé - Contour" d="M58.786,101.5h.045l28.072.1.015.015,4.467,4.5v.023c-.1,3.024-.252,6.082-.447,9.087-.163,2.5-.36,5.027-.588,7.513-.286,3.126-.534,5.749-.9,8.679-.422,3.4-.941,6.677-1.587,10.01-.434,2.236-.921,4.484-1.45,6.683l-.01.04h-.041l-35.981-.314.013-.063c1.005-4.708,1.979-9.491,2.894-14.217.942-4.866,1.849-9.81,2.695-14.694.994-5.736,1.934-11.566,2.794-17.326Zm28.073.209-27.984-.1c-.859,5.747-1.8,11.561-2.788,17.284-.846,4.885-1.753,9.829-2.7,14.7-.911,4.706-1.88,9.469-2.881,14.157l35.812.312c.524-2.184,1.008-4.417,1.439-6.638.646-3.331,1.165-6.6,1.586-10,.363-2.928.611-5.551.9-8.676.228-2.484.425-5.011.588-7.51.195-3,.345-6.045.446-9.061Z" transform="translate(-12.645 -59.812)" fill="#101041"/>
    <path id="Tracé-5" data-name="Tracé" d="M46.826,102l28.03.1L79.3,106.6c-.38,6.472-1.023,12.017-1.655,16.408-1.181,8.206-2.635,14.573-3.517,18.394-.527,2.284-1,4.186-1.345,5.539L37,146.731a249.783,249.783,0,0,0,7.033-27.382C45.227,113.3,46.138,107.5,46.826,102Z" transform="translate(-0.615 -60.263)" fill="#f6f8f9"/>
    <path id="Tracé_-_Contour-3" data-name="Tracé - Contour" d="M46.166,101.5h.046l28.049.1.015.015,4.464,4.51v.023c-.176,2.994-.422,6.018-.733,8.986-.259,2.474-.569,4.973-.922,7.425-.276,1.92-.587,3.872-.924,5.8-.29,1.663-.609,3.36-.947,5.044-.646,3.217-1.272,5.932-1.646,7.553-.426,1.846-.878,3.71-1.345,5.54l-.01.039h-.04l-17.892-.1-17.892-.1h-.071l.022-.068c1.362-4.282,2.625-8.657,3.752-13,1.229-4.737,2.332-9.572,3.279-14.372.579-2.936,1.113-5.923,1.585-8.878.448-2.8.854-5.65,1.206-8.466Zm28.052.209-27.961-.1c-.351,2.8-.755,5.637-1.2,8.424-.473,2.957-1.007,5.945-1.586,8.882-.947,4.8-2.051,9.639-3.281,14.378-1.122,4.325-2.378,8.678-3.732,12.94l17.822.1,17.852.1c.463-1.816.911-3.666,1.334-5.5.808-3.5,2.311-10.017,3.516-18.388.353-2.451.663-4.948.922-7.421.31-2.959.556-5.973.731-8.958Z" transform="translate(0 -59.812)" fill="#101041"/>
    <path id="Tracé-6" data-name="Tracé" d="M164.921,117.25H134.5l.505-4.75h25.165a4.75,4.75,0,0,1,4.75,4.75Z" transform="translate(-87.295 -69.702)" fill="#f6dfc7"/>
    <path id="Tracé-7" data-name="Tracé" d="M399,107.8l.354-4.3,4.346,4.245Z" transform="translate(-325.062 -61.612)" fill="#fefefe"/>
    <path id="Tracé_-_Contour-4" data-name="Tracé - Contour" d="M398.462,106.867l.367-4.456,4.508,4.4Zm.449-4.236-.341,4.135,4.524-.049Z" transform="translate(-324.579 -60.633)" fill="#101041"/>
    <path id="Tracé-8" data-name="Tracé" d="M183.368,43.754l21.766.051a21.382,21.382,0,0,0,.266-2.779,2.038,2.038,0,0,0-.2-1.011,2,2,0,0,0-.505-.606c-.565-.438-1.147-.256-2.527-.3a7.058,7.058,0,0,1-2.122-.3,2.8,2.8,0,0,1-1.112-.606c-.486-.47-.327-.759-.707-1.314-.9-1.3-2.94-1.4-3.276-1.415-.094,0-.183,0-.183,0a3.154,3.154,0,0,0-1.393.307,2.963,2.963,0,0,0-1.314,1.314,3.2,3.2,0,0,1-.2.4c-.036.061-.093.153-.2.3a6.409,6.409,0,0,1-.4.505,3.663,3.663,0,0,1-1.989.809c-.276.045-.51.06-.51.06-.353.021-.569-.017-1.248.042a6.7,6.7,0,0,0-2.792.606C183.22,40.738,183.338,43.268,183.368,43.754Z" transform="translate(-131.524 -0.451)" fill="#ff8600"/>
    <path id="Tracé_-_Contour-5" data-name="Tracé - Contour" d="M204.729,43.405h-.043L193.8,43.38l-10.883-.025h-.047l0-.047a7.55,7.55,0,0,1,.1-1.818,4.313,4.313,0,0,1,.4-1.212,2.441,2.441,0,0,1,.862-.957,6.738,6.738,0,0,1,2.814-.614c.359-.031.587-.035.781-.035h.194c.082,0,.171,0,.275-.007,0,0,.235-.015.5-.059a6.371,6.371,0,0,0,.948-.215,2.342,2.342,0,0,0,1.012-.578,6.321,6.321,0,0,0,.4-.5c.11-.152.167-.244.2-.3a3.147,3.147,0,0,0,.195-.388l0-.01a2.565,2.565,0,0,1,.41-.615,3,3,0,0,1,.928-.724,3.216,3.216,0,0,1,1.415-.312h.015c.027,0,.1,0,.171,0a6.37,6.37,0,0,1,1.439.226,4.259,4.259,0,0,1,1.017.427,2.7,2.7,0,0,1,.858.784,2.231,2.231,0,0,1,.294.624,1.426,1.426,0,0,0,.406.683,2.913,2.913,0,0,0,1.093.595,7.065,7.065,0,0,0,2.108.3c.169.006.34.009.523.009.167,0,.316,0,.461,0,.121,0,.235,0,.34,0a1.8,1.8,0,0,1,1.231.313,2.06,2.06,0,0,1,.519.623A2.105,2.105,0,0,1,205,40.576a21.094,21.094,0,0,1-.267,2.787Zm-21.761-.152,10.836.025,10.839.025a20.845,20.845,0,0,0,.259-2.729,1.974,1.974,0,0,0-.2-.987,1.949,1.949,0,0,0-.491-.59,1.713,1.713,0,0,0-1.169-.292c-.105,0-.219,0-.339,0-.138,0-.3,0-.463,0-.185,0-.357,0-.527-.009a7.157,7.157,0,0,1-2.137-.306,3.871,3.871,0,0,1-.788-.356,1.927,1.927,0,0,1-.343-.262,1.527,1.527,0,0,1-.432-.723,2.117,2.117,0,0,0-.282-.6,2.6,2.6,0,0,0-.826-.754,4.158,4.158,0,0,0-.993-.416,6.268,6.268,0,0,0-1.416-.223c-.071,0-.14,0-.166,0h-.014a3.118,3.118,0,0,0-1.371.3,2.919,2.919,0,0,0-1.29,1.288l0,.01a3.25,3.25,0,0,1-.2.4c-.034.057-.092.151-.2.307a6.487,6.487,0,0,1-.408.51,2.439,2.439,0,0,1-1.056.606,6.461,6.461,0,0,1-.962.218c-.275.045-.512.06-.515.06-.106.006-.2.007-.281.007h-.194c-.191,0-.417,0-.772.035a6.681,6.681,0,0,0-2.77.6,2.342,2.342,0,0,0-.826.919,4.211,4.211,0,0,0-.394,1.183A7.427,7.427,0,0,0,182.967,43.254Z" transform="translate(-131.074 -0.001)" fill="#101041"/>
    <path id="Tracé-9" data-name="Tracé" d="M183.368,43.753l21.274.051c.026-.156.454-2.839-.556-3.891a2.672,2.672,0,0,0-.505-.4,3.208,3.208,0,0,0-1.819-.3,8.6,8.6,0,0,1-3.133-.4,2.349,2.349,0,0,1-1.011-.606c-.445-.492-.282-.843-.606-1.415a2.889,2.889,0,0,0-2.325-1.314,2.738,2.738,0,0,0-1.415.3,3.474,3.474,0,0,0-1.314,1.415c-.311.516-.192.52-.4.809a3.563,3.563,0,0,1-2.426,1.112c-.748.124-.8.019-1.718.1a6.428,6.428,0,0,0-2.729.606C183.223,40.737,183.339,43.266,183.368,43.753Z" transform="translate(-131.543 -0.449)" fill="#ffae00"/>
    <path id="Tracé_-_Contour-6" data-name="Tracé - Contour" d="M204.237,43.4h-.043l-10.637-.025-10.637-.025h-.047l0-.047a7.721,7.721,0,0,1,.1-1.818,4.381,4.381,0,0,1,.395-1.212,2.423,2.423,0,0,1,.843-.958,6.463,6.463,0,0,1,2.751-.614c.351-.031.573-.035.762-.035h.192a4.092,4.092,0,0,0,.76-.066,6.82,6.82,0,0,0,1.287-.307,2.324,2.324,0,0,0,1.106-.785.931.931,0,0,0,.154-.294,2.415,2.415,0,0,1,.248-.511,5.839,5.839,0,0,1,.51-.751,2.728,2.728,0,0,1,.823-.682,2.759,2.759,0,0,1,1.287-.313c.063,0,.113,0,.154,0a3.223,3.223,0,0,1,1.34.376,2.545,2.545,0,0,1,1.026.964,2.288,2.288,0,0,1,.241.659,1.465,1.465,0,0,0,.359.747,2.3,2.3,0,0,0,.991.593,8,8,0,0,0,2.846.4h.269l.187,0,.241,0a3.886,3.886,0,0,1,.714.052,2.127,2.127,0,0,1,.7.262,2.7,2.7,0,0,1,.516.413,2.317,2.317,0,0,1,.529,1.053,5.666,5.666,0,0,1,.151,1.263,9.7,9.7,0,0,1-.111,1.619Zm-21.269-.152,10.59.025,10.594.025a9.688,9.688,0,0,0,.1-1.558,5.569,5.569,0,0,0-.148-1.24,2.219,2.219,0,0,0-.5-1.007,2.644,2.644,0,0,0-.495-.4,2.027,2.027,0,0,0-.67-.25,3.8,3.8,0,0,0-.7-.05l-.24,0-.188,0h-.27a8.085,8.085,0,0,1-2.881-.408,2.393,2.393,0,0,1-1.031-.62,1.567,1.567,0,0,1-.382-.792,2.2,2.2,0,0,0-.231-.632,2.445,2.445,0,0,0-.986-.925,3.12,3.12,0,0,0-1.3-.364c-.04,0-.088,0-.149,0a2.658,2.658,0,0,0-1.24.3,3.416,3.416,0,0,0-1.294,1.4,2.328,2.328,0,0,0-.239.492,1.025,1.025,0,0,1-.168.32,2.421,2.421,0,0,1-1.152.82,6.9,6.9,0,0,1-1.306.312,4.181,4.181,0,0,1-.777.067h-.192c-.186,0-.406,0-.753.035a6.407,6.407,0,0,0-2.706.6,2.323,2.323,0,0,0-.807.919,4.279,4.279,0,0,0-.385,1.184A7.6,7.6,0,0,0,182.967,43.253Z" transform="translate(-131.093 0)" fill="#101041"/>
    <circle id="Ellipse" cx="1.112" cy="1.112" r="1.112" transform="translate(61.875 35.723)" fill="#ff8600"/>
    <ellipse id="Ellipse-2" data-name="Ellipse" cx="0.49" cy="0.91" rx="0.49" ry="0.91" transform="translate(63.131 35.925)" fill="#f7f6f0"/>
    <rect id="Rectangle" width="21.224" height="0.91" transform="translate(51.874 42.343)" fill="#ff8600"/>
    <rect id="Rectangle-2" data-name="Rectangle" width="20.213" height="1.213" rx="0.606" transform="translate(47.535 51.178)" fill="#f5e1c8"/>
    <rect id="Rectangle-3" data-name="Rectangle" width="26.681" height="0.809" rx="0.404" transform="translate(47.165 53.772)" fill="#f5e1c8"/>
    <rect id="Rectangle-4" data-name="Rectangle" width="27.086" height="0.809" rx="0.404" transform="translate(46.751 55.954)" fill="#f5e1c8"/>
    <rect id="Rectangle-5" data-name="Rectangle" width="28.154" height="0.809" rx="0.404" transform="translate(45.076 61.358)" fill="#f5e1c8"/>
    <rect id="Rectangle-6" data-name="Rectangle" width="28.659" height="0.809" rx="0.404" transform="translate(44.571 63.644)" fill="#f5e1c8"/>
    <rect id="Rectangle-7" data-name="Rectangle" width="25.873" height="0.809" rx="0.404" transform="translate(43.733 69.67)" fill="#f5e1c8"/>
    <rect id="Rectangle-8" data-name="Rectangle" width="20.719" height="1.112" rx="0.556" transform="translate(45.966 58.764)" fill="#f5e1c8"/>
    <rect id="Rectangle-9" data-name="Rectangle" width="15.362" height="1.112" rx="0.556" transform="translate(45.685 59.803)" fill="#e8b38d"/>
    <rect id="Rectangle-10" data-name="Rectangle" width="20.011" height="1.112" rx="0.556" transform="translate(44.167 67.078)" fill="#e8b38d"/>
    <rect id="Rectangle-11" data-name="Rectangle" width="21.022" height="1.112" rx="0.556" transform="translate(42.145 75.08)" fill="#e8b38d"/>
    <rect id="Rectangle-12" data-name="Rectangle" width="26.479" height="0.809" rx="0.404" transform="translate(42.853 71.852)" fill="#f5e1c8"/>
    <rect id="Rectangle-13" data-name="Rectangle" width="27.187" height="0.809" rx="0.404" transform="translate(41.64 77.671)" fill="#f5e1c8"/>
    <rect id="Rectangle-14" data-name="Rectangle" width="27.591" height="0.809" rx="0.404" transform="translate(41.236 80.107)" fill="#f5e1c8"/>
  </g>
</svg>
