<svg xmlns="http://www.w3.org/2000/svg" xmlns:xlink="http://www.w3.org/1999/xlink" width="88" height="88" viewBox="0 0 88 88">
  <defs>
    <filter id="Ellipse_50" x="0" y="0" width="88" height="88" filterUnits="userSpaceOnUse">
      <feOffset dy="3" input="SourceAlpha"/>
      <feGaussianBlur stdDeviation="3" result="blur"/>
      <feFlood flood-opacity="0.161"/>
      <feComposite operator="in" in2="blur"/>
      <feComposite in="SourceGraphic"/>
    </filter>
  </defs>
  <g id="raccordement" transform="translate(24 24)">
    <g transform="matrix(1, 0, 0, 1, -24, -24)" filter="url(#Ellipse_50)">
      <circle id="Ellipse_50-2" data-name="Ellipse 50" cx="35" cy="35" r="35" transform="translate(9 6)" fill="#fff"/>
    </g>
    <g id="points">
      <path id="Tracé_1183" data-name="Tracé 1183" d="M9.44,28.382a.374.374,0,1,1-.374-.374.374.374,0,0,1,.374.374" transform="translate(-3.339 -10.714)" fill="#546d7b"/>
      <path id="Tracé_1184" data-name="Tracé 1184" d="M11.33,28.382a.374.374,0,1,1-.374-.374.375.375,0,0,1,.374.374" transform="translate(-4.065 -10.714)" fill="#546d7b"/>
      <path id="Tracé_1185" data-name="Tracé 1185" d="M13.219,28.382a.374.374,0,1,1-.374-.374.374.374,0,0,1,.374.374" transform="translate(-4.667 -10.714)" fill="#546d7b"/>
      <path id="Tracé_1186" data-name="Tracé 1186" d="M15.108,28.382a.374.374,0,1,1-.374-.374.374.374,0,0,1,.374.374" transform="translate(-5.373 -10.714)" fill="#546d7b"/>
      <path id="Tracé_1187" data-name="Tracé 1187" d="M17,28.382a.374.374,0,1,1-.374-.374.374.374,0,0,1,.374.374" transform="translate(-6.08 -10.714)" fill="#546d7b"/>
      <path id="Tracé_1188" data-name="Tracé 1188" d="M18.886,28.382a.374.374,0,1,1-.374-.374.374.374,0,0,1,.374.374" transform="translate(-6.787 -10.714)" fill="#546d7b"/>
      <path id="Tracé_1189" data-name="Tracé 1189" d="M20.776,28.382a.374.374,0,1,1-.374-.374.374.374,0,0,1,.374.374" transform="translate(-7.495 -10.714)" fill="#546d7b"/>
      <path id="Tracé_1190" data-name="Tracé 1190" d="M22.665,28.382a.374.374,0,1,1-.374-.374.374.374,0,0,1,.374.374" transform="translate(-8.201 -10.714)" fill="#546d7b"/>
      <path id="Tracé_1191" data-name="Tracé 1191" d="M24.554,28.382a.374.374,0,1,1-.374-.374.374.374,0,0,1,.374.374" transform="translate(-8.908 -10.714)" fill="#546d7b"/>
      <path id="Tracé_1192" data-name="Tracé 1192" d="M26.443,28.382a.374.374,0,1,1-.374-.374.374.374,0,0,1,.374.374" transform="translate(-9.615 -10.714)" fill="#546d7b"/>
      <path id="Tracé_1193" data-name="Tracé 1193" d="M28.333,28.382a.374.374,0,1,1-.374-.374.374.374,0,0,1,.374.374" transform="translate(-10.323 -10.714)" fill="#546d7b"/>
      <path id="Tracé_1194" data-name="Tracé 1194" d="M30.222,28.382a.374.374,0,1,1-.374-.374.374.374,0,0,1,.374.374" transform="translate(-11.029 -10.714)" fill="#546d7b"/>
      <path id="Tracé_1195" data-name="Tracé 1195" d="M32.111,28.382a.374.374,0,1,1-.374-.374.374.374,0,0,1,.374.374" transform="translate(-11.736 -10.714)" fill="#546d7b"/>
      <path id="Tracé_1196" data-name="Tracé 1196" d="M34,28.382a.374.374,0,1,1-.374-.374.374.374,0,0,1,.374.374" transform="translate(-12.444 -10.714)" fill="#546d7b"/>
      <path id="Tracé_1197" data-name="Tracé 1197" d="M35.89,28.382a.374.374,0,1,1-.374-.374.374.374,0,0,1,.374.374" transform="translate(-13.151 -10.714)" fill="#546d7b"/>
      <path id="Tracé_1198" data-name="Tracé 1198" d="M37.779,28.382a.374.374,0,1,1-.374-.374.374.374,0,0,1,.374.374" transform="translate(-13.857 -10.714)" fill="#546d7b"/>
      <path id="Tracé_1199" data-name="Tracé 1199" d="M39.668,28.382a.374.374,0,1,1-.374-.374.374.374,0,0,1,.374.374" transform="translate(-14.564 -10.714)" fill="#546d7b"/>
      <path id="Tracé_1200" data-name="Tracé 1200" d="M41.558,28.382a.374.374,0,1,1-.374-.374.374.374,0,0,1,.374.374" transform="translate(-15.272 -10.714)" fill="#546d7b"/>
      <path id="Tracé_1201" data-name="Tracé 1201" d="M43.447,28.382a.374.374,0,1,1-.374-.374.374.374,0,0,1,.374.374" transform="translate(-15.979 -10.714)" fill="#546d7b"/>
      <path id="Tracé_1202" data-name="Tracé 1202" d="M45.336,28.382a.374.374,0,1,1-.374-.374.374.374,0,0,1,.374.374" transform="translate(-16.686 -10.714)" fill="#546d7b"/>
      <path id="Tracé_1203" data-name="Tracé 1203" d="M47.225,28.382a.374.374,0,1,1-.374-.374.374.374,0,0,1,.374.374" transform="translate(-17.392 -10.714)" fill="#546d7b"/>
      <path id="Tracé_1204" data-name="Tracé 1204" d="M49.114,28.382a.374.374,0,1,1-.374-.374.374.374,0,0,1,.374.374" transform="translate(-18.099 -10.714)" fill="#546d7b"/>
      <path id="Tracé_1205" data-name="Tracé 1205" d="M51,28.382a.374.374,0,1,1-.374-.374.374.374,0,0,1,.374.374" transform="translate(-18.807 -10.714)" fill="#546d7b"/>
      <path id="Tracé_1206" data-name="Tracé 1206" d="M52.893,28.382a.374.374,0,1,1-.374-.374.374.374,0,0,1,.374.374" transform="translate(-19.408 -10.714)" fill="#546d7b"/>
      <path id="Tracé_1207" data-name="Tracé 1207" d="M54.782,28.382a.374.374,0,1,1-.374-.374.374.374,0,0,1,.374.374" transform="translate(-20.134 -10.714)" fill="#546d7b"/>
      <path id="Tracé_1208" data-name="Tracé 1208" d="M31.737,23.089a.374.374,0,1,1,.374-.374.374.374,0,0,1-.374.374" transform="translate(-11.737 -8.545)" fill="#546d7b"/>
      <path id="Tracé_1209" data-name="Tracé 1209" d="M31.737,24.978a.374.374,0,1,1,.374-.374.374.374,0,0,1-.374.374" transform="translate(-11.737 -9.268)" fill="#546d7b"/>
      <path id="Tracé_1210" data-name="Tracé 1210" d="M31.737,26.868a.374.374,0,1,1,.374-.374.374.374,0,0,1-.374.374" transform="translate(-11.737 -9.991)" fill="#546d7b"/>
      <path id="Tracé_1211" data-name="Tracé 1211" d="M31.737,30.646a.374.374,0,1,1,.374-.374.374.374,0,0,1-.374.374" transform="translate(-11.737 -11.437)" fill="#546d7b"/>
      <path id="Tracé_1212" data-name="Tracé 1212" d="M31.737,32.535a.374.374,0,1,1,.374-.374.374.374,0,0,1-.374.374" transform="translate(-11.737 -12.159)" fill="#546d7b"/>
      <path id="Tracé_1213" data-name="Tracé 1213" d="M31.737,34.425a.374.374,0,1,1,.374-.374.374.374,0,0,1-.374.374" transform="translate(-11.737 -12.882)" fill="#546d7b"/>
      <path id="Tracé_1214" data-name="Tracé 1214" d="M54.407,30.646a.374.374,0,1,1,.374-.374.374.374,0,0,1-.374.374" transform="translate(-20.134 -11.437)" fill="#546d7b"/>
      <path id="Tracé_1215" data-name="Tracé 1215" d="M54.407,32.535a.374.374,0,1,1,.374-.374.374.374,0,0,1-.374.374" transform="translate(-20.134 -12.159)" fill="#546d7b"/>
      <path id="Tracé_1216" data-name="Tracé 1216" d="M54.407,34.425a.374.374,0,1,1,.374-.374.374.374,0,0,1-.374.374" transform="translate(-20.134 -12.882)" fill="#546d7b"/>
      <path id="Tracé_1217" data-name="Tracé 1217" d="M9.065,30.646a.374.374,0,1,1,.374-.374.374.374,0,0,1-.374.374" transform="translate(-3.339 -11.437)" fill="#546d7b"/>
      <path id="Tracé_1218" data-name="Tracé 1218" d="M9.065,32.535a.374.374,0,1,1,.374-.374.374.374,0,0,1-.374.374" transform="translate(-3.339 -12.159)" fill="#546d7b"/>
      <path id="Tracé_1219" data-name="Tracé 1219" d="M9.065,34.425a.374.374,0,1,1,.374-.374.374.374,0,0,1-.374.374" transform="translate(-3.339 -12.882)" fill="#546d7b"/>
      <path id="Tracé_1220" data-name="Tracé 1220" d="M31.737,36.314a.374.374,0,1,1,.374-.374.374.374,0,0,1-.374.374" transform="translate(-11.737 -13.604)" fill="#546d7b"/>
      <path id="Tracé_1221" data-name="Tracé 1221" d="M54.407,36.314a.374.374,0,1,1,.374-.374.374.374,0,0,1-.374.374" transform="translate(-20.134 -13.604)" fill="#546d7b"/>
      <path id="Tracé_1222" data-name="Tracé 1222" d="M9.065,36.314a.374.374,0,1,1,.374-.374.374.374,0,0,1-.374.374" transform="translate(-3.339 -13.604)" fill="#546d7b"/>
    </g>
    <path id="Tracé_1223" data-name="Tracé 1223" d="M33.739,46.888H23.057a.385.385,0,0,1-.386-.386v-8.26a.386.386,0,0,1,.386-.386H33.739a.386.386,0,0,1,.386.386V46.5a.386.386,0,0,1-.386.386" transform="translate(-8.398 -14.455)" fill="#9fbecf"/>
    <path id="Tracé_1224" data-name="Tracé 1224" d="M33.726,46.061H24.112a.084.084,0,0,1-.084-.084V39.035a.084.084,0,0,1,.084-.084h9.614a.084.084,0,0,1,.084.084v6.943a.084.084,0,0,1-.084.084" transform="translate(-8.919 -14.876)" fill="#546d7b"/>
    <path id="Rectangle" d="M.025,0h9.6a.024.024,0,0,1,.024.024V6.948a.024.024,0,0,1-.024.024H.025A.025.025,0,0,1,0,6.947V.025A.025.025,0,0,1,.025,0Z" transform="translate(15.178 24.145)" fill="#38b5fd"/>
    <path id="Tracé_1225" data-name="Tracé 1225" d="M24.154,46.035a.015.015,0,0,1-.015-.015l9.63-6.957a.015.015,0,0,1,.014.015V46.02a.015.015,0,0,1-.014.015Z" transform="translate(-8.962 -14.919)" fill="#0998ea"/>
    <path id="Tracé_1226" data-name="Tracé 1226" d="M31.426,52.522H29.42c0,.633-.491.99-1.478,1.171H32.9c-.987-.181-1.478-.538-1.478-1.171" transform="translate(-10.423 -20.089)" fill="#71a0b9"/>
    <path id="Tracé_1227" data-name="Tracé 1227" d="M33.33,54.82a.4.4,0,0,0-.4-.4h-6.44a.4.4,0,0,0-.4.4Z" transform="translate(-9.714 -20.82)" fill="#9fbecf"/>
    <rect id="Rectangle-2" data-name="Rectangle" width="0.381" height="0.241" transform="translate(24.537 31.684)" fill="#009e58"/>
    <path id="Tracé_1228" data-name="Tracé 1228" d="M56.41,46.888H45.728a.385.385,0,0,1-.386-.386v-8.26a.386.386,0,0,1,.386-.386H56.41a.386.386,0,0,1,.386.386V46.5a.385.385,0,0,1-.386.386" transform="translate(-16.795 -14.455)" fill="#9fbecf"/>
    <path id="Tracé_1229" data-name="Tracé 1229" d="M56.4,46.061H46.783a.084.084,0,0,1-.084-.084V39.035a.084.084,0,0,1,.084-.084H56.4a.084.084,0,0,1,.084.084v6.943a.084.084,0,0,1-.084.084" transform="translate(-17.316 -14.876)" fill="#546d7b"/>
    <path id="Rectangle-3" data-name="Rectangle" d="M.025,0h9.6a.024.024,0,0,1,.024.024V6.948a.024.024,0,0,1-.024.024H.025A.025.025,0,0,1,0,6.947V.025A.025.025,0,0,1,.025,0Z" transform="translate(29.451 24.145)" fill="#38b5fd"/>
    <path id="Tracé_1230" data-name="Tracé 1230" d="M46.825,46.035a.015.015,0,0,1-.015-.015l9.63-6.957a.015.015,0,0,1,.015.015V46.02a.015.015,0,0,1-.015.015Z" transform="translate(-17.359 -14.919)" fill="#0998ea"/>
    <path id="Tracé_1231" data-name="Tracé 1231" d="M54.1,52.522H52.091c0,.633-.491.99-1.478,1.171h4.962c-.987-.181-1.478-.538-1.478-1.171" transform="translate(-18.82 -20.089)" fill="#71a0b9"/>
    <path id="Tracé_1232" data-name="Tracé 1232" d="M56,54.82a.4.4,0,0,0-.4-.4h-6.44a.4.4,0,0,0-.4.4Z" transform="translate(-18.112 -20.82)" fill="#9fbecf"/>
    <rect id="Rectangle-4" data-name="Rectangle" width="0.381" height="0.241" transform="translate(38.736 31.684)" fill="#009e58"/>
    <path id="Tracé_1233" data-name="Tracé 1233" d="M11.068,46.888H.386A.385.385,0,0,1,0,46.5v-8.26a.386.386,0,0,1,.386-.386H11.068a.386.386,0,0,1,.386.386V46.5a.385.385,0,0,1-.386.386" transform="translate(0 -14.455)" fill="#9fbecf"/>
    <path id="Tracé_1234" data-name="Tracé 1234" d="M11.055,46.061H1.441a.084.084,0,0,1-.084-.084V39.035a.084.084,0,0,1,.084-.084h9.614a.084.084,0,0,1,.084.084v6.943a.084.084,0,0,1-.084.084" transform="translate(-0.521 -14.876)" fill="#546d7b"/>
    <path id="Rectangle-5" data-name="Rectangle" d="M.025,0h9.6a.024.024,0,0,1,.024.024V6.948a.024.024,0,0,1-.024.024H.025A.025.025,0,0,1,0,6.947V.025A.025.025,0,0,1,.025,0Z" transform="translate(0.904 24.145)" fill="#38b5fd"/>
    <path id="Tracé_1235" data-name="Tracé 1235" d="M1.484,46.035a.015.015,0,0,1-.015-.015l9.63-6.957a.015.015,0,0,1,.014.015V46.02a.015.015,0,0,1-.014.015Z" transform="translate(-0.564 -14.919)" fill="#0998ea"/>
    <path id="Tracé_1236" data-name="Tracé 1236" d="M8.755,52.522H6.749c0,.633-.491.99-1.478,1.171h4.962c-.987-.181-1.478-.538-1.478-1.171" transform="translate(-2.025 -20.089)" fill="#71a0b9"/>
    <path id="Tracé_1237" data-name="Tracé 1237" d="M10.659,54.82a.4.4,0,0,0-.4-.4H3.823a.4.4,0,0,0-.4.4Z" transform="translate(-1.317 -20.82)" fill="#9fbecf"/>
    <rect id="Rectangle-6" data-name="Rectangle" width="0.381" height="0.241" transform="translate(10.352 31.684)" fill="#009e58"/>
    <path id="Tracé_1238" data-name="Tracé 1238" d="M34.212,11.448H20.672a.489.489,0,0,1-.489-.489V.489A.489.489,0,0,1,20.672,0h13.54A.489.489,0,0,1,34.7.489v10.47a.489.489,0,0,1-.489.489" transform="translate(-7.442)" fill="#9fbecf"/>
    <path id="Tracé_1239" data-name="Tracé 1239" d="M34.2,10.4H22.01a.106.106,0,0,1-.107-.107v-8.8a.107.107,0,0,1,.107-.107H34.2a.107.107,0,0,1,.107.107v8.8a.107.107,0,0,1-.107.107" transform="translate(-8.103 -0.533)" fill="#546d7b"/>
    <rect id="Rectangle-7" data-name="Rectangle" width="12.224" height="8.838" rx="0.031" transform="translate(13.888 0.942)" fill="#38b5fd"/>
    <path id="Tracé_1240" data-name="Tracé 1240" d="M22.064,10.367a.019.019,0,0,1-.019-.019L34.25,1.529a.019.019,0,0,1,.019.019v8.8a.019.019,0,0,1-.019.019Z" transform="translate(-8.157 -0.587)" fill="#0998ea"/>
    <path id="Tracé_1241" data-name="Tracé 1241" d="M31.28,18.589H28.737c0,.8-.623,1.254-1.873,1.484h6.289c-1.25-.23-1.873-.682-1.873-1.484" transform="translate(-10.008 -7.11)" fill="#71a0b9"/>
    <path id="Tracé_1242" data-name="Tracé 1242" d="M33.695,21.5a.5.5,0,0,0-.5-.5H25.03a.5.5,0,0,0-.5.5Z" transform="translate(-9.111 -8.033)" fill="#9fbecf"/>
  </g>
</svg>
