<svg xmlns="http://www.w3.org/2000/svg" xmlns:xlink="http://www.w3.org/1999/xlink" width="474.675" height="502.658" viewBox="0 0 474.675 502.658">
  <defs>
    <clipPath id="clip-path">
      <path id="Tracé_163" data-name="Tracé 163" d="M31.8,99.052a10.773,10.773,0,0,0,2.108,5.938,19.017,19.017,0,0,0,6.03,5.214l0,0,84.59,48.912a34.283,34.283,0,0,0,10.25,3.757,47.415,47.415,0,0,0,20.324-.324,32.877,32.877,0,0,0,8.639-3.364l21.154-12.23L247.81,110.58v0c5.476-3.158,8.131-7.358,8.011-11.527l-.961-67.336-100.719-.344-20.324-.07-102.982-.34Z" transform="translate(-30.835 -30.962)" fill="none"/>
    </clipPath>
    <clipPath id="clip-path-2">
      <path id="Tracé_164" data-name="Tracé 164" d="M31.8,97.426a10.779,10.779,0,0,0,2.108,5.938,19.013,19.013,0,0,0,6.03,5.212l0,0,84.59,48.912a34.343,34.343,0,0,0,10.25,3.757,47.449,47.449,0,0,0,20.324-.324,32.8,32.8,0,0,0,8.639-3.367l21.154-12.228,62.916-36.377c5.476-3.158,8.131-7.36,8.011-11.527l-.961-67.338-100.719-.342-20.324-.07L30.835,29.334Z" transform="translate(-30.835 -29.334)" fill="none"/>
    </clipPath>
    <linearGradient id="linear-gradient" x1="-0.3" y1="1.077" x2="-0.29" y2="1.077" gradientUnits="objectBoundingBox">
      <stop offset="0" stop-color="#c4c7d8"/>
      <stop offset="0.012" stop-color="#c1c4d6"/>
      <stop offset="0.018" stop-color="#b9bdd1"/>
      <stop offset="0.023" stop-color="#acb1c8"/>
      <stop offset="0.026" stop-color="#a0a6c0"/>
      <stop offset="0.445" stop-color="#a0a6c0"/>
      <stop offset="0.466" stop-color="#b8bcd0"/>
      <stop offset="0.489" stop-color="#cacddc"/>
      <stop offset="0.513" stop-color="#d5d7e3"/>
      <stop offset="0.539" stop-color="#d9dbe6"/>
      <stop offset="0.554" stop-color="#dcdee8"/>
      <stop offset="0.566" stop-color="#e6e7ef"/>
      <stop offset="0.573" stop-color="#eff0f5"/>
      <stop offset="0.972" stop-color="#eff0f5"/>
      <stop offset="0.973" stop-color="#edeef4"/>
      <stop offset="0.98" stop-color="#e6e7ef"/>
      <stop offset="1" stop-color="#e5e6ee"/>
    </linearGradient>
    <clipPath id="clip-path-3">
      <path id="Tracé_165" data-name="Tracé 165" d="M31.8,97.426a10.779,10.779,0,0,0,2.108,5.938,19.013,19.013,0,0,0,6.03,5.212l0,0,84.59,48.912a34.343,34.343,0,0,0,10.25,3.757,47.439,47.439,0,0,0,20.322-.324,32.819,32.819,0,0,0,8.641-3.367l21.154-12.23,62.916-36.375v0c5.476-3.156,8.131-7.358,8.011-11.524L255.369,65.8c-.965,3.068-3.473,6.005-7.56,8.359v0l-62.916,36.377-21.154,12.23a32.891,32.891,0,0,1-8.641,3.364,47.439,47.439,0,0,1-20.322.324,34.343,34.343,0,0,1-10.25-3.757L39.938,73.788l0,0a19.013,19.013,0,0,1-6.03-5.212A10.779,10.779,0,0,1,31.8,62.634l-.468-33.3-.492,0Z" transform="translate(-30.835 -29.334)" fill="none"/>
    </clipPath>
    <clipPath id="clip-path-4">
      <path id="Tracé_166" data-name="Tracé 166" d="M122.925,4.768l-84.069,48.6c-10.749,6.214-10.694,16.416.123,22.67l84.6,48.912c10.816,6.253,28.459,6.286,39.21.07l84.069-48.6C257.6,70.2,257.545,60,246.729,53.75l-84.6-48.912C156.7,1.7,149.55.128,142.415.128c-7.078,0-14.139,1.545-19.49,4.64" transform="translate(-30.83 -0.128)" fill="none"/>
    </clipPath>
    <linearGradient id="linear-gradient-2" x1="-0.204" y1="1.057" x2="-0.196" y2="1.057" gradientUnits="objectBoundingBox">
      <stop offset="0" stop-color="#c4c7d8"/>
      <stop offset="0.19" stop-color="#b1b5cb"/>
      <stop offset="0.539" stop-color="#d9dbe6"/>
      <stop offset="1" stop-color="#e5e6ee"/>
    </linearGradient>
  </defs>
  <g id="routeur" transform="translate(89.17 169.658)">
    <g id="Groupe-2" data-name="Groupe" transform="translate(30.841 63.575)" clip-path="url(#clip-path-2)">
      <rect id="Rectangle_93" data-name="Rectangle 93" width="225.106" height="133.271" transform="translate(0 0)" fill="url(#linear-gradient)"/>
    </g>
    <g id="Groupe_" data-name="Groupe " transform="translate(30.841 63.575)" clip-path="url(#clip-path-3)">
      <rect id="Rectangle_94" data-name="Rectangle 94" width="225.106" height="133.271" transform="translate(0 0)" fill="#3f8fb9"/>
    </g>
    <g id="Groupe-3" data-name="Groupe" transform="translate(30.83 0.281)" clip-path="url(#clip-path-4)">
      <path id="Tracé_374" data-name="Tracé 374" d="M.356.356,255.391.175,255.21,255.21.175,255.391Z" transform="translate(-68.689 65.556) rotate(-45)" fill="url(#linear-gradient-2)"/>
    </g>
    <g id="Groupe-4" data-name="Groupe" transform="translate(32.83)">
      <g id="points" transform="translate(0.942 120.374)">
        <path id="Tracé_323" data-name="Tracé 323" d="M128.3,60.42c0,1.637,1.157,2.3,2.584,1.473a5.694,5.694,0,0,0,2.584-4.458c0-1.637-1.157-2.3-2.584-1.473A5.7,5.7,0,0,0,128.3,60.42" transform="translate(81.209 -55.607)" fill="#101041"/>
        <path id="Tracé_324" data-name="Tracé 324" d="M124.1,62.846c0,1.637,1.157,2.3,2.584,1.473a5.693,5.693,0,0,0,2.584-4.456c0-1.639-1.157-2.3-2.584-1.475a5.7,5.7,0,0,0-2.584,4.458" transform="translate(76.2 -52.716)" fill="#101041"/>
        <path id="Tracé_325" data-name="Tracé 325" d="M119.893,65.273c0,1.637,1.157,2.3,2.584,1.473a5.694,5.694,0,0,0,2.584-4.458c0-1.637-1.157-2.3-2.584-1.473a5.7,5.7,0,0,0-2.584,4.458" transform="translate(71.191 -49.823)" fill="#101041"/>
        <path id="Tracé_326" data-name="Tracé 326" d="M115.689,67.7c0,1.637,1.157,2.3,2.584,1.473a5.686,5.686,0,0,0,2.588-4.456c0-1.639-1.157-2.3-2.588-1.475a5.7,5.7,0,0,0-2.584,4.458" transform="translate(66.181 -46.931)" fill="#101041"/>
        <path id="Tracé_327" data-name="Tracé 327" d="M111.486,70.127c0,1.637,1.157,2.3,2.584,1.473a5.694,5.694,0,0,0,2.584-4.458c0-1.637-1.157-2.3-2.584-1.473a5.7,5.7,0,0,0-2.584,4.458" transform="translate(61.252 -44.039)" fill="#101041"/>
        <path id="Tracé_328" data-name="Tracé 328" d="M107.283,72.553c0,1.637,1.157,2.3,2.584,1.475a5.7,5.7,0,0,0,2.586-4.458c0-1.639-1.159-2.3-2.586-1.475a5.7,5.7,0,0,0-2.584,4.458" transform="translate(56.261 -41.147)" fill="#101041"/>
        <path id="Tracé_329" data-name="Tracé 329" d="M103.08,74.98c0,1.637,1.157,2.3,2.584,1.473a5.694,5.694,0,0,0,2.584-4.458c0-1.637-1.157-2.3-2.584-1.473a5.7,5.7,0,0,0-2.584,4.458" transform="translate(51.27 -38.255)" fill="#101041"/>
        <path id="Tracé_330" data-name="Tracé 330" d="M98.877,77.407c0,1.637,1.157,2.3,2.584,1.473a5.694,5.694,0,0,0,2.584-4.458c0-1.637-1.157-2.3-2.584-1.473a5.7,5.7,0,0,0-2.584,4.458" transform="translate(46.279 -35.362)" fill="#101041"/>
        <path id="Tracé_331" data-name="Tracé 331" d="M94.674,79.833c0,1.637,1.157,2.3,2.584,1.473a5.694,5.694,0,0,0,2.584-4.458c0-1.637-1.157-2.3-2.584-1.473a5.7,5.7,0,0,0-2.584,4.458" transform="translate(41.288 -32.471)" fill="#101041"/>
        <path id="Tracé_332" data-name="Tracé 332" d="M90.47,82.26c0,1.637,1.157,2.3,2.584,1.473a5.694,5.694,0,0,0,2.584-4.458c0-1.637-1.157-2.3-2.584-1.473A5.7,5.7,0,0,0,90.47,82.26" transform="translate(36.296 -29.579)" fill="#101041"/>
        <path id="Tracé_333" data-name="Tracé 333" d="M126.2,65.125c0,1.637,1.157,2.3,2.584,1.473a5.694,5.694,0,0,0,2.584-4.458c0-1.637-1.157-2.3-2.584-1.473a5.7,5.7,0,0,0-2.584,4.458" transform="translate(78.705 -50)" fill="#101041"/>
        <path id="Tracé_334" data-name="Tracé 334" d="M130.3,62.758c0,1.637,1.157,2.3,2.584,1.473a5.694,5.694,0,0,0,2.584-4.458c0-1.637-1.157-2.3-2.584-1.473a5.7,5.7,0,0,0-2.584,4.458" transform="translate(83.591 -52.821)" fill="#101041"/>
        <path id="Tracé_335" data-name="Tracé 335" d="M88.588,86.839c0,1.637,1.157,2.3,2.584,1.473a5.693,5.693,0,0,0,2.584-4.456c0-1.639-1.157-2.3-2.584-1.475a5.7,5.7,0,0,0-2.584,4.458" transform="translate(34.061 -24.122)" fill="#101041"/>
        <path id="Tracé_336" data-name="Tracé 336" d="M121.994,67.552c0,1.637,1.157,2.3,2.584,1.473a5.693,5.693,0,0,0,2.584-4.456c0-1.639-1.157-2.3-2.584-1.475a5.7,5.7,0,0,0-2.584,4.458" transform="translate(73.695 -47.107)" fill="#101041"/>
        <path id="Tracé_337" data-name="Tracé 337" d="M117.791,69.978c0,1.637,1.157,2.3,2.584,1.473a5.694,5.694,0,0,0,2.584-4.458c0-1.637-1.157-2.3-2.584-1.473a5.7,5.7,0,0,0-2.584,4.458" transform="translate(68.686 -44.216)" fill="#101041"/>
        <path id="Tracé_338" data-name="Tracé 338" d="M113.588,72.405c0,1.637,1.157,2.3,2.584,1.473a5.694,5.694,0,0,0,2.584-4.458c0-1.637-1.157-2.3-2.584-1.473a5.7,5.7,0,0,0-2.584,4.458" transform="translate(63.677 -41.324)" fill="#101041"/>
        <path id="Tracé_339" data-name="Tracé 339" d="M109.385,74.832c0,1.637,1.157,2.3,2.584,1.473a5.694,5.694,0,0,0,2.584-4.458c0-1.637-1.157-2.3-2.584-1.473a5.7,5.7,0,0,0-2.584,4.458" transform="translate(58.757 -38.431)" fill="#101041"/>
        <path id="Tracé_340" data-name="Tracé 340" d="M105.182,77.258c0,1.637,1.157,2.3,2.584,1.473a5.693,5.693,0,0,0,2.584-4.456c0-1.639-1.157-2.3-2.584-1.475a5.7,5.7,0,0,0-2.584,4.458" transform="translate(53.766 -35.54)" fill="#101041"/>
        <path id="Tracé_341" data-name="Tracé 341" d="M100.979,79.685c0,1.637,1.157,2.3,2.584,1.473a5.694,5.694,0,0,0,2.584-4.458c0-1.637-1.157-2.3-2.584-1.473a5.7,5.7,0,0,0-2.584,4.458" transform="translate(48.775 -32.648)" fill="#101041"/>
        <path id="Tracé_342" data-name="Tracé 342" d="M96.775,82.112c0,1.637,1.157,2.3,2.584,1.473a5.693,5.693,0,0,0,2.584-4.456c0-1.639-1.157-2.3-2.584-1.475a5.7,5.7,0,0,0-2.584,4.458" transform="translate(43.783 -29.755)" fill="#101041"/>
        <path id="Tracé_343" data-name="Tracé 343" d="M92.572,84.539c0,1.637,1.157,2.3,2.584,1.473a5.7,5.7,0,0,0,2.586-4.458c0-1.637-1.159-2.3-2.586-1.473a5.7,5.7,0,0,0-2.584,4.458" transform="translate(38.792 -26.863)" fill="#101041"/>
        <path id="Tracé_344" data-name="Tracé 344" d="M39.688,60.42c0,1.637-1.157,2.3-2.584,1.473a5.7,5.7,0,0,1-2.586-4.458c0-1.637,1.159-2.3,2.586-1.473a5.7,5.7,0,0,1,2.584,4.458" transform="translate(-30.139 -55.607)" fill="#101041"/>
        <path id="Tracé_345" data-name="Tracé 345" d="M43.89,62.846c0,1.637-1.157,2.3-2.584,1.473a5.693,5.693,0,0,1-2.584-4.456c0-1.639,1.157-2.3,2.584-1.475a5.7,5.7,0,0,1,2.584,4.458" transform="translate(-25.129 -52.716)" fill="#101041"/>
        <path id="Tracé_346" data-name="Tracé 346" d="M48.094,65.273c0,1.637-1.157,2.3-2.584,1.473a5.694,5.694,0,0,1-2.584-4.458c0-1.637,1.157-2.3,2.584-1.473a5.7,5.7,0,0,1,2.584,4.458" transform="translate(-20.118 -49.823)" fill="#101041"/>
        <path id="Tracé_347" data-name="Tracé 347" d="M52.3,67.7c0,1.637-1.157,2.3-2.584,1.473a5.693,5.693,0,0,1-2.584-4.456c0-1.639,1.157-2.3,2.584-1.475A5.7,5.7,0,0,1,52.3,67.7" transform="translate(-15.109 -46.931)" fill="#101041"/>
        <path id="Tracé_348" data-name="Tracé 348" d="M56.5,70.127c0,1.637-1.157,2.3-2.584,1.473a5.694,5.694,0,0,1-2.584-4.458c0-1.637,1.157-2.3,2.584-1.473A5.7,5.7,0,0,1,56.5,70.127" transform="translate(-10.181 -44.039)" fill="#101041"/>
        <path id="Tracé_349" data-name="Tracé 349" d="M60.7,72.553c0,1.637-1.157,2.3-2.584,1.475a5.7,5.7,0,0,1-2.584-4.458c0-1.639,1.157-2.3,2.584-1.475A5.7,5.7,0,0,1,60.7,72.553" transform="translate(-5.19 -41.147)" fill="#101041"/>
        <path id="Tracé_350" data-name="Tracé 350" d="M64.906,74.98c0,1.637-1.157,2.3-2.584,1.473a5.694,5.694,0,0,1-2.584-4.458c0-1.637,1.157-2.3,2.584-1.473a5.7,5.7,0,0,1,2.584,4.458" transform="translate(-0.199 -38.255)" fill="#101041"/>
        <path id="Tracé_351" data-name="Tracé 351" d="M69.111,77.407c0,1.637-1.157,2.3-2.584,1.473a5.69,5.69,0,0,1-2.586-4.458c0-1.637,1.157-2.3,2.586-1.473a5.7,5.7,0,0,1,2.584,4.458" transform="translate(4.792 -35.362)" fill="#101041"/>
        <path id="Tracé_352" data-name="Tracé 352" d="M73.313,79.833c0,1.637-1.157,2.3-2.584,1.473a5.694,5.694,0,0,1-2.584-4.458c0-1.637,1.157-2.3,2.584-1.473a5.7,5.7,0,0,1,2.584,4.458" transform="translate(9.785 -32.471)" fill="#101041"/>
        <path id="Tracé_353" data-name="Tracé 353" d="M77.517,82.26c0,1.637-1.157,2.3-2.584,1.473a5.7,5.7,0,0,1-2.586-4.458c0-1.637,1.159-2.3,2.586-1.473a5.7,5.7,0,0,1,2.584,4.458" transform="translate(14.775 -29.579)" fill="#101041"/>
        <path id="Tracé_354" data-name="Tracé 354" d="M41.789,65.125c0,1.637-1.157,2.3-2.584,1.473a5.694,5.694,0,0,1-2.584-4.458c0-1.637,1.157-2.3,2.584-1.473a5.7,5.7,0,0,1,2.584,4.458" transform="translate(-27.633 -50)" fill="#101041"/>
        <path id="Tracé_355" data-name="Tracé 355" d="M37.688,62.758c0,1.637-1.157,2.3-2.584,1.473a5.694,5.694,0,0,1-2.584-4.458c0-1.637,1.157-2.3,2.584-1.473a5.7,5.7,0,0,1,2.584,4.458" transform="translate(-32.52 -52.821)" fill="#101041"/>
        <path id="Tracé_356" data-name="Tracé 356" d="M79.4,86.839c0,1.637-1.157,2.3-2.584,1.473a5.693,5.693,0,0,1-2.584-4.456c0-1.639,1.157-2.3,2.584-1.475A5.7,5.7,0,0,1,79.4,86.839" transform="translate(17.012 -24.122)" fill="#101041"/>
        <path id="Tracé_357" data-name="Tracé 357" d="M45.992,67.552c0,1.637-1.157,2.3-2.584,1.473a5.693,5.693,0,0,1-2.584-4.456c0-1.639,1.157-2.3,2.584-1.475a5.7,5.7,0,0,1,2.584,4.458" transform="translate(-22.624 -47.107)" fill="#101041"/>
        <path id="Tracé_358" data-name="Tracé 358" d="M50.2,69.978c0,1.637-1.157,2.3-2.584,1.473a5.694,5.694,0,0,1-2.584-4.458c0-1.637,1.157-2.3,2.584-1.473A5.7,5.7,0,0,1,50.2,69.978" transform="translate(-17.614 -44.216)" fill="#101041"/>
        <path id="Tracé_359" data-name="Tracé 359" d="M54.4,72.405c0,1.637-1.157,2.3-2.584,1.473a5.7,5.7,0,0,1-2.586-4.458c0-1.637,1.159-2.3,2.586-1.473A5.7,5.7,0,0,1,54.4,72.405" transform="translate(-12.607 -41.324)" fill="#101041"/>
        <path id="Tracé_360" data-name="Tracé 360" d="M58.6,74.832c0,1.637-1.157,2.3-2.584,1.473a5.694,5.694,0,0,1-2.584-4.458c0-1.637,1.157-2.3,2.584-1.473A5.7,5.7,0,0,1,58.6,74.832" transform="translate(-7.686 -38.431)" fill="#101041"/>
        <path id="Tracé_361" data-name="Tracé 361" d="M62.805,77.258c0,1.637-1.157,2.3-2.584,1.473a5.693,5.693,0,0,1-2.584-4.456c0-1.639,1.157-2.3,2.584-1.475a5.7,5.7,0,0,1,2.584,4.458" transform="translate(-2.694 -35.54)" fill="#101041"/>
        <path id="Tracé_362" data-name="Tracé 362" d="M67.008,79.685c0,1.637-1.157,2.3-2.584,1.473A5.694,5.694,0,0,1,61.84,76.7c0-1.637,1.157-2.3,2.584-1.473a5.7,5.7,0,0,1,2.584,4.458" transform="translate(2.297 -32.648)" fill="#101041"/>
        <path id="Tracé_363" data-name="Tracé 363" d="M71.211,82.112c0,1.637-1.157,2.3-2.584,1.473a5.693,5.693,0,0,1-2.584-4.456c0-1.639,1.157-2.3,2.584-1.475a5.7,5.7,0,0,1,2.584,4.458" transform="translate(7.289 -29.755)" fill="#101041"/>
        <path id="Tracé_364" data-name="Tracé 364" d="M75.414,84.539c0,1.637-1.157,2.3-2.584,1.473a5.694,5.694,0,0,1-2.584-4.458c0-1.637,1.157-2.3,2.584-1.473a5.7,5.7,0,0,1,2.584,4.458" transform="translate(12.28 -26.863)" fill="#101041"/>
        <path id="Tracé_365" data-name="Tracé 365" d="M79.79,84.892a2.9,2.9,0,0,0,2.584-3.047,2.693,2.693,0,0,0-2.584-2.884,2.9,2.9,0,0,0-2.584,3.047,2.691,2.691,0,0,0,2.584,2.884" transform="translate(20.545 -27.776)" fill="#101041"/>
        <path id="Tracé_366" data-name="Tracé 366" d="M83.993,84.76a2.9,2.9,0,0,0,2.584-3.047,2.69,2.69,0,0,0-2.584-2.884,2.9,2.9,0,0,0-2.584,3.047,2.693,2.693,0,0,0,2.584,2.884" transform="translate(25.536 -27.934)" fill="#101041"/>
        <path id="Tracé_367" data-name="Tracé 367" d="M88.2,84.628a2.9,2.9,0,0,0,2.584-3.047A2.691,2.691,0,0,0,88.2,78.7a2.9,2.9,0,0,0-2.584,3.047A2.693,2.693,0,0,0,88.2,84.628" transform="translate(30.527 -28.091)" fill="#101041"/>
        <path id="Tracé_368" data-name="Tracé 368" d="M81.892,88.318a2.9,2.9,0,0,0,2.584-3.047,2.693,2.693,0,0,0-2.584-2.884,2.9,2.9,0,0,0-2.584,3.047,2.69,2.69,0,0,0,2.584,2.884" transform="translate(23.041 -23.693)" fill="#101041"/>
        <path id="Tracé_369" data-name="Tracé 369" d="M86.1,88.186a2.9,2.9,0,0,0,2.584-3.047A2.69,2.69,0,0,0,86.1,82.255,2.9,2.9,0,0,0,83.511,85.3,2.693,2.693,0,0,0,86.1,88.186" transform="translate(28.032 -23.851)" fill="#101041"/>
      </g>
      <path id="Tracé_167" data-name="Tracé 167" d="M141.741,124.013c-6.88,0-13.561-1.582-18.33-4.342L38.858,70.761c-4.366-2.525-6.768-5.725-6.768-9.01,0-3.246,2.356-6.4,6.642-8.874L122.757,4.267C127.519,1.515,133.951,0,140.863,0c6.88,0,13.559,1.582,18.328,4.342l84.561,48.909c4.36,2.525,6.764,5.723,6.764,9.006,0,3.248-2.356,6.4-6.642,8.879l-84.03,48.6c-4.762,2.757-11.192,4.272-18.1,4.272" transform="translate(-32.09)" fill="#eff0f5"/>
      <path id="Tracé_168" data-name="Tracé 168" d="M121.613,116.135,41.887,70.013c-9.132-5.284-9.178-13.854-.1-19.106L121.014,5.073c9.075-5.251,23.89-5.225,33.022.059l79.724,46.124c9.134,5.282,9.18,13.852.1,19.1l-79.227,45.834c-9.077,5.251-23.89,5.225-33.022-.059M149.735,7.62c-6.748-3.9-17.691-3.923-24.4-.044L46.111,53.411c-6.706,3.879-6.669,10.211.077,14.115l79.726,46.122c6.746,3.9,17.691,3.925,24.4.044l79.227-45.834c6.7-3.879,6.669-10.209-.077-14.113Z" transform="translate(-28.612 1.373)" fill="#101041" stroke="#3f8fb9" stroke-width="1"/>
      <g id="points-2" data-name="points" transform="translate(31.701 17.52)">
        <path id="Tracé_169" data-name="Tracé 169" d="M85.966,11.74a5.168,5.168,0,0,1-4.675-.009c-1.3-.747-1.3-1.955-.015-2.7a5.174,5.174,0,0,1,4.675.009c1.3.747,1.3,1.957.015,2.7" transform="translate(-6.523 -7.417)" fill="#7f8394"/>
        <path id="Tracé_170" data-name="Tracé 170" d="M89.78,13.941a5.168,5.168,0,0,1-4.675-.009c-1.3-.747-1.3-1.955-.015-2.7a5.168,5.168,0,0,1,4.675.007c1.3.75,1.3,1.957.015,2.7" transform="translate(-2.001 -4.794)" fill="#7f8394"/>
        <path id="Tracé_171" data-name="Tracé 171" d="M93.593,16.143a5.168,5.168,0,0,1-4.675-.009c-1.3-.747-1.3-1.955-.015-2.7a5.168,5.168,0,0,1,4.675.011c1.3.747,1.3,1.955.015,2.7" transform="translate(2.52 -2.17)" fill="#7f8394"/>
        <path id="Tracé_172" data-name="Tracé 172" d="M97.407,18.345a5.168,5.168,0,0,1-4.675-.009c-1.3-.747-1.3-1.955-.015-2.7a5.17,5.17,0,0,1,4.673.009c1.3.747,1.3,1.957.018,2.7" transform="translate(7.043 0.455)" fill="#7f8394"/>
        <path id="Tracé_173" data-name="Tracé 173" d="M101.22,20.546a5.168,5.168,0,0,1-4.675-.009c-1.3-.747-1.3-1.955-.015-2.7a5.161,5.161,0,0,1,4.675.009c1.3.747,1.3,1.955.015,2.7" transform="translate(11.564 3.078)" fill="#7f8394"/>
        <path id="Tracé_174" data-name="Tracé 174" d="M105.034,22.748a5.172,5.172,0,0,1-4.677-.009c-1.293-.747-1.3-1.955-.013-2.7a5.156,5.156,0,0,1,4.673.009c1.3.745,1.3,1.955.018,2.7" transform="translate(16.086 5.702)" fill="#7f8394"/>
        <path id="Tracé_175" data-name="Tracé 175" d="M108.847,24.95a5.168,5.168,0,0,1-4.675-.009c-1.3-.747-1.3-1.955-.015-2.7a5.168,5.168,0,0,1,4.675.007c1.3.75,1.3,1.957.015,2.7" transform="translate(20.607 8.326)" fill="#7f8394"/>
        <path id="Tracé_176" data-name="Tracé 176" d="M112.661,27.152a5.172,5.172,0,0,1-4.677-.009c-1.293-.747-1.3-1.955-.013-2.7a5.163,5.163,0,0,1,4.673.007c1.3.75,1.3,1.957.018,2.7" transform="translate(25.078 10.951)" fill="#7f8394"/>
        <path id="Tracé_177" data-name="Tracé 177" d="M116.474,29.353a5.168,5.168,0,0,1-4.675-.009c-1.3-.747-1.3-1.955-.015-2.7a5.174,5.174,0,0,1,4.675.009c1.3.747,1.3,1.957.015,2.7" transform="translate(29.622 13.574)" fill="#7f8394"/>
        <path id="Tracé_178" data-name="Tracé 178" d="M120.288,31.555a5.172,5.172,0,0,1-4.677-.009c-1.293-.747-1.3-1.957-.013-2.7a5.17,5.17,0,0,1,4.673.009c1.3.747,1.3,1.957.018,2.7" transform="translate(34.168 16.198)" fill="#7f8394"/>
        <path id="Tracé_179" data-name="Tracé 179" d="M85.129,14.424a5.168,5.168,0,0,1-4.675-.009c-1.3-.747-1.3-1.955-.015-2.7a5.161,5.161,0,0,1,4.675.009c1.3.745,1.3,1.955.015,2.7" transform="translate(-7.515 -4.218)" fill="#7f8394"/>
        <path id="Tracé_180" data-name="Tracé 180" d="M88.941,16.626a5.168,5.168,0,0,1-4.675-.009c-1.293-.747-1.3-1.957-.015-2.7a5.168,5.168,0,0,1,4.675.007c1.3.75,1.3,1.957.015,2.7" transform="translate(-2.993 -1.594)" fill="#7f8394"/>
        <path id="Tracé_181" data-name="Tracé 181" d="M92.756,18.828a5.168,5.168,0,0,1-4.675-.009c-1.3-.747-1.3-1.955-.015-2.7a5.168,5.168,0,0,1,4.675.007c1.3.75,1.3,1.957.015,2.7" transform="translate(1.528 1.03)" fill="#7f8394"/>
        <path id="Tracé_182" data-name="Tracé 182" d="M96.568,21.03a5.168,5.168,0,0,1-4.675-.009c-1.3-.747-1.3-1.955-.015-2.7a5.174,5.174,0,0,1,4.675.009c1.3.747,1.3,1.957.015,2.7" transform="translate(6.05 3.654)" fill="#7f8394"/>
        <path id="Tracé_183" data-name="Tracé 183" d="M100.383,23.232a5.168,5.168,0,0,1-4.675-.009c-1.3-.747-1.3-1.957-.015-2.7a5.174,5.174,0,0,1,4.675.009c1.3.747,1.3,1.957.015,2.7" transform="translate(10.571 6.279)" fill="#7f8394"/>
        <path id="Tracé_184" data-name="Tracé 184" d="M104.2,25.433a5.168,5.168,0,0,1-4.675-.009c-1.3-.747-1.3-1.955-.013-2.7a5.163,5.163,0,0,1,4.673.007c1.3.75,1.3,1.957.015,2.7" transform="translate(15.093 8.902)" fill="#7f8394"/>
        <path id="Tracé_185" data-name="Tracé 185" d="M108.01,27.635a5.168,5.168,0,0,1-4.675-.009c-1.3-.747-1.3-1.955-.015-2.7a5.174,5.174,0,0,1,4.675.009c1.3.747,1.3,1.957.015,2.7" transform="translate(19.615 11.526)" fill="#7f8394"/>
        <path id="Tracé_186" data-name="Tracé 186" d="M111.824,29.837a5.168,5.168,0,0,1-4.675-.009c-1.3-.747-1.3-1.957-.015-2.7a5.175,5.175,0,0,1,4.675.009c1.3.747,1.3,1.957.015,2.7" transform="translate(24.081 14.15)" fill="#7f8394"/>
        <path id="Tracé_187" data-name="Tracé 187" d="M115.637,32.038a5.168,5.168,0,0,1-4.675-.009c-1.3-.747-1.3-1.955-.015-2.7a5.161,5.161,0,0,1,4.675.009c1.3.747,1.3,1.955.015,2.7" transform="translate(28.625 16.774)" fill="#7f8394"/>
        <path id="Tracé_188" data-name="Tracé 188" d="M80.479,14.908A5.168,5.168,0,0,1,75.8,14.9c-1.3-.747-1.3-1.957-.015-2.7a5.174,5.174,0,0,1,4.675.009c1.3.747,1.3,1.957.015,2.7" transform="translate(-13.029 -3.642)" fill="#7f8394"/>
        <path id="Tracé_189" data-name="Tracé 189" d="M84.292,17.109a5.168,5.168,0,0,1-4.675-.009c-1.3-.747-1.3-1.955-.015-2.7a5.161,5.161,0,0,1,4.675.009c1.3.747,1.3,1.955.015,2.7" transform="translate(-8.508 -1.018)" fill="#7f8394"/>
        <path id="Tracé_190" data-name="Tracé 190" d="M88.106,19.311a5.168,5.168,0,0,1-4.675-.009c-1.3-.747-1.3-1.955-.015-2.7a5.174,5.174,0,0,1,4.675.009c1.3.747,1.3,1.957.015,2.7" transform="translate(-3.986 1.606)" fill="#7f8394"/>
        <path id="Tracé_191" data-name="Tracé 191" d="M91.919,21.513a5.168,5.168,0,0,1-4.675-.009c-1.3-.747-1.3-1.955-.015-2.7a5.161,5.161,0,0,1,4.675.009c1.3.747,1.3,1.955.015,2.7" transform="translate(0.536 4.23)" fill="#7f8394"/>
        <path id="Tracé_192" data-name="Tracé 192" d="M95.733,23.715a5.168,5.168,0,0,1-4.675-.009c-1.3-.747-1.3-1.955-.015-2.7a5.161,5.161,0,0,1,4.675.009c1.3.747,1.3,1.955.015,2.7" transform="translate(5.058 6.855)" fill="#7f8394"/>
        <path id="Tracé_193" data-name="Tracé 193" d="M99.546,25.916a5.168,5.168,0,0,1-4.675-.009c-1.3-.747-1.3-1.955-.015-2.7a5.161,5.161,0,0,1,4.675.009c1.3.745,1.3,1.955.015,2.7" transform="translate(9.579 9.478)" fill="#7f8394"/>
        <path id="Tracé_194" data-name="Tracé 194" d="M103.36,28.118a5.168,5.168,0,0,1-4.675-.009c-1.3-.747-1.3-1.955-.015-2.7a5.161,5.161,0,0,1,4.675.009c1.3.747,1.3,1.955.015,2.7" transform="translate(14.101 12.102)" fill="#7f8394"/>
        <path id="Tracé_195" data-name="Tracé 195" d="M107.173,30.32a5.168,5.168,0,0,1-4.675-.009c-1.3-.747-1.3-1.955-.015-2.7a5.161,5.161,0,0,1,4.675.009c1.3.747,1.3,1.955.015,2.7" transform="translate(18.622 14.726)" fill="#7f8394"/>
        <path id="Tracé_196" data-name="Tracé 196" d="M110.987,32.521a5.168,5.168,0,0,1-4.675-.009c-1.3-.747-1.3-1.955-.015-2.7a5.168,5.168,0,0,1,4.675.007c1.3.747,1.3,1.957.015,2.7" transform="translate(23.083 17.349)" fill="#7f8394"/>
        <path id="Tracé_197" data-name="Tracé 197" d="M114.8,34.723a5.168,5.168,0,0,1-4.675-.009c-1.3-.747-1.3-1.955-.015-2.7a5.161,5.161,0,0,1,4.675.009c1.3.747,1.3,1.955.015,2.7" transform="translate(27.627 19.974)" fill="#7f8394"/>
        <path id="Tracé_198" data-name="Tracé 198" d="M79.642,17.593a5.168,5.168,0,0,1-4.675-.009c-1.3-.747-1.3-1.955-.015-2.7a5.168,5.168,0,0,1,4.675.007c1.3.747,1.3,1.957.015,2.7" transform="translate(-14.021 -0.441)" fill="#7f8394"/>
        <path id="Tracé_199" data-name="Tracé 199" d="M83.455,19.794a5.168,5.168,0,0,1-4.675-.009c-1.3-.747-1.3-1.955-.015-2.7a5.161,5.161,0,0,1,4.675.009c1.3.747,1.3,1.955.015,2.7" transform="translate(-9.5 2.182)" fill="#7f8394"/>
        <path id="Tracé_200" data-name="Tracé 200" d="M87.269,22a5.168,5.168,0,0,1-4.675-.009c-1.3-.747-1.3-1.955-.015-2.7a5.161,5.161,0,0,1,4.675.009c1.3.747,1.3,1.955.015,2.7" transform="translate(-4.978 4.806)" fill="#7f8394"/>
        <path id="Tracé_203" data-name="Tracé 203" d="M98.709,28.6a5.168,5.168,0,0,1-4.675-.009c-1.3-.747-1.3-1.955-.015-2.7a5.161,5.161,0,0,1,4.675.009c1.3.747,1.3,1.955.015,2.7" transform="translate(8.586 12.678)" fill="#7f8394"/>
        <path id="Tracé_204" data-name="Tracé 204" d="M102.523,30.8a5.168,5.168,0,0,1-4.675-.009c-1.3-.747-1.3-1.955-.015-2.7a5.168,5.168,0,0,1,4.675.007c1.3.747,1.3,1.957.015,2.7" transform="translate(13.109 15.302)" fill="#7f8394"/>
        <path id="Tracé_205" data-name="Tracé 205" d="M106.336,33A5.168,5.168,0,0,1,101.661,33c-1.3-.747-1.3-1.955-.015-2.7a5.161,5.161,0,0,1,4.675.009c1.3.747,1.3,1.955.015,2.7" transform="translate(17.63 17.926)" fill="#7f8394"/>
        <path id="Tracé_206" data-name="Tracé 206" d="M110.15,35.206a5.168,5.168,0,0,1-4.675-.009c-1.3-.747-1.3-1.955-.015-2.7a5.168,5.168,0,0,1,4.675.011c1.3.747,1.3,1.955.015,2.7" transform="translate(22.086 20.549)" fill="#7f8394"/>
        <path id="Tracé_207" data-name="Tracé 207" d="M74.991,18.076a5.168,5.168,0,0,1-4.675-.009c-1.3-.747-1.3-1.955-.015-2.7a5.161,5.161,0,0,1,4.675.009c1.3.747,1.3,1.955.015,2.7" transform="translate(-19.536 0.134)" fill="#7f8394"/>
        <path id="Tracé_208" data-name="Tracé 208" d="M78.8,20.277a5.168,5.168,0,0,1-4.675-.009c-1.3-.747-1.3-1.955-.015-2.7a5.161,5.161,0,0,1,4.675.009c1.3.747,1.3,1.955.015,2.7" transform="translate(-15.014 2.757)" fill="#7f8394"/>
        <path id="Tracé_209" data-name="Tracé 209" d="M82.618,22.479a5.168,5.168,0,0,1-4.675-.009c-1.3-.747-1.3-1.955-.015-2.7a5.168,5.168,0,0,1,4.675.007c1.3.747,1.3,1.957.015,2.7" transform="translate(-10.493 5.382)" fill="#7f8394"/>
        <path id="Tracé_214" data-name="Tracé 214" d="M101.686,33.488a5.168,5.168,0,0,1-4.675-.009c-1.3-.747-1.3-1.955-.015-2.7a5.161,5.161,0,0,1,4.675.009c1.3.745,1.3,1.955.015,2.7" transform="translate(12.116 18.502)" fill="#7f8394"/>
        <path id="Tracé_215" data-name="Tracé 215" d="M105.5,35.69a5.168,5.168,0,0,1-4.675-.009c-1.3-.747-1.3-1.955-.015-2.7a5.174,5.174,0,0,1,4.675.009c1.3.747,1.3,1.957.015,2.7" transform="translate(16.637 21.126)" fill="#7f8394"/>
        <path id="Tracé_216" data-name="Tracé 216" d="M109.313,37.891a5.168,5.168,0,0,1-4.675-.009c-1.3-.747-1.3-1.955-.015-2.7a5.168,5.168,0,0,1,4.675.007c1.3.75,1.3,1.957.015,2.7" transform="translate(21.16 23.749)" fill="#7f8394"/>
        <path id="Tracé_217" data-name="Tracé 217" d="M74.154,20.761a5.168,5.168,0,0,1-4.675-.009c-1.3-.747-1.3-1.955-.015-2.7a5.174,5.174,0,0,1,4.675.009c1.3.747,1.3,1.957.015,2.7" transform="translate(-20.529 3.334)" fill="#7f8394"/>
        <path id="Tracé_218" data-name="Tracé 218" d="M77.968,22.962a5.168,5.168,0,0,1-4.675-.009c-1.3-.747-1.3-1.955-.015-2.7a5.161,5.161,0,0,1,4.675.009c1.3.747,1.3,1.955.015,2.7" transform="translate(-16.006 5.957)" fill="#7f8394"/>
        <path id="Tracé_223" data-name="Tracé 223" d="M97.035,33.971a5.168,5.168,0,0,1-4.675-.009c-1.3-.747-1.3-1.957-.015-2.7a5.174,5.174,0,0,1,4.675.009c1.3.747,1.3,1.957.015,2.7" transform="translate(6.602 19.077)" fill="#7f8394"/>
        <path id="Tracé_224" data-name="Tracé 224" d="M100.849,36.173a5.168,5.168,0,0,1-4.675-.009c-1.3-.747-1.3-1.955-.015-2.7a5.168,5.168,0,0,1,4.675.007c1.3.75,1.3,1.957.015,2.7" transform="translate(11.124 21.702)" fill="#7f8394"/>
        <path id="Tracé_225" data-name="Tracé 225" d="M104.662,38.375a5.168,5.168,0,0,1-4.675-.009c-1.3-.747-1.3-1.955-.015-2.7a5.168,5.168,0,0,1,4.675.011c1.3.745,1.3,1.955.015,2.7" transform="translate(15.645 24.326)" fill="#7f8394"/>
        <path id="Tracé_226" data-name="Tracé 226" d="M69.5,21.244a5.168,5.168,0,0,1-4.675-.009c-1.3-.747-1.3-1.955-.015-2.7a5.161,5.161,0,0,1,4.675.009c1.3.747,1.3,1.955.015,2.7" transform="translate(-26.042 3.91)" fill="#7f8394"/>
        <path id="Tracé_227" data-name="Tracé 227" d="M73.317,23.446a5.168,5.168,0,0,1-4.675-.009c-1.3-.747-1.3-1.955-.015-2.7a5.175,5.175,0,0,1,4.675.009c1.3.747,1.3,1.957.015,2.7" transform="translate(-21.521 6.534)" fill="#7f8394"/>
        <path id="Tracé_233" data-name="Tracé 233" d="M96.2,36.656a5.168,5.168,0,0,1-4.675-.009c-1.3-.747-1.3-1.955-.015-2.7a5.174,5.174,0,0,1,4.675.009c1.3.747,1.3,1.957.015,2.7" transform="translate(5.609 22.277)" fill="#7f8394"/>
        <path id="Tracé_234" data-name="Tracé 234" d="M100.012,38.858a5.168,5.168,0,0,1-4.675-.009c-1.3-.747-1.3-1.955-.015-2.7A5.161,5.161,0,0,1,100,36.16c1.3.747,1.3,1.955.015,2.7" transform="translate(10.131 24.902)" fill="#7f8394"/>
        <path id="Tracé_235" data-name="Tracé 235" d="M103.826,41.059a5.172,5.172,0,0,1-4.677-.009c-1.293-.747-1.3-1.955-.013-2.7a5.156,5.156,0,0,1,4.673.009c1.3.747,1.3,1.955.018,2.7" transform="translate(14.654 27.525)" fill="#7f8394"/>
        <path id="Tracé_236" data-name="Tracé 236" d="M68.667,23.929a5.168,5.168,0,0,1-4.675-.009c-1.3-.747-1.3-1.955-.015-2.7a5.161,5.161,0,0,1,4.675.009c1.3.747,1.3,1.955.015,2.7" transform="translate(-27.035 7.11)" fill="#7f8394"/>
        <path id="Tracé_237" data-name="Tracé 237" d="M72.481,26.131a5.172,5.172,0,0,1-4.677-.009c-1.293-.747-1.3-1.955-.013-2.7a5.156,5.156,0,0,1,4.673.009c1.3.747,1.3,1.955.018,2.7" transform="translate(-22.512 9.734)" fill="#7f8394"/>
        <path id="Tracé_242" data-name="Tracé 242" d="M91.548,37.139a5.168,5.168,0,0,1-4.675-.009c-1.3-.747-1.3-1.955-.015-2.7a5.161,5.161,0,0,1,4.675.009c1.3.747,1.3,1.955.015,2.7" transform="translate(0.096 22.853)" fill="#7f8394"/>
        <path id="Tracé_243" data-name="Tracé 243" d="M95.36,39.341a5.168,5.168,0,0,1-4.675-.009c-1.3-.747-1.3-1.955-.015-2.7a5.161,5.161,0,0,1,4.675.009c1.3.747,1.3,1.955.015,2.7" transform="translate(4.617 25.477)" fill="#7f8394"/>
        <path id="Tracé_244" data-name="Tracé 244" d="M99.175,41.543a5.168,5.168,0,0,1-4.675-.009c-1.3-.747-1.3-1.955-.015-2.7a5.168,5.168,0,0,1,4.675.007c1.3.747,1.3,1.957.015,2.7" transform="translate(9.139 28.101)" fill="#7f8394"/>
        <path id="Tracé_245" data-name="Tracé 245" d="M64.017,24.412a5.168,5.168,0,0,1-4.675-.009c-1.3-.747-1.3-1.955-.015-2.7A5.161,5.161,0,0,1,64,21.714c1.3.747,1.3,1.955.015,2.7" transform="translate(-32.549 7.685)" fill="#7f8394"/>
        <path id="Tracé_246" data-name="Tracé 246" d="M67.83,26.614a5.168,5.168,0,0,1-4.675-.009c-1.3-.747-1.3-1.955-.015-2.7a5.168,5.168,0,0,1,4.675.007c1.3.747,1.3,1.957.015,2.7" transform="translate(-28.027 10.309)" fill="#7f8394"/>
        <path id="Tracé_247" data-name="Tracé 247" d="M71.643,28.815a5.168,5.168,0,0,1-4.675-.009c-1.3-.747-1.3-1.955-.015-2.7a5.161,5.161,0,0,1,4.675.009c1.3.747,1.3,1.955.015,2.7" transform="translate(-23.506 12.933)" fill="#7f8394"/>
        <path id="Tracé_252" data-name="Tracé 252" d="M90.711,39.824a5.168,5.168,0,0,1-4.675-.009c-1.3-.747-1.3-1.955-.015-2.7a5.168,5.168,0,0,1,4.675.007c1.3.747,1.3,1.957.015,2.7" transform="translate(-0.897 26.053)" fill="#7f8394"/>
        <path id="Tracé_253" data-name="Tracé 253" d="M94.525,42.026a5.168,5.168,0,0,1-4.675-.009c-1.3-.747-1.3-1.955-.015-2.7a5.161,5.161,0,0,1,4.675.009c1.3.747,1.3,1.955.015,2.7" transform="translate(3.625 28.677)" fill="#7f8394"/>
        <path id="Tracé_254" data-name="Tracé 254" d="M98.338,44.228a5.168,5.168,0,0,1-4.675-.009c-1.3-.747-1.3-1.955-.015-2.7a5.161,5.161,0,0,1,4.675.009c1.3.747,1.3,1.955.015,2.7" transform="translate(8.147 31.302)" fill="#7f8394"/>
        <path id="Tracé_255" data-name="Tracé 255" d="M63.18,27.1a5.168,5.168,0,0,1-4.675-.009c-1.3-.747-1.3-1.955-.015-2.7a5.161,5.161,0,0,1,4.675.009c1.3.747,1.3,1.955.015,2.7" transform="translate(-33.474 10.885)" fill="#7f8394"/>
        <path id="Tracé_256" data-name="Tracé 256" d="M66.993,29.3a5.168,5.168,0,0,1-4.675-.009c-1.3-.747-1.3-1.955-.015-2.7a5.168,5.168,0,0,1,4.675.011c1.3.745,1.3,1.955.015,2.7" transform="translate(-29.019 13.509)" fill="#7f8394"/>
        <path id="Tracé_257" data-name="Tracé 257" d="M70.807,31.5a5.181,5.181,0,0,1-4.675-.009c-1.3-.747-1.3-1.957-.015-2.7a5.174,5.174,0,0,1,4.675,0c1.3.75,1.3,1.959.015,2.7" transform="translate(-24.497 16.134)" fill="#7f8394"/>
        <path id="Tracé_258" data-name="Tracé 258" d="M74.62,33.7a5.168,5.168,0,0,1-4.675-.009c-1.3-.747-1.3-1.955-.015-2.7A5.168,5.168,0,0,1,74.6,31c1.3.75,1.3,1.957.015,2.7" transform="translate(-19.976 18.757)" fill="#7f8394"/>
        <path id="Tracé_260" data-name="Tracé 260" d="M82.247,38.106a5.168,5.168,0,0,1-4.675-.009c-1.3-.747-1.3-1.955-.015-2.7a5.174,5.174,0,0,1,4.675.009c1.3.747,1.3,1.957.015,2.7" transform="translate(-10.933 24.005)" fill="#7f8394"/>
        <path id="Tracé_261" data-name="Tracé 261" d="M86.061,40.307a5.168,5.168,0,0,1-4.675-.009c-1.3-.747-1.3-1.955-.015-2.7a5.168,5.168,0,0,1,4.675.007c1.3.75,1.3,1.957.015,2.7" transform="translate(-6.41 26.628)" fill="#7f8394"/>
        <path id="Tracé_262" data-name="Tracé 262" d="M89.874,42.509A5.168,5.168,0,0,1,85.2,42.5c-1.3-.747-1.3-1.955-.015-2.7a5.168,5.168,0,0,1,4.675.011c1.3.745,1.3,1.955.015,2.7" transform="translate(-1.889 29.253)" fill="#7f8394"/>
        <path id="Tracé_263" data-name="Tracé 263" d="M93.688,44.711a5.168,5.168,0,0,1-4.675-.009c-1.3-.747-1.3-1.955-.015-2.7a5.174,5.174,0,0,1,4.675.009c1.3.747,1.3,1.957.015,2.7" transform="translate(2.633 31.877)" fill="#7f8394"/>
        <path id="Tracé_264" data-name="Tracé 264" d="M58.529,27.58a5.168,5.168,0,0,1-4.675-.009c-1.3-.747-1.3-1.955-.015-2.7a5.161,5.161,0,0,1,4.675.009c1.3.745,1.3,1.955.015,2.7" transform="translate(-39.017 11.461)" fill="#7f8394"/>
        <path id="Tracé_265" data-name="Tracé 265" d="M62.343,29.782a5.168,5.168,0,0,1-4.675-.009c-1.3-.747-1.3-1.955-.015-2.7a5.168,5.168,0,0,1,4.675.007c1.3.75,1.3,1.957.015,2.7" transform="translate(-34.472 14.085)" fill="#7f8394"/>
        <path id="Tracé_266" data-name="Tracé 266" d="M66.156,31.984a5.168,5.168,0,0,1-4.675-.009c-1.3-.747-1.3-1.957-.015-2.7a5.161,5.161,0,0,1,4.675.009c1.3.747,1.3,1.955.015,2.7" transform="translate(-30.012 16.709)" fill="#7f8394"/>
        <path id="Tracé_267" data-name="Tracé 267" d="M69.97,34.185a5.168,5.168,0,0,1-4.675-.009c-1.3-.747-1.3-1.955-.015-2.7a5.174,5.174,0,0,1,4.675.009c1.3.747,1.3,1.957.015,2.7" transform="translate(-25.49 19.332)" fill="#7f8394"/>
        <path id="Tracé_268" data-name="Tracé 268" d="M73.783,36.387a5.168,5.168,0,0,1-4.675-.009c-1.3-.747-1.3-1.957-.015-2.7a5.175,5.175,0,0,1,4.675.009c1.3.747,1.3,1.957.015,2.7" transform="translate(-20.968 21.957)" fill="#7f8394"/>
        <path id="Tracé_269" data-name="Tracé 269" d="M77.6,38.589a5.168,5.168,0,0,1-4.675-.009c-1.3-.747-1.3-1.955-.015-2.7a5.168,5.168,0,0,1,4.675.007c1.3.75,1.3,1.957.015,2.7" transform="translate(-16.446 24.581)" fill="#7f8394"/>
        <path id="Tracé_270" data-name="Tracé 270" d="M81.41,40.791a5.168,5.168,0,0,1-4.675-.009c-1.3-.747-1.3-1.955-.015-2.7a5.168,5.168,0,0,1,4.675.011c1.3.745,1.3,1.955.015,2.7" transform="translate(-11.925 27.205)" fill="#7f8394"/>
        <path id="Tracé_271" data-name="Tracé 271" d="M85.224,42.992a5.168,5.168,0,0,1-4.675-.009c-1.3-.747-1.3-1.955-.015-2.7a5.161,5.161,0,0,1,4.675.009c1.3.747,1.3,1.955.015,2.7" transform="translate(-7.403 29.829)" fill="#7f8394"/>
        <path id="Tracé_272" data-name="Tracé 272" d="M89.037,45.194a5.168,5.168,0,0,1-4.675-.009c-1.3-.747-1.3-1.955-.015-2.7a5.161,5.161,0,0,1,4.675.009c1.3.747,1.3,1.955.015,2.7" transform="translate(-2.882 32.453)" fill="#7f8394"/>
        <path id="Tracé_274" data-name="Tracé 274" d="M57.692,30.265a5.168,5.168,0,0,1-4.675-.009c-1.3-.747-1.3-1.955-.015-2.7a5.168,5.168,0,0,1,4.675.007c1.3.75,1.3,1.957.015,2.7" transform="translate(-40.014 14.661)" fill="#7f8394"/>
        <path id="Tracé_275" data-name="Tracé 275" d="M81.409,12.277a5.168,5.168,0,0,1-4.675-.009c-1.3-.747-1.3-1.955-.013-2.7a5.163,5.163,0,0,1,4.673.011c1.3.747,1.3,1.955.015,2.7" transform="translate(-11.926 -6.777)" fill="#7f8394"/>
        <path id="Tracé_276" data-name="Tracé 276" d="M75.921,15.445a5.168,5.168,0,0,1-4.675-.009c-1.3-.747-1.3-1.955-.013-2.7a5.17,5.17,0,0,1,4.673.009c1.3.747,1.3,1.957.015,2.7" transform="translate(-18.433 -3.002)" fill="#7f8394"/>
        <path id="Tracé_277" data-name="Tracé 277" d="M70.434,18.613a5.168,5.168,0,0,1-4.675-.009c-1.3-.747-1.3-1.955-.015-2.7a5.168,5.168,0,0,1,4.675.007c1.3.747,1.3,1.957.015,2.7" transform="translate(-24.939 0.774)" fill="#7f8394"/>
        <path id="Tracé_278" data-name="Tracé 278" d="M64.947,21.781a5.168,5.168,0,0,1-4.675-.009c-1.3-.747-1.3-1.957-.015-2.7a5.168,5.168,0,0,1,4.675.007c1.3.75,1.3,1.957.015,2.7" transform="translate(-31.445 4.55)" fill="#7f8394"/>
        <path id="Tracé_279" data-name="Tracé 279" d="M59.459,24.949a5.168,5.168,0,0,1-4.675-.009c-1.3-.747-1.3-1.955-.015-2.7a5.161,5.161,0,0,1,4.675.009c1.3.747,1.3,1.955.015,2.7" transform="translate(-37.909 8.325)" fill="#7f8394"/>
        <path id="Tracé_280" data-name="Tracé 280" d="M53.972,28.117a5.168,5.168,0,0,1-4.675-.009c-1.3-.747-1.3-1.955-.015-2.7a5.168,5.168,0,0,1,4.675.007c1.3.75,1.3,1.957.015,2.7" transform="translate(-44.448 12.101)" fill="#7f8394"/>
        <path id="Tracé_281" data-name="Tracé 281" d="M119.252,34.125a5.168,5.168,0,0,1-4.675-.009c-1.3-.747-1.3-1.955-.015-2.7a5.161,5.161,0,0,1,4.675.009c1.3.747,1.3,1.955.015,2.7" transform="translate(32.933 19.261)" fill="#7f8394"/>
        <path id="Tracé_282" data-name="Tracé 282" d="M113.765,37.294a5.168,5.168,0,0,1-4.675-.009c-1.3-.747-1.3-1.955-.015-2.7a5.174,5.174,0,0,1,4.675.009c1.3.75,1.3,1.957.015,2.7" transform="translate(26.394 23.038)" fill="#7f8394"/>
        <path id="Tracé_283" data-name="Tracé 283" d="M108.277,40.462a5.168,5.168,0,0,1-4.675-.009c-1.3-.747-1.3-1.955-.015-2.7a5.161,5.161,0,0,1,4.675.009c1.3.747,1.3,1.955.015,2.7" transform="translate(19.931 26.813)" fill="#7f8394"/>
        <path id="Tracé_284" data-name="Tracé 284" d="M102.79,43.63a5.168,5.168,0,0,1-4.675-.009c-1.3-.747-1.3-1.957-.015-2.7a5.174,5.174,0,0,1,4.675.009c1.3.747,1.3,1.957.015,2.7" transform="translate(13.425 30.589)" fill="#7f8394"/>
        <path id="Tracé_285" data-name="Tracé 285" d="M97.3,46.8a5.168,5.168,0,0,1-4.675-.009c-1.3-.747-1.3-1.955-.015-2.7a5.161,5.161,0,0,1,4.675.009c1.3.747,1.3,1.955.015,2.7" transform="translate(6.919 34.364)" fill="#7f8394"/>
        <path id="Tracé_286" data-name="Tracé 286" d="M91.815,49.966a5.168,5.168,0,0,1-4.675-.009c-1.3-.747-1.3-1.955-.013-2.7a5.156,5.156,0,0,1,4.673.009c1.3.747,1.3,1.955.015,2.7" transform="translate(0.412 38.14)" fill="#7f8394"/>
        <path id="Tracé_287" data-name="Tracé 287" d="M61.506,32.467a5.168,5.168,0,0,1-4.675-.009c-1.3-.747-1.3-1.955-.015-2.7a5.174,5.174,0,0,1,4.675.009c1.3.747,1.3,1.957.015,2.7" transform="translate(-35.469 17.285)" fill="#7f8394"/>
        <path id="Tracé_288" data-name="Tracé 288" d="M65.319,34.668a5.168,5.168,0,0,1-4.675-.009c-1.3-.747-1.3-1.955-.015-2.7a5.161,5.161,0,0,1,4.675.009c1.3.747,1.3,1.955.015,2.7" transform="translate(-31.004 19.908)" fill="#7f8394"/>
        <path id="Tracé_289" data-name="Tracé 289" d="M69.133,36.87a5.168,5.168,0,0,1-4.675-.009c-1.3-.747-1.3-1.955-.015-2.7a5.161,5.161,0,0,1,4.675.009c1.3.747,1.3,1.955.015,2.7" transform="translate(-26.482 22.532)" fill="#7f8394"/>
        <path id="Tracé_290" data-name="Tracé 290" d="M72.946,39.072a5.168,5.168,0,0,1-4.675-.009c-1.3-.747-1.3-1.955-.015-2.7a5.174,5.174,0,0,1,4.675.009c1.3.747,1.3,1.957.015,2.7" transform="translate(-21.961 25.156)" fill="#7f8394"/>
        <path id="Tracé_291" data-name="Tracé 291" d="M76.76,41.274a5.168,5.168,0,0,1-4.675-.009c-1.3-.747-1.3-1.955-.015-2.7a5.161,5.161,0,0,1,4.675.009c1.3.747,1.3,1.955.015,2.7" transform="translate(-17.439 27.781)" fill="#7f8394"/>
        <path id="Tracé_292" data-name="Tracé 292" d="M80.573,43.475a5.168,5.168,0,0,1-4.675-.009c-1.3-.747-1.3-1.955-.015-2.7a5.161,5.161,0,0,1,4.675.009c1.3.747,1.3,1.955.015,2.7" transform="translate(-12.918 30.404)" fill="#7f8394"/>
        <path id="Tracé_293" data-name="Tracé 293" d="M84.387,45.677a5.168,5.168,0,0,1-4.675-.009c-1.3-.747-1.3-1.955-.015-2.7a5.174,5.174,0,0,1,4.675.009c1.3.747,1.3,1.957.015,2.7" transform="translate(-8.395 33.028)" fill="#7f8394"/>
        <path id="Tracé_295" data-name="Tracé 295" d="M52.2,33.433a5.168,5.168,0,0,1-4.675-.009c-1.3-.747-1.3-1.955-.015-2.7a5.161,5.161,0,0,1,4.675.009c1.3.747,1.3,1.955.015,2.7" transform="translate(-46.554 18.436)" fill="#7f8394"/>
        <path id="Tracé_296" data-name="Tracé 296" d="M56.018,35.635a5.168,5.168,0,0,1-4.675-.009c-1.3-.747-1.3-1.955-.015-2.7A5.168,5.168,0,0,1,56,32.935c1.3.747,1.3,1.957.015,2.7" transform="translate(-42.01 21.06)" fill="#7f8394"/>
        <path id="Tracé_297" data-name="Tracé 297" d="M59.832,37.837a5.168,5.168,0,0,1-4.675-.009c-1.3-.747-1.3-1.955-.015-2.7a5.161,5.161,0,0,1,4.675.009c1.3.747,1.3,1.955.015,2.7" transform="translate(-37.464 23.685)" fill="#7f8394"/>
        <path id="Tracé_298" data-name="Tracé 298" d="M63.645,40.038a5.168,5.168,0,0,1-4.675-.009c-1.3-.747-1.3-1.955-.015-2.7a5.168,5.168,0,0,1,4.675.011c1.3.745,1.3,1.955.015,2.7" transform="translate(-32.989 26.308)" fill="#7f8394"/>
        <path id="Tracé_299" data-name="Tracé 299" d="M67.459,42.24a5.168,5.168,0,0,1-4.675-.009c-1.3-.747-1.3-1.955-.015-2.7a5.168,5.168,0,0,1,4.675.007c1.3.747,1.3,1.957.015,2.7" transform="translate(-28.467 28.932)" fill="#7f8394"/>
        <path id="Tracé_300" data-name="Tracé 300" d="M71.273,44.442a5.172,5.172,0,0,1-4.677-.009c-1.293-.747-1.3-1.955-.013-2.7a5.156,5.156,0,0,1,4.673.009c1.3.747,1.3,1.955.018,2.7" transform="translate(-23.945 31.557)" fill="#7f8394"/>
        <path id="Tracé_301" data-name="Tracé 301" d="M75.086,46.644a5.168,5.168,0,0,1-4.675-.009c-1.3-.747-1.3-1.955-.015-2.7a5.161,5.161,0,0,1,4.675.009c1.3.747,1.3,1.955.015,2.7" transform="translate(-19.424 34.181)" fill="#7f8394"/>
        <path id="Tracé_302" data-name="Tracé 302" d="M78.9,48.845a5.168,5.168,0,0,1-4.675-.009c-1.293-.747-1.3-1.957-.013-2.7a5.163,5.163,0,0,1,4.673.007c1.3.747,1.3,1.957.015,2.7" transform="translate(-14.901 36.804)" fill="#7f8394"/>
        <path id="Tracé_303" data-name="Tracé 303" d="M82.713,51.047a5.168,5.168,0,0,1-4.675-.009c-1.3-.747-1.3-1.955-.015-2.7a5.161,5.161,0,0,1,4.675.009c1.3.747,1.3,1.955.015,2.7" transform="translate(-10.38 39.428)" fill="#7f8394"/>
        <path id="Tracé_304" data-name="Tracé 304" d="M53.042,30.748a5.168,5.168,0,0,1-4.675-.009c-1.3-.747-1.3-1.955-.015-2.7a5.168,5.168,0,0,1,4.675.007c1.3.747,1.3,1.957.015,2.7" transform="translate(-45.556 15.236)" fill="#7f8394"/>
        <path id="Tracé_305" data-name="Tracé 305" d="M56.855,32.95a5.168,5.168,0,0,1-4.675-.009c-1.3-.747-1.3-1.955-.015-2.7a5.161,5.161,0,0,1,4.675.009c1.3.747,1.3,1.955.015,2.7" transform="translate(-41.012 17.861)" fill="#7f8394"/>
        <path id="Tracé_306" data-name="Tracé 306" d="M60.669,35.152a5.168,5.168,0,0,1-4.675-.009c-1.3-.747-1.3-1.955-.015-2.7a5.161,5.161,0,0,1,4.675.009c1.3.747,1.3,1.955.015,2.7" transform="translate(-36.467 20.485)" fill="#7f8394"/>
        <path id="Tracé_307" data-name="Tracé 307" d="M64.482,37.353a5.168,5.168,0,0,1-4.675-.009c-1.3-.747-1.3-1.955-.015-2.7a5.168,5.168,0,0,1,4.675.007c1.3.75,1.3,1.957.015,2.7" transform="translate(-31.997 23.108)" fill="#7f8394"/>
        <path id="Tracé_308" data-name="Tracé 308" d="M68.3,39.555a5.168,5.168,0,0,1-4.675-.009c-1.3-.747-1.3-1.955-.015-2.7a5.161,5.161,0,0,1,4.675.009c1.3.747,1.3,1.955.015,2.7" transform="translate(-27.474 25.732)" fill="#7f8394"/>
        <path id="Tracé_309" data-name="Tracé 309" d="M72.109,41.757a5.168,5.168,0,0,1-4.675-.009c-1.3-.747-1.3-1.955-.015-2.7a5.161,5.161,0,0,1,4.675.009c1.3.747,1.3,1.955.015,2.7" transform="translate(-22.953 28.357)" fill="#7f8394"/>
        <path id="Tracé_310" data-name="Tracé 310" d="M75.923,43.959a5.168,5.168,0,0,1-4.675-.009c-1.3-.747-1.3-1.955-.013-2.7a5.163,5.163,0,0,1,4.673.007c1.3.747,1.3,1.957.015,2.7" transform="translate(-18.431 30.981)" fill="#7f8394"/>
        <path id="Tracé_311" data-name="Tracé 311" d="M79.736,46.16a5.168,5.168,0,0,1-4.675-.009c-1.3-.747-1.3-1.955-.013-2.7a5.156,5.156,0,0,1,4.673.009c1.3.747,1.3,1.955.015,2.7" transform="translate(-13.91 33.604)" fill="#7f8394"/>
        <path id="Tracé_312" data-name="Tracé 312" d="M83.55,48.362a5.168,5.168,0,0,1-4.675-.009c-1.3-.747-1.3-1.955-.015-2.7a5.161,5.161,0,0,1,4.675.009c1.3.747,1.3,1.955.015,2.7" transform="translate(-9.388 36.228)" fill="#7f8394"/>
        <path id="Tracé_313" data-name="Tracé 313" d="M87.363,50.564a5.168,5.168,0,0,1-4.675-.009c-1.3-.747-1.3-1.955-.015-2.7a5.168,5.168,0,0,1,4.675.007c1.3.747,1.3,1.957.015,2.7" transform="translate(-4.867 38.852)" fill="#7f8394"/>
        <path id="Tracé_314" data-name="Tracé 314" d="M90.616,11.256a5.168,5.168,0,0,1-4.675-.009c-1.3-.747-1.3-1.955-.015-2.7a5.161,5.161,0,0,1,4.675.009c1.3.747,1.3,1.955.015,2.7" transform="translate(-1.009 -7.994)" fill="#7f8394"/>
        <path id="Tracé_315" data-name="Tracé 315" d="M94.43,13.458a5.168,5.168,0,0,1-4.675-.009c-1.3-.747-1.3-1.955-.015-2.7a5.168,5.168,0,0,1,4.675.007c1.3.747,1.3,1.957.015,2.7" transform="translate(3.513 -5.369)" fill="#7f8394"/>
        <path id="Tracé_316" data-name="Tracé 316" d="M98.243,15.66a5.168,5.168,0,0,1-4.675-.009c-1.3-.747-1.3-1.955-.015-2.7a5.161,5.161,0,0,1,4.675.009c1.3.747,1.3,1.955.015,2.7" transform="translate(8.034 -2.745)" fill="#7f8394"/>
        <path id="Tracé_317" data-name="Tracé 317" d="M102.057,17.862a5.181,5.181,0,0,1-4.675-.009c-1.3-.747-1.3-1.957-.015-2.7a5.174,5.174,0,0,1,4.675.009c1.3.75,1.3,1.957.015,2.7" transform="translate(12.556 -0.121)" fill="#7f8394"/>
        <path id="Tracé_318" data-name="Tracé 318" d="M105.87,20.063a5.168,5.168,0,0,1-4.675-.009c-1.3-.747-1.3-1.955-.015-2.7a5.168,5.168,0,0,1,4.675.007c1.3.747,1.3,1.957.015,2.7" transform="translate(17.077 2.502)" fill="#7f8394"/>
        <path id="Tracé_319" data-name="Tracé 319" d="M109.684,22.265a5.168,5.168,0,0,1-4.675-.009c-1.3-.747-1.3-1.955-.013-2.7a5.156,5.156,0,0,1,4.673.009c1.3.747,1.3,1.955.015,2.7" transform="translate(21.6 5.127)" fill="#7f8394"/>
        <path id="Tracé_320" data-name="Tracé 320" d="M113.5,24.467a5.168,5.168,0,0,1-4.675-.009c-1.3-.747-1.3-1.955-.013-2.7a5.163,5.163,0,0,1,4.673.011c1.3.747,1.3,1.955.015,2.7" transform="translate(26.075 7.751)" fill="#7f8394"/>
        <path id="Tracé_321" data-name="Tracé 321" d="M117.311,26.669a5.168,5.168,0,0,1-4.675-.009c-1.3-.747-1.3-1.955-.013-2.7a5.163,5.163,0,0,1,4.673.007c1.3.747,1.3,1.957.015,2.7" transform="translate(30.62 10.375)" fill="#7f8394"/>
        <path id="Tracé_322" data-name="Tracé 322" d="M121.124,28.87a5.168,5.168,0,0,1-4.675-.009c-1.3-.747-1.3-1.955-.015-2.7a5.161,5.161,0,0,1,4.675.009c1.3.747,1.3,1.955.015,2.7" transform="translate(35.164 12.998)" fill="#7f8394"/>
        <path id="Tracé_294" data-name="Tracé 294" d="M88.2,47.879a5.168,5.168,0,0,1-4.675-.009c-1.3-.747-1.3-1.955-.015-2.7a5.161,5.161,0,0,1,4.675.009c1.3.747,1.3,1.955.015,2.7" transform="translate(-3.874 35.653)" fill="#7f8394"/>
        <path id="Tracé_201" data-name="Tracé 201" d="M91.082,24.2a5.168,5.168,0,0,1-4.675-.009c-1.3-.747-1.3-1.955-.015-2.7a5.168,5.168,0,0,1,4.675.007c1.3.747,1.3,1.957.015,2.7" transform="translate(-0.457 7.43)" fill="#7f8394"/>
        <path id="Tracé_202" data-name="Tracé 202" d="M94.9,26.4a5.168,5.168,0,0,1-4.675-.009c-1.3-.747-1.3-1.955-.015-2.7a5.161,5.161,0,0,1,4.675.009c1.3.747,1.3,1.955.015,2.7" transform="translate(4.065 10.053)" fill="#7f8394"/>
        <path id="Tracé_210" data-name="Tracé 210" d="M86.432,24.681a5.168,5.168,0,0,1-4.675-.009c-1.3-.747-1.3-1.955-.015-2.7a5.161,5.161,0,0,1,4.675.009c1.3.747,1.3,1.955.015,2.7" transform="translate(-5.97 8.006)" fill="#7f8394"/>
        <path id="Tracé_211" data-name="Tracé 211" d="M90.245,26.883a5.168,5.168,0,0,1-4.675-.009c-1.3-.747-1.3-1.955-.013-2.7a5.163,5.163,0,0,1,4.673.011c1.3.747,1.3,1.955.015,2.7" transform="translate(-1.449 10.63)" fill="#7f8394"/>
        <path id="Tracé_212" data-name="Tracé 212" d="M94.059,29.085a5.181,5.181,0,0,1-4.675-.009c-1.3-.75-1.3-1.957-.015-2.7a5.174,5.174,0,0,1,4.675,0c1.3.75,1.3,1.959.015,2.7" transform="translate(3.073 13.254)" fill="#7f8394"/>
        <path id="Tracé_213" data-name="Tracé 213" d="M97.872,31.286a5.168,5.168,0,0,1-4.675-.009c-1.3-.747-1.3-1.955-.015-2.7a5.161,5.161,0,0,1,4.675.009c1.3.747,1.3,1.955.015,2.7" transform="translate(7.594 15.878)" fill="#7f8394"/>
        <path id="Tracé_219" data-name="Tracé 219" d="M81.781,25.164a5.168,5.168,0,0,1-4.675-.009c-1.3-.747-1.3-1.955-.015-2.7a5.161,5.161,0,0,1,4.675.009c1.3.745,1.3,1.955.015,2.7" transform="translate(-11.485 8.582)" fill="#7f8394"/>
        <path id="Tracé_220" data-name="Tracé 220" d="M85.595,27.366a5.168,5.168,0,0,1-4.675-.009c-1.3-.747-1.3-1.955-.015-2.7a5.168,5.168,0,0,1,4.675.007c1.3.75,1.3,1.957.015,2.7" transform="translate(-6.963 11.206)" fill="#7f8394"/>
        <path id="Tracé_221" data-name="Tracé 221" d="M89.408,29.568a5.174,5.174,0,0,1-4.675-.009c-1.3-.747-1.3-1.957-.015-2.7a5.161,5.161,0,0,1,4.675.009c1.3.747,1.3,1.955.015,2.7" transform="translate(-2.442 13.83)" fill="#7f8394"/>
        <path id="Tracé_222" data-name="Tracé 222" d="M93.222,31.769a5.168,5.168,0,0,1-4.675-.009c-1.3-.747-1.3-1.955-.015-2.7a5.174,5.174,0,0,1,4.675.009c1.3.747,1.3,1.957.015,2.7" transform="translate(2.081 16.453)" fill="#7f8394"/>
        <path id="Tracé_228" data-name="Tracé 228" d="M77.131,25.648a5.168,5.168,0,0,1-4.675-.009c-1.3-.747-1.3-1.957-.013-2.7a5.17,5.17,0,0,1,4.673.009c1.3.747,1.3,1.957.015,2.7" transform="translate(-16.999 9.158)" fill="#7f8394"/>
        <path id="Tracé_229" data-name="Tracé 229" d="M80.944,27.849a5.168,5.168,0,0,1-4.675-.009c-1.3-.747-1.3-1.955-.013-2.7a5.163,5.163,0,0,1,4.673.007c1.3.75,1.3,1.957.015,2.7" transform="translate(-12.477 11.781)" fill="#7f8394"/>
        <path id="Tracé_230" data-name="Tracé 230" d="M84.758,30.051a5.168,5.168,0,0,1-4.675-.009c-1.3-.747-1.3-1.955-.015-2.7a5.174,5.174,0,0,1,4.675.009c1.3.747,1.3,1.957.015,2.7" transform="translate(-7.955 14.405)" fill="#7f8394"/>
        <path id="Tracé_231" data-name="Tracé 231" d="M88.571,32.252a5.168,5.168,0,0,1-4.675-.009c-1.3-.747-1.3-1.955-.015-2.7a5.161,5.161,0,0,1,4.675.009c1.3.747,1.3,1.955.015,2.7" transform="translate(-3.434 17.029)" fill="#7f8394"/>
        <path id="Tracé_232" data-name="Tracé 232" d="M92.385,34.454a5.168,5.168,0,0,1-4.675-.009c-1.3-.747-1.3-1.955-.015-2.7a5.161,5.161,0,0,1,4.675.009c1.3.747,1.3,1.955.015,2.7" transform="translate(1.088 19.653)" fill="#7f8394"/>
        <path id="Tracé_238" data-name="Tracé 238" d="M76.294,28.332a5.168,5.168,0,0,1-4.675-.009c-1.3-.747-1.3-1.955-.015-2.7a5.168,5.168,0,0,1,4.675.007c1.3.747,1.3,1.957.015,2.7" transform="translate(-17.991 12.357)" fill="#7f8394"/>
        <path id="Tracé_239" data-name="Tracé 239" d="M80.108,30.534a5.172,5.172,0,0,1-4.677-.009c-1.293-.747-1.3-1.955-.013-2.7a5.156,5.156,0,0,1,4.673.009c1.3.747,1.3,1.955.018,2.7" transform="translate(-13.469 14.981)" fill="#7f8394"/>
        <path id="Tracé_240" data-name="Tracé 240" d="M83.921,32.736a5.168,5.168,0,0,1-4.675-.009c-1.3-.747-1.3-1.955-.015-2.7a5.161,5.161,0,0,1,4.675.009c1.3.747,1.3,1.955.015,2.7" transform="translate(-8.948 17.606)" fill="#7f8394"/>
        <path id="Tracé_241" data-name="Tracé 241" d="M87.733,34.937a5.168,5.168,0,0,1-4.675-.009c-1.293-.747-1.3-1.955-.015-2.7a5.168,5.168,0,0,1,4.675.007c1.3.75,1.3,1.957.015,2.7" transform="translate(-4.426 20.229)" fill="#7f8394"/>
        <path id="Tracé_248" data-name="Tracé 248" d="M75.457,31.017a5.168,5.168,0,0,1-4.675-.009c-1.3-.747-1.3-1.955-.013-2.7a5.156,5.156,0,0,1,4.673.009c1.3.747,1.3,1.955.015,2.7" transform="translate(-18.983 15.557)" fill="#7f8394"/>
        <path id="Tracé_249" data-name="Tracé 249" d="M79.271,33.219A5.168,5.168,0,0,1,74.6,33.21c-1.3-.747-1.3-1.955-.015-2.7a5.168,5.168,0,0,1,4.675.007c1.3.747,1.3,1.957.015,2.7" transform="translate(-14.461 18.181)" fill="#7f8394"/>
        <path id="Tracé_250" data-name="Tracé 250" d="M83.084,35.421a5.168,5.168,0,0,1-4.675-.009c-1.3-.747-1.3-1.955-.015-2.7a5.161,5.161,0,0,1,4.675.009c1.3.747,1.3,1.955.015,2.7" transform="translate(-9.94 20.806)" fill="#7f8394"/>
        <path id="Tracé_251" data-name="Tracé 251" d="M86.9,37.622a5.168,5.168,0,0,1-4.675-.009c-1.3-.747-1.3-1.955-.015-2.7a5.168,5.168,0,0,1,4.675.011c1.3.747,1.3,1.955.015,2.7" transform="translate(-5.418 23.429)" fill="#7f8394"/>
        <path id="Tracé_259" data-name="Tracé 259" d="M78.434,35.9a5.168,5.168,0,0,1-4.675-.009c-1.3-.747-1.3-1.955-.015-2.7a5.161,5.161,0,0,1,4.675.009c1.3.747,1.3,1.955.015,2.7" transform="translate(-15.454 21.381)" fill="#7f8394"/>
        <path id="Tracé_273" data-name="Tracé 273" d="M92.851,47.4a5.168,5.168,0,0,1-4.675-.009c-1.3-.747-1.3-1.955-.015-2.7a5.174,5.174,0,0,1,4.675.009c1.3.747,1.3,1.957.015,2.7" transform="translate(1.641 35.077)" fill="#7f8394"/>
      </g>
      <g id="cercle_profondeur" data-name="cercle profondeur" transform="translate(77.869 43.31)">
        <path id="Tracé_370" data-name="Tracé 370" d="M119.592,50.791c12.1-6.521,12.37-17.7.6-24.962S89.067,17.96,76.967,24.481s-12.37,17.694-.6,24.96,31.123,7.871,43.224,1.35" transform="translate(-67.711 -19.959)" fill="#ffae00"/>
        <path id="Tracé_371" data-name="Tracé 371" d="M115.648,48.424c10.843-5.843,11.084-15.855.537-22.367S88.3,19.006,77.454,24.849,66.371,40.7,76.917,47.214s27.888,7.051,38.731,1.21" transform="translate(-65.983 -18.96)" fill="#3f8fb9"/>
        <path id="Tracé_372" data-name="Tracé 372" d="M113.314,47.235c10.128-5.458,10.352-14.812.5-20.892s-26.049-6.588-36.177-1.131-10.354,14.812-.5,20.894,26.051,6.586,36.182,1.129" transform="translate(-65.117 -18.207)" fill="#e8e7ec"/>
        <path id="Tracé_373" data-name="Tracé 373" d="M110.367,45.657c9.173-4.942,9.376-13.414.454-18.922S87.229,20.77,78.056,25.712,68.678,39.126,77.6,44.634s23.594,5.966,32.767,1.024" transform="translate(-63.745 -17.186)" fill="#eff0f5"/>
      </g>
    </g>
    <g id="Ellipse" transform="translate(-10.17 -54)" fill="none" stroke="#ffae00" stroke-width="2">
      <circle cx="154" cy="154" r="154" stroke="none"/>
      <circle cx="154" cy="154" r="153" fill="none"/>
    </g>
    <g id="Ellipse-2" data-name="Ellipse" transform="translate(-61.17 -105)" fill="none" stroke="#ffae00" stroke-width="2">
      <circle cx="205" cy="205" r="205" stroke="none"/>
      <circle cx="205" cy="205" r="204" fill="none"/>
    </g>
    <g id="Ellipse-3" data-name="Ellipse" transform="translate(-89.17 -133)" fill="none" stroke="#ffae00" stroke-width="2">
      <circle cx="233" cy="233" r="233" stroke="none"/>
      <circle cx="233" cy="233" r="232" fill="none"/>
    </g>
    <g id="onde" transform="translate(-6515.698 -4673.827)">
      <path id="Tracé_588" data-name="Tracé 588" d="M6829.254,4542.185s30.377,5.229,30,32" transform="translate(1.746 -0.557)" fill="none" stroke="#101041" stroke-linecap="round" stroke-width="5"/>
      <path id="Tracé_589" data-name="Tracé 589" d="M6830.528,4524.638s49.1,5.029,49.938,50.561" transform="translate(0 -0.372)" fill="none" stroke="#101041" stroke-linecap="round" stroke-width="5"/>
      <path id="Tracé_590" data-name="Tracé 590" d="M6896.2,4574.827c-4.651-63.967-66.225-68-66.225-68" transform="translate(2.324)" fill="none" stroke="#101041" stroke-linecap="round" stroke-width="5"/>
    </g>
  </g>
</svg>
