<svg xmlns="http://www.w3.org/2000/svg" xmlns:xlink="http://www.w3.org/1999/xlink" width="950" height="560.39" viewBox="0 0 950 560.39">
  <defs>
    <clipPath id="clip-path">
      <path id="Tracé_1084" data-name="Tracé 1084" d="M10.69.1A14.3,14.3,0,0,1,.863,3.786a.827.827,0,0,0-.612.2A.719.719,0,0,0,0,4.523v0c0,.005,0,.01,0,.016.153,6.221-.321,14.617,10.775,21.073a.836.836,0,0,0,.42.112h0a.837.837,0,0,0,.338-.071c2.062-.912,11.424-5.768,11.437-18.719v-.05a29.271,29.271,0,0,0-.183-3.2.77.77,0,0,0-.743-.663C20.167,2.93,14.76,2.458,11.5.181A.975.975,0,0,0,10.977,0a.4.4,0,0,0-.287.1" transform="translate(0 0.001)" fill="none" stroke="rgba(0,0,0,0)" stroke-width="1"/>
    </clipPath>
  </defs>
  <g id="schema" transform="translate(340.037 -50.382)">
    <g id="schéma_explicatif" data-name="schéma explicatif" transform="translate(-50.037 50.772)">
      <g id="maison" transform="translate(241.166 86.091)">
        <path id="Tracé_91" data-name="Tracé 91" d="M188.982,118.811H134.374V80.355l27.3-32.686,27.3,32.686Z" transform="translate(-134.374 -47.669)" fill="#fff" stroke="#000" stroke-width="0.5"/>
        <rect id="Rectangle" width="74.181" height="38.456" transform="translate(54.606 32.685)" fill="#fff" stroke="#000" stroke-width="0.5"/>
        <path id="Tracé_93" data-name="Tracé 93" d="M223.522,47.669l27.3,32.686H176.646l-27.3-32.686Z" transform="translate(-122.039 -47.669)" fill="#00273d"/>
        <rect id="Rectangle-2" data-name="Rectangle" width="16.346" height="22.651" transform="translate(19.131 35.571)" fill="#0088a2" stroke="#000" stroke-width="1"/>
        <rect id="Rectangle-3" data-name="Rectangle" width="9.411" height="13.041" transform="translate(87.852 44.683)" fill="#00a0bb" stroke="#000" stroke-width="0.5"/>
        <rect id="Rectangle-4" data-name="Rectangle" width="9.411" height="13.041" transform="translate(65.924 44.683)" fill="#00a0bb" stroke="#000" stroke-width="0.5"/>
        <rect id="Rectangle-5" data-name="Rectangle" width="9.411" height="13.041" transform="translate(109.783 44.683)" fill="#00a0bb" stroke="#000" stroke-width="0.5"/>
      </g>
      <g id="maison-2" data-name="maison" transform="translate(159.697 0)">
        <path id="Tracé_91-2" data-name="Tracé 91" d="M188.982,118.811H134.374V80.355l27.3-32.686,27.3,32.686Z" transform="translate(-134.374 -47.669)" fill="#fff" stroke="#000" stroke-width="0.5"/>
        <rect id="Rectangle-6" data-name="Rectangle" width="74.181" height="38.456" transform="translate(54.606 32.685)" fill="#fff" stroke="#000" stroke-width="0.5"/>
        <path id="Tracé_93-2" data-name="Tracé 93" d="M223.522,47.669l27.3,32.686H176.646l-27.3-32.686Z" transform="translate(-122.039 -47.669)" fill="#00273d"/>
        <rect id="Rectangle-7" data-name="Rectangle" width="16.346" height="22.651" transform="translate(19.131 35.571)" fill="#0088a2" stroke="#000" stroke-width="1"/>
        <rect id="Rectangle-8" data-name="Rectangle" width="9.411" height="13.041" transform="translate(87.852 44.683)" fill="#00a0bb" stroke="#000" stroke-width="0.5"/>
        <rect id="Rectangle-9" data-name="Rectangle" width="9.411" height="13.041" transform="translate(65.924 44.683)" fill="#00a0bb" stroke="#000" stroke-width="0.5"/>
        <rect id="Rectangle-10" data-name="Rectangle" width="9.411" height="13.041" transform="translate(109.783 44.683)" fill="#00a0bb" stroke="#000" stroke-width="0.5"/>
      </g>
      <g id="boitier" transform="translate(20.359 374.408)">
        <path id="Tracé_85" data-name="Tracé 85" d="M13.223,229.944l-.292,41.146a6.682,6.682,0,0,0,4.086,5.836l50.191,17.509a37.191,37.191,0,0,0,21.3.584q26.263-9.191,52.528-18.384a6.147,6.147,0,0,0,1.873-2.705,6.015,6.015,0,0,0,.317-2.22q.071-19.425.142-38.846a6.048,6.048,0,0,0-3.209-7q-28.307-9.643-56.612-19.289a29.233,29.233,0,0,0-14.249.784L18.072,225.947a6.195,6.195,0,0,0-4.849,4" transform="translate(-12.931 -206.02)" fill="#3f8fb9"/>
        <path id="Tracé_86" data-name="Tracé 86" d="M16.179,233.18a3.384,3.384,0,0,1-2.6-3.4c.057-1.591-.339-2.663,1.231-2.935,17.352-6.171,35.3-13.036,52.648-19.205,1.746-.794,5.653-1.437,9.422-1.593a22.745,22.745,0,0,1,9.648,1.726c17.406,6.133,35.7,11.959,53.111,18.092a4.684,4.684,0,0,1,2.908,3.024c.37,1.4-1.022,3.059-1.195,3.492q-26.974,9.29-53.949,18.581a33.491,33.491,0,0,1-21.3-.584q-24.958-8.6-49.919-17.2" transform="translate(-12.405 -206.026)" fill="#ecf6fb"/>
      </g>
      <text id="Noeud_de_Raccordement_Optique_" data-name="Noeud de
Raccordement 
Optique " transform="translate(85.376 503)" font-size="20" font-family="Avenir-500, Avenir" font-weight="800"><tspan x="-46" y="0">Noeud de</tspan><tspan x="-70" y="25">Raccordement </tspan><tspan x="-41" y="50">Optique </tspan></text>
      <text id="FTTH_Pro" data-name="FTTH Pro" transform="matrix(0.829, 0.559, -0.559, 0.829, 251.967, 390.259)" font-size="24" font-family="Avenir-100, Avenir" font-weight="800"><tspan x="0" y="0">FTTH P</tspan><tspan y="0" letter-spacing="-0.017em">r</tspan><tspan y="0">o</tspan></text>
      <text id="FTTH" transform="translate(46.553 266.958) rotate(31)" font-size="24" font-family="Avenir-100, Avenir" font-weight="800"><tspan x="0" y="0">FTTH</tspan></text>
      <text id="Particuliers" transform="translate(327.554 57.15)" font-size="22" font-family="Avenir-500, Avenir" font-weight="800"><tspan x="0" y="0">Particuliers</tspan></text>
      <text id="Immeubles_d_entreprise" data-name="Immeubles 
d’entreprise" transform="translate(526.383 164.482)" font-size="23" font-family="Avenir-500, Avenir" font-weight="800"><tspan x="0" y="0">Immeubles </tspan><tspan x="0" y="32">d’entreprise</tspan></text>
      <text id="_Option_Cyber-sécurité" data-name="*Option 
Cyber-sécurité" transform="translate(618 335.393)" font-size="13" font-family="Avenir-Book, Avenir"><tspan x="-25" y="0">*Option </tspan><tspan x="-41" y="13">Cyber-sécurité</tspan></text>
      <line id="Ligne" x1="94.64" y2="58.806" transform="translate(403.027 395.083)" fill="none" stroke="#ffae00" stroke-linecap="round" stroke-width="2"/>
      <line id="Ligne-2" data-name="Ligne" y1="112.098" x2="163.553" transform="translate(261.471 247.821)" fill="none" stroke="#ffae00" stroke-linecap="round" stroke-width="2"/>
      <line id="Ligne-3" data-name="Ligne" x1="222.359" y1="133.231" transform="translate(0 202.46)" fill="none" stroke="#101041" stroke-linecap="round" stroke-width="1" stroke-dasharray="10"/>
      <line id="Ligne-4" data-name="Ligne" y1="103.829" x2="154.365" transform="translate(102.542 160.292)" fill="none" stroke="#101041" stroke-width="1" stroke-dasharray="8"/>
      <line id="Ligne-5" data-name="Ligne" x1="181.011" y1="117.611" transform="translate(222.523 336.286)" fill="none" stroke="#ffae00" stroke-linecap="round" stroke-width="2"/>
      <line id="Ligne-6" data-name="Ligne" y1="124.043" x2="185.605" transform="translate(0 78.795)" fill="none" stroke="#101041" stroke-width="1" stroke-dasharray="8"/>
      <line id="Ligne-7" data-name="Ligne" x1="86.371" y2="55.13" transform="translate(136.542 336.399)" fill="none" stroke="#ffae00" stroke-linecap="round" stroke-width="2"/>
      <g id="Ellipse" transform="translate(521.494 242.088)" fill="#fff" stroke="#1dc76c" stroke-width="2">
        <circle cx="43" cy="43" r="43" stroke="none"/>
        <circle cx="43" cy="43" r="42" fill="none"/>
      </g>
      <g id="immeuble" transform="matrix(0.999, 0.035, -0.035, 0.999, 480.695, 258.349)">
        <g id="face_2" data-name="face 2" transform="translate(46.606 8.002)">
          <path id="Tracé_858" data-name="Tracé 858" d="M0,131.546V6.671L37.809,0l1.956,120.738Z" transform="translate(0 0)" fill="#fff" stroke="#000" stroke-width="0.5"/>
          <path id="Tracé_859" data-name="Tracé 859" d="M.721,17.025c-.2-2.9-.436-6.178-.635-9.08C-.578,3.366,2.732-.067,5.508,0c2.442.06,5.186,2.845,5.262,6.726.229,2.349.465,4.337.7,6.684" transform="matrix(0.998, 0.07, -0.07, 0.998, 6.922, 112.354)" fill="#abc8ce"/>
          <g id="fenetre" transform="translate(3.752 8.67)">
            <path id="Tracé_860" data-name="Tracé 860" d="M0,6.669,29.343,0V91.7L0,99.736Z" transform="translate(0 0)" fill="#add9e1" stroke="#000" stroke-width="0.5"/>
            <path id="Tracé_862" data-name="Tracé 862" d="M1.672,92.367,0,0" transform="translate(10.259 4.063)" fill="none" stroke="#000" stroke-width="0.5"/>
            <line id="Ligne-8" data-name="Ligne" x1="1.79" y1="91.566" transform="translate(20.1 2.272)" fill="none" stroke="#000" stroke-width="0.5"/>
            <line id="Ligne-9" data-name="Ligne" y1="6.669" x2="29.343" transform="translate(0 21.341)" fill="none" stroke="#000" stroke-width="0.5"/>
            <line id="Ligne-10" data-name="Ligne" y1="6.669" x2="29.343" transform="translate(0 41.347)" fill="none" stroke="#000" stroke-width="0.5"/>
            <line id="Ligne-11" data-name="Ligne" y1="6.669" x2="29.343" transform="translate(0 60.02)" fill="none" stroke="#000" stroke-width="0.5"/>
            <line id="Ligne-12" data-name="Ligne" y1="8.016" x2="29.358" transform="translate(0 76.013)" fill="none" stroke="#000" stroke-width="0.5"/>
          </g>
        </g>
        <g id="face_1" data-name="face 1" transform="translate(0 6.669)">
          <path id="fond_bleu" data-name="fond bleu" d="M0,120.9l46.682,12.09V8L0,0Z" transform="translate(0 0)" fill="#fcfcfc" stroke="#000" stroke-width="0.5"/>
          <g id="fenetre-2" data-name="fenetre" transform="translate(3.334 11.337)">
            <path id="Tracé_855" data-name="Tracé 855" d="M0,0,38.68,5.335l2.668,94.7L2.668,90.7Z" transform="translate(0 0)" fill="none" stroke="#fff" stroke-width="0.5"/>
            <path id="Tracé_854" data-name="Tracé 854" d="M0,0,39.7,5.576,38.68,99.225,0,90.544Z" transform="translate(0 0)" fill="#b6d8e0" stroke="#000" stroke-width="0.5"/>
            <line id="Ligne-13" data-name="Ligne" y2="90.697" transform="translate(8.003 1.334)" fill="none" stroke="#000" stroke-width="0.5"/>
            <path id="Tracé_861" data-name="Tracé 861" d="M.135,0,0,92.132" transform="translate(17.711 2.567)" fill="none" stroke="#000" stroke-width="0.5"/>
            <line id="Ligne-14" data-name="Ligne" y2="93.365" transform="translate(28.15 4.001)" fill="none" stroke="#000" stroke-width="0.5"/>
            <line id="Ligne-15" data-name="Ligne" x2="38.773" y2="4.474" transform="translate(0 22.414)" fill="none" stroke="#000" stroke-width="0.5"/>
            <line id="Ligne-16" data-name="Ligne" x2="38.679" y2="5.777" transform="translate(0 40.906)" fill="none" stroke="#000" stroke-width="0.5"/>
            <line id="Ligne-17" data-name="Ligne" x2="38.773" y2="6.519" transform="translate(0 57.353)" fill="none" stroke="#000" stroke-width="0.5"/>
            <line id="Ligne-18" data-name="Ligne" x2="38.679" y2="6.819" transform="translate(0 74.542)" fill="none" stroke="#000" stroke-width="0.5"/>
          </g>
          <path id="Tracé_856" data-name="Tracé 856" d="M.426,14.5c-.1-2.179-.31-5.576-.41-7.754C-.2,3.344,1.785.553,4.019.078c2.733-.583,6.528,2.154,6.669,6.669-.043,3.345.043,7.148,0,10.493" transform="translate(29.993 113.994)" fill="#abc8ce"/>
          <path id="Tracé_857" data-name="Tracé 857" d="M.405,13.623c-.1-2.179-.289-4.7-.389-6.876C-.2,3.344,1.785.553,4.018.078c2.734-.583,6.529,2.154,6.669,6.669-.041,3.345.041,6.275,0,9.62" transform="translate(11.321 109.992)" fill="#abc8ce"/>
        </g>
        <g id="toit" transform="translate(0 0)">
          <path id="Tracé_851" data-name="Tracé 851" d="M38.23,0,0,6.668l46.14,8L84.37,8Z" transform="translate(0 0)" fill="#fff" stroke="#000" stroke-width="0.5"/>
          <path id="Tracé_852" data-name="Tracé 852" d="M17.294,0,0,4,25.276,9.337l19.955-4Z" transform="translate(19.605 2.694)" fill="#c2e5ee"/>
        </g>
      </g>
      <g id="immeuble-2" data-name="immeuble" transform="matrix(0.999, 0.035, -0.035, 0.999, 412.506, 111.364)">
        <g id="face_2-2" data-name="face 2" transform="translate(46.606 8.002)">
          <path id="Tracé_858-2" data-name="Tracé 858" d="M0,131.546V6.671L37.809,0l1.956,120.738Z" transform="translate(0)" fill="#fff" stroke="#000" stroke-width="0.5"/>
          <path id="Tracé_859-2" data-name="Tracé 859" d="M.721,17.025c-.2-2.9-.436-6.178-.635-9.08C-.578,3.366,2.732-.067,5.508,0c2.442.06,5.186,2.845,5.262,6.726.229,2.349.465,4.337.7,6.684" transform="matrix(0.998, 0.07, -0.07, 0.998, 6.922, 112.354)" fill="#abc8ce"/>
          <g id="fenetre-3" data-name="fenetre" transform="translate(3.752 8.67)">
            <path id="Tracé_860-2" data-name="Tracé 860" d="M0,6.669,29.343,0V91.7L0,99.736Z" transform="translate(0 0)" fill="#add9e1" stroke="#000" stroke-width="0.5"/>
            <path id="Tracé_862-2" data-name="Tracé 862" d="M1.672,92.367,0,0" transform="translate(10.259 4.063)" fill="none" stroke="#000" stroke-width="0.5"/>
            <line id="Ligne-19" data-name="Ligne" x1="1.79" y1="91.566" transform="translate(20.1 2.272)" fill="none" stroke="#000" stroke-width="0.5"/>
            <line id="Ligne-20" data-name="Ligne" y1="6.669" x2="29.343" transform="translate(0 21.341)" fill="none" stroke="#000" stroke-width="0.5"/>
            <line id="Ligne-21" data-name="Ligne" y1="6.669" x2="29.343" transform="translate(0 41.347)" fill="none" stroke="#000" stroke-width="0.5"/>
            <line id="Ligne-22" data-name="Ligne" y1="6.669" x2="29.343" transform="translate(0 60.02)" fill="none" stroke="#000" stroke-width="0.5"/>
            <line id="Ligne-23" data-name="Ligne" y1="8.016" x2="29.358" transform="translate(0 76.013)" fill="none" stroke="#000" stroke-width="0.5"/>
          </g>
        </g>
        <g id="face_1-2" data-name="face 1" transform="translate(0 6.669)">
          <path id="fond_bleu-2" data-name="fond bleu" d="M0,120.9l46.682,12.09V8L0,0Z" transform="translate(0 0)" fill="#fcfcfc" stroke="#000" stroke-width="0.5"/>
          <g id="fenetre-4" data-name="fenetre" transform="translate(3.334 11.337)">
            <path id="Tracé_855-2" data-name="Tracé 855" d="M0,0,38.68,5.335l2.668,94.7L2.668,90.7Z" transform="translate(0 0)" fill="none" stroke="#fff" stroke-width="0.5"/>
            <path id="Tracé_854-2" data-name="Tracé 854" d="M0,0,39.7,5.576,38.68,99.225,0,90.544Z" transform="translate(0 0)" fill="#b6d8e0" stroke="#000" stroke-width="0.5"/>
            <line id="Ligne-24" data-name="Ligne" y2="90.697" transform="translate(8.003 1.334)" fill="none" stroke="#000" stroke-width="0.5"/>
            <path id="Tracé_861-2" data-name="Tracé 861" d="M.135,0,0,92.132" transform="translate(17.711 2.567)" fill="none" stroke="#000" stroke-width="0.5"/>
            <line id="Ligne-25" data-name="Ligne" y2="93.365" transform="translate(28.15 4.001)" fill="none" stroke="#000" stroke-width="0.5"/>
            <line id="Ligne-26" data-name="Ligne" x2="38.773" y2="4.474" transform="translate(0 22.414)" fill="none" stroke="#000" stroke-width="0.5"/>
            <line id="Ligne-27" data-name="Ligne" x2="38.679" y2="5.777" transform="translate(0 40.906)" fill="none" stroke="#000" stroke-width="0.5"/>
            <line id="Ligne-28" data-name="Ligne" x2="38.773" y2="6.519" transform="translate(0 57.353)" fill="none" stroke="#000" stroke-width="0.5"/>
            <line id="Ligne-29" data-name="Ligne" x2="38.679" y2="6.819" transform="translate(0 74.542)" fill="none" stroke="#000" stroke-width="0.5"/>
          </g>
          <path id="Tracé_856-2" data-name="Tracé 856" d="M.426,14.5c-.1-2.179-.31-5.576-.41-7.754C-.2,3.344,1.785.553,4.019.078c2.733-.583,6.528,2.154,6.669,6.669-.043,3.345.043,7.148,0,10.493" transform="translate(29.993 113.994)" fill="#abc8ce"/>
          <path id="Tracé_857-2" data-name="Tracé 857" d="M.405,13.623c-.1-2.179-.289-4.7-.389-6.876C-.2,3.344,1.785.553,4.018.078c2.734-.583,6.529,2.154,6.669,6.669-.041,3.345.041,6.275,0,9.62" transform="translate(11.321 109.992)" fill="#abc8ce"/>
        </g>
        <g id="toit-2" data-name="toit" transform="translate(0 0)">
          <path id="Tracé_851-2" data-name="Tracé 851" d="M38.23,0,0,6.668l46.14,8L84.37,8Z" transform="translate(0 0)" fill="#fff" stroke="#000" stroke-width="0.5"/>
          <path id="Tracé_852-2" data-name="Tracé 852" d="M17.294,0,0,4,25.276,9.337l19.955-4Z" transform="translate(19.605 2.694)" fill="#c2e5ee"/>
        </g>
      </g>
      <g id="cybersécurité_" data-name="cybersécurité " transform="translate(570.487 269.983)">
        <g id="Groupe" transform="translate(0 0)" clip-path="url(#clip-path)">
          <path id="Tracé_1088" data-name="Tracé 1088" d="M0,0,33.617.992l.946,33.226L.946,33.226Z" transform="matrix(0.487, -0.874, 0.874, 0.487, -12.032, 19.632)" fill="#fff"/>
        </g>
        <path id="Tracé_1085" data-name="Tracé 1085" d="M42.227,62.389a.28.28,0,0,1-.143-.039c-4.541-2.705-7.5-5.939-9.048-9.886-1.382-3.526-1.45-7.117-1.509-10.286l-.008-.423a.234.234,0,0,1,.075-.176.274.274,0,0,1,.19-.074,17.069,17.069,0,0,0,10.147-3.749.279.279,0,0,1,.322-.022c3.407,2.107,8.266,2.72,10.859,2.9a.255.255,0,0,1,.244.224c.6,6.4-.826,11.811-4.245,16.084a20.115,20.115,0,0,1-6.764,5.42.279.279,0,0,1-.12.027m.083-.1.019.034-.019-.034a20.033,20.033,0,0,0,6.735-5.4c3.406-4.257,4.829-9.651,4.229-16.032a.175.175,0,0,0-.168-.154c-2.6-.179-7.476-.794-10.9-2.911a.192.192,0,0,0-.222.015,17.16,17.16,0,0,1-10.2,3.768.191.191,0,0,0-.134.051.161.161,0,0,0-.052.121l.008.423c.06,3.162.127,6.747,1.5,10.261,1.541,3.931,4.49,7.152,9.015,9.848a.194.194,0,0,0,.181.008" transform="translate(-31.012 -37.103)" fill="none" stroke="#1dc76c" stroke-width="2"/>
        <g id="Rectangle-11" data-name="Rectangle" transform="translate(6.591 9.111)" fill="#fff" stroke="#1dc76c" stroke-width="1">
          <rect width="9.788" height="8.061" rx="2" stroke="none"/>
          <rect x="0.5" y="0.5" width="8.788" height="7.061" rx="1.5" fill="none"/>
        </g>
        <path id="Union_3" data-name="Union 3" d="M.75,4.606a.5.5,0,0,1-.462-.692L.849,2.569A1.344,1.344,0,0,1,0,1.344,1.394,1.394,0,0,1,1.439,0a1.394,1.394,0,0,1,1.44,1.344A1.344,1.344,0,0,1,2.03,2.569l.56,1.345a.5.5,0,0,1-.462.692Z" transform="translate(10.046 10.84)" fill="#1dc76c"/>
      </g>
    </g>
    <text id="FTTH_-_Fiber_to_the_home_-_Fibre_desservant_plusieurs_abonnés_qui_se_partagent_le_débit." data-name="FTTH
- Fiber to the home -
Fibre desservant plusieurs abonnés qui se partagent le débit." transform="translate(-340.037 50.773)" fill="#3f8fb9" font-size="20" font-family="Avenir-100, Avenir" font-weight="800"><tspan x="0" y="20">FTTH</tspan><tspan font-family="Avenir-500, Avenir" font-style="oblique"><tspan x="0" y="50">- Fiber to the home -</tspan></tspan><tspan fill="#101041" font-family="Avenir-Book, Avenir" font-weight="400"><tspan x="0" y="80">Fibre desservant </tspan><tspan x="0" y="110">plusieurs abonnés qui se </tspan><tspan x="0" y="140">partagent le débit.</tspan></tspan></text>
    <text id="FTTH_Pro_-_Fiber_to_the_home_Pro_-_Métro_Optic_fournit_une_offre_FTTH_PRO_dédiée_aux_entreprises." data-name="FTTH Pro
- Fiber to the home Pro -
Métro Optic fournit une offre FTTH PRO dédiée aux entreprises." transform="translate(-340.037 447.773)" fill="#ffae00" font-size="20" font-family="Avenir-500, Avenir" font-weight="800" font-style="oblique"><tspan x="0" y="20">FTTH Pro</tspan><tspan x="0" y="50">- Fiber to the home Pro -</tspan><tspan fill="#101041" font-family="Avenir-Book, Avenir" font-weight="400" font-style="normal"><tspan x="0" y="80">Métro Optic fournit une </tspan><tspan x="0" y="110">offre FTTH PRO dédiée </tspan><tspan x="0" y="140">aux entreprises.</tspan></tspan></text>
  </g>
</svg>
