<svg xmlns="http://www.w3.org/2000/svg" xmlns:xlink="http://www.w3.org/1999/xlink" width="966.039" height="721" viewBox="0 0 966.039 721">
  <defs>
    <clipPath id="clip-path">
      <path id="Tracé_1084" data-name="Tracé 1084" d="M11.634.112A15.56,15.56,0,0,1,.939,4.121a.9.9,0,0,0-.667.214A.782.782,0,0,0,0,4.922v0c0,.006,0,.011,0,.017.167,6.771-.35,15.908,11.727,22.935a.91.91,0,0,0,.457.122h0a.911.911,0,0,0,.368-.077C14.8,26.929,24.986,21.644,25,7.55V7.5a31.857,31.857,0,0,0-.2-3.48.839.839,0,0,0-.809-.721c-2.043-.1-7.928-.618-11.478-3.1a1.061,1.061,0,0,0-.568-.2.438.438,0,0,0-.312.113" transform="translate(0 0.001)" fill="none" stroke="rgba(0,0,0,0)" stroke-width="1"/>
    </clipPath>
  </defs>
  <g id="Schéma_FTTO" data-name="Schéma FTTO" transform="translate(337.557 -7.35)">
    <path id="Tracé_8801" data-name="Tracé 8801" d="M-2.085-1.213l344,243.3" transform="translate(81.028 393.97)" fill="none" stroke="#036eff" stroke-linecap="square" stroke-width="4"/>
    <g id="option_cyber_sécurité_" data-name="option_cyber_sécurité " transform="translate(-99.033 264.54)">
      <text id="_Option_Cyber-sécurité" data-name="*Option 
Cyber-sécurité" transform="translate(678.515 366.848)" font-size="15" font-family="Avenir-Book, Avenir"><tspan x="-29" y="0">*Option </tspan><tspan x="-48" y="15">Cyber-sécurité</tspan></text>
      <g id="Ellipse" transform="translate(571.515 264.772)" fill="#fff" stroke="#1dc76c" stroke-width="2">
        <circle cx="46.5" cy="46.5" r="46.5" stroke="none"/>
        <circle cx="46.5" cy="46.5" r="45.5" fill="none"/>
      </g>
      <g id="cybersécurité_" data-name="cybersécurité " transform="translate(624.515 294.774)">
        <g id="Groupe" transform="translate(0 -0.001)" clip-path="url(#clip-path)">
          <path id="Tracé_1088" data-name="Tracé 1088" d="M0,0,36.586,1.08,37.616,37.24,1.029,36.161Z" transform="matrix(0.487, -0.874, 0.874, 0.487, -13.095, 21.366)" fill="#fff"/>
        </g>
        <path id="Tracé_1085" data-name="Tracé 1085" d="M43.173,64.571a.305.305,0,0,1-.156-.042c-4.942-2.944-8.163-6.463-9.847-10.759-1.5-3.837-1.578-7.746-1.643-11.194l-.009-.46a.255.255,0,0,1,.082-.192.3.3,0,0,1,.207-.081,18.577,18.577,0,0,0,11.043-4.08.3.3,0,0,1,.351-.024c3.708,2.293,9,2.96,11.818,3.154a.278.278,0,0,1,.265.244c.655,6.965-.9,12.855-4.62,17.505a21.892,21.892,0,0,1-7.361,5.9.3.3,0,0,1-.131.029m.09-.1.021.037-.021-.037a21.8,21.8,0,0,0,7.33-5.875c3.707-4.633,5.256-10.5,4.6-17.448a.191.191,0,0,0-.182-.168c-2.831-.194-8.136-.865-11.861-3.168a.209.209,0,0,0-.242.016,18.676,18.676,0,0,1-11.1,4.1.208.208,0,0,0-.145.056.175.175,0,0,0-.056.132l.009.46c.065,3.442.138,7.343,1.637,11.167,1.677,4.278,4.886,7.784,9.811,10.717a.212.212,0,0,0,.2.009" transform="translate(-30.967 -37.052)" fill="none" stroke="#1dc76c" stroke-width="2"/>
        <g id="Rectangle" transform="translate(7.174 9.915)" fill="#fff" stroke="#1dc76c" stroke-width="1">
          <rect width="10.653" height="8.773" rx="2" stroke="none"/>
          <rect x="0.5" y="0.5" width="9.653" height="7.773" rx="1.5" fill="none"/>
        </g>
        <path id="Union_3" data-name="Union 3" d="M.75,5.013a.5.5,0,0,1-.462-.692L.924,2.8A1.461,1.461,0,0,1,0,1.462,1.517,1.517,0,0,1,1.567,0,1.517,1.517,0,0,1,3.133,1.462,1.461,1.461,0,0,1,2.209,2.8l.636,1.525a.5.5,0,0,1-.462.692Z" transform="translate(10.933 11.796)" fill="#1dc76c"/>
      </g>
    </g>
    <g id="option_cyber_sécurité_2" data-name="option_cyber_sécurité " transform="translate(-164.448 67.54)">
      <text id="_Option_Cyber-sécurité-2" data-name="*Option 
Cyber-sécurité" transform="translate(678.515 366.848)" font-size="15" font-family="Avenir-Book, Avenir"><tspan x="-29" y="0">*Option </tspan><tspan x="-48" y="15">Cyber-sécurité</tspan></text>
      <g id="Ellipse-2" data-name="Ellipse" transform="translate(571.515 264.772)" fill="#fff" stroke="#1dc76c" stroke-width="2">
        <circle cx="46.5" cy="46.5" r="46.5" stroke="none"/>
        <circle cx="46.5" cy="46.5" r="45.5" fill="none"/>
      </g>
      <g id="cybersécurité_2" data-name="cybersécurité " transform="translate(624.515 294.774)">
        <g id="Groupe-2" data-name="Groupe" transform="translate(0 -0.001)" clip-path="url(#clip-path)">
          <path id="Tracé_1088-2" data-name="Tracé 1088" d="M0,0,36.586,1.08,37.616,37.24,1.029,36.161Z" transform="matrix(0.487, -0.874, 0.874, 0.487, -13.095, 21.366)" fill="#fff"/>
        </g>
        <path id="Tracé_1085-2" data-name="Tracé 1085" d="M43.173,64.571a.305.305,0,0,1-.156-.042c-4.942-2.944-8.163-6.463-9.847-10.759-1.5-3.837-1.578-7.746-1.643-11.194l-.009-.46a.255.255,0,0,1,.082-.192.3.3,0,0,1,.207-.081,18.577,18.577,0,0,0,11.043-4.08.3.3,0,0,1,.351-.024c3.708,2.293,9,2.96,11.818,3.154a.278.278,0,0,1,.265.244c.655,6.965-.9,12.855-4.62,17.505a21.892,21.892,0,0,1-7.361,5.9.3.3,0,0,1-.131.029m.09-.1.021.037-.021-.037a21.8,21.8,0,0,0,7.33-5.875c3.707-4.633,5.256-10.5,4.6-17.448a.191.191,0,0,0-.182-.168c-2.831-.194-8.136-.865-11.861-3.168a.209.209,0,0,0-.242.016,18.676,18.676,0,0,1-11.1,4.1.208.208,0,0,0-.145.056.175.175,0,0,0-.056.132l.009.46c.065,3.442.138,7.343,1.637,11.167,1.677,4.278,4.886,7.784,9.811,10.717a.212.212,0,0,0,.2.009" transform="translate(-30.967 -37.052)" fill="none" stroke="#1dc76c" stroke-width="2"/>
        <g id="Rectangle-2" data-name="Rectangle" transform="translate(7.174 9.915)" fill="#fff" stroke="#1dc76c" stroke-width="1">
          <rect width="10.653" height="8.773" rx="2" stroke="none"/>
          <rect x="0.5" y="0.5" width="9.653" height="7.773" rx="1.5" fill="none"/>
        </g>
        <path id="Union_3-2" data-name="Union 3" d="M.75,5.013a.5.5,0,0,1-.462-.692L.924,2.8A1.461,1.461,0,0,1,0,1.462,1.517,1.517,0,0,1,1.567,0,1.517,1.517,0,0,1,3.133,1.462,1.461,1.461,0,0,1,2.209,2.8l.636,1.525a.5.5,0,0,1-.462.692Z" transform="translate(10.933 11.796)" fill="#1dc76c"/>
      </g>
    </g>
    <text id="Immeuble_d_entreprise_" data-name="Immeuble
d’entreprise " transform="translate(541.443 291.35)" font-size="22" font-family="Avenir-Black, Avenir" font-weight="800"><tspan x="-51" y="0">Immeuble</tspan><tspan x="-66" y="25">d’entreprise </tspan></text>
    <line id="Ligne" x1="74" y2="53" transform="translate(313.443 467.35)" fill="none" stroke="#036eff" stroke-linecap="square" stroke-width="4"/>
    <g id="immeuble" transform="matrix(0.999, 0.035, -0.035, 0.999, 362.748, 323.349)">
      <g id="face_2" data-name="face 2" transform="translate(50.723 8.709)">
        <path id="Tracé_858" data-name="Tracé 858" d="M0,143.166V7.26L41.149,0l2.128,131.4Z" fill="#fff" stroke="#000" stroke-width="0.5"/>
        <path id="Tracé_859" data-name="Tracé 859" d="M.785,18.529C.568,15.37.31,11.805.094,8.647-.629,3.663,2.974-.073,5.994,0c2.658.065,5.644,3.1,5.727,7.32.25,2.556.506,4.72.757,7.275" transform="matrix(0.998, 0.07, -0.07, 0.998, 7.533, 122.278)" fill="#abc8ce"/>
        <g id="fenetre" transform="translate(4.084 9.435)">
          <path id="Tracé_860" data-name="Tracé 860" d="M0,7.258,31.935,0V99.8L0,108.545Z" transform="translate(0)" fill="#add9e1" stroke="#000" stroke-width="0.5"/>
          <path id="Tracé_862" data-name="Tracé 862" d="M1.819,100.526,0,0" transform="translate(11.165 4.421)" fill="none" stroke="#000" stroke-width="0.5"/>
          <line id="Ligne-2" data-name="Ligne" x1="1.948" y1="99.654" transform="translate(21.876 2.472)" fill="none" stroke="#000" stroke-width="0.5"/>
          <line id="Ligne-3" data-name="Ligne" y1="7.258" x2="31.935" transform="translate(0 23.226)" fill="none" stroke="#000" stroke-width="0.5"/>
          <line id="Ligne-4" data-name="Ligne" y1="7.258" x2="31.935" transform="translate(0 45)" fill="none" stroke="#000" stroke-width="0.5"/>
          <line id="Ligne-5" data-name="Ligne" y1="7.258" x2="31.935" transform="translate(0 65.322)" fill="none" stroke="#000" stroke-width="0.5"/>
          <line id="Ligne-6" data-name="Ligne" y1="8.724" x2="31.951" transform="translate(0 82.727)" fill="none" stroke="#000" stroke-width="0.5"/>
        </g>
      </g>
      <g id="face_1" data-name="face 1" transform="translate(0 7.258)">
        <path id="fond_bleu" data-name="fond bleu" d="M0,131.584l50.806,13.158V8.712L0,0Z" fill="#fcfcfc" stroke="#000" stroke-width="0.5"/>
        <g id="fenetre-2" data-name="fenetre" transform="translate(3.629 12.339)">
          <path id="Tracé_855" data-name="Tracé 855" d="M0,0,42.1,5.806,45,108.87,2.9,98.709Z" transform="translate(0)" fill="none" stroke="#fff" stroke-width="0.5"/>
          <path id="Tracé_854" data-name="Tracé 854" d="M0,0,43.211,6.069,42.1,107.99,0,98.542Z" transform="translate(0)" fill="#b6d8e0" stroke="#000" stroke-width="0.5"/>
          <line id="Ligne-7" data-name="Ligne" y2="98.709" transform="translate(8.71 1.452)" fill="none" stroke="#000" stroke-width="0.5"/>
          <path id="Tracé_861" data-name="Tracé 861" d="M.147,0,0,100.27" transform="translate(19.276 2.794)" fill="none" stroke="#000" stroke-width="0.5"/>
          <line id="Ligne-8" data-name="Ligne" y2="101.612" transform="translate(30.637 4.355)" fill="none" stroke="#000" stroke-width="0.5"/>
          <line id="Ligne-9" data-name="Ligne" x2="42.198" y2="4.869" transform="translate(0 24.394)" fill="none" stroke="#000" stroke-width="0.5"/>
          <line id="Ligne-10" data-name="Ligne" x2="42.096" y2="6.287" transform="translate(0 44.519)" fill="none" stroke="#000" stroke-width="0.5"/>
          <line id="Ligne-11" data-name="Ligne" x2="42.198" y2="7.094" transform="translate(0 62.419)" fill="none" stroke="#000" stroke-width="0.5"/>
          <line id="Ligne-12" data-name="Ligne" x2="42.096" y2="7.421" transform="translate(0 81.127)" fill="none" stroke="#000" stroke-width="0.5"/>
        </g>
        <path id="Tracé_856" data-name="Tracé 856" d="M.464,15.782C.355,13.41.126,9.713.018,7.343-.218,3.64,1.942.6,4.374.085c2.974-.634,7.1,2.344,7.258,7.258-.046,3.641.046,7.779,0,11.42" transform="translate(32.642 124.063)" fill="#abc8ce"/>
        <path id="Tracé_857" data-name="Tracé 857" d="M.441,14.826C.332,12.454.127,9.713.018,7.343-.219,3.64,1.943.6,4.373.085c2.976-.634,7.106,2.344,7.258,7.258-.045,3.641.045,6.83,0,10.47" transform="translate(12.321 119.708)" fill="#abc8ce"/>
      </g>
      <g id="toit" transform="translate(0)">
        <path id="Tracé_851" data-name="Tracé 851" d="M41.607,0,0,7.257l50.215,8.711L91.822,8.708Z" fill="#fff" stroke="#000" stroke-width="0.5"/>
        <path id="Tracé_852" data-name="Tracé 852" d="M18.822,0,0,4.355l27.509,5.806L49.226,5.806Z" transform="translate(21.336 2.931)" fill="#c2e5ee"/>
      </g>
    </g>
    <text id="FTTO" transform="translate(198.594 415.22) rotate(34)" fill="#036eff" font-size="30" font-family="Avenir-Black, Avenir" font-weight="800"><tspan x="0" y="0">FTTO</tspan></text>
    <path id="Tracé_865" data-name="Tracé 865" d="M-2.085-1.213,196.276,135.455" transform="translate(116.443 385.35)" fill="none" stroke="#036eff" stroke-linecap="square" stroke-width="4"/>
    <path id="Union_2" data-name="Union 2" d="M296.5,104.142,152.563,203ZM.555,98.284l-.109.073.109-.073L0,97.9l.554.381L150.5-2.5.555,98.284,152.474,202.8Z" transform="translate(136.443 139.35)" fill="none" stroke="#ffae00" stroke-linecap="round" stroke-width="2"/>
    <g id="immeuble-2" data-name="immeuble" transform="matrix(0.999, 0.035, -0.035, 0.999, 412.748, 98.349)">
      <g id="face_2-2" data-name="face 2" transform="translate(50.723 8.709)">
        <path id="Tracé_858-2" data-name="Tracé 858" d="M0,143.166V7.26L41.149,0l2.128,131.4Z" transform="translate(0 0)" fill="#fff" stroke="#000" stroke-width="0.5"/>
        <path id="Tracé_859-2" data-name="Tracé 859" d="M.785,18.529C.568,15.37.31,11.805.094,8.647-.629,3.663,2.974-.073,5.994,0c2.658.065,5.644,3.1,5.727,7.32.25,2.556.506,4.72.757,7.275" transform="matrix(0.998, 0.07, -0.07, 0.998, 7.533, 122.278)" fill="#abc8ce"/>
        <g id="fenetre-3" data-name="fenetre" transform="translate(4.084 9.435)">
          <path id="Tracé_860-2" data-name="Tracé 860" d="M0,7.258,31.935,0V99.8L0,108.545Z" transform="translate(0 0)" fill="#add9e1" stroke="#000" stroke-width="0.5"/>
          <path id="Tracé_862-2" data-name="Tracé 862" d="M1.819,100.526,0,0" transform="translate(11.165 4.421)" fill="none" stroke="#000" stroke-width="0.5"/>
          <line id="Ligne-13" data-name="Ligne" x1="1.948" y1="99.654" transform="translate(21.876 2.472)" fill="none" stroke="#000" stroke-width="0.5"/>
          <line id="Ligne-14" data-name="Ligne" y1="7.258" x2="31.935" transform="translate(0 23.226)" fill="none" stroke="#000" stroke-width="0.5"/>
          <line id="Ligne-15" data-name="Ligne" y1="7.258" x2="31.935" transform="translate(0 45)" fill="none" stroke="#000" stroke-width="0.5"/>
          <line id="Ligne-16" data-name="Ligne" y1="7.258" x2="31.935" transform="translate(0 65.322)" fill="none" stroke="#000" stroke-width="0.5"/>
          <line id="Ligne-17" data-name="Ligne" y1="8.724" x2="31.951" transform="translate(0 82.727)" fill="none" stroke="#000" stroke-width="0.5"/>
        </g>
      </g>
      <g id="face_1-2" data-name="face 1" transform="translate(0 7.258)">
        <path id="fond_bleu-2" data-name="fond bleu" d="M0,131.584l50.806,13.158V8.712L0,0Z" transform="translate(0)" fill="#fcfcfc" stroke="#000" stroke-width="0.5"/>
        <g id="fenetre-4" data-name="fenetre" transform="translate(3.629 12.339)">
          <path id="Tracé_855-2" data-name="Tracé 855" d="M0,0,42.1,5.806,45,108.87,2.9,98.709Z" transform="translate(0 0)" fill="none" stroke="#fff" stroke-width="0.5"/>
          <path id="Tracé_854-2" data-name="Tracé 854" d="M0,0,43.211,6.069,42.1,107.99,0,98.542Z" transform="translate(0 0)" fill="#b6d8e0" stroke="#000" stroke-width="0.5"/>
          <line id="Ligne-18" data-name="Ligne" y2="98.709" transform="translate(8.71 1.452)" fill="none" stroke="#000" stroke-width="0.5"/>
          <path id="Tracé_861-2" data-name="Tracé 861" d="M.147,0,0,100.27" transform="translate(19.276 2.794)" fill="none" stroke="#000" stroke-width="0.5"/>
          <line id="Ligne-19" data-name="Ligne" y2="101.612" transform="translate(30.637 4.355)" fill="none" stroke="#000" stroke-width="0.5"/>
          <line id="Ligne-20" data-name="Ligne" x2="42.198" y2="4.869" transform="translate(0 24.394)" fill="none" stroke="#000" stroke-width="0.5"/>
          <line id="Ligne-21" data-name="Ligne" x2="42.096" y2="6.287" transform="translate(0 44.519)" fill="none" stroke="#000" stroke-width="0.5"/>
          <line id="Ligne-22" data-name="Ligne" x2="42.198" y2="7.094" transform="translate(0 62.419)" fill="none" stroke="#000" stroke-width="0.5"/>
          <line id="Ligne-23" data-name="Ligne" x2="42.096" y2="7.421" transform="translate(0 81.127)" fill="none" stroke="#000" stroke-width="0.5"/>
        </g>
        <path id="Tracé_856-2" data-name="Tracé 856" d="M.464,15.782C.355,13.41.126,9.713.018,7.343-.218,3.64,1.942.6,4.374.085c2.974-.634,7.1,2.344,7.258,7.258-.046,3.641.046,7.779,0,11.42" transform="translate(32.642 124.063)" fill="#abc8ce"/>
        <path id="Tracé_857-2" data-name="Tracé 857" d="M.441,14.826C.332,12.454.127,9.713.018,7.343-.219,3.64,1.943.6,4.373.085c2.976-.634,7.106,2.344,7.258,7.258-.045,3.641.045,6.83,0,10.47" transform="translate(12.321 119.708)" fill="#abc8ce"/>
      </g>
      <g id="toit-2" data-name="toit" transform="translate(0 0)">
        <path id="Tracé_851-2" data-name="Tracé 851" d="M41.607,0,0,7.257l50.215,8.711L91.822,8.708Z" fill="#fff" stroke="#000" stroke-width="0.5"/>
        <path id="Tracé_852-2" data-name="Tracé 852" d="M18.822,0,0,4.355l27.509,5.806L49.226,5.806Z" transform="translate(21.336 2.931)" fill="#c2e5ee"/>
      </g>
    </g>
    <text id="Immeuble_d_entreprise_2" data-name="Immeuble
d’entreprise " transform="translate(541.443 59.35)" font-size="22" font-family="Avenir-Black, Avenir" font-weight="800"><tspan x="-51" y="0">Immeuble</tspan><tspan x="-66" y="25">d’entreprise </tspan></text>
    <g id="maison" transform="translate(225.443 60.35)">
      <path id="Tracé_543" data-name="Tracé 543" d="M333.228,137.972H273.8V96.35l29.714-35.377L333.227,96.35Z" transform="translate(-273.797 -60.972)" fill="#fff"/>
      <path id="Tracé_544" data-name="Tracé 544" d="M333.228,137.972H273.8V96.35l29.714-35.377L333.227,96.35Z" transform="translate(-273.797 -60.972)" fill="none" stroke="#000" stroke-width="0.5"/>
      <rect id="Rectangle-3" data-name="Rectangle" width="80.733" height="41.853" transform="translate(59.266 35.146)" fill="#fff"/>
      <rect id="Rectangle-4" data-name="Rectangle" width="80.733" height="41.853" transform="translate(59.266 35.146)" fill="none" stroke="#000" stroke-width="0.5"/>
      <path id="Tracé_545" data-name="Tracé 545" d="M384.245,60.972l29.716,35.573H333.228L303.512,60.972Z" transform="translate(-273.961 -60.972)" fill="#00273d"/>
      <rect id="Rectangle-5" data-name="Rectangle" width="17.79" height="24.652" transform="translate(20.821 38.4)" fill="#0088a2"/>
      <rect id="Rectangle-6" data-name="Rectangle" width="17.79" height="24.652" transform="translate(20.821 38.4)" fill="none" stroke="#000" stroke-width="1"/>
      <rect id="Rectangle-7" data-name="Rectangle" width="10.242" height="14.193" transform="translate(95.491 48.302)" fill="#00a0bb"/>
      <rect id="Rectangle-8" data-name="Rectangle" width="10.242" height="14.193" transform="translate(95.491 48.302)" fill="none" stroke="#000" stroke-width="0.5"/>
      <rect id="Rectangle-9" data-name="Rectangle" width="10.242" height="14.193" transform="translate(71.656 48.302)" fill="#00a0bb"/>
      <rect id="Rectangle-10" data-name="Rectangle" width="10.242" height="14.193" transform="translate(71.656 48.302)" fill="none" stroke="#000" stroke-width="0.5"/>
      <rect id="Rectangle-11" data-name="Rectangle" width="10.242" height="14.193" transform="translate(119.316 48.302)" fill="#00a0bb"/>
      <rect id="Rectangle-12" data-name="Rectangle" width="10.242" height="14.193" transform="translate(119.316 48.302)" fill="none" stroke="#000" stroke-width="0.5"/>
    </g>
    <text id="Auto-entrepreneur" transform="translate(198.443 29.35)" font-size="22" font-family="Avenir-Black, Avenir" font-weight="800"><tspan x="0" y="0">Auto-entrepreneur</tspan></text>
    <text id="FTTH_Pro" data-name="FTTH Pro" transform="matrix(0.819, 0.574, -0.574, 0.819, 188.458, 255.732)" fill="#ffae00" font-size="20" font-family="Avenir-Black, Avenir" font-weight="800"><tspan x="0" y="0">FTTH Pro</tspan></text>
    <line id="Ligne-24" data-name="Ligne" x1="61.629" y2="35.102" transform="translate(135.123 279.415)" fill="none" stroke="#ffae00" stroke-linecap="round" stroke-width="2"/>
    <text id="FTTO_-_Fiber_to_the_office_-_Fibre_100_dédiée_à_l_entreprise_offrant_un_débit_et_des_services_garantis." data-name="FTTO
- Fiber to the office -
Fibre 100% dédiée à l’entreprise offrant un débit et des services garantis." transform="translate(-337.557 345.35)" fill="#036eff" font-size="20" font-family="Avenir-Black, Avenir" font-weight="800"><tspan x="0" y="20">FTTO</tspan><tspan font-family="Avenir-HeavyOblique, Avenir" font-style="oblique"><tspan x="0" y="50">- Fiber to the office -</tspan></tspan><tspan fill="#101041" font-family="Avenir-Book, Avenir" font-weight="400"><tspan x="0" y="80">Fibre 100% dédiée à </tspan><tspan x="0" y="110">l’entreprise offrant un débit </tspan><tspan x="0" y="140">et des services garantis.</tspan></tspan></text>
    <text id="FTTH_Pro_-_Fiber_to_the_home_pro_-_Fibre_desservant_plusieurs_entreprises_et_entrepreneurs." data-name="FTTH Pro
- Fiber to the home pro -
Fibre desservant plusieurs entreprises et entrepreneurs." transform="translate(-337.557 48.35)" fill="#ffae00" font-size="20" font-family="Avenir-Black, Avenir" font-weight="800"><tspan x="0" y="20">FTTH Pro</tspan><tspan font-family="Avenir-HeavyOblique, Avenir" font-style="oblique"><tspan x="0" y="50">- Fiber to the home pro -</tspan></tspan><tspan fill="#101041" font-family="Avenir-Book, Avenir" font-weight="400"><tspan x="0" y="80">Fibre desservant plusieurs </tspan><tspan x="0" y="110">entreprises et </tspan><tspan x="0" y="140">entrepreneurs.</tspan></tspan></text>
    <text id="Noeud_de_Raccordement_Optique_" data-name="Noeud de
Raccordement
Optique " transform="translate(7.443 228.35)" font-size="20" font-family="Avenir-Black, Avenir" font-weight="800"><tspan x="-47" y="0">Noeud de</tspan><tspan x="-67" y="25">Raccordement</tspan><tspan x="-42" y="50">Optique </tspan></text>
    <text id="Routeur_4G_Back-up" data-name="Routeur 4G
Back-up" transform="translate(373.442 709.35)" fill="#101041" font-size="12" font-family="Avenir-Heavy, Avenir" font-weight="800"><tspan x="-32" y="0">Routeur 4G</tspan><tspan x="-22" y="15">Back-up</tspan></text>
    <line id="Ligne-25" data-name="Ligne" x1="204.5" transform="translate(156.443 665.85)" fill="none" stroke="#101041" stroke-linecap="round" stroke-width="3" stroke-dasharray="7"/>
    <line id="Ligne-26" data-name="Ligne" x1="81" transform="translate(35.943 665.85)" fill="none" stroke="#101041" stroke-linecap="round" stroke-width="3"/>
    <line id="Ligne-27" data-name="Ligne" x1="50" transform="translate(399.943 665.85)" fill="none" stroke="#101041" stroke-linecap="round" stroke-width="3"/>
    <g id="routeur_4G" data-name="routeur 4G" transform="translate(110.943 602.581)">
      <path id="Tracé_394" data-name="Tracé 394" d="M3292.038,9627.453l25.529-78.484,27.225,78.484-27.225-11.187Z" transform="translate(-3290.08 -9520.916)" fill="none" stroke="#101041" stroke-width="2"/>
      <line id="Ligne-28" data-name="Ligne" x2="20" y2="19" transform="translate(21.42 47.553)" fill="none" stroke="#101041" stroke-width="2"/>
      <line id="Ligne-29" data-name="Ligne" x1="20" y2="19" transform="translate(14.42 47.553)" fill="none" stroke="#101041" stroke-width="2"/>
      <line id="Ligne-30" data-name="Ligne" x1="33" y1="19" transform="translate(14.42 66.553)" fill="none" stroke="#101041" stroke-width="2"/>
      <line id="Ligne-31" data-name="Ligne" y1="19" x2="33" transform="translate(8.42 66.553)" fill="none" stroke="#101041" stroke-width="2"/>
      <line id="Ligne-32" data-name="Ligne" x1="20" y1="9" transform="translate(8.42 85.553)" fill="none" stroke="#101041" stroke-width="2"/>
      <line id="Ligne-33" data-name="Ligne" x1="19" y2="9" transform="translate(28.42 85.553)" fill="none" stroke="#101041" stroke-width="2"/>
      <g id="Ellipse_27" data-name="Ellipse 27" transform="translate(17.92 8.053)" fill="none" stroke="#101041" stroke-width="3">
        <circle cx="10" cy="10" r="10" stroke="none"/>
        <circle cx="10" cy="10" r="8.5" fill="none"/>
      </g>
      <path id="Tracé_395" data-name="Tracé 395" d="M3337.5,9522.947s18.742,18.879,0,40.478" transform="translate(-3290.08 -9522.947)" fill="none" stroke="#101041" stroke-width="2"/>
      <path id="Tracé_396" data-name="Tracé 396" d="M3331.5,9529.957s12.221,15.357-1.42,27.424" transform="translate(-3290.08 -9522.947)" fill="none" stroke="#101041" stroke-width="2"/>
      <path id="Tracé_397" data-name="Tracé 397" d="M3345.83,9522.947s-18.742,18.879,0,40.478" transform="translate(-3337.5 -9522.947)" fill="none" stroke="#101041" stroke-width="2"/>
      <path id="Tracé_398" data-name="Tracé 398" d="M3335.114,9529.957s-12.221,15.357,1.42,27.424" transform="translate(-3320.784 -9522.947)" fill="none" stroke="#101041" stroke-width="2"/>
    </g>
    <line id="Ligne-34" data-name="Ligne" y2="287" transform="translate(35.943 378.85)" fill="none" stroke="#101041" stroke-width="3"/>
    <g id="_4G" data-name="4G" transform="translate(-749.445 285.818)">
      <path id="Tracé_377" data-name="Tracé 377" d="M1149.8,372.142a30,30,0,1,1-30-30,30,30,0,0,1,30,30" transform="translate(3.088 4.389)" fill="#fff" stroke="#101041" stroke-width="1"/>
      <g id="routeur_4G-2" data-name="routeur 4G" transform="translate(1104.889 359.564)">
        <g id="routeur_4G-3" data-name="routeur 4G">
          <rect id="Rectangle-13" data-name="Rectangle" width="36.867" height="33.515" rx="5" fill="none" stroke="#101041" stroke-width="1"/>
          <path id="Tracé_393" data-name="Tracé 393" d="M1153.829,383.385c0,1.157-1.876,2.095-4.189,2.095s-4.189-.938-4.189-2.095,1.876-2.095,4.189-2.095,4.189.938,4.189,2.095" transform="translate(-1121.989 -376.681)" fill="#101041"/>
          <line id="Ligne-35" data-name="Ligne" x2="14.342" transform="translate(5.027 6.703)" fill="none" stroke="#101041" stroke-width="1"/>
        </g>
        <text id="_4G-2" data-name="4G" transform="translate(15.189 22.703)" fill="#101041" font-size="16" font-family="Avenir-Black, Avenir" font-weight="800"><tspan x="-10" y="0">4G</tspan></text>
      </g>
    </g>
    <g id="onde" transform="matrix(0.545, -0.839, 0.839, 0.545, 310.443, 644.961)">
      <path id="Tracé_588" data-name="Tracé 588" d="M6838.755,4542.185s-9.621,1.656-9.5,10.134" transform="translate(-6817.906 -4531.7)" fill="none" stroke="#101041" stroke-linecap="round" stroke-width="2"/>
      <path id="Tracé_589" data-name="Tracé 589" d="M6846.344,4524.638s-15.552,1.593-15.816,16.013" transform="translate(-6825.344 -4519.652)" fill="none" stroke="#101041" stroke-linecap="round" stroke-width="2"/>
      <path id="Tracé_590" data-name="Tracé 590" d="M6829.979,4527.827c1.435-19.754,20.437-21,20.437-21" transform="translate(-6829.98 -4506.828)" fill="none" stroke="#101041" stroke-linecap="round" stroke-width="2"/>
    </g>
    <g id="immeuble-3" data-name="immeuble" transform="matrix(0.999, 0.035, -0.035, 0.999, 428.163, 520.35)">
      <g id="face_2-3" data-name="face 2" transform="translate(50.723 8.709)">
        <path id="Tracé_858-3" data-name="Tracé 858" d="M0,143.166V7.26L41.149,0l2.128,131.4Z" fill="#fff" stroke="#000" stroke-width="0.5"/>
        <path id="Tracé_859-3" data-name="Tracé 859" d="M.785,18.529C.568,15.37.31,11.805.094,8.647-.629,3.663,2.974-.073,5.994,0c2.658.065,5.644,3.1,5.727,7.32.25,2.556.506,4.72.757,7.275" transform="matrix(0.998, 0.07, -0.07, 0.998, 7.533, 122.278)" fill="#abc8ce"/>
        <g id="fenetre-5" data-name="fenetre" transform="translate(4.084 9.435)">
          <path id="Tracé_860-3" data-name="Tracé 860" d="M0,7.258,31.935,0V99.8L0,108.545Z" transform="translate(0)" fill="#add9e1" stroke="#000" stroke-width="0.5"/>
          <path id="Tracé_862-3" data-name="Tracé 862" d="M1.819,100.526,0,0" transform="translate(11.165 4.421)" fill="none" stroke="#000" stroke-width="0.5"/>
          <line id="Ligne-36" data-name="Ligne" x1="1.948" y1="99.654" transform="translate(21.876 2.472)" fill="none" stroke="#000" stroke-width="0.5"/>
          <line id="Ligne-37" data-name="Ligne" y1="7.258" x2="31.935" transform="translate(0 23.226)" fill="none" stroke="#000" stroke-width="0.5"/>
          <line id="Ligne-38" data-name="Ligne" y1="7.258" x2="31.935" transform="translate(0 45)" fill="none" stroke="#000" stroke-width="0.5"/>
          <line id="Ligne-39" data-name="Ligne" y1="7.258" x2="31.935" transform="translate(0 65.322)" fill="none" stroke="#000" stroke-width="0.5"/>
          <line id="Ligne-40" data-name="Ligne" y1="8.724" x2="31.951" transform="translate(0 82.727)" fill="none" stroke="#000" stroke-width="0.5"/>
        </g>
      </g>
      <g id="face_1-3" data-name="face 1" transform="translate(0 7.258)">
        <path id="fond_bleu-3" data-name="fond bleu" d="M0,131.584l50.806,13.158V8.712L0,0Z" fill="#fcfcfc" stroke="#000" stroke-width="0.5"/>
        <g id="fenetre-6" data-name="fenetre" transform="translate(3.629 12.339)">
          <path id="Tracé_855-3" data-name="Tracé 855" d="M0,0,42.1,5.806,45,108.87,2.9,98.709Z" transform="translate(0)" fill="none" stroke="#fff" stroke-width="0.5"/>
          <path id="Tracé_854-3" data-name="Tracé 854" d="M0,0,43.211,6.069,42.1,107.99,0,98.542Z" transform="translate(0)" fill="#b6d8e0" stroke="#000" stroke-width="0.5"/>
          <line id="Ligne-41" data-name="Ligne" y2="98.709" transform="translate(8.71 1.452)" fill="none" stroke="#000" stroke-width="0.5"/>
          <path id="Tracé_861-3" data-name="Tracé 861" d="M.147,0,0,100.27" transform="translate(19.276 2.794)" fill="none" stroke="#000" stroke-width="0.5"/>
          <line id="Ligne-42" data-name="Ligne" y2="101.612" transform="translate(30.637 4.355)" fill="none" stroke="#000" stroke-width="0.5"/>
          <line id="Ligne-43" data-name="Ligne" x2="42.198" y2="4.869" transform="translate(0 24.394)" fill="none" stroke="#000" stroke-width="0.5"/>
          <line id="Ligne-44" data-name="Ligne" x2="42.096" y2="6.287" transform="translate(0 44.519)" fill="none" stroke="#000" stroke-width="0.5"/>
          <line id="Ligne-45" data-name="Ligne" x2="42.198" y2="7.094" transform="translate(0 62.419)" fill="none" stroke="#000" stroke-width="0.5"/>
          <line id="Ligne-46" data-name="Ligne" x2="42.096" y2="7.421" transform="translate(0 81.127)" fill="none" stroke="#000" stroke-width="0.5"/>
        </g>
        <path id="Tracé_856-3" data-name="Tracé 856" d="M.464,15.782C.355,13.41.126,9.713.018,7.343-.218,3.64,1.942.6,4.374.085c2.974-.634,7.1,2.344,7.258,7.258-.046,3.641.046,7.779,0,11.42" transform="translate(32.642 124.063)" fill="#abc8ce"/>
        <path id="Tracé_857-3" data-name="Tracé 857" d="M.441,14.826C.332,12.454.127,9.713.018,7.343-.219,3.64,1.943.6,4.373.085c2.976-.634,7.106,2.344,7.258,7.258-.045,3.641.045,6.83,0,10.47" transform="translate(12.321 119.708)" fill="#abc8ce"/>
      </g>
      <g id="toit-3" data-name="toit" transform="translate(0)">
        <path id="Tracé_851-3" data-name="Tracé 851" d="M41.607,0,0,7.257l50.215,8.711L91.822,8.708Z" fill="#fff" stroke="#000" stroke-width="0.5"/>
        <path id="Tracé_852-3" data-name="Tracé 852" d="M18.822,0,0,4.355l27.509,5.806L49.226,5.806Z" transform="translate(21.336 2.931)" fill="#c2e5ee"/>
      </g>
    </g>
    <g id="raccordement_" data-name="raccordement " transform="translate(-49.24 -0.575)">
      <path id="Tracé_546" data-name="Tracé 546" d="M58.146,319.118l-2.134,44.615a7.256,7.256,0,0,0,4.16,6.51l53.484,21.216a40.109,40.109,0,0,0,23,1.577q28.8-8.8,57.6-17.61a6.675,6.675,0,0,0,2.145-2.851,6.565,6.565,0,0,0,.44-2.394q.935-21.065,1.871-42.126a6.572,6.572,0,0,0-3.159-7.74q-30.175-11.714-60.35-23.432a31.525,31.525,0,0,0-15.438.219L63.565,315a6.705,6.705,0,0,0-5.418,4.12" transform="translate(0.67 -0.105)" fill="#3f8fb9"/>
      <path id="Tracé_547" data-name="Tracé 547" d="M61.785,322.846a3.68,3.68,0,0,1-2.663-3.813c.131-1.727-.25-2.912,1.46-3.136,19.027-5.939,38.73-12.606,57.758-18.542,1.922-.786,6.175-1.311,10.254-1.313a24.5,24.5,0,0,1,10.353,2.306c18.543,7.443,38.065,14.592,56.606,22.035a5.086,5.086,0,0,1,3.01,3.418c.335,1.538-1.24,3.281-1.445,3.744l-59.135,17.806a36.03,36.03,0,0,1-23-1.581q-26.6-10.462-53.2-20.92" transform="translate(0.673 -0.093)" fill="#ecf6fb"/>
    </g>
  </g>
</svg>
