<svg xmlns="http://www.w3.org/2000/svg" width="71.431" height="67.625" viewBox="0 0 71.431 67.625">
  <g id="securite_entreprise" data-name="securite entreprise" transform="translate(-1823.456 1915)">
    <g id="Ellipse_10" data-name="Ellipse 10" transform="translate(1828.42 -1915)" fill="#fff" stroke="#101041" stroke-width="1.5">
      <circle cx="31.891" cy="31.891" r="31.891" stroke="none"/>
      <circle cx="31.891" cy="31.891" r="31.141" fill="none"/>
    </g>
    <g id="immeuble" transform="translate(1845.198 -1902.187)">
      <g id="Rectangle" transform="translate(0)" fill="none" stroke="#101041" stroke-width="0.5">
        <rect width="18.993" height="2.228" stroke="none"/>
        <rect x="0.25" y="0.25" width="18.493" height="1.728" fill="none"/>
      </g>
      <g id="Rectangle-2" data-name="Rectangle" transform="translate(0.586 1.993)" fill="none" stroke="#101041" stroke-width="0.5">
        <rect width="17.938" height="36.58" stroke="none"/>
        <rect x="0.25" y="0.25" width="17.438" height="36.08" fill="none"/>
      </g>
      <g id="Rectangle-3" data-name="Rectangle" transform="translate(2.345 3.869)" fill="#b2cede" stroke="#101041" stroke-width="0.25">
        <rect width="3.986" height="3.517" stroke="none"/>
        <rect x="0.125" y="0.125" width="3.736" height="3.267" fill="none"/>
      </g>
      <g id="Rectangle-4" data-name="Rectangle" transform="translate(2.345 9.145)" fill="#b2cede" stroke="#101041" stroke-width="0.25">
        <rect width="3.986" height="3.517" stroke="none"/>
        <rect x="0.125" y="0.125" width="3.736" height="3.267" fill="none"/>
      </g>
      <g id="Rectangle-5" data-name="Rectangle" transform="translate(2.345 14.773)" fill="#b2cede" stroke="#101041" stroke-width="0.25">
        <rect width="3.986" height="3.517" stroke="none"/>
        <rect x="0.125" y="0.125" width="3.736" height="3.267" fill="none"/>
      </g>
      <g id="Rectangle-6" data-name="Rectangle" transform="translate(2.345 20.049)" fill="#b2cede" stroke="#101041" stroke-width="0.25">
        <rect width="3.986" height="3.517" stroke="none"/>
        <rect x="0.125" y="0.125" width="3.736" height="3.267" fill="none"/>
      </g>
      <g id="Rectangle-7" data-name="Rectangle" transform="translate(2.345 25.676)" fill="#b2cede" stroke="#101041" stroke-width="0.25">
        <rect width="3.986" height="3.517" stroke="none"/>
        <rect x="0.125" y="0.125" width="3.736" height="3.267" fill="none"/>
      </g>
      <g id="Rectangle-8" data-name="Rectangle" transform="translate(2.345 31.421)" fill="#abcfe0" stroke="#101041" stroke-width="0.25">
        <rect width="3.986" height="3.517" stroke="none"/>
        <rect x="0.125" y="0.125" width="3.736" height="3.267" fill="none"/>
      </g>
      <g id="Rectangle-9" data-name="Rectangle" transform="translate(7.621 3.869)" fill="#b2cede" stroke="#101041" stroke-width="0.25">
        <rect width="3.986" height="3.517" stroke="none"/>
        <rect x="0.125" y="0.125" width="3.736" height="3.267" fill="none"/>
      </g>
      <g id="Rectangle-10" data-name="Rectangle" transform="translate(7.621 9.145)" fill="#b2cede" stroke="#101041" stroke-width="0.25">
        <rect width="3.986" height="3.517" stroke="none"/>
        <rect x="0.125" y="0.125" width="3.736" height="3.267" fill="none"/>
      </g>
      <g id="Rectangle-11" data-name="Rectangle" transform="translate(7.621 14.773)" fill="#b2cede" stroke="#101041" stroke-width="0.25">
        <rect width="3.986" height="3.517" stroke="none"/>
        <rect x="0.125" y="0.125" width="3.736" height="3.267" fill="none"/>
      </g>
      <g id="Rectangle-12" data-name="Rectangle" transform="translate(7.621 20.049)" fill="#b2cede" stroke="#101041" stroke-width="0.25">
        <rect width="3.986" height="3.517" stroke="none"/>
        <rect x="0.125" y="0.125" width="3.736" height="3.267" fill="none"/>
      </g>
      <g id="Rectangle-13" data-name="Rectangle" transform="translate(7.621 25.676)" fill="#b2cede" stroke="#101041" stroke-width="0.25">
        <rect width="3.986" height="3.517" stroke="none"/>
        <rect x="0.125" y="0.125" width="3.736" height="3.267" fill="none"/>
      </g>
      <g id="Rectangle-14" data-name="Rectangle" transform="translate(12.779 3.869)" fill="#b2cede" stroke="#101041" stroke-width="0.25">
        <rect width="3.986" height="3.517" stroke="none"/>
        <rect x="0.125" y="0.125" width="3.736" height="3.267" fill="none"/>
      </g>
      <g id="Rectangle-15" data-name="Rectangle" transform="translate(12.779 9.145)" fill="#b2cede" stroke="#101041" stroke-width="0.25">
        <rect width="3.986" height="3.517" stroke="none"/>
        <rect x="0.125" y="0.125" width="3.736" height="3.267" fill="none"/>
      </g>
      <g id="Rectangle-16" data-name="Rectangle" transform="translate(12.779 14.773)" fill="#b2cede" stroke="#101041" stroke-width="0.25">
        <rect width="3.986" height="3.517" stroke="none"/>
        <rect x="0.125" y="0.125" width="3.736" height="3.267" fill="none"/>
      </g>
      <g id="Rectangle-17" data-name="Rectangle" transform="translate(12.779 20.049)" fill="#b2cede" stroke="#101041" stroke-width="0.25">
        <rect width="3.986" height="3.517" stroke="none"/>
        <rect x="0.125" y="0.125" width="3.736" height="3.267" fill="none"/>
      </g>
      <g id="Rectangle-18" data-name="Rectangle" transform="translate(12.779 25.676)" fill="#b2cede" stroke="#101041" stroke-width="0.25">
        <rect width="3.986" height="3.517" stroke="none"/>
        <rect x="0.125" y="0.125" width="3.736" height="3.267" fill="none"/>
      </g>
      <g id="Rectangle-19" data-name="Rectangle" transform="translate(12.779 31.421)" fill="#b2cede" stroke="#101041" stroke-width="0.25">
        <rect width="3.986" height="3.517" stroke="none"/>
        <rect x="0.125" y="0.125" width="3.736" height="3.267" fill="none"/>
      </g>
      <g id="Rectangle-20" data-name="Rectangle" transform="translate(6.8 32.242)" fill="#747e85" stroke="#101041" stroke-width="0.25">
        <rect width="5.628" height="5.51" stroke="none"/>
        <rect x="0.125" y="0.125" width="5.378" height="5.26" fill="none"/>
      </g>
      <path id="Tracé_72" data-name="Tracé 72" d="M0,0V5.235" transform="translate(9.614 32.359)" fill="none" stroke="#101041" stroke-width="0.25"/>
    </g>
    <g id="sécurité" transform="translate(1859.503 -1892.683)">
      <path id="Tracé_67" data-name="Tracé 67" d="M2134.481-1712.751c1.845-.214,3.93.249,8.236-3.391.122-.073,2.062,3.391,7.906,3.391.144.005.854,10.773-7.906,14.41C2142.645-1698.312,2134.5-1700.612,2134.481-1712.751Z" transform="translate(-2134.481 1716.144)" fill="#fff" stroke="#101041" stroke-width="1"/>
      <g id="coche" transform="translate(4.457 6.641)">
        <line id="Ligne_34" data-name="Ligne 34" x2="2.931" y2="2.931" transform="translate(0 1.524)" fill="none" stroke="#101041" stroke-linecap="round" stroke-width="1"/>
        <line id="Ligne_35" data-name="Ligne 35" x1="4.455" y2="4.455" transform="translate(3.048)" fill="none" stroke="#101041" stroke-linecap="round" stroke-width="1"/>
      </g>
    </g>
    <path id="Tracé_69" data-name="Tracé 69" d="M1963.618-1894.514a4.992,4.992,0,0,1,1.779-1.2" transform="translate(-123.023 -17.028)" fill="none" stroke="#101041" stroke-linecap="round" stroke-width="1"/>
    <path id="Tracé_70" data-name="Tracé 70" d="M2397.048-1774.842s2.906,6.249,3.24,11.843" transform="translate(-505.929 -123.82)" fill="none" stroke="#101041" stroke-linecap="round" stroke-width="1"/>
    <path id="Tracé_71" data-name="Tracé 71" d="M2092.2-1362.664s10,1.389,18.469-2.637" transform="translate(-236.672 -485.568)" fill="none" stroke="#101041" stroke-linecap="round" stroke-width="1"/>
    <path id="Tracé_73" data-name="Tracé 73" d="M0,2.637S10,4.026,18.469,0" transform="matrix(-0.616, 0.788, -0.788, -0.616, 1837.989, -1906.239)" fill="none" stroke="#101041" stroke-linecap="round" stroke-width="1"/>
  </g>
</svg>
