<svg xmlns="http://www.w3.org/2000/svg" width="55" height="75" viewBox="0 0 55 75">
  <g id="service_client" data-name="service client" transform="translate(12.436)">
    <path id="Tracé" d="M197.085,308.219a74.347,74.347,0,0,1-12.39-5.034l-5.253.5-5.253-.5a74.346,74.346,0,0,1-12.39,5.034c-7.692,2.434-10.709,12.076-9.653,21.259,0,0,7.317,6.784,26.43,7.175v.018c.292,0,.579,0,.866,0s.574,0,.866,0v-.018c19.113-.391,26.43-7.175,26.43-7.175C207.793,320.3,204.777,310.654,197.085,308.219Z" transform="translate(-164.378 -261.671)" fill="#3f8fb9"/>
    <path id="Tracé-2" data-name="Tracé" d="M214.234,362.6c-.781,1.192-.065-4.5-.39-7.48a116.775,116.775,0,0,1-1.9,15.121q.745-.278,1.407-.557a78.669,78.669,0,0,0,2.318-11.453A18.122,18.122,0,0,1,214.234,362.6Zm-43.138,0a18.122,18.122,0,0,1-1.431-4.369,80.338,80.338,0,0,0,2.476,12.025q.645.24,1.352.475a115.348,115.348,0,0,1-2.006-15.612C171.161,358.1,171.877,363.8,171.1,362.6Z" transform="translate(-176.945 -298.499)" fill="#101041" opacity="0.5"/>
    <path id="Tracé-3" data-name="Tracé" d="M237.756,271.493l-6.566-.657-6.566.657s1.094,6.238-.657,11.053c0,0,2.189,2.736,7.223,2.736s7.223-2.736,7.223-2.736C236.662,277.731,237.756,271.493,237.756,271.493Z" transform="translate(-215.852 -239.264)" fill="#f4cda2"/>
    <path id="Tracé-4" data-name="Tracé" d="M239.356,271.493l-6.566-.657-6.566.657a28.73,28.73,0,0,1,.337,4.505,13.4,13.4,0,0,0,2.581,2.906,8.286,8.286,0,0,0,9.047,0,11.076,11.076,0,0,0,.913-.84A29.093,29.093,0,0,1,239.356,271.493Z" transform="translate(-217.453 -239.264)" fill="#f4cda2" style="mix-blend-mode: multiply;isolation: isolate"/>
    <path id="Tracé-5" data-name="Tracé" d="M220.859,190.526c-6.648,0-11,5.39-11,12.038,0,4.986,2.447,12.173,6.475,15.455a8.285,8.285,0,0,0,9.047,0c4.028-3.282,6.475-10.469,6.475-15.455C231.858,195.916,227.508,190.526,220.859,190.526Z" transform="translate(-205.85 -182.319)" fill="#f4cda2"/>
    <path id="Tracé-6" data-name="Tracé" d="M236.576,191.939c0-2.13-3.455-3.857-7.715-3.857s-7.715,1.727-7.715,3.857,3.455,3.858,7.715,3.858S236.576,194.07,236.576,191.939Z" transform="translate(-213.851 -180.586)" fill="#101041"/>
    <path id="Tracé-7" data-name="Tracé" d="M214.326,197.548s-5.506,2.417-5.257,11.919a19.933,19.933,0,0,1-.981-7.652c.246-4.514,4.97-7.56,4.97-7.56Z" transform="translate(-204.57 -184.963)" fill="#101041"/>
    <path id="Tracé-8" data-name="Tracé" d="M265.721,197.548s5.506,2.417,5.256,11.919a19.925,19.925,0,0,0,.981-7.652c-.246-4.514-4.97-7.56-4.97-7.56Z" transform="translate(-245.459 -184.963)" fill="#101041"/>
    <path id="Tracé-9" data-name="Tracé" d="M217.161,185s-.452-2.754,3.487-4.678c5.88-2.873,14.985.575,16.414,9.94C237.061,190.262,227.307,183.277,217.161,185Z" transform="translate(-211.015 -174.386)" fill="#101041"/>
    <path id="Tracé-10" data-name="Tracé" d="M211.708,193.665s-1.346-1.082-3.612,1.323-.888,8.874-.888,8.874,2.858-8.718,6.223-9.125-2.183-1.072-2.183-1.072" transform="translate(-203.675 -184.372)" fill="#101041"/>
    <path id="Tracé-11" data-name="Tracé" d="M264.332,193.665s1.346-1.082,3.612,1.323.888,8.874.888,8.874-2.858-8.718-6.223-9.125,2.183-1.072,2.183-1.072" transform="translate(-242.483 -184.372)" fill="#101041"/>
    <path id="Tracé-12" data-name="Tracé" d="M285.243,234.291c-.338,3.064-3.213,5.261-4.745,5.092s-1.14-2.64-.8-5.7.493-5.561,2.025-5.392S285.581,231.227,285.243,234.291Z" transform="translate(-255.149 -209.088)" fill="#01063d"/>
    <path id="Tracé-13" data-name="Tracé" d="M281.009,233.679c.274-2.489.429-4.6,1.3-5.219a1.942,1.942,0,0,0-.586-.173c-1.532-.169-1.688,2.328-2.025,5.392s-.729,5.535.8,5.7a2.2,2.2,0,0,0,.906-.122C280.359,238.706,280.706,236.433,281.009,233.679Z" transform="translate(-255.149 -209.088)" fill="#fff"/>
    <path id="Tracé-14" data-name="Tracé" d="M196.108,234.291c.338,3.064,3.213,5.261,4.745,5.092s1.14-2.64.8-5.7-.493-5.561-2.025-5.392S195.771,231.227,196.108,234.291Z" transform="translate(-196.075 -209.088)" fill="#01063d"/>
    <path id="Tracé-15" data-name="Tracé" d="M208.892,233.679c-.337-3.064-.493-5.561-2.025-5.392a1.941,1.941,0,0,0-.586.173c.87.616,1.024,2.73,1.3,5.219.3,2.754.649,5.027-.4,5.582a2.2,2.2,0,0,0,.905.122C209.622,239.214,209.23,236.743,208.892,233.679Z" transform="translate(-203.312 -209.088)" fill="#fff"/>
    <path id="Tracé-16" data-name="Tracé" d="M226.813,185.825l-.937-.3c.029-.09,2.88-9.065-1.1-14.545-2.068-2.847-5.646-4.29-10.633-4.29s-8.568,1.444-10.635,4.293c-3.983,5.486-1.128,14.452-1.1,14.542l-.936.3c-.126-.387-3.036-9.537,1.238-15.425,2.263-3.118,6.11-4.7,11.432-4.7s9.169,1.581,11.432,4.7C229.849,176.288,226.938,185.438,226.813,185.825Z" transform="translate(-199.133 -164.715)" fill="#01063d"/>
    <path id="Tracé-17" data-name="Tracé" d="M210.161,168.435a1.478,1.478,0,0,1-1.013-2.553c2.513-2.367,6.172-3.567,10.877-3.567,4.61,0,8.218,1.153,10.725,3.427a1.477,1.477,0,1,1-1.985,2.189c-1.946-1.765-4.887-2.661-8.739-2.661-3.927,0-6.9.93-8.851,2.763A1.471,1.471,0,0,1,210.161,168.435Z" transform="translate(-205.015 -162.315)" fill="#ffae00"/>
    <path id="Tracé-18" data-name="Tracé" d="M251.8,265.1v-.657c4.642,0,8.084-1.189,9.952-3.438a5.944,5.944,0,0,0,1.429-3.352l.657.01a6.544,6.544,0,0,1-1.581,3.761C260.868,263.1,257.922,265.1,251.8,265.1Z" transform="translate(-235.59 -229.916)" fill="#01063d"/>
    <path id="Tracé-19" data-name="Tracé" d="M247.043,278.544c0,.725-.955,1.313-2.134,1.313s-2.134-.588-2.134-1.313.955-1.314,2.134-1.314S247.043,277.818,247.043,278.544Z" transform="translate(-229.189 -243.798)" fill="#01063d"/>
  </g>
</svg>
