<svg xmlns="http://www.w3.org/2000/svg" width="16" height="16" viewBox="0 0 16 16">
  <path id="telephone" d="M21.39,18.031a.774.774,0,0,0-.408-.558l-3.277-1.931-.027-.015a.972.972,0,0,0-.443-.1,1.019,1.019,0,0,0-.719.286l-.967.968a.564.564,0,0,1-.217.1c-.011,0-1.125-.081-3.176-2.133s-2.134-3.165-2.135-3.165a.516.516,0,0,1,.1-.233l.825-.825a1.052,1.052,0,0,0,.205-1.148L9.328,5.845A.752.752,0,0,0,8.653,5.4.776.776,0,0,0,8.1,5.64L5.857,7.883a1.727,1.727,0,0,0-.442.891c-.02.144-.418,3.588,4.3,8.31,4.008,4.008,7.132,4.319,7.995,4.319a2.445,2.445,0,0,0,.314-.017,1.722,1.722,0,0,0,.89-.44L21.161,18.7a.774.774,0,0,0,.229-.67Z" transform="translate(-5.399 -5.404)" fill="#fff"/>
</svg>
