<svg xmlns="http://www.w3.org/2000/svg" width="31" height="31" viewBox="0 0 31 31">
  <g id="user-avatar-filled-alt" transform="translate(-2.25 -2.25)">
    <path id="Tracé_1" data-name="Tracé 1" d="M17.75,2.25a15.5,15.5,0,1,0,15.5,15.5A15.5,15.5,0,0,0,17.75,2.25Zm8.857,25.375v-.673a5.767,5.767,0,0,0-5.536-5.88H14.429A5.757,5.757,0,0,0,8.9,26.951c0,.012-.011.025-.011.036v.648a13.292,13.292,0,1,1,17.714-.011Z" transform="translate(0 0)"/>
    <path id="Tracé_2" data-name="Tracé 2" d="M18,7.875A5.625,5.625,0,1,0,23.625,13.5,5.625,5.625,0,0,0,18,7.875Z" transform="translate(-0.25 -0.139)"/>
  </g>
</svg>
